<svg width="32" height="30" viewBox="0 0 32 30" fill="none" xmlns="http://www.w3.org/2000/svg">
<g clip-path="url(#clip0)">
<path d="M16 0C7.18 0 0 5.73648 0 12.7869C0 19.1012 5.69313 24.3919 13.38 25.3977C13.9013 25.506 14.6106 25.7371 14.7906 26.1724C14.9506 26.5674 14.8963 27.1782 14.8413 27.5904L14.6225 28.9288C14.5625 29.3238 14.3025 30.4849 16.0212 29.7756C17.7425 29.0688 25.2425 24.4225 28.6025 20.62C30.9013 18.1412 32 15.602 32 12.7869C32 5.73648 24.82 0 16 0ZM9.7375 16.9795H6.55625C6.09625 16.9795 5.71625 16.6053 5.71625 16.1541V9.89117C5.71625 9.43871 6.09625 9.0639 6.55625 9.0639C7.02 9.0639 7.39625 9.4381 7.39625 9.89117V15.3268H9.7375C10.2013 15.3268 10.5763 15.6986 10.5763 16.1541C10.5763 16.6047 10.2 16.9795 9.7375 16.9795ZM13.0256 16.1535C13.0256 16.6047 12.6494 16.9789 12.1844 16.9789C11.7244 16.9789 11.3481 16.6047 11.3481 16.1535V9.89117C11.3481 9.43871 11.7244 9.0639 12.1881 9.0639C12.6494 9.0639 13.0256 9.4381 13.0256 9.89117V16.1535ZM20.68 16.1535C20.68 16.5081 20.4481 16.8224 20.1038 16.9361C20.0181 16.9636 19.9263 16.9765 19.8381 16.9765C19.5569 16.9765 19.3169 16.8578 19.1581 16.6475L15.9006 12.2935V16.1516C15.9006 16.6029 15.5287 16.9771 15.0594 16.9771C14.5981 16.9771 14.225 16.6029 14.225 16.1516V9.89056C14.225 9.53593 14.4556 9.22165 14.7981 9.10914C14.8781 9.07918 14.9794 9.06634 15.0569 9.06634C15.3169 9.06634 15.5569 9.20331 15.7169 9.40019L19 13.7719V9.89117C19 9.43871 19.3763 9.0639 19.84 9.0639C20.3 9.0639 20.68 9.4381 20.68 9.89117V16.1535ZM25.82 12.1951C26.2856 12.1951 26.66 12.5693 26.66 13.0235C26.66 13.476 26.2856 13.8508 25.82 13.8508H23.48V15.3274H25.82C26.2856 15.3274 26.66 15.6992 26.66 16.1547C26.66 16.6059 26.2856 16.9801 25.82 16.9801H22.6388C22.1788 16.9801 21.8025 16.6059 21.8025 16.1547V9.89117C21.8025 9.43871 22.1787 9.0639 22.6425 9.0639H25.8237C26.285 9.0639 26.66 9.4381 26.66 9.89117C26.66 10.3491 26.2856 10.7184 25.82 10.7184H23.48V12.1951H25.82V12.1951Z" fill="white"/>
</g>
<defs>
<clipPath id="clip0">
<rect width="32" height="30" fill="white"/>
</clipPath>
</defs>
</svg>
