<svg width="32" height="33" viewBox="0 0 32 33" fill="none" xmlns="http://www.w3.org/2000/svg">
<path d="M27.8666 2.75H4.13329C3.74431 2.75 3.37126 2.90935 3.0962 3.193C2.82115 3.47665 2.66663 3.86136 2.66663 4.2625V28.7375C2.66663 28.9361 2.70456 29.1328 2.77827 29.3163C2.85198 29.4998 2.96001 29.6666 3.0962 29.807C3.2324 29.9475 3.39408 30.0589 3.57202 30.1349C3.74997 30.2109 3.94069 30.25 4.13329 30.25H16.9066V19.5938H13.44V15.4688H16.9066V12.375C16.8348 11.6487 16.918 10.9149 17.1502 10.2252C17.3825 9.53555 17.7583 8.90663 18.2512 8.38257C18.7442 7.85851 19.3423 7.45201 20.0037 7.19158C20.6651 6.93115 21.3738 6.8231 22.08 6.875C23.1177 6.86841 24.155 6.92351 25.1866 7.04V10.7525H23.0666C21.3866 10.7525 21.0666 11.5775 21.0666 12.7738V15.4275H25.0666L24.5466 19.5525H21.0666V30.25H27.8666C28.0592 30.25 28.25 30.2109 28.4279 30.1349C28.6058 30.0589 28.7675 29.9475 28.9037 29.807C29.0399 29.6666 29.1479 29.4998 29.2216 29.3163C29.2954 29.1328 29.3333 28.9361 29.3333 28.7375V4.2625C29.3333 4.06388 29.2954 3.8672 29.2216 3.68369C29.1479 3.50019 29.0399 3.33345 28.9037 3.193C28.7675 3.05255 28.6058 2.94114 28.4279 2.86513C28.25 2.78912 28.0592 2.75 27.8666 2.75Z" fill="white"/>
</svg>
