<?xml version="1.0" encoding="utf-8"?>
<!-- Generator: Adobe Illustrator 28.0.0, SVG Export Plug-In . SVG Version: 6.00 Build 0)  -->
<svg version="1.1" id="圖層_1" xmlns="http://www.w3.org/2000/svg" xmlns:xlink="http://www.w3.org/1999/xlink" x="0px" y="0px"
	 viewBox="0 0 47.9 55.4" style="enable-background:new 0 0 47.9 55.4;" xml:space="preserve">
<style type="text/css">
	.st0{fill:#FFFFFF;}
</style>
<path class="st0" d="M36.9,25.3l-0.3-0.2h-0.2c-0.6-7.6-5-12.1-12.3-12.2c-4.5,0-8.2,1.9-10.4,5.3l-0.4,0.6l5.1,3.4l0.4-0.6
	c1.5-2.2,3.7-2.7,5.4-2.7s3.7,0.6,4.6,1.7c0.6,0.7,1,1.6,1.3,2.5c-2.1-0.3-4-0.3-5.7-0.2c-7.1,0.4-11.7,4.6-11.4,10.5
	c0.1,2.9,1.6,5.6,4.1,7.2c2.1,1.4,4.7,2,7.7,1.9c3.7-0.2,6.7-1.7,8.6-4.3c1.4-1.7,2.3-3.9,2.8-6.5c1.1,0.8,1.9,1.8,2.4,2.9
	c1.1,2.4,1.1,6.5-2.2,9.9c-3.3,3.4-6.5,4.3-12.2,4.4c-6.1,0-10.7-2-13.8-5.8c-2.8-3.6-4.3-9-4.3-15.5s1.5-11.9,4.3-15.5
	c2.9-3.8,7.6-5.7,13.8-5.8c6.1,0,10.8,2,14,5.8c1.6,2,2.7,4.3,3.5,7l0.2,0.7l6-1.6l-0.2-0.7c-1.1-3.7-2.6-6.8-4.6-9.4
	C38.7,2.7,32.4,0,24.3,0S10,2.8,5.7,8.2C1.9,13,0,19.5,0,27.7s1.9,14.7,5.7,19.5c4.2,5.3,10.5,8.1,18.6,8.2c7.1,0,12.2-1.9,16.5-6.1
	c5.5-5.5,5.4-12.5,3.6-16.8c-1.4-3.1-3.9-5.6-7.3-7.3L36.9,25.3z M30.2,29.9c-0.7,5.7-3.2,6.7-5.9,6.8c-1.7,0.1-3.4-0.3-4.3-1.2
	c-0.6-0.5-0.9-1.2-1-2.1c-0.1-2.2,2-3.7,5.6-3.9h1.6C27.5,29.5,28.9,29.6,30.2,29.9L30.2,29.9z"/>
</svg>
