<svg width="32" height="28" viewBox="0 0 32 28" fill="none" xmlns="http://www.w3.org/2000/svg">
<path d="M28.2266 2.40331C27.2709 2.25927 26.3031 2.18512 25.3333 2.18165C22.0244 2.17927 18.7846 3.00948 16 4.57331C13.2081 3.03001 9.96882 2.22018 6.66662 2.23998C5.69681 2.24346 4.72902 2.3176 3.77328 2.46165C3.46023 2.50887 3.17672 2.65235 2.97383 2.86624C2.77094 3.08013 2.662 3.35038 2.66662 3.62831V17.6283C2.66376 17.7997 2.70412 17.9696 2.78482 18.1258C2.86552 18.2821 2.98457 18.4208 3.13351 18.5322C3.28246 18.6436 3.45763 18.7249 3.64656 18.7703C3.83549 18.8157 4.03354 18.8241 4.22662 18.795C6.13731 18.5055 8.09489 18.5535 9.98404 18.9362C11.8732 19.3189 13.6557 20.0286 15.2266 21.0233L15.3866 21.105H15.5333C15.6812 21.1589 15.8398 21.1866 16 21.1866C16.1601 21.1866 16.3187 21.1589 16.4666 21.105H16.6133L16.7733 21.0233C18.3332 20.0063 20.1106 19.2737 22.0001 18.8689C23.8897 18.4641 25.8528 18.3953 27.7733 18.6666C27.9664 18.6958 28.1644 18.6874 28.3533 18.642C28.5423 18.5965 28.7174 18.5152 28.8664 18.4039C29.0153 18.2925 29.1344 18.1537 29.2151 17.9975C29.2958 17.8413 29.3361 17.6714 29.3333 17.5V3.49998C29.3194 3.23416 29.2021 2.98047 29.0008 2.78101C28.7995 2.58154 28.5264 2.44827 28.2266 2.40331ZM14.6666 17.9083C12.1998 16.7728 9.45397 16.1801 6.66662 16.1816C6.22662 16.1816 5.78662 16.1816 5.33328 16.1816V4.51498C5.77736 4.49259 6.22254 4.49259 6.66662 4.51498C9.51113 4.51223 12.2936 5.24262 14.6666 6.61498V17.9083ZM26.6666 16.2283C26.2133 16.2283 25.7733 16.2283 25.3333 16.2283C22.5459 16.2268 19.8001 16.8195 17.3333 17.955V6.61498C19.7063 5.24262 22.4888 4.51223 25.3333 4.51498C25.7774 4.49259 26.2225 4.49259 26.6666 4.51498V16.2283ZM28.2266 21.07C27.2709 20.9259 26.3031 20.8518 25.3333 20.8483C22.0244 20.8459 18.7846 21.6762 16 23.24C13.2153 21.6762 9.97546 20.8459 6.66662 20.8483C5.69681 20.8518 4.72902 20.9259 3.77328 21.07C3.59972 21.0941 3.43331 21.148 3.28363 21.2285C3.13395 21.3091 3.00395 21.4148 2.90111 21.5395C2.79826 21.6641 2.7246 21.8054 2.68436 21.9551C2.64411 22.1048 2.63808 22.2599 2.66662 22.4116C2.73437 22.7146 2.9366 22.9817 3.229 23.1545C3.5214 23.3272 3.88014 23.3915 4.22662 23.3333C6.13731 23.0438 8.09489 23.0919 9.98404 23.4746C11.8732 23.8573 13.6557 24.5669 15.2266 25.5617C15.4524 25.7023 15.7227 25.7779 16 25.7779C16.2772 25.7779 16.5475 25.7023 16.7733 25.5617C18.3442 24.5669 20.1267 23.8573 22.0159 23.4746C23.905 23.0919 25.8626 23.0438 27.7733 23.3333C28.1198 23.3915 28.4785 23.3272 28.7709 23.1545C29.0633 22.9817 29.2655 22.7146 29.3333 22.4116C29.3618 22.2599 29.3558 22.1048 29.3155 21.9551C29.2753 21.8054 29.2016 21.6641 29.0988 21.5395C28.9959 21.4148 28.8659 21.3091 28.7163 21.2285C28.5666 21.148 28.4002 21.0941 28.2266 21.07V21.07Z" fill="white"/>
<path d="M4.24487 17.1427V3.71409C10.5143 2.79987 14.6939 5.04745 16 6.28552C18.8734 3.77123 25.034 3.52361 27.7551 3.71409V17.1427C23.8367 15.9998 18.2857 18.3808 16 19.7141C14.6939 18.5712 7.61902 17.5236 4.24487 17.1427Z" fill="white"/>
</svg>
