<?xml version="1.0" encoding="utf-8"?>
<!-- Generator: Adobe Illustrator 28.0.0, SVG Export Plug-In . SVG Version: 6.00 Build 0)  -->
<svg version="1.1" id="圖層_1" xmlns="http://www.w3.org/2000/svg" xmlns:xlink="http://www.w3.org/1999/xlink" x="0px" y="0px"
	 viewBox="0 0 8.7 8.7" style="enable-background:new 0 0 8.7 8.7;" xml:space="preserve">
<style type="text/css">
	.st0{fill:#FFFFFF;}
</style>
<g>
	<g>
		<path class="st0" d="M6.3,8.7h-4C1.1,8.7,0,7.6,0,6.3v-4C0,1.1,1.1,0,2.4,0h4c1.3,0,2.4,1.1,2.4,2.4v4C8.7,7.6,7.6,8.7,6.3,8.7z
			 M2.4,0.7c-0.9,0-1.6,0.7-1.6,1.6v4C0.7,7.2,1.5,8,2.4,8h4C7.2,8,8,7.2,8,6.3v-4c0-0.9-0.7-1.6-1.6-1.6L2.4,0.7L2.4,0.7z"/>
	</g>
	<g>
		<path class="st0" d="M4.3,6.5c-1.2,0-2.2-1-2.2-2.2c0-1.2,1-2.2,2.2-2.2s2.2,1,2.2,2.2C6.5,5.5,5.5,6.5,4.3,6.5z M4.3,2.9
			c-0.8,0-1.4,0.6-1.4,1.4c0,0.8,0.6,1.4,1.4,1.4s1.4-0.6,1.4-1.4C5.8,3.5,5.1,2.9,4.3,2.9z"/>
	</g>
	<g>
		<circle class="st0" cx="6.7" cy="2" r="0.5"/>
	</g>
</g>
</svg>
