<svg width="32" height="33" viewBox="0 0 32 33" fill="none" xmlns="http://www.w3.org/2000/svg">
<path d="M31.6812 9.9001C31.6812 9.9001 31.3688 7.6249 30.4062 6.62588C29.1875 5.31104 27.825 5.30459 27.2 5.22725C22.725 4.89209 16.0063 4.89209 16.0063 4.89209H15.9937C15.9937 4.89209 9.275 4.89209 4.8 5.22725C4.175 5.30459 2.8125 5.31104 1.59375 6.62588C0.63125 7.6249 0.325 9.9001 0.325 9.9001C0.325 9.9001 0 12.5749 0 15.2433V17.744C0 20.4124 0.31875 23.0872 0.31875 23.0872C0.31875 23.0872 0.63125 25.3624 1.5875 26.3614C2.80625 27.6763 4.40625 27.6312 5.11875 27.7729C7.68125 28.0243 16 28.1017 16 28.1017C16 28.1017 22.725 28.0888 27.2 27.7601C27.825 27.6827 29.1875 27.6763 30.4062 26.3614C31.3688 25.3624 31.6812 23.0872 31.6812 23.0872C31.6812 23.0872 32 20.4188 32 17.744V15.2433C32 12.5749 31.6812 9.9001 31.6812 9.9001ZM12.6938 20.7798V11.505L21.3375 16.1585L12.6938 20.7798Z" fill="white"/>
</svg>
