<?xml version="1.0" encoding="utf-8"?>
<!-- Generator: Adobe Illustrator 24.0.2, SVG Export Plug-In . SVG Version: 6.00 Build 0)  -->
<svg version="1.1" id="圖層_1" xmlns="http://www.w3.org/2000/svg" xmlns:xlink="http://www.w3.org/1999/xlink" x="0px" y="0px"
	 viewBox="0 0 42 42" style="enable-background:new 0 0 42 42;" xml:space="preserve">
<style type="text/css">
	.st0{fill:#FFFFFF;}
</style>
<path class="st0" d="M39,15.1c0,0,0-0.1,0-0.1c0-8.3-7.1-15-15.9-15h-4.2C10.1,0,3,6.7,3,15c0,0,0,0.1,0,0.1c-1.8,0.5-3,2-3,3.9v5
	c0,2.2,1.8,4,4,4h2c0,7.7,6.3,14,14,14h2c6.6,0,11.8-4.5,12.9-8.7c1.2-0.5,2.2-1.3,3.1-2.3c0.7-0.9,1.1-2,1.1-3.2
	c1.7-0.5,2.9-2,2.9-3.8v-5C42,17.2,40.8,15.6,39,15.1z M18.9,2h4.2C30.8,2,37,7.8,37,15h-1.2c-1-5.8-6-10-11.8-10h-6
	C12.1,5,7.2,9.2,6.2,15H5C5,7.8,11.2,2,18.9,2z M34,17H21.1c-2.5,0-4.6-1.8-5.1-4.2c-0.1-0.6-0.5-1-1.1-0.9c-0.6,0.1-1,0.5-0.9,1.1
	c0,1.1-0.9,2-2,2H8.2c1-4.7,5-8,9.8-8h6C29.5,7,34,11.5,34,17z M4,26c-1.1,0-2-0.9-2-2v-5c0-1.1,0.9-2,2-2h2v9H4z M25.8,33
	c-0.4-1.2-1.5-2-2.8-2h-4c-1.7,0-3,1.3-3,3s1.3,3,3,3h4c1.3,0,2.4-0.8,2.8-2c2.2,0,4.5-0.3,6.7-0.8c-1.6,3-5.6,5.8-10.5,5.8h-2
	c-6.6,0-12-5.4-12-12V17h4c1.1,0,2.2-0.5,3-1.4c1.3,2.1,3.6,3.4,6.1,3.4H34v8c0,0.6,0.4,1,1,1h2.1c0,0.7-0.3,1.3-0.7,1.8
	C35.3,31.2,32.6,32.9,25.8,33z M24,34c0,0.6-0.4,1-1,1h-4c-0.6,0-1-0.4-1-1s0.4-1,1-1h4C23.6,33,24,33.4,24,34z M40,24
	c0,1.1-0.9,2-2,2h-2v-9h2c1.1,0,2,0.9,2,2V24z"/>
</svg>
