<?xml version="1.0" encoding="utf-8"?>
<!-- Generator: Adobe Illustrator 24.0.2, SVG Export Plug-In . SVG Version: 6.00 Build 0)  -->
<svg version="1.1" id="圖層_1" xmlns="http://www.w3.org/2000/svg" xmlns:xlink="http://www.w3.org/1999/xlink" x="0px" y="0px"
	 viewBox="0 0 261.9 199.4" style="enable-background:new 0 0 261.9 199.4;" xml:space="preserve">
<style type="text/css">
	.st0{fill:#B2DAE4;}
	.st1{opacity:0.55;fill:#8FC7D5;}
	.st2{fill:#79C1DD;}
	.st3{fill:#D6EDF6;}
	.st4{fill:#167BB4;}
	.st5{fill:#FFFFFF;}
	.st6{fill:#F6BA50;}
	.st7{fill:#096388;}
	.st8{fill:#04536A;}
	.st9{fill:#EF8A3F;}
	.st10{fill:#E26E22;}
	.st11{fill:none;}
	.st12{fill:#E6A63E;}
	.st13{opacity:0.29;fill:#EF8A31;}
	.st14{fill:#49ABCA;}
	.st15{fill:#F39A53;}
	.st16{fill:#EC7B32;}
	.st17{opacity:0.55;fill:url(#SVGID_1_);}
</style>
<g>
	<g>
		<path class="st0" d="M254.1,199.4c4.2,0,7.7-3.4,7.7-7.6c0.3-21,2-52-37.5-60.6c-32-6.9-13-63.8-99.3-60.2
			c-61.9,2.6-45.5,54.8-93.6,59.2c-32,2.9-32.3,43.4-31.1,61.9c0.3,4.1,3.6,7.2,7.7,7.2H254.1z"/>
		<g>
			<path class="st1" d="M224.3,131.2c-32-6.9-13-63.8-99.3-60.2c-14.7,0.6-25,4.1-32.8,9c2.6-0.3,5.4-0.6,8.4-0.7
				c86.2-3.7,67.2,53.2,99.3,60.2c39.1,8.5,37.9,38.9,37.6,59.9h16.7c4.2,0,7.7-3.4,7.7-7.6C262.1,170.8,263.8,139.8,224.3,131.2z"
				/>
		</g>
		<g>
			<rect x="87.2" class="st2" width="1.4" height="60"/>
			<rect x="184.8" class="st2" width="1.4" height="75.3"/>
			<g>
				<path class="st3" d="M186,68.6L84.8,56.8c-4.3-0.5-8.2,2.6-8.7,6.9l-7.6,64.7c-0.5,4.3,2.6,8.2,6.9,8.7L176.6,149
					c4.3,0.5,8.2-2.6,8.7-6.9l7.6-64.7C193.4,73,190.3,69.1,186,68.6z"/>
				<path class="st4" d="M192.2,83.8l0.7-6.4c0.5-4.3-2.6-8.2-6.9-8.7L84.8,56.8c-4.3-0.5-8.2,2.6-8.7,6.9l-0.7,6.4L192.2,83.8z"/>
				<g>
					<path class="st5" d="M87.2,65.7c-0.1,1.2-1.2,2-2.4,1.9c-1.2-0.1-2-1.2-1.9-2.4c0.1-1.2,1.2-2,2.4-1.9
						C86.5,63.5,87.3,64.6,87.2,65.7z"/>
					<path class="st2" d="M97.4,66.9c-0.1,1.2-1.2,2-2.4,1.9c-1.2-0.1-2-1.2-1.9-2.4c0.1-1.2,1.2-2,2.4-1.9
						C96.7,64.7,97.5,65.8,97.4,66.9z"/>
					<path class="st6" d="M107.9,68.2c-0.1,1.2-1.2,2-2.4,1.9c-1.2-0.1-2-1.2-1.9-2.4c0.1-1.2,1.2-2,2.4-1.9
						C107.2,65.9,108,67,107.9,68.2z"/>
				</g>
			</g>
		</g>
		<g>
			<path class="st2" d="M93.1,104.8l-0.5,4.5c-0.3,2.4,0,4.6,2.3,4.8c2.4,0.3,3-1.8,3.2-4l0-0.1l5.9,0.7l0,0.1
				c-0.4,3.2-1.8,9.4-9.6,8.5c-7.7-0.9-8.3-5.8-7.6-12l1.2-10c0.5-4.2,2.5-10.3,10.1-9.4c6.5,0.8,8.1,5.4,7.4,11.4
				c-0.2,1.8-0.6,5.1-0.8,6.9L93.1,104.8z M99.4,100.7l0.4-3.1c0.3-2.8-0.1-4.4-2.3-4.7c-2-0.2-3.1,1-3.4,4l-0.4,3.1L99.4,100.7z"/>
			<path class="st2" d="M109.5,100.1c0.6-5.1,0.9-7.2,1.2-10.3l5.7,0.7c0,0.6-0.2,3.3-0.4,4.9c1.7-4,4.5-4.9,7.3-4.6l-0.9,7.5
				c-3.5-0.4-6.6,0.1-7.3,6.4l-1.9,16.3l-6.1-0.7L109.5,100.1z"/>
			<path class="st2" d="M124.9,101.9c0.6-5.1,0.9-7.2,1.2-10.3l5.7,0.7c0,0.6-0.2,3.3-0.4,4.9c1.7-4,4.5-4.9,7.3-4.6l-0.9,7.5
				c-3.5-0.4-6.6,0.1-7.3,6.4l-1.9,16.3l-6.1-0.7L124.9,101.9z"/>
			<path class="st2" d="M157.7,104.8l-1.4,11.7c-0.8,6.5-4.4,9.5-10.1,8.8c-5.9-0.7-8.5-4.5-7.7-10.9l1.4-12
				c0.8-6.6,4.9-9.1,10.2-8.5C155.6,94.6,158.5,98.4,157.7,104.8z M146,103.1l-1.4,12.3c-0.3,2.5,0.2,4.3,2.4,4.6c2,0.2,3-1.2,3.3-4
				l1.4-12.2c0.3-2.3-0.1-4.1-2.4-4.4C147.4,99.1,146.3,100.4,146,103.1z"/>
			<path class="st2" d="M161.8,106.3c0.6-5.1,0.9-7.2,1.2-10.3l5.7,0.7c0,0.6-0.2,3.3-0.4,4.9c1.7-4,4.5-4.9,7.3-4.6l-0.9,7.5
				c-3.5-0.4-6.6,0.1-7.3,6.4l-1.9,16.3l-6.1-0.7L161.8,106.3z"/>
		</g>
		<g>
			<path class="st7" d="M67.2,141.9c0,0-1.4,6.1-1.1,12.3c0.2,5.5-0.5,42-0.5,42H70c0,0,6.3-28.6,6.6-30.8
				c0.2-2.3,3.4-24.8,3.4-24.8L67.2,141.9z"/>
			<path class="st4" d="M70.1,140.2c0,0,1,7.8,2.8,13.3c1.7,5.5,10.3,42.6,10.3,42.6h4.5c0,0-0.8-28.6-1.1-30.8
				c-0.3-2.3-2.6-24.8-2.6-24.8L70.1,140.2z"/>
			<path class="st4" d="M83.6,196.2v3.1H92c0.5,0,0.7-0.6,0.3-0.9c-1.2-0.8-3.2-2-5.1-2.2H83.6z"/>
			<path class="st4" d="M65.8,196.2v3.1h8.5c0.5,0,0.7-0.6,0.3-0.9c-1.2-0.8-3.2-2-5.1-2.2H65.8z"/>
			<g>
				<path class="st7" d="M81.1,104c0,0,2.9-4.4-0.4-4.9c-2.6-0.3-3.6,0.4-3.6,0.4s-3-0.3-4.6,1.1c-1.1,1-5.2,8.4,1.4,11.1
					c6.6,2.7,5.2-4.2,5.2-4.2L81.1,104z"/>
				<path class="st8" d="M80.7,99.1c-2.6-0.3-3.6,0.4-3.6,0.4s-3-0.3-4.6,1.1c-1.1,1-5.2,8.4,1.4,11.1c3.1,1.3,4.4,0.4,5-0.8
					c-6.3,1.8-6.9-5.8-5.9-7.9c1-2.2,3.6-1.2,3.6-1.2c1-2.5,4.2-2.2,5.5-2C81.8,99.5,81.3,99.2,80.7,99.1z"/>
				<path class="st9" d="M77,106.1c0,0-0.9-0.9-1.5,0c-0.6,0.9-0.2,2.8,0.9,2.9c0,0-0.3,2.8-2.5,2.7v2.3h5.1v-1.7c0,0,3.1-1.3,3-3.9
					c-0.1-2.6-0.9-4.4-0.9-4.4S79.4,105.9,77,106.1z"/>
				<path class="st10" d="M77.8,113c0.5,0.2,0.4,0.5,0.4,1h0.7v-1.7c0,0-1.2,0.4-3-0.6C75.9,111.7,76.9,112.7,77.8,113z"/>
			</g>
			<path class="st9" d="M78.8,102c0,0-2.6-1-2.9-0.3c-0.2,0.5,0.3,1,1,1.4l-0.6,0.1c-0.1,0-0.2,0.2-0.1,0.3c0.2,0.1,0.6,0.2,1.6,0.3
				L78.8,102z"/>
			<g>
				<polygon class="st11" points="63.1,130.5 66.7,141.9 66.6,141.3 66.7,141.9 67.9,125.4 				"/>
				<path class="st6" d="M97.6,108.6c-5-3.7-18.7-6.7-18.7-6.7l-1.1,2.1c0,0,12.4,4.8,11.6,5.5c-0.5,0.4-6.6,3.2-8.6,4.1
					c-0.4,0.2-0.9,0.3-1.4,0.3l-6.3,0c0,0-4.5-0.5-8.1,3.6c-3.2,3.7-8.6,12.2-8.6,12.2l9.2,13.5l1,1.5l0,0l0,0.1c0,0,0.3,0,0.9,0.1
					c2.9,0.3,12.4,1,17.4,0l0.1,0l-0.2-22.1c8-6.3,11.8-11.2,13.1-12.7C98.1,109.5,98,108.9,97.6,108.6z M66.9,138.7l-0.9-2
					l-2.8-6.2l4.7-5.3L67,136.9L66.9,138.7z"/>
			</g>
			<polygon class="st12" points="66,136.8 66.9,138.7 66.4,144.6 66.4,144.6 65.4,143.1 			"/>
			<path class="st13" d="M82.5,121.9c-0.8,0.6-0.6,6.1-0.8,9.5c-0.4,5.7-0.7,10.7-0.4,13.9c1.3-0.1,2.5-0.2,3.5-0.4l0.1,0l-0.2-22.1
				c8-6.3,11.8-11.2,13.1-12.7c0.4-0.4,0.3-1-0.1-1.4C97.6,108.6,91.3,115.5,82.5,121.9z"/>
			<path class="st7" d="M86.5,165.4c-0.2-1.6-1.5-13.8-2.1-20.5l-3.2,0.4c0,0,4.7,38.4,5,51h1.5C87.7,196.2,86.8,167.6,86.5,165.4z"
				/>
			<g>
				<path class="st4" d="M66,106.8l-1-1.7c0.5-0.9,0.8-2,0.8-3.1c0-3.6-2.9-6.5-6.5-6.5c-3.6,0-6.5,2.9-6.5,6.5
					c0,3.6,2.9,6.5,6.5,6.5c1.8,0,3.5-0.7,4.6-1.9L66,106.8z"/>
				<g>
					<path class="st5" d="M55.9,101.4h0.3v0.9c0,0.3,0.1,0.4,0.3,0.4c0.2,0,0.3-0.1,0.4-0.3v-1.1H57v1.5h-0.2l0-0.2h0
						c-0.1,0.2-0.3,0.3-0.5,0.3c-0.3,0-0.5-0.2-0.5-0.6V101.4z"/>
					<path class="st5" d="M58.1,103v0.5h-0.3v-2.1h0.2l0,0.2h0c0.1-0.1,0.3-0.2,0.5-0.2c0.4,0,0.6,0.3,0.6,0.8
						c0,0.5-0.3,0.8-0.6,0.8c-0.1,0-0.3-0.1-0.4-0.2L58.1,103z M58.5,102.7c0.2,0,0.4-0.2,0.4-0.6c0-0.3-0.1-0.5-0.4-0.5
						c-0.1,0-0.3,0.1-0.4,0.2v0.8C58.2,102.7,58.4,102.7,58.5,102.7z"/>
					<path class="st5" d="M59.8,102.5c0.1,0.1,0.3,0.2,0.4,0.2c0.2,0,0.3-0.1,0.3-0.2c0-0.2-0.2-0.2-0.3-0.3
						c-0.2-0.1-0.4-0.2-0.4-0.4c0-0.2,0.2-0.4,0.5-0.4c0.2,0,0.3,0.1,0.5,0.2l-0.1,0.2c-0.1-0.1-0.2-0.1-0.3-0.1
						c-0.2,0-0.3,0.1-0.3,0.2c0,0.1,0.2,0.2,0.3,0.3c0.2,0.1,0.5,0.2,0.5,0.5c0,0.2-0.2,0.4-0.5,0.4c-0.2,0-0.4-0.1-0.6-0.2
						L59.8,102.5z"/>
					<path class="st5" d="M61.6,102.5c0.1,0,0.2,0.1,0.2,0.2c0,0.1-0.1,0.2-0.2,0.2c-0.1,0-0.2-0.1-0.2-0.2
						C61.4,102.6,61.5,102.5,61.6,102.5z"/>
					<path class="st5" d="M62.7,102.5c0.1,0,0.2,0.1,0.2,0.2c0,0.1-0.1,0.2-0.2,0.2c-0.1,0-0.2-0.1-0.2-0.2
						C62.5,102.6,62.6,102.5,62.7,102.5z"/>
				</g>
			</g>
		</g>
		<g>
			<g>
				<g>
					<path class="st2" d="M40.9,185.4c0,0-1.4-1.3-0.5-6.1c0.9-4.9,3.3-9.5,2.1-14.8c-1.1-5.3-10.1-18.6-10.2-19.5
						c0-0.9-2.8,15.5,1.9,21.9c4.7,6.4,5.2,8.7,5,12.1c-0.2,3.4,0,6.1,0.6,6.9L40.9,185.4z"/>
					<path class="st14" d="M40.1,175.6c-0.5,2.2-0.9,7.6,0,8.9c0.1,0.1,0.2,0.1,0.3-0.2c-0.3-0.9-0.4-2.5,0.1-5.1
						c0.9-4.9,3.3-9.5,2.1-14.8c-1.1-5.3-10.1-18.6-10.2-19.5c0,0,1.4,11.1,5.9,18.7C41.6,169.1,40.6,173.4,40.1,175.6z"/>
				</g>
				<g>
					<path class="st2" d="M42.6,185c0,0-2.6-6.6,1.8-12.3c4.5-5.7,11.6-13,11.8-16c0,0,1.8,13.8-4,17.7c-5.8,3.9-9.9,4.5-8.9,10.5
						L42.6,185z"/>
					<path class="st14" d="M48.9,171.7c-6.5,4.7-7,10.2-6,12.7c0.1,0.2,0.2,0.3,0.4,0.4c-0.9-5.8,3.2-6.5,8.9-10.3
						c5.8-3.9,4-17.7,4-17.7S55.4,167,48.9,171.7z"/>
				</g>
				<g>
					<path class="st2" d="M38.2,185.2c0,0,0.8-3.5,0.4-7.3c-0.5-3.8-4.4-5.9-8.1-9.9c-1.9-2-2.5-12.9-1.3-13.9c0,0-6.5,7.9-5.5,13.6
						c1,5.8,11.6,9.5,12.6,12.3c1,2.8,0.9,5.1,0.9,5.1L38.2,185.2z"/>
					<g>
						<path class="st14" d="M27.1,157.3c-2.1,5.8,0.1,12.9,7.2,17.2c5.3,3.2,3.6,9.9,3.6,9.9l0.9-2.6c0.1-1.1,0.1-2.5-0.1-3.8
							c-0.5-3.8-4.4-5.9-8.1-9.9c-1.8-2-2.4-12.1-1.4-13.7C28.9,154.7,28,155.8,27.1,157.3z"/>
						<path class="st14" d="M29.2,154.3c0.1-0.1,0.1-0.1,0.1-0.1C29.2,154.2,29.2,154.2,29.2,154.3z"/>
					</g>
				</g>
				<g>
					<path class="st2" d="M43.9,184.8c0,0,1.5-5.7,5.3-6.4c3.8-0.8,8.1-6.3,8.3-7.4C57.6,170.9,56.9,181.4,43.9,184.8z"/>
					<path class="st14" d="M49,180.2c-2.3,1.2-3.3,2.7-3.6,4.1c11.6-3.7,12.2-13.4,12.2-13.4c0,0.2-0.3,0.6-0.6,1.1
						C55.8,174,53.1,178.2,49,180.2z"/>
				</g>
			</g>
			<path class="st6" d="M52.1,182.7H32.4l2.3,14.7c0.2,1.1,1.1,1.9,2.3,1.9h10.5c1.1,0,2.1-0.8,2.3-1.9L52.1,182.7z"/>
			<polygon class="st15" points="51.7,185.1 52.1,182.7 32.4,182.7 32.8,185.1 			"/>
			<path class="st15" d="M47.3,182.7L45,197.4c-0.2,1.1-1.1,1.9-2.3,1.9h4.8c1.1,0,2.1-0.8,2.3-1.9l2.3-14.7H47.3z"/>
		</g>
		<g>
			<rect x="98.9" y="156.4" class="st6" width="89.1" height="18.1"/>
			<rect x="98.9" y="156.4" class="st13" width="89.1" height="4.4"/>
			<polygon class="st16" points="106.7,156.4 114.8,156.4 112.6,160.8 104.5,160.8 			"/>
			<polygon class="st16" points="125,156.4 133.1,156.4 130.9,160.8 122.8,160.8 			"/>
			<polygon class="st16" points="143.3,156.4 151.4,156.4 149.3,160.8 141.1,160.8 			"/>
			<polygon class="st16" points="161.6,156.4 169.7,156.4 167.6,160.8 159.4,160.8 			"/>
			<polygon class="st16" points="188,156.4 188,156.5 185.9,160.8 177.7,160.8 179.9,156.4 			"/>
			<rect x="110" y="174.5" class="st2" width="6.3" height="24.8"/>
			<rect x="114.9" y="174.5" class="st14" width="1.4" height="24.8"/>
			<rect x="171.1" y="174.5" class="st2" width="6.3" height="24.8"/>
			<rect x="175.5" y="174.5" class="st14" width="1.9" height="24.8"/>
			<rect x="110" y="174.5" class="st14" width="6.3" height="3.1"/>
			<rect x="171.1" y="174.5" class="st14" width="6.3" height="3.1"/>
			<rect x="110" y="153.6" class="st2" width="6.3" height="2.8"/>
			<rect x="114.9" y="153.6" class="st14" width="1.4" height="2.8"/>
			<rect x="171.1" y="153.6" class="st2" width="6.3" height="2.8"/>
			<rect x="175.5" y="153.6" class="st14" width="1.9" height="2.8"/>
			<rect x="110" y="156.1" class="st14" width="6.3" height="0.4"/>
			<rect x="171.1" y="156.1" class="st14" width="6.3" height="0.4"/>
			<g>
				<g>
					<polygon class="st4" points="114.8,156.4 105.8,174.5 98.9,174.5 98.9,172 106.7,156.4 					"/>
					<polygon class="st4" points="125,156.4 116,174.5 124.1,174.5 133.1,156.4 					"/>
					<polygon class="st4" points="151.4,156.4 142.5,174.5 134.3,174.5 143.3,156.4 					"/>
					<polygon class="st4" points="169.7,156.4 160.8,174.5 152.6,174.5 161.6,156.4 					"/>
					<polygon class="st4" points="179.9,156.4 170.9,174.5 179.1,174.5 188,156.5 					"/>
				</g>
			</g>
			<g>
				<g>
					<polygon class="st7" points="114.8,156.4 112.6,160.8 104.5,160.8 106.7,156.4 					"/>
					<polygon class="st7" points="133.1,156.4 130.9,160.8 122.8,160.8 125,156.4 					"/>
					<polygon class="st7" points="151.4,156.4 149.3,160.8 141.1,160.8 143.3,156.4 					"/>
					<polygon class="st7" points="169.7,156.4 167.6,160.8 159.4,160.8 161.6,156.4 					"/>
					<polygon class="st7" points="188,156.5 185.9,160.8 177.7,160.8 179.9,156.4 					"/>
				</g>
			</g>
			<linearGradient id="SVGID_1_" gradientUnits="userSpaceOnUse" x1="143.9369" y1="179.8272" x2="143.9369" y2="165.2412">
				<stop  offset="0" style="stop-color:#FFFFFF"/>
				<stop  offset="1" style="stop-color:#FFFFFF;stop-opacity:0"/>
			</linearGradient>
			<rect x="101.4" y="164.3" class="st17" width="85" height="9.1"/>
			<path class="st6" d="M118.6,149.7c0-3.1-2.5-5.6-5.6-5.6c-3.1,0-5.6,2.5-5.6,5.6c0,3.1,2.5,5.6,5.6,5.6
				C116.1,155.3,118.6,152.8,118.6,149.7z"/>
			<path class="st4" d="M115.5,149.7c0-1.4-1.1-2.5-2.5-2.5c-1.4,0-2.5,1.1-2.5,2.5c0,1.4,1.1,2.5,2.5,2.5
				C114.4,152.2,115.5,151.1,115.5,149.7z"/>
			<circle class="st6" cx="174.2" cy="149.7" r="5.6"/>
			<path class="st4" d="M176.8,149.7c0-1.4-1.1-2.5-2.5-2.5c-1.4,0-2.5,1.1-2.5,2.5c0,1.4,1.1,2.5,2.5,2.5
				C175.6,152.2,176.8,151.1,176.8,149.7z"/>
		</g>
		<g>
			<path class="st6" d="M221.7,197.4h-28.4l4.3-10.5v0l1.7-4.2l0.5-1.2l0.8-1.9l0.2-0.4l1.7-4.2l0.3-0.8l3.1-7.5
				c0.6-1.4,2.5-1.4,3,0l3.1,7.5l0.3,0.8l1.7,4.2l0.2,0.4l0.8,1.9l0.5,1.2l1.7,4.2v0L221.7,197.4z"/>
			<polygon class="st13" points="195.2,192.9 193.4,197.4 221.7,197.4 219.9,192.9 			"/>
			<rect x="191.1" y="194.7" class="st2" width="32.5" height="4.6"/>
			<rect x="216.6" y="194.7" class="st14" width="7" height="4.6"/>
			<g>
				<path class="st13" d="M220.6,194.7h-4l-3.2-7.8v0l-1.7-4.2l-0.5-1.2l-0.8-1.9l-0.2-0.4l-1.7-4.2l-0.3-0.8l-2.6-6.3l0.5-1.2
					c0.6-1.4,2.5-1.4,3,0l3.1,7.5l0.3,0.8l1.7,4.2l0.2,0.4l0.8,1.9l0.5,1.2l1.7,4.2v0L220.6,194.7z"/>
				<g>
					<polygon class="st4" points="214.2,179.2 200.9,179.2 202.6,174.9 212.5,174.9 					"/>
					<polygon class="st4" points="217.4,186.8 217.4,186.9 197.7,186.9 197.7,186.8 199.5,182.6 215.6,182.6 					"/>
					<polygon class="st7" points="214.2,179.2 210.2,179.2 208.5,174.9 212.5,174.9 					"/>
					<polygon class="st7" points="217.4,186.8 217.4,186.9 213.4,186.9 213.4,186.8 211.6,182.6 215.6,182.6 					"/>
				</g>
			</g>
		</g>
		<g>
			<path class="st3" d="M40.9,94.2c2.1,0,4-1.5,4.2-3.6c0.1-0.4,0.1-0.8,0.1-1.2c0-4.7-3.8-8.5-8.5-8.5c-0.2,0-0.4,0-0.6,0
				c-0.4-4.6-4.2-8.2-9-8.2c-5,0-9,4-9,9c0,0.2,0,0.4,0,0.7c-1.4-0.8-3.1-1.2-4.8-1.1C9,81.5,5.3,85.1,5,89.6c0,0,0,0.1,0,0.1
				c-0.1,2.5,1.8,4.5,4.3,4.5H40.9z"/>
			<path class="st3" d="M242.9,100.9c6.7,0,7.1-10.1,0.4-10.4c-0.2,0-0.4,0-0.6,0c-1.2,0-2.3,0.2-3.4,0.5c-0.9-5.5-5.6-9.6-11.3-9.6
				c-5.8,0-10.6,4.3-11.4,10c-1.4-0.7-2.9-1-4.6-1c-0.9,0-1.8,0.1-2.6,0.3c-5.9,1.5-4.6,10.2,1.4,10.2H242.9z"/>
			<path class="st3" d="M162.6,51.3c6.7,0,7.1-10.1,0.4-10.4c-0.2,0-0.4,0-0.6,0c-1.2,0-2.3,0.2-3.4,0.5c-0.9-5.5-5.6-9.6-11.3-9.6
				c-5.8,0-10.6,4.3-11.4,10c-1.4-0.7-2.9-1-4.6-1c-0.9,0-1.8,0.1-2.6,0.3c-5.9,1.5-4.6,10.2,1.4,10.2H162.6z"/>
			<circle class="st6" cx="56" cy="53.8" r="16"/>
			<path class="st15" d="M56.2,37.8c4.4,2.9,7.2,7.8,7.2,13.4c0,8.9-7.2,16-16,16c0,0-0.1,0-0.1,0c2.5,1.7,5.5,2.6,8.8,2.6
				c8.9,0,16-7.2,16-16C72.1,45,65,37.9,56.2,37.8z"/>
		</g>
	</g>
</g>
</svg>
