<?xml version="1.0" encoding="utf-8"?>
<!-- Generator: Adobe Illustrator 24.0.2, SVG Export Plug-In . SVG Version: 6.00 Build 0)  -->
<svg version="1.1" id="圖層_1" xmlns="http://www.w3.org/2000/svg" xmlns:xlink="http://www.w3.org/1999/xlink" x="0px" y="0px"
	 viewBox="0 0 30 30" style="enable-background:new 0 0 30 30;" xml:space="preserve">
<style type="text/css">
	.st0{fill:#FFFFFF;}
</style>
<g>
	<g>
		<g>
			<path class="st0" d="M14.6,26.8c-1.8,0-3.5-0.4-5.1-1.2l0.5-0.9c1.4,0.7,3,1.1,4.6,1.1V26.8z"/>
			<path class="st0" d="M4.4,13.9l-1-0.2c0.1-0.6,0.2-1.2,0.4-1.8c1.5-4.7,5.8-7.8,10.8-7.8v1c-4.5,0-8.4,2.9-9.8,7.1
				C4.6,12.8,4.5,13.4,4.4,13.9z"/>
			<path class="st0" d="M14.6,26.8c-1.8,0-3.4-1.1-4.7-3.1l0.9-0.6c1.1,1.7,2.4,2.6,3.8,2.6c3.2,0,5.7-4.6,5.7-10.3
				c0-0.5,0-1-0.1-1.5l1-0.1c0,0.5,0.1,1.1,0.1,1.6C21.4,21.7,18.3,26.8,14.6,26.8z"/>
			<path class="st0" d="M9.2,11.8l-1-0.2c1-4.5,3.5-7.5,6.4-7.5v1C12.3,5.1,10.1,7.8,9.2,11.8z"/>
			<path class="st0" d="M14.6,26.8c-0.3,0-0.5-0.2-0.5-0.5V4.1h1v21.6c5.4-0.3,9.8-4.8,9.8-10.3c0-1-0.1-2-0.4-2.9l1-0.3
				c0.3,1,0.5,2.1,0.5,3.2C25.9,21.7,20.9,26.8,14.6,26.8z"/>
			<rect x="4.5" y="11.1" class="st0" width="10.4" height="1"/>
			<rect x="11.3" y="18.7" class="st0" width="13.4" height="1"/>
		</g>
	</g>
	<path class="st0" d="M8.6,24.4l-2.8-1.9H0.9V13h9.7v9.5h-2V24.4z M1.9,21.4h4.2l1.4,1v-1h2V14H1.9V21.4z"/>
	<g>
		<path class="st0" d="M18.2,15v-3.4h-2.1V2H29v9.6h-7.2L18.2,15z M17.1,10.6h2.1v2l2.1-2H28V3H17.1V10.6z"/>
		<rect x="19.3" y="5.1" class="st0" width="6.6" height="1"/>
		<rect x="19.3" y="7.4" class="st0" width="6.6" height="1"/>
	</g>
	<g>
		<path class="st0" d="M5.7,20.6l-2.3-2.3c-0.7-0.7-0.7-1.8,0-2.5l0,0c0.3-0.3,0.8-0.5,1.2-0.5c0.4,0,0.7,0.1,1,0.3
			c0.7-0.5,1.6-0.4,2.3,0.2l0,0c0.7,0.7,0.7,1.8,0,2.5L5.7,20.6z M4.7,16.3c-0.2,0-0.4,0.1-0.5,0.2l0,0c-0.3,0.3-0.3,0.7,0,1
			l1.5,1.5l1.5-1.5c0.3-0.3,0.3-0.7,0-1l0,0c-0.3-0.3-0.7-0.3-1,0l-0.5,0.5l-0.5-0.5C5.1,16.4,4.9,16.3,4.7,16.3z"/>
	</g>
</g>
</svg>
