<?xml version="1.0" encoding="utf-8"?>
<!-- Generator: Adobe Illustrator 24.0.2, SVG Export Plug-In . SVG Version: 6.00 Build 0)  -->
<svg version="1.1" id="圖層_1" xmlns="http://www.w3.org/2000/svg" xmlns:xlink="http://www.w3.org/1999/xlink" x="0px" y="0px"
	 viewBox="0 0 30 30" style="enable-background:new 0 0 30 30;" xml:space="preserve">
<style type="text/css">
	.st0{fill:#FFFFFF;}
</style>
<g>
	<path class="st0" d="M26.6,29h-6.1c-0.3,0-0.6-0.3-0.6-0.6V13.2c0-0.3,0.3-0.6,0.6-0.6h6.1c0.3,0,0.6,0.3,0.6,0.6v15.2
		C27.2,28.7,26.9,29,26.6,29z M21.1,27.8H26v-14h-4.9V27.8z"/>
	<path class="st0" d="M9.5,29H3.4c-0.3,0-0.6-0.3-0.6-0.6v-5.5c0-0.3,0.3-0.6,0.6-0.6h6.1c0.3,0,0.6,0.3,0.6,0.6v5.5
		C10.1,28.7,9.8,29,9.5,29z M4,27.8h4.9v-4.3H4V27.8z"/>
	<path class="st0" d="M18,29h-6.1c-0.3,0-0.6-0.3-0.6-0.6v-9.7c0-0.3,0.3-0.6,0.6-0.6H18c0.3,0,0.6,0.3,0.6,0.6v9.7
		C18.6,28.7,18.4,29,18,29z M12.6,27.8h4.9v-8.5h-4.9V27.8z"/>
	<rect x="1" y="27.8" class="st0" width="28" height="1.2"/>
	<path class="st0" d="M3.4,19.3c-0.2,0-0.3-0.1-0.4-0.2l-2.4-2.4c-0.2-0.2-0.2-0.6,0-0.9l8.5-8.5C9.3,7,9.7,7,9.9,7.3l3.2,3.2
		l7.6-7.1L19.5,2c-0.2-0.2-0.2-0.4-0.1-0.7C19.4,1.1,19.6,1,19.9,1H26c0.3,0,0.6,0.3,0.6,0.6v6.1c0,0.2-0.1,0.5-0.4,0.6
		c-0.2,0.1-0.5,0-0.7-0.1l-1.4-1.4l-9.9,9.9c-0.2,0.2-0.6,0.2-0.8,0l-3.8-3.3l-5.7,5.7C3.7,19.2,3.6,19.3,3.4,19.3z M1.8,16.2
		l1.6,1.6l5.7-5.7c0.2-0.2,0.6-0.2,0.8,0l3.8,3.3l10-10c0.2-0.2,0.6-0.2,0.9,0l0.8,0.8v-4h-4L22.1,3c0.1,0.1,0.2,0.3,0.2,0.4
		s-0.1,0.3-0.2,0.4l-8.5,7.9c-0.2,0.2-0.6,0.2-0.8,0L9.5,8.6L1.8,16.2z"/>
</g>
</svg>
