<?xml version="1.0" encoding="utf-8"?>
<!-- Generator: Adobe Illustrator 24.0.2, SVG Export Plug-In . SVG Version: 6.00 Build 0)  -->
<svg version="1.1" id="圖層_1" xmlns="http://www.w3.org/2000/svg" xmlns:xlink="http://www.w3.org/1999/xlink" x="0px" y="0px"
	 viewBox="0 0 30 30" style="enable-background:new 0 0 30 30;" xml:space="preserve">
<style type="text/css">
	.st0{fill:#FFFFFF;}
</style>
<g>
	<path class="st0" d="M21.9,26.8l-0.6-1.1c3.2-1.8,5.3-4.7,5.9-8.1l1.2,0.2C27.8,21.6,25.4,24.9,21.9,26.8z"/>
	<path class="st0" d="M7.7,26.8c-3.5-2-5.9-5.2-6.5-9l1.2-0.2C3,21,5.1,24,8.3,25.8L7.7,26.8z"/>
	<path class="st0" d="M20.3,3.6c-1.7-0.9-3.6-1.4-5.5-1.4S11,2.7,9.3,3.6L8.7,2.5c1.9-1,3.9-1.5,6.1-1.5c2.1,0,4.2,0.5,6.1,1.5
		L20.3,3.6z"/>
	<path class="st0" d="M24.1,16.4c-1.4,0-2.9-0.2-4.7-1.3l-0.3-0.2v-2.5c0-1.4,2.8-2.8,4.9-2.8S29,11,29,12.4v2.5l-0.3,0.2
		C27,16.3,25.5,16.4,24.1,16.4z M20.4,14.2c1.3,0.8,2.4,1,3.7,1s2.4-0.2,3.7-1v-1.8c-0.1-0.4-1.9-1.6-3.7-1.6s-3.6,1.1-3.7,1.6
		L20.4,14.2z"/>
	<path class="st0" d="M24.1,10.9C22.4,10.9,21,9.6,21,8V6.3c0-1.5,1.4-2.8,3.1-2.8s3.1,1.3,3.1,2.8V8C27.1,9.6,25.7,10.9,24.1,10.9z
		 M24.1,4.7c-1,0-1.9,0.8-1.9,1.6V8c0,0.8,0.9,1.6,1.9,1.6s1.9-0.8,1.9-1.6V6.3C25.9,5.5,25,4.7,24.1,4.7z"/>
	<path class="st0" d="M14.8,29.4c-1.3,0-3.2-0.1-4.7-1.4l-0.2-0.2v-2.4c0-1.4,2.8-2.8,4.9-2.8s4.9,1.4,4.9,2.8v2.4L19.5,28
		C18,29.2,16.1,29.4,14.8,29.4z M11.1,27.2c0.9,0.6,2.1,0.9,3.7,0.9c1.6,0,2.8-0.3,3.7-0.9v-1.8c-0.1-0.4-1.9-1.6-3.7-1.6
		c-1.8,0-3.6,1.1-3.7,1.6L11.1,27.2z"/>
	<path class="st0" d="M14.8,23.8c-1.7,0-3.1-1.3-3.1-2.8v-1.7c0-1.5,1.4-2.8,3.1-2.8c1.7,0,3.1,1.3,3.1,2.8V21
		C17.9,22.5,16.5,23.8,14.8,23.8z M14.8,17.7c-1,0-1.9,0.8-1.9,1.6V21c0,0.8,0.9,1.6,1.9,1.6s1.9-0.8,1.9-1.6v-1.7
		C16.7,18.4,15.8,17.7,14.8,17.7z"/>
	<path class="st0" d="M5.6,16.4c-1.4,0-2.9-0.2-4.7-1.3l-0.3-0.2v-2.5c0-1.4,2.8-2.8,4.9-2.8s4.9,1.4,4.9,2.8v2.5l-0.3,0.2
		C8.5,16.3,6.9,16.4,5.6,16.4z M1.9,14.2c1.3,0.8,2.4,1,3.7,1s2.4-0.2,3.7-1v-1.8c-0.1-0.4-1.9-1.6-3.7-1.6S1.9,12,1.8,12.5
		L1.9,14.2z"/>
	<path class="st0" d="M5.6,10.9c-1.7,0-3.1-1.3-3.1-2.8V6.3c0-1.5,1.4-2.8,3.1-2.8s3.1,1.3,3.1,2.8V8C8.6,9.6,7.2,10.9,5.6,10.9z
		 M5.6,4.7c-1,0-1.9,0.8-1.9,1.6V8c0,0.8,0.9,1.6,1.9,1.6S7.4,8.9,7.4,8V6.3C7.4,5.5,6.5,4.7,5.6,4.7z"/>
</g>
</svg>
