<?xml version="1.0" encoding="utf-8"?>
<!-- Generator: Adobe Illustrator 24.0.2, SVG Export Plug-In . SVG Version: 6.00 Build 0)  -->
<svg version="1.1" id="圖層_1" xmlns="http://www.w3.org/2000/svg" xmlns:xlink="http://www.w3.org/1999/xlink" x="0px" y="0px"
	 viewBox="0 0 30 30" style="enable-background:new 0 0 30 30;" xml:space="preserve">
<style type="text/css">
	.st0{fill:#FFFFFF;}
</style>
<g>
	<path class="st0" d="M24.4,13.4c-0.4-0.2-0.8,0-0.9,0.3s0,0.8,0.3,0.9l1.8,0.9c0.2,0.1,0.4,0.1,0.5,0c0.2-0.1,0.3-0.2,0.4-0.4
		c0.2-0.4,0-0.8-0.3-0.9L24.4,13.4z"/>
	<path class="st0" d="M22,8.1c0.2-0.1,0.3-0.2,0.4-0.4l0.9-1.8c0.2-0.4,0-0.8-0.3-0.9c-0.4-0.2-0.8,0-0.9,0.3l-0.9,1.8
		c-0.2,0.4,0,0.8,0.3,0.9C21.7,8.1,21.9,8.1,22,8.1L22,8.1z"/>
	<path class="st0" d="M25.2,9.2l-1.9,0.7c-0.4,0.1-0.6,0.5-0.4,0.9c0.1,0.4,0.5,0.6,0.9,0.4l1.9-0.7c0.4-0.1,0.6-0.5,0.4-0.9
		C26,9.2,25.6,9.1,25.2,9.2z"/>
	<path class="st0" d="M17.8,1.9c-0.3,0-0.5,0.1-0.7,0.3l-6,7.3l-3.4,1.2c-0.7,0.2-1.3,0.7-1.7,1.4c-0.1,0.3-0.2,0.5-0.3,0.8
		l-1.7,0.6c-1.1,0.4-1.6,1.5-1.2,2.6l1.1,3c0.4,1.1,1.5,1.6,2.6,1.2l1.7-0.6c0.4,0.4,1,0.6,1.6,0.7l-0.9,4.8c0,0.2,0,0.4,0.1,0.5
		c0.1,0.2,0.3,0.3,0.5,0.3l3.5,0.6c0.1,0,0.2,0,0.4,0c0.2-0.1,0.4-0.3,0.5-0.5l1.3-6.9l8.7,1.7c0.1,0,0.3,0,0.4,0
		c0.1,0,0.2-0.1,0.3-0.2c0.2-0.2,0.2-0.5,0.1-0.7L18.4,2.4C18.3,2.1,18.1,2,17.8,1.9L17.8,1.9z M6.1,19.1c-0.3,0.1-0.7-0.1-0.8-0.4
		l-1.1-3c-0.1-0.3,0.1-0.7,0.4-0.8L6,14.4c0,0,0,0,0,0l1.5,4.2c0,0,0,0,0,0L6.1,19.1z M7.3,13.9c-0.1-0.4-0.1-0.8,0.1-1.2
		c0.2-0.3,0.5-0.6,0.8-0.7c0,0,3-1,3-1l2.5,7l-2.9,1c-0.8,0.2-1.7-0.2-2-1L7.3,13.9z M12.6,25.3l-2.1-0.4l0.8-4.4c0,0,0-0.1,0-0.1
		l2.4-0.8L12.6,25.3z M22.9,19.4l-7.8-1.6l-2.7-7.6l5-6.2L22.9,19.4z"/>
</g>
</svg>
