<?xml version="1.0" encoding="utf-8"?>
<!-- Generator: Adobe Illustrator 24.0.2, SVG Export Plug-In . SVG Version: 6.00 Build 0)  -->
<svg version="1.1" id="圖層_1" xmlns="http://www.w3.org/2000/svg" xmlns:xlink="http://www.w3.org/1999/xlink" x="0px" y="0px"
	 viewBox="0 0 30 30" style="enable-background:new 0 0 30 30;" xml:space="preserve">
<style type="text/css">
	.st0{fill:#FFFFFF;}
</style>
<g>
	<g>
		<path class="st0" d="M11.1,28H10v-2.6H6.8c-1.6,0-2.9-1.3-2.9-2.9v-2.9H1.4l3.2-5.6c0-0.1,0-0.2,0-0.3c0-0.6,0.1-1.3,0.2-1.9
			L5.9,12c-0.1,0.5-0.2,1.1-0.2,1.7c0,0.1,0,0.2,0,0.4l0,0.2l-2.4,4.2H5v4c0,1,0.8,1.8,1.8,1.8h4.3V28z"/>
	</g>
	<g>
		<path class="st0" d="M20.2,28h-1.1v-3.7h4.3c1,0,1.8-0.8,1.8-1.8v-4h1.6l-2.4-4.2l0-0.2c0-0.1,0-0.2,0-0.4c0-3.5-2.2-6.7-5.6-7.8
			l0.4-1.1c3.8,1.3,6.3,4.8,6.3,8.9c0,0.1,0,0.2,0,0.3l3.2,5.6h-2.5v2.9c0,1.6-1.3,2.9-2.9,2.9h-3.2V28z"/>
	</g>
	<g>
		<g>
			<path class="st0" d="M10,14.2L6.8,11H4.9V1h11.5v10H10V14.2z M6,9.9h1.3l1.6,1.6V9.9h6.4V2.1H6V9.9z"/>
		</g>
		<g>
			<path class="st0" d="M10.4,9c-1.6,0-3-1.3-3-3s1.3-3,3-3s3,1.3,3,3S12,9,10.4,9z M10.4,4.1C9.3,4.1,8.5,5,8.5,6s0.8,1.9,1.9,1.9
				S12.2,7,12.2,6S11.4,4.1,10.4,4.1z"/>
			<rect x="11.4" y="6.7" transform="matrix(0.707 -0.7072 0.7072 0.707 -1.9564 10.7508)" class="st0" width="1.1" height="2.1"/>
		</g>
	</g>
	<g>
		<g>
			<path class="st0" d="M23,22.5H11.6v-10h6.4V9.3l3.2,3.2H23V22.5z M12.7,21.4h9.2v-7.8h-1.3L19.1,12v1.6h-6.4V21.4z"/>
		</g>
		<polygon class="st0" points="15,20.3 14.1,19.7 17.4,13.9 20.8,19.7 19.8,20.3 17.4,16.1 		"/>
		<rect x="15.4" y="18" class="st0" width="4" height="1.1"/>
	</g>
</g>
</svg>
