<?xml version="1.0" encoding="utf-8"?>
<!-- Generator: Adobe Illustrator 24.0.2, SVG Export Plug-In . SVG Version: 6.00 Build 0)  -->
<svg version="1.1" id="圖層_1" xmlns="http://www.w3.org/2000/svg" xmlns:xlink="http://www.w3.org/1999/xlink" x="0px" y="0px"
	 viewBox="0 0 30 30" style="enable-background:new 0 0 30 30;" xml:space="preserve">
<style type="text/css">
	.st0{fill:#FFFFFF;}
</style>
<g>
	<path class="st0" d="M20.3,25.9h-8.2v-1h8.2c0.6,0,1.1-0.5,1.1-1.1c0-0.6-0.5-1.1-1.1-1.1h-5.4v-1h5.4c1.2,0,2.1,0.9,2.1,2.1
		S21.5,25.9,20.3,25.9z"/>
	<path class="st0" d="M24.5,22.7h-9.6v-1h9.6c0.6,0,1.1-0.5,1.1-1.1c0-0.6-0.5-1.1-1.1-1.1h-3.4v-1h3.4c1.2,0,2.1,0.9,2.1,2.1
		C26.6,21.8,25.7,22.7,24.5,22.7z"/>
	<path class="st0" d="M26.9,19.5h-5.2v-1h5.2c0.6,0,1.1-0.5,1.1-1.1s-0.5-1.1-1.1-1.1H25v-1h1.9c1.2,0,2.1,0.9,2.1,2.1
		S28.1,19.5,26.9,19.5z"/>
	<path class="st0" d="M10.2,19.6l0-6.8h1l0,5.8l9.2,0c2.4,0,4.3-2,4.3-4.4c0-2.4-1.9-4.4-4.3-4.4l-0.5,0l0-0.5c0-2.4-2-4.3-4.4-4.3
		c0,0,0,0,0,0c-2.4,0-4.4,1.9-4.4,4.3l-1,0c0-2.9,2.4-5.3,5.4-5.3c0,0,0,0,0,0c2.8,0,5.1,2.1,5.3,4.9c2.7,0.3,4.9,2.6,4.9,5.3
		c0,2.9-2.4,5.3-5.3,5.4L10.2,19.6z"/>
	<path class="st0" d="M12,13.3H9.9v-1H12c1.9,0,3.3-1.3,3.3-3.1h1C16.2,11.5,14.4,13.3,12,13.3z"/>
	<path class="st0" d="M18.5,25.9H9.9c-4.8,0-8.6-3.9-8.6-8.6c0-2.2,0.8-4.4,2.3-6.1C5,9.6,6.8,8.7,8.5,8.7h7.3v1H8.5
		c-2.8,0-6.2,3.4-6.2,7.6c0,4.2,3.4,7.6,7.6,7.6h8.6V25.9z"/>
</g>
</svg>
