<?xml version="1.0" encoding="utf-8"?>
<!-- Generator: Adobe Illustrator 24.0.2, SVG Export Plug-In . SVG Version: 6.00 Build 0)  -->
<svg version="1.1" id="圖層_1" xmlns="http://www.w3.org/2000/svg" xmlns:xlink="http://www.w3.org/1999/xlink" x="0px" y="0px"
	 viewBox="0 0 30 30" style="enable-background:new 0 0 30 30;" xml:space="preserve">
<style type="text/css">
	.st0{fill:#FFFFFF;}
</style>
<g>
	<path class="st0" d="M18,15.6h-1.2v-1.2H18V15.6z M15.6,15.6h-1.2v-1.2h1.2V15.6z M13.1,15.6h-1.2v-1.2h1.2V15.6z"/>
	<g>
		<path class="st0" d="M6,17.5H4.5c-2.6,0-4.4-2.1-4.4-5.1v-4h1.2v4c0,1.9,0.8,3.9,3.2,3.9H6V17.5z"/>
		<path class="st0" d="M25.5,17.5H24v-1.2h1.6c2.4,0,3.2-2,3.2-3.9v-4H30v4C30,15.5,28.2,17.5,25.5,17.5z"/>
	</g>
	<g>
		<g>
			<g>
				<rect x="8.6" y="7.1" class="st0" width="1.2" height="7"/>
				<rect x="6.2" y="7.1" class="st0" width="1.2" height="7"/>
			</g>
			<g>
				<rect x="8.6" y="19.7" class="st0" width="1.2" height="7"/>
				<rect x="6.2" y="19.7" class="st0" width="1.2" height="7"/>
			</g>
			<path class="st0" d="M9.5,20.5H6.5c-0.6,0-1.1-0.5-1.1-1.1v-4.6c0-0.6,0.5-1.1,1.1-1.1h2.9c0.6,0,1.1,0.5,1.1,1.1v4.6
				C10.6,20,10.1,20.5,9.5,20.5z M6.6,19.3h2.7v-4.4H6.6V19.3z"/>
			<rect x="7.4" y="17.9" class="st0" width="1.2" height="1.7"/>
		</g>
		<g>
			<g>
				<rect x="22.6" y="7.1" class="st0" width="1.2" height="7"/>
				<rect x="20.2" y="7.1" class="st0" width="1.2" height="7"/>
			</g>
			<g>
				<rect x="22.6" y="19.7" class="st0" width="1.2" height="7"/>
				<rect x="20.2" y="19.7" class="st0" width="1.2" height="7"/>
			</g>
			<path class="st0" d="M23.5,20.5h-2.9c-0.6,0-1.1-0.5-1.1-1.1v-4.6c0-0.6,0.5-1.1,1.1-1.1h2.9c0.6,0,1.1,0.5,1.1,1.1v4.6
				C24.6,20,24.1,20.5,23.5,20.5z M20.6,19.3h2.7v-4.4h-2.7V19.3z"/>
			<rect x="21.4" y="17.9" class="st0" width="1.2" height="1.7"/>
		</g>
	</g>
	<rect x="9.9" y="16.3" class="st0" width="10.1" height="1.2"/>
	<path class="st0" d="M30,27.5H0V6.4h30V27.5z M1.2,26.3h27.6V7.6H1.2V26.3z"/>
	<polygon class="st0" points="19.5,5.6 18.2,5.6 18.2,4.2 11.8,4.2 11.8,5.6 10.5,5.6 10.5,3 19.5,3 	"/>
</g>
</svg>
