<?xml version="1.0" encoding="utf-8"?>
<!-- Generator: Adobe Illustrator 24.0.2, SVG Export Plug-In . SVG Version: 6.00 Build 0)  -->
<svg version="1.1" id="圖層_1" xmlns="http://www.w3.org/2000/svg" xmlns:xlink="http://www.w3.org/1999/xlink" x="0px" y="0px"
	 viewBox="0 0 30 30" style="enable-background:new 0 0 30 30;" xml:space="preserve">
<style type="text/css">
	.st0{fill:#FFFFFF;}
</style>
<g>
	<polygon class="st0" points="29.4,16.2 22.8,16.2 22.8,15.1 27.8,15.1 25.6,10.6 20.1,10.6 20.1,9.5 26.3,9.5 	"/>
	<polygon class="st0" points="7.5,16.2 1,16.2 4.1,9.5 10.2,9.5 10.2,10.6 4.8,10.6 2.7,15.1 7.5,15.1 	"/>
	<polygon class="st0" points="28.7,24.7 1.8,24.7 1.8,16.2 2.8,16.2 2.8,23.6 27.6,23.6 27.6,16.2 28.7,16.2 	"/>
	<path class="st0" d="M25.7,13.4h-21l10.5-7.5L25.7,13.4z M8,12.4h14.4l-7.2-5.1L8,12.4z"/>
	<polygon class="st0" points="9.6,13.4 9,12.5 15.2,8.3 21.5,12.5 20.9,13.4 15.2,9.5 	"/>
	<polygon class="st0" points="23.4,24.7 7.1,24.7 7.1,15.1 8.1,15.1 8.1,23.6 22.3,23.6 22.3,15.1 23.4,15.1 	"/>
	<path class="st0" d="M29.3,26.7H1.1v-3.1h28.2V26.7z M2.2,25.7h26.1v-1H2.2V25.7z"/>
	<path class="st0" d="M24.2,15.4H6.3v-3h17.9V15.4z M7.3,14.3h15.8v-0.9H7.3V14.3z"/>
	<rect x="14.7" y="3" class="st0" width="1.1" height="3.5"/>
	<g>
		<polygon class="st0" points="20.4,6.8 15.2,6.8 15.2,5.7 18.8,5.7 18.5,5.2 18.8,4.6 15.8,4.6 15.8,3.6 20.4,3.6 19.7,5.2 		"/>
	</g>
	<g>
		<path class="st0" d="M12.4,23.9h-1.1v-4.7c0-0.3-0.2-0.5-0.5-0.5c-0.3,0-0.5,0.2-0.5,0.5v4.7H9.2v-4.7c0-0.9,0.7-1.6,1.6-1.6
			c0.9,0,1.6,0.7,1.6,1.6V23.9z"/>
	</g>
	<g>
		<path class="st0" d="M16.7,23.9h-1.1v-4.7c0-0.3-0.2-0.5-0.5-0.5c-0.3,0-0.5,0.2-0.5,0.5v4.7h-1.1v-4.7c0-0.9,0.7-1.6,1.6-1.6
			c0.9,0,1.6,0.7,1.6,1.6V23.9z"/>
	</g>
	<g>
		<path class="st0" d="M21.1,23.9H20v-4.7c0-0.3-0.2-0.5-0.5-0.5s-0.5,0.2-0.5,0.5v4.7h-1.1v-4.7c0-0.9,0.7-1.6,1.6-1.6
			c0.9,0,1.6,0.7,1.6,1.6V23.9z"/>
	</g>
	<g>
		<g>
			<rect x="3.6" y="17.9" class="st0" width="1.1" height="1.4"/>
			<rect x="5.4" y="17.9" class="st0" width="1.1" height="1.4"/>
		</g>
		<g>
			<rect x="3.6" y="20" class="st0" width="1.1" height="1.4"/>
			<rect x="5.4" y="20" class="st0" width="1.1" height="1.4"/>
		</g>
		<g>
			<rect x="24" y="17.9" class="st0" width="1.1" height="1.4"/>
			<rect x="25.8" y="17.9" class="st0" width="1.1" height="1.4"/>
		</g>
		<g>
			<rect x="24" y="20" class="st0" width="1.1" height="1.4"/>
			<rect x="25.8" y="20" class="st0" width="1.1" height="1.4"/>
		</g>
	</g>
	<rect x="14.4" y="11" class="st0" width="1.1" height="1"/>
</g>
</svg>
