<?xml version="1.0" encoding="utf-8"?>
<!-- Generator: Adobe Illustrator 24.0.2, SVG Export Plug-In . SVG Version: 6.00 Build 0)  -->
<svg version="1.1" id="圖層_1" xmlns="http://www.w3.org/2000/svg" xmlns:xlink="http://www.w3.org/1999/xlink" x="0px" y="0px"
	 viewBox="0 0 1252.3 758" style="enable-background:new 0 0 1252.3 758;" xml:space="preserve">
<style type="text/css">
	.st0{clip-path:url(#SVGID_2_);}
	.st1{opacity:0.5;}
	.st2{opacity:0.5;fill:none;stroke:#004EA2;stroke-width:0.25;stroke-miterlimit:10;enable-background:new    ;}
	.st3{opacity:0.5;fill:none;stroke:#004EA2;stroke-width:0.2778;stroke-miterlimit:10;enable-background:new    ;}
	.st4{opacity:0.5;fill:none;stroke:#004EA2;stroke-width:0.3056;stroke-miterlimit:10;enable-background:new    ;}
	.st5{opacity:0.5;fill:none;stroke:#004EA2;stroke-width:0.3333;stroke-miterlimit:10;enable-background:new    ;}
	.st6{opacity:0.5;fill:none;stroke:#004EA2;stroke-width:0.3611;stroke-miterlimit:10;enable-background:new    ;}
	.st7{opacity:0.5;fill:none;stroke:#004EA2;stroke-width:0.3889;stroke-miterlimit:10;enable-background:new    ;}
	.st8{opacity:0.5;fill:none;stroke:#004EA2;stroke-width:0.4167;stroke-miterlimit:10;enable-background:new    ;}
	.st9{opacity:0.5;fill:none;stroke:#004EA2;stroke-width:0.4444;stroke-miterlimit:10;enable-background:new    ;}
	.st10{opacity:0.5;fill:none;stroke:#004EA2;stroke-width:0.4722;stroke-miterlimit:10;enable-background:new    ;}
	.st11{opacity:0.5;fill:none;stroke:#004EA2;stroke-width:0.5;stroke-miterlimit:10;enable-background:new    ;}
	
		.st12{opacity:0.7;fill:none;stroke:#004EA2;stroke-width:0.25;stroke-linecap:round;stroke-miterlimit:10;enable-background:new    ;}
	
		.st13{opacity:0.7;fill:none;stroke:#004EA2;stroke-width:0.2;stroke-linecap:round;stroke-miterlimit:10;enable-background:new    ;}
</style>
<g>
	<defs>
		<rect id="SVGID_1_" x="35" width="1200" height="758"/>
	</defs>
	<clipPath id="SVGID_2_">
		<use xlink:href="#SVGID_1_"  style="overflow:visible;"/>
	</clipPath>
	<g class="st0">
		<g class="st1">
			<path class="st2" d="M35.1,224.6C294.1,465.4,649,614,1040.6,614c65.9,0,130.8-4.2,194.3-12.4"/>
			<path class="st3" d="M35.1,253.6C293,484.2,641.2,625.8,1024.4,625.8c71.5,0,141.9-5,210.5-14.8"/>
			<path class="st4" d="M35.1,282.6c256.7,220.4,598.3,355,973.1,355c77.2,0,153-5.9,226.8-17.2"/>
			<path class="st5" d="M35.1,311.6c255.6,210.1,590.5,337.8,956.8,337.8c82.9,0,164.1-6.7,243-19.6"/>
			<path class="st6" d="M35.1,340.6c254.5,199.9,582.6,320.6,940.6,320.6c88.5,0,175.1-7.6,259.2-22"/>
			<path class="st7" d="M35.1,369.7c253.3,189.6,574.8,303.5,924.4,303.5c94.2,0,186.2-8.4,275.4-24.4"/>
			<path class="st8" d="M35.1,398.7c252.2,179.4,567,286.3,908.1,286.3c99.8,0,197.4-9.2,291.7-26.8"/>
			<path class="st9" d="M35.1,427.7C286.2,596.9,594.3,696.8,927,696.8c105.5,0,208.4-10.1,307.9-29.2"/>
			<path class="st10" d="M35.1,456.7C285,615.6,586.5,708.6,910.8,708.6c111.1,0,219.5-10.9,324.1-31.7"/>
			<path class="st11" d="M35.1,485.7c248.8,148.7,543.5,234.7,859.5,234.7c116.8,0,230.6-11.8,340.4-34.1"/>
		</g>
	</g>
</g>
<path class="st12" d="M0.1,383.3C533.8,448.8,985.5,345,1252.2,74.1"/>
<path class="st13" d="M6.1,56.9C349.3,476.1,788,725.6,1242.3,734"/>
</svg>
