<?xml version="1.0" encoding="utf-8"?>
<!-- Generator: Adobe Illustrator 24.0.2, SVG Export Plug-In . SVG Version: 6.00 Build 0)  -->
<svg version="1.1" id="圖層_1" xmlns="http://www.w3.org/2000/svg" xmlns:xlink="http://www.w3.org/1999/xlink" x="0px" y="0px"
	 viewBox="0 0 1252.3 758" style="enable-background:new 0 0 1252.3 758;" xml:space="preserve">
<style type="text/css">
	.st0{clip-path:url(#SVGID_2_);}
	.st1{opacity:0.5;}
	.st2{opacity:0.5;fill:none;stroke:#004EA2;stroke-width:0.25;stroke-miterlimit:10;enable-background:new    ;}
	.st3{opacity:0.5;fill:none;stroke:#004EA2;stroke-width:0.2778;stroke-miterlimit:10;enable-background:new    ;}
	.st4{opacity:0.5;fill:none;stroke:#004EA2;stroke-width:0.3056;stroke-miterlimit:10;enable-background:new    ;}
	.st5{opacity:0.5;fill:none;stroke:#004EA2;stroke-width:0.3333;stroke-miterlimit:10;enable-background:new    ;}
	.st6{opacity:0.5;fill:none;stroke:#004EA2;stroke-width:0.3611;stroke-miterlimit:10;enable-background:new    ;}
	.st7{opacity:0.5;fill:none;stroke:#004EA2;stroke-width:0.3889;stroke-miterlimit:10;enable-background:new    ;}
	.st8{opacity:0.5;fill:none;stroke:#004EA2;stroke-width:0.4167;stroke-miterlimit:10;enable-background:new    ;}
	.st9{opacity:0.5;fill:none;stroke:#004EA2;stroke-width:0.4444;stroke-miterlimit:10;enable-background:new    ;}
	.st10{opacity:0.5;fill:none;stroke:#004EA2;stroke-width:0.4722;stroke-miterlimit:10;enable-background:new    ;}
	.st11{opacity:0.5;fill:none;stroke:#004EA2;stroke-width:0.5;stroke-miterlimit:10;enable-background:new    ;}
	
		.st12{opacity:0.7;fill:none;stroke:#004EA2;stroke-width:0.25;stroke-linecap:round;stroke-miterlimit:10;enable-background:new    ;}
	
		.st13{opacity:0.7;fill:none;stroke:#004EA2;stroke-width:0.2;stroke-linecap:round;stroke-miterlimit:10;enable-background:new    ;}
</style>
<g>
	<g>
		<defs>
			<rect id="SVGID_1_" width="1252.3" height="666"/>
		</defs>
		<clipPath id="SVGID_2_">
			<use xlink:href="#SVGID_1_"  style="overflow:visible;"/>
		</clipPath>
		<g class="st0">
			<g class="st1">
				<path class="st2" d="M0.1,197.3c270.3,211.6,640.7,342.1,1049.3,342.1c68.8,0,136.5-3.7,202.8-10.9"/>
				<path class="st3" d="M0.1,222.8c269.1,202.6,632.5,327,1032.4,327c74.6,0,148.1-4.4,219.7-13"/>
				<path class="st4" d="M0.1,248.3C268,441.9,624.5,560.2,1015.6,560.2c80.6,0,159.7-5.2,236.7-15.1"/>
				<path class="st5" d="M0.1,273.8c266.7,184.6,616.2,296.8,998.5,296.8c86.5,0,171.3-5.9,253.6-17.2"/>
				<path class="st6" d="M0.1,299.3c265.6,175.6,608,281.7,981.6,281.7c92.4,0,182.7-6.7,270.5-19.3"/>
				<path class="st7" d="M0.1,324.8C264.4,491.4,600,591.5,964.8,591.5c98.3,0,194.3-7.4,287.4-21.4"/>
				<path class="st8" d="M0.1,350.3c263.2,157.6,591.7,251.6,947.7,251.6c104.1,0,206-8.1,304.4-23.5"/>
				<path class="st9" d="M0.1,375.8c262,148.7,583.6,236.4,930.8,236.4c110.1,0,217.5-8.9,321.3-25.7"/>
				<path class="st10" d="M0.1,401.3C260.9,540.9,575.5,622.6,914,622.6c115.9,0,229.1-9.6,338.2-27.9"/>
				<path class="st11" d="M0.1,426.7C259.7,557.4,567.3,633,897.1,633c121.9,0,240.7-10.4,355.2-30"/>
			</g>
		</g>
	</g>
</g>
<path class="st12" d="M-110.6,416.2C432.7,526.5,892.5,351.8,1164-104.2"/>
<path class="st13" d="M0.1,4.7C367.9,341,838.1,541.1,1325,547.8"/>
</svg>
