<svg width="1200" height="499" viewBox="0 0 1200 499" fill="none" xmlns="http://www.w3.org/2000/svg">
<g opacity="0.5">
<path opacity="0.5" d="M0.13208 369.789C259.114 220.434 614.063 128.321 1005.64 128.321C1071.53 128.321 1136.4 130.933 1199.93 135.983" stroke="#004EA2" stroke-width="0.25" stroke-miterlimit="10"/>
<path opacity="0.5" d="M0.13208 351.798C257.984 208.796 606.243 120.988 989.414 120.988C1060.96 120.988 1131.28 124.115 1199.94 130.145" stroke="#004EA2" stroke-width="0.2778" stroke-miterlimit="10"/>
<path opacity="0.5" d="M0.13208 333.807C256.853 197.151 598.422 113.649 973.183 113.649C1050.39 113.649 1126.14 117.297 1199.94 124.301" stroke="#004EA2" stroke-width="0.3056" stroke-miterlimit="10"/>
<path opacity="0.5" d="M0.13208 315.816C255.723 185.507 590.591 106.31 956.952 106.31C1039.81 106.31 1121.01 110.479 1199.94 118.463" stroke="#004EA2" stroke-width="0.3333" stroke-miterlimit="10"/>
<path opacity="0.5" d="M0.13208 297.825C254.593 173.869 582.771 98.9776 940.73 98.9775C1029.24 98.9775 1115.87 103.668 1199.94 112.626" stroke="#004EA2" stroke-width="0.3611" stroke-miterlimit="10"/>
<path opacity="0.5" d="M0.13208 279.828C253.463 162.218 574.95 91.6386 924.499 91.6385C1018.66 91.6385 1110.74 96.8496 1199.94 106.782" stroke="#004EA2" stroke-width="0.3889" stroke-miterlimit="10"/>
<path opacity="0.5" d="M0.13208 261.838C252.333 150.574 567.129 84.2995 908.278 84.2995C1008.09 84.2995 1105.62 90.0255 1199.95 100.944" stroke="#004EA2" stroke-width="0.4167" stroke-miterlimit="10"/>
<path opacity="0.5" d="M0.13208 243.847C251.203 138.936 559.309 76.9605 892.046 76.9605C997.505 76.9605 1100.48 83.2076 1199.95 95.1001" stroke="#004EA2" stroke-width="0.4444" stroke-miterlimit="10"/>
<path opacity="0.5" d="M0.13208 225.856C250.073 127.291 551.488 69.6216 875.815 69.6215C986.925 69.6215 1095.35 76.3898 1199.94 89.2563" stroke="#004EA2" stroke-width="0.4722" stroke-miterlimit="10"/>
<path opacity="0.5" d="M0.13208 207.865C248.943 115.647 543.657 62.2888 859.594 62.2887C976.364 62.2887 1090.23 69.5781 1199.95 83.4248" stroke="#004EA2" stroke-width="0.5" stroke-miterlimit="10"/>
</g>
<path opacity="0.7" d="M432.567 0.373921C851.768 78.6101 1133.07 183.599 1202.43 296.626" stroke="#004EA2" stroke-width="0.2" stroke-miterlimit="10" stroke-linecap="round"/>
</svg>
