<?xml version="1.0" encoding="utf-8"?>
<!-- Generator: Adobe Illustrator 24.0.2, SVG Export Plug-In . SVG Version: 6.00 Build 0)  -->
<svg version="1.1" id="圖層_1" xmlns="http://www.w3.org/2000/svg" xmlns:xlink="http://www.w3.org/1999/xlink" x="0px" y="0px"
	 viewBox="0 0 65.4 55.5" style="enable-background:new 0 0 65.4 55.5;" xml:space="preserve">
<style type="text/css">
	.st0{fill:#004EA2;stroke:#004EA2;stroke-width:0.5;stroke-miterlimit:10;}
</style>
<g>
	<g>
		<path class="st0" d="M53.2,55.2c-1.8,0-3.4-0.7-4.7-1.9l-7.4-7.1H28.8c-1.5,0-3-0.5-4.2-1.4c-1.7-1.3-2.6-3.2-2.6-5.3v-18
			c0-3.7,3-6.8,6.8-6.8h29.6c3.7,0,6.8,3,6.8,6.8v18c0,3.7-3,6.8-6.7,6.8v2.2c0,1.8,0,5-2.5,6.2C55,55,54.1,55.2,53.2,55.2z
			 M28.8,18.3c-1.8,0-3.3,1.5-3.3,3.3v18c0,1,0.5,1.9,1.3,2.6c0.6,0.5,1.3,0.7,2,0.7h13.8l8.4,8.1c0.9,0.9,2.2,1.2,3.5,0.7
			c0,0,0.5-0.3,0.5-3v-5.7h3.5c1.8,0,3.3-1.5,3.3-3.3v-18c0-1.8-1.5-3.3-3.3-3.3H28.8z"/>
	</g>
	<g>
		<g>
			<path class="st0" d="M19.9,33.2c-0.1,0-0.2,0-0.3,0c-1.4,0-2.7-0.2-4-0.5l-0.5-0.1l-6,2.3l2-3.9l-1.2-0.8C6,27.3,3.6,23,3.6,18.4
				c0-8.1,7.2-14.8,16-14.8c6.6,0,12.3,3.7,14.7,9H38C35.5,5.5,28.2,0.2,19.6,0.2C8.9,0.3,0.2,8.4,0.2,18.4c0,5.2,2.4,10.1,6.5,13.6
				L5,35.5c-0.5,0.9-0.3,2,0.4,2.7C5.8,38.7,6.5,39,7.2,39c0.3,0,0.6-0.1,0.9-0.2l7.3-2.7c1.4,0.3,2.8,0.4,4.3,0.4
				c0.1,0,0.2,0,0.3,0V33.2z"/>
		</g>
	</g>
</g>
<g>
	<circle class="st0" cx="34.1" cy="31" r="3.5"/>
</g>
<g>
	<circle class="st0" cx="43.6" cy="31" r="3.5"/>
</g>
<g>
	<circle class="st0" cx="53" cy="31" r="3.5"/>
</g>
</svg>
