<svg width="1202" height="1414" viewBox="0 0 1202 1414" fill="none" xmlns="http://www.w3.org/2000/svg">
<path opacity="0.7" d="M0.999384 900C494.336 1008.97 926.53 952.01 1201 722" stroke="#004EA2" stroke-width="0.25" stroke-miterlimit="10" stroke-linecap="round"/>
<path opacity="0.7" d="M1.00022 93.9999C316.384 547.759 741.592 835.973 1201 880" stroke="#004EA2" stroke-width="0.2" stroke-miterlimit="10" stroke-linecap="round"/>
<g opacity="0.5">
<path opacity="0.5" d="M1.36523 451.113C260.347 691.949 615.296 840.482 1006.87 840.482C1072.76 840.482 1137.63 836.27 1201.17 828.127" stroke="#004EA2" stroke-width="0.25" stroke-miterlimit="10"/>
<path opacity="0.5" d="M1.36523 480.123C259.217 710.715 607.476 852.306 990.648 852.306C1062.19 852.306 1132.51 847.264 1201.17 837.54" stroke="#004EA2" stroke-width="0.2778" stroke-miterlimit="10"/>
<path opacity="0.5" d="M1.36523 509.134C258.087 729.492 599.655 864.14 974.416 864.14C1051.62 864.14 1127.37 858.258 1201.17 846.964" stroke="#004EA2" stroke-width="0.3056" stroke-miterlimit="10"/>
<path opacity="0.5" d="M1.36523 538.144C256.956 748.269 591.824 875.974 958.185 875.974C1041.04 875.974 1122.24 869.252 1201.17 856.377" stroke="#004EA2" stroke-width="0.3333" stroke-miterlimit="10"/>
<path opacity="0.5" d="M1.36523 567.154C255.826 767.036 584.004 887.799 941.963 887.799C1030.47 887.799 1117.11 880.236 1201.17 865.791" stroke="#004EA2" stroke-width="0.3611" stroke-miterlimit="10"/>
<path opacity="0.5" d="M1.36523 596.175C254.696 785.822 576.183 899.633 925.732 899.633C1019.89 899.633 1111.98 891.23 1201.17 875.214" stroke="#004EA2" stroke-width="0.3889" stroke-miterlimit="10"/>
<path opacity="0.5" d="M1.36523 625.185C253.566 804.599 568.362 911.467 909.511 911.467C1009.32 911.467 1106.86 902.234 1201.18 884.627" stroke="#004EA2" stroke-width="0.4167" stroke-miterlimit="10"/>
<path opacity="0.5" d="M1.36523 654.195C252.436 823.366 560.542 923.301 893.279 923.301C998.738 923.301 1101.72 913.228 1201.19 894.051" stroke="#004EA2" stroke-width="0.4444" stroke-miterlimit="10"/>
<path opacity="0.5" d="M1.36523 683.206C251.306 842.142 552.721 935.135 877.048 935.135C988.158 935.135 1096.59 924.222 1201.18 903.474" stroke="#004EA2" stroke-width="0.4722" stroke-miterlimit="10"/>
<path opacity="0.5" d="M1.36523 712.216C250.176 860.919 544.89 946.96 860.827 946.96C977.596 946.96 1091.47 935.205 1201.19 912.878" stroke="#004EA2" stroke-width="0.5" stroke-miterlimit="10"/>
</g>
</svg>
