<?xml version="1.0" encoding="utf-8"?>
<!-- Generator: Adobe Illustrator 25.4.1, SVG Export Plug-In . SVG Version: 6.00 Build 0)  -->
<svg version="1.1" id="圖層_1" xmlns="http://www.w3.org/2000/svg" xmlns:xlink="http://www.w3.org/1999/xlink" x="0px" y="0px"
	 viewBox="0 0 250 42" style="enable-background:new 0 0 250 42;" xml:space="preserve">
<style type="text/css">
	.st0{fill:#004EA2;stroke:#FFFFFF;stroke-width:3;stroke-miterlimit:10;}
	.st1{fill:#FFFFFF;stroke:#FFFFFF;stroke-width:3;stroke-miterlimit:10;}
	.st2{enable-background:new    ;}
	.st3{fill:#FFFFFF;}
	.st4{fill:#004EA2;}
	.st5{font-family:'Georgia-Bold';}
	.st6{font-size:12px;}
</style>
<g>
	<path class="st0" d="M40.6,20.9c0,10.4-8.4,18.8-18.8,18.8C11.3,39.8,2.9,31.4,2.9,20.9c0-10.4,8.4-18.8,18.8-18.8
		S40.6,10.5,40.6,20.9"/>
	<polygon class="st1" points="27.6,11.6 21.3,17.6 15,11.6 5.3,21.4 13.5,29.5 13.5,36.3 19.2,36.3 19.2,27.5 13.3,21.6 12.9,21.2 
		14.8,19.5 21.3,26 21.3,26 21.3,26 21.3,26 21.3,26 27.8,19.5 29.6,21.4 29.2,21.6 23.4,27.5 23.4,36.3 29.1,36.3 29.1,29.5 
		37.3,21.4 	"/>
	<path class="st1" d="M21.5,13.2c2.4,0,4.3-1.9,4.3-4.3s-1.9-4.3-4.3-4.3s-4.3,1.9-4.3,4.3C17.1,11.2,19.1,13.2,21.5,13.2"/>
</g>
<g class="st2">
	<g>
		<path d="M55.8,19h-4.5v-0.5c0.1,0,0.3,0,0.5-0.1s0.3-0.1,0.4-0.1c0.1-0.1,0.2-0.1,0.3-0.2s0.1-0.2,0.1-0.4v-6.2l-2.9,7.3H49
			c0-0.1-0.1-0.4-0.3-0.8s-0.3-0.7-0.3-0.9l-2.1-5.7v5.1c0,0.5,0,0.9,0.1,1.1s0.2,0.4,0.3,0.6c0.1,0.1,0.3,0.2,0.5,0.2
			s0.4,0.1,0.5,0.1V19h-3.6v-0.5c0.1,0,0.3,0,0.5-0.1s0.4-0.1,0.5-0.2c0.2-0.1,0.3-0.3,0.3-0.6s0.1-0.6,0.1-1.1v-4.1
			c0-0.2,0-0.5-0.1-0.6s-0.2-0.3-0.3-0.4c-0.2-0.1-0.3-0.2-0.5-0.2s-0.3-0.1-0.5-0.1v-0.5h3.8l2,5.5l1.7-4.4
			c0.1-0.2,0.1-0.4,0.2-0.6c0.1-0.2,0.1-0.4,0.1-0.4h3.7v0.5c-0.1,0-0.3,0-0.4,0s-0.3,0.1-0.4,0.1c-0.2,0.1-0.3,0.1-0.3,0.2
			s-0.1,0.2-0.1,0.4v5.9c0,0.1,0,0.3,0.1,0.4s0.1,0.2,0.3,0.2c0.1,0,0.2,0.1,0.4,0.1s0.3,0.1,0.4,0.1V19z"/>
		<path class="st3" d="M57.3,20.5h-7.5v-0.1h-0.5v0.1h-6.6v-3.3l1.3-0.2c0,0,0.1,0,0.1,0c0-0.1,0-0.3,0-0.5v-3.9l-1.4-0.1V9.2h2h2.3
			h2.1l1,2.8l0.3-0.8c0-0.1,0.1-0.2,0.1-0.4c0-0.1,0-0.2,0.1-0.3l0.1-1.4l1.2,0.1l2.2,0h3.2v3.4l-1.2,0.1v4.4l1.2,0.1V20.5z"/>
	</g>
	<g>
		<path d="M61.3,19h-4.6v-0.5c0.1,0,0.3,0,0.5,0s0.3,0,0.4-0.1c0.1-0.1,0.2-0.1,0.3-0.2s0.1-0.2,0.1-0.4V12c0-0.1,0-0.2-0.1-0.4
			s-0.2-0.2-0.3-0.2c-0.1,0-0.2-0.1-0.4-0.1s-0.3-0.1-0.5-0.1v-0.5h4.6v0.5c-0.1,0-0.3,0-0.4,0s-0.3,0.1-0.4,0.1
			c-0.2,0.1-0.3,0.1-0.3,0.2S60,11.8,60,11.9v5.9c0,0.1,0,0.3,0.1,0.4s0.2,0.2,0.3,0.2c0.1,0,0.2,0.1,0.4,0.1s0.3,0.1,0.5,0.1V19z"
			/>
		<polygon class="st3" points="62.8,20.5 55.2,20.5 55.2,17.2 56.4,17.1 56.4,12.7 55.2,12.5 55.2,9.2 62.8,9.2 62.8,12.5 
			61.5,12.7 61.5,17.1 62.8,17.2 		"/>
	</g>
	<g>
		<path d="M71.6,11.2c-0.1,0-0.3,0-0.5,0.1s-0.4,0.1-0.6,0.2c-0.1,0.1-0.2,0.3-0.3,0.5s-0.1,0.6-0.1,1.1v5.9h-1L64,12.7v3.9
			c0,0.5,0,0.9,0.1,1.1s0.2,0.4,0.3,0.6c0.1,0.1,0.3,0.2,0.5,0.2s0.4,0.1,0.6,0.1V19h-3.6v-0.5c0.2,0,0.3,0,0.5-0.1s0.4-0.1,0.5-0.2
			c0.2-0.1,0.3-0.3,0.3-0.5s0.1-0.6,0.1-1.2v-3.9c0-0.2,0-0.4-0.1-0.6s-0.2-0.3-0.3-0.4c-0.1-0.1-0.3-0.2-0.5-0.3s-0.4-0.1-0.6-0.2
			v-0.5h3.1l4.5,5.6v-3.1c0-0.5,0-0.9-0.1-1.1s-0.2-0.4-0.3-0.5c-0.1-0.1-0.3-0.2-0.5-0.2s-0.4-0.1-0.5-0.1v-0.5h3.6V11.2z"/>
		<path class="st3" d="M71,20.6L71,20.6l-2.6,0l-1.5-1.9v1.8h-6.6v-3.3l1.4-0.1c0,0,0,0,0,0c0-0.1,0-0.3,0-0.5v-3.9
			c-0.1,0-0.1,0-0.2-0.1l-1.2-0.2V9.2h2.1h0.7h2.5l0.9,1.1V9.2h6.6v3.3l-1.3,0.1c0,0,0,0-0.1,0c0,0.1,0,0.3,0,0.5v7.4L71,20.6z
			 M65.5,17c0,0,0.1,0,0.1,0l-0.1-0.2C65.5,17,65.5,17,65.5,17z"/>
	</g>
	<g>
		<path d="M76.7,19h-4.6v-0.5c0.1,0,0.3,0,0.5,0s0.3,0,0.4-0.1c0.1-0.1,0.2-0.1,0.3-0.2s0.1-0.2,0.1-0.4V12c0-0.1,0-0.2-0.1-0.4
			s-0.2-0.2-0.3-0.2c-0.1,0-0.2-0.1-0.4-0.1s-0.3-0.1-0.5-0.1v-0.5h4.6v0.5c-0.1,0-0.3,0-0.4,0s-0.3,0.1-0.4,0.1
			c-0.2,0.1-0.3,0.1-0.3,0.2s-0.1,0.2-0.1,0.4v5.9c0,0.1,0,0.3,0.1,0.4s0.2,0.2,0.3,0.2c0.1,0,0.2,0.1,0.4,0.1s0.3,0.1,0.5,0.1V19z"
			/>
		<polygon class="st3" points="78.2,20.5 70.6,20.5 70.6,17.2 71.8,17.1 71.8,12.7 70.6,12.5 70.6,9.2 78.2,9.2 78.2,12.5 
			76.9,12.7 76.9,17.1 78.2,17.2 		"/>
	</g>
	<g>
		<path d="M81,19.3c-0.5,0-1-0.1-1.4-0.2s-0.8-0.3-1.1-0.4L78,19h-0.5l-0.1-3h0.5c0.1,0.3,0.3,0.6,0.4,0.9s0.4,0.6,0.6,0.9
			c0.2,0.3,0.5,0.5,0.8,0.6c0.3,0.2,0.6,0.2,1,0.2c0.5,0,0.9-0.1,1.2-0.4c0.3-0.3,0.4-0.6,0.4-1c0-0.3-0.1-0.6-0.4-0.8
			s-0.6-0.4-1.1-0.6c-0.3-0.1-0.6-0.2-0.9-0.3c-0.3-0.1-0.5-0.2-0.8-0.3c-0.6-0.2-1-0.5-1.2-1c-0.3-0.4-0.4-0.9-0.4-1.4
			c0-0.3,0.1-0.6,0.2-0.9s0.3-0.6,0.6-0.8c0.3-0.2,0.6-0.4,1-0.5s0.8-0.2,1.3-0.2c0.5,0,0.9,0.1,1.3,0.2s0.7,0.3,0.9,0.4l0.4-0.4
			h0.5l0,2.8h-0.5c-0.1-0.3-0.3-0.6-0.4-0.9s-0.3-0.6-0.5-0.8c-0.2-0.2-0.4-0.4-0.7-0.5c-0.2-0.1-0.5-0.2-0.9-0.2
			c-0.4,0-0.8,0.1-1,0.4c-0.3,0.2-0.4,0.5-0.4,0.9c0,0.3,0.1,0.6,0.3,0.8c0.2,0.2,0.6,0.4,1.1,0.6c0.3,0.1,0.6,0.2,0.9,0.3
			s0.6,0.2,0.8,0.3c0.6,0.2,1,0.5,1.3,0.9c0.3,0.4,0.4,0.9,0.4,1.4c0,0.4-0.1,0.7-0.3,1c-0.2,0.3-0.4,0.6-0.7,0.8
			c-0.3,0.2-0.7,0.4-1.1,0.6S81.5,19.3,81,19.3z"/>
		<path class="st3" d="M81,20.8c-0.6,0-1.3-0.1-1.8-0.2c-0.1,0-0.2-0.1-0.3-0.1l-0.1,0.1H76l-0.2-6h0.6c-0.2-0.5-0.3-1-0.3-1.5
			c0-0.5,0.1-1.1,0.4-1.6c0.2-0.5,0.6-0.9,1-1.3c0.4-0.4,0.9-0.6,1.5-0.8c1.1-0.4,2.4-0.4,3.6,0c0.1,0,0.1,0,0.1,0l0.1-0.1h2.6
			l0.1,5.5c0.3,0.5,0.4,1.2,0.4,1.9c0,0.6-0.1,1.2-0.4,1.7c-0.3,0.5-0.6,1-1.1,1.4c-0.4,0.4-1,0.6-1.5,0.8
			C82.3,20.7,81.7,20.8,81,20.8z"/>
	</g>
	<g>
		<path d="M93,13.1h-0.5c-0.1-0.4-0.3-0.7-0.6-1.1c-0.3-0.4-0.5-0.6-0.7-0.7c-0.1,0-0.3,0-0.5,0c-0.2,0-0.3,0-0.5,0H90v6.5
			c0,0.1,0,0.3,0.1,0.4s0.2,0.2,0.3,0.3c0.1,0,0.2,0.1,0.4,0.1s0.4,0.1,0.5,0.1V19h-4.6v-0.5c0.1,0,0.3,0,0.5,0s0.3,0,0.4-0.1
			c0.2-0.1,0.3-0.1,0.3-0.3s0.1-0.2,0.1-0.4v-6.6h-0.3c-0.1,0-0.3,0-0.5,0c-0.2,0-0.3,0-0.5,0c-0.2,0-0.5,0.2-0.7,0.7
			c-0.3,0.4-0.5,0.8-0.6,1.1h-0.5v-2.4H93V13.1z"/>
		<polygon class="st3" points="92.8,20.5 85.1,20.5 85.1,17.2 86.4,17.1 86.4,14.6 83.4,14.6 83.4,9.2 94.5,9.2 94.5,14.6 
			91.5,14.6 91.5,17.1 92.8,17.2 		"/>
	</g>
	<g>
		<path d="M103,19h-3.2c-0.6-0.8-1-1.5-1.4-2s-0.8-1.1-1.4-1.7h-0.3v2.5c0,0.1,0,0.3,0.1,0.4s0.2,0.2,0.3,0.2c0.1,0,0.2,0.1,0.3,0.1
			s0.3,0.1,0.4,0.1V19h-4.4v-0.5c0.1,0,0.3,0,0.4,0s0.3,0,0.4-0.1c0.1-0.1,0.2-0.1,0.3-0.2s0.1-0.2,0.1-0.4V12c0-0.1,0-0.3-0.1-0.4
			s-0.1-0.2-0.3-0.2c-0.1-0.1-0.3-0.1-0.4-0.1s-0.3-0.1-0.4-0.1v-0.5h4.7c1,0,1.8,0.2,2.4,0.5s0.8,0.8,0.8,1.5c0,0.6-0.2,1-0.5,1.4
			s-0.8,0.6-1.5,0.8c0.3,0.3,0.6,0.7,0.9,1.2s0.7,0.9,1.1,1.4c0.1,0.2,0.3,0.3,0.5,0.6s0.4,0.4,0.6,0.4c0.1,0,0.2,0.1,0.3,0.1
			s0.2,0,0.3,0V19z M99,12.9c0-0.6-0.2-1-0.5-1.2s-0.8-0.4-1.3-0.4h-0.5v3.5h0.4c0.6,0,1-0.2,1.3-0.5S99,13.5,99,12.9z"/>
		<path class="st3" d="M104.5,20.5H92v-3.3l1.2-0.1v-4.4L92,12.5V9.2h6.2c1.3,0,2.4,0.2,3.2,0.7c1,0.6,1.5,1.6,1.5,2.8
			c0,1-0.3,1.8-0.9,2.4c-0.1,0.1-0.2,0.2-0.3,0.3c0.3,0.4,0.6,0.8,0.9,1.1c0.1,0.1,0.2,0.3,0.4,0.5c0,0,0,0,0,0c0.1,0,0.1,0,0.2,0
			l1.4,0.1L104.5,20.5z M103,17.1L103,17.1L103,17.1z"/>
	</g>
	<g>
		<path d="M111.8,11.2c-0.1,0-0.3,0-0.4,0.1c-0.1,0-0.2,0.1-0.3,0.1c-0.2,0.1-0.3,0.2-0.4,0.4s-0.3,0.3-0.4,0.5
			c-0.3,0.4-0.5,0.8-0.8,1.2c-0.3,0.4-0.6,0.9-0.9,1.4c-0.2,0.3-0.3,0.6-0.4,0.8s-0.1,0.5-0.1,0.9v1.2c0,0.1,0,0.3,0.1,0.4
			s0.2,0.2,0.3,0.3c0.1,0,0.2,0.1,0.4,0.1s0.4,0.1,0.5,0.1V19h-4.6v-0.5c0.1,0,0.3,0,0.5,0s0.3-0.1,0.4-0.1c0.1-0.1,0.2-0.1,0.3-0.2
			s0.1-0.2,0.1-0.4v-1.5c0-0.1,0-0.2,0-0.3s0-0.2,0-0.2c0-0.1-0.1-0.2-0.1-0.3s-0.2-0.3-0.3-0.4c-0.3-0.5-0.6-1-0.9-1.5
			s-0.5-0.9-0.8-1.3c-0.1-0.2-0.3-0.4-0.4-0.5s-0.3-0.2-0.4-0.3c-0.1-0.1-0.2-0.1-0.4-0.1s-0.3-0.1-0.4-0.1v-0.5h4.8v0.5
			c-0.4,0-0.7,0-0.9,0.1c-0.2,0-0.2,0.1-0.2,0.2c0,0,0,0.1,0.1,0.3s0.2,0.3,0.3,0.6c0.1,0.3,0.3,0.6,0.6,1c0.3,0.4,0.6,1,0.9,1.6
			c0.7-1.2,1.2-2,1.5-2.5c0.3-0.5,0.4-0.8,0.4-0.9c0-0.1-0.1-0.2-0.2-0.3s-0.4-0.1-0.8-0.1v-0.5h3.1V11.2z"/>
		<path class="st3" d="M110.9,20.5h-7.6v-3.4l1.3-0.1v-0.7c0-0.1,0-0.1,0-0.2l-0.2-0.4c-0.3-0.5-0.6-1-0.9-1.5
			c-0.3-0.5-0.5-0.9-0.8-1.3c-0.1-0.1-0.2-0.2-0.2-0.2c-0.1-0.1-0.1-0.1-0.1-0.1c0,0-0.1,0-0.1,0l-1.4-0.1V9.2h12.5v3.3l-1.3,0.1
			c0,0-0.1,0-0.1,0l-0.1,0.1c-0.1,0.1-0.2,0.2-0.3,0.3c-0.2,0.4-0.5,0.7-0.8,1.2c-0.3,0.4-0.6,0.9-0.9,1.4c-0.2,0.2-0.2,0.4-0.2,0.4
			c0,0,0,0.2,0,0.5v0.5l1.2,0.1L110.9,20.5z"/>
	</g>
	<g>
		<path d="M122.5,11.6c0.4,0.4,0.7,0.8,1,1.4s0.4,1.1,0.4,1.8c0,0.6-0.1,1.2-0.3,1.7s-0.5,1-0.9,1.4c-0.4,0.4-0.9,0.7-1.4,1
			s-1.2,0.3-1.9,0.3c-0.6,0-1.2-0.1-1.7-0.3s-1-0.5-1.4-0.9c-0.4-0.4-0.7-0.8-1-1.4s-0.4-1.1-0.4-1.8c0-0.7,0.1-1.3,0.3-1.8
			s0.6-1,1-1.4c0.4-0.4,0.9-0.7,1.4-0.9s1.1-0.3,1.8-0.3c0.6,0,1.2,0.1,1.7,0.3S122.1,11.3,122.5,11.6z M121,17.6
			c0.2-0.4,0.3-0.8,0.4-1.2c0.1-0.4,0.1-1,0.1-1.5c0-0.5,0-0.9-0.1-1.4s-0.2-0.9-0.3-1.2c-0.2-0.4-0.4-0.6-0.7-0.9
			c-0.3-0.2-0.6-0.3-1-0.3c-0.7,0-1.2,0.3-1.6,1s-0.6,1.6-0.6,2.8c0,0.5,0,1,0.1,1.5c0.1,0.5,0.2,0.9,0.4,1.2
			c0.2,0.3,0.4,0.6,0.7,0.8c0.3,0.2,0.6,0.3,1,0.3c0.4,0,0.7-0.1,1-0.3C120.7,18.2,120.9,17.9,121,17.6z"/>
		<path class="st3" d="M119.3,20.8c-0.8,0-1.5-0.1-2.2-0.4c-0.7-0.3-1.4-0.7-1.9-1.2c-0.6-0.5-1-1.1-1.3-1.8
			c-0.3-0.7-0.5-1.5-0.5-2.4c0-0.9,0.2-1.7,0.5-2.4c0.3-0.7,0.7-1.4,1.3-1.9c0.6-0.5,1.2-0.9,1.9-1.2c1.4-0.5,3.1-0.5,4.6,0
			c0.7,0.3,1.4,0.7,1.9,1.1l0,0c0.6,0.5,1,1.1,1.3,1.8c0.3,0.7,0.5,1.5,0.5,2.4c0,0.8-0.1,1.5-0.4,2.3c-0.3,0.7-0.7,1.4-1.2,1.9
			c-0.5,0.6-1.2,1-1.9,1.3C121.1,20.6,120.3,20.8,119.3,20.8z M119.3,17.2c0,0,0.2,0,0.3,0c0,0,0.1-0.1,0.2-0.2l0,0
			c0.1-0.2,0.2-0.5,0.2-0.8c0.1-0.4,0.1-0.8,0.1-1.3c0-0.4,0-0.8-0.1-1.2c0-0.3-0.1-0.6-0.2-0.8c-0.1-0.1-0.1-0.2-0.2-0.3l0,0
			c0,0,0,0-0.1,0c-0.1,0-0.2,0-0.3,0.2c-0.2,0.3-0.4,0.9-0.4,2.1c0,0.4,0,0.8,0.1,1.2c0.1,0.3,0.1,0.6,0.2,0.8
			C119.1,17,119.2,17.1,119.3,17.2C119.3,17.2,119.3,17.2,119.3,17.2z"/>
	</g>
	<g>
		<path d="M132.2,12.9h-0.5c-0.1-0.3-0.3-0.7-0.6-1c-0.3-0.4-0.6-0.6-0.8-0.6c-0.1,0-0.3,0-0.5,0s-0.4,0-0.5,0H128v3.3h0.8
			c0.2,0,0.4,0,0.6-0.1s0.3-0.1,0.5-0.3c0.1-0.1,0.2-0.3,0.3-0.5s0.1-0.4,0.2-0.6h0.4v3.5h-0.4c0-0.2-0.1-0.4-0.2-0.6
			s-0.2-0.4-0.3-0.5c-0.1-0.1-0.3-0.2-0.4-0.3s-0.4-0.1-0.6-0.1H128v2.8c0,0.1,0,0.3,0.1,0.4s0.2,0.2,0.3,0.2c0.1,0,0.2,0.1,0.4,0.1
			s0.3,0.1,0.4,0.1V19h-4.5v-0.5c0.1,0,0.3,0,0.5,0s0.3,0,0.4-0.1c0.1-0.1,0.2-0.1,0.3-0.2s0.1-0.2,0.1-0.4V12c0-0.1,0-0.2-0.1-0.3
			s-0.1-0.2-0.3-0.2c-0.1,0-0.3-0.1-0.4-0.1s-0.3-0.1-0.4-0.1v-0.5h7.5V12.9z"/>
		<polygon class="st3" points="130.7,20.5 123.2,20.5 123.2,17.2 124.4,17.1 124.4,12.7 123.2,12.5 123.2,9.2 133.7,9.2 133.7,14.4 
			132.3,14.4 132.3,18.1 130.7,18.1 		"/>
	</g>
	<g>
		<path d="M143.6,16.4l-0.2,2.7h-7.7v-0.5c0.1,0,0.3,0,0.5-0.1s0.3,0,0.4-0.1c0.1-0.1,0.2-0.1,0.3-0.2s0.1-0.2,0.1-0.4V12
			c0-0.1,0-0.3-0.1-0.3s-0.1-0.2-0.3-0.2c-0.1-0.1-0.3-0.1-0.4-0.1s-0.3-0.1-0.4-0.1v-0.5h4.6v0.5c-0.1,0-0.3,0-0.4,0
			s-0.3,0.1-0.4,0.1c-0.2,0.1-0.3,0.1-0.3,0.2s-0.1,0.2-0.1,0.4v5.5c0,0.3,0,0.5,0.1,0.6s0.1,0.3,0.2,0.3c0.1,0.1,0.2,0.1,0.4,0.1
			s0.4,0,0.8,0c0.3,0,0.6,0,0.9-0.1s0.5-0.1,0.6-0.2c0.2-0.2,0.4-0.5,0.6-0.8s0.4-0.7,0.5-1H143.6z"/>
		<path class="st3" d="M144.9,20.5h-10.6v-3.3l1.2-0.1v-4.4l-1.2-0.2V9.2h7.6v3.3l-1.3,0.1V17c0.2,0,0.4,0,0.6,0
			c0.1-0.1,0.1-0.2,0.2-0.4c0.2-0.3,0.3-0.6,0.4-0.8l0.4-0.9h3L144.9,20.5z"/>
	</g>
	<g>
		<path d="M153.1,19h-4.5v-0.5c0.2,0,0.5-0.1,0.7-0.1c0.3-0.1,0.4-0.1,0.4-0.2c0,0,0-0.1,0-0.1s0-0.1,0-0.2l-0.7-1.7h-2.9
			c-0.1,0.2-0.1,0.3-0.2,0.6c-0.1,0.2-0.1,0.4-0.2,0.6c-0.1,0.2-0.1,0.4-0.1,0.5s0,0.2,0,0.2c0,0.1,0.1,0.2,0.3,0.3s0.5,0.2,0.9,0.2
			V19h-3.4v-0.5c0.1,0,0.3,0,0.4-0.1s0.3-0.1,0.4-0.1c0.2-0.1,0.3-0.2,0.4-0.3s0.2-0.3,0.3-0.5c0.5-1.1,0.9-2.2,1.4-3.3
			s1-2.3,1.5-3.6h1.2c0.8,1.9,1.4,3.4,1.8,4.5s0.8,2,1.1,2.7c0.1,0.1,0.1,0.2,0.2,0.3s0.2,0.2,0.3,0.3c0.1,0.1,0.2,0.1,0.4,0.1
			s0.3,0.1,0.4,0.1V19z M148.7,15.7l-1.2-3l-1.2,3H148.7z"/>
		<path class="st3" d="M154.6,20.5h-12.8v-3.4l1.4-0.1c0.1,0,0.1,0,0.2,0c0,0,0,0,0-0.1l3.3-7.9h0.6h0.4h2.2l0.4,0.9
			c0.8,1.9,1.4,3.4,1.8,4.5c0.4,1,0.8,1.9,1,2.6c0,0,0,0,0.1,0l1.4,0.1V20.5z M143.3,17.1C143.3,17.1,143.3,17.1,143.3,17.1
			C143.3,17.1,143.3,17.1,143.3,17.1z"/>
	</g>
	<g>
		<path d="M160.5,15.2c0.2,0.2,0.5,0.4,0.6,0.6s0.2,0.6,0.2,0.9c0,0.4-0.1,0.8-0.3,1.1s-0.4,0.5-0.8,0.7c-0.4,0.2-0.8,0.3-1.2,0.4
			s-1,0.1-1.6,0.1h-4.3v-0.5c0.1,0,0.3,0,0.5-0.1s0.3-0.1,0.4-0.1c0.1-0.1,0.2-0.1,0.3-0.2s0.1-0.2,0.1-0.4V12c0-0.1,0-0.3-0.1-0.4
			s-0.1-0.2-0.3-0.2c-0.1-0.1-0.3-0.1-0.4-0.1s-0.3-0.1-0.4-0.1v-0.5h4.5c1.1,0,2,0.2,2.5,0.5s0.8,0.8,0.8,1.4
			c0,0.3-0.1,0.5-0.2,0.7s-0.3,0.4-0.5,0.6c-0.2,0.1-0.4,0.3-0.7,0.4s-0.6,0.2-0.9,0.3v0.1c0.3,0,0.6,0.1,0.9,0.2
			S160.2,15.1,160.5,15.2z M158.6,12.7c0-0.5-0.1-0.8-0.4-1.1s-0.6-0.4-1.2-0.4c-0.1,0-0.2,0-0.3,0s-0.2,0-0.3,0v3.1h0.3
			c0.6,0,1.1-0.1,1.4-0.4S158.6,13.2,158.6,12.7z M159,16.7c0-0.6-0.2-1-0.5-1.3c-0.3-0.3-0.8-0.5-1.5-0.5c-0.1,0-0.2,0-0.3,0
			s-0.2,0-0.3,0v3c0,0.1,0.1,0.3,0.3,0.4s0.4,0.1,0.7,0.1c0.5,0,0.8-0.2,1.1-0.5C158.8,17.7,159,17.3,159,16.7z"/>
		<path class="st3" d="M157.4,20.5h-5.8v-3.3l1.2-0.1v-4.4l-1.2-0.2V9.2h6c1.4,0,2.5,0.2,3.3,0.7c0.9,0.6,1.5,1.5,1.5,2.7
			c0,0.5-0.1,1-0.3,1.4c-0.1,0.1-0.1,0.2-0.2,0.4c0.2,0.2,0.4,0.5,0.6,0.7c0.3,0.5,0.4,1.1,0.4,1.7c0,0.7-0.2,1.3-0.5,1.9
			c-0.3,0.5-0.8,1-1.4,1.2c-0.5,0.2-1,0.4-1.7,0.5C158.8,20.5,158.1,20.5,157.4,20.5z"/>
	</g>
	<g>
		<path d="M169.9,11.6c0.4,0.4,0.7,0.8,1,1.4s0.4,1.1,0.4,1.8c0,0.6-0.1,1.2-0.3,1.7s-0.5,1-0.9,1.4c-0.4,0.4-0.9,0.7-1.4,1
			s-1.2,0.3-1.9,0.3c-0.6,0-1.2-0.1-1.7-0.3s-1-0.5-1.4-0.9c-0.4-0.4-0.7-0.8-1-1.4s-0.4-1.1-0.4-1.8c0-0.7,0.1-1.3,0.3-1.8
			s0.6-1,1-1.4c0.4-0.4,0.9-0.7,1.4-0.9s1.1-0.3,1.8-0.3c0.6,0,1.2,0.1,1.7,0.3S169.5,11.3,169.9,11.6z M168.4,17.6
			c0.2-0.4,0.3-0.8,0.4-1.2c0.1-0.4,0.1-1,0.1-1.5c0-0.5,0-0.9-0.1-1.4s-0.2-0.9-0.3-1.2c-0.2-0.4-0.4-0.6-0.7-0.9
			c-0.3-0.2-0.6-0.3-1-0.3c-0.7,0-1.2,0.3-1.6,1s-0.6,1.6-0.6,2.8c0,0.5,0,1,0.1,1.5c0.1,0.5,0.2,0.9,0.4,1.2
			c0.2,0.3,0.4,0.6,0.7,0.8c0.3,0.2,0.6,0.3,1,0.3c0.4,0,0.7-0.1,1-0.3C168,18.2,168.2,17.9,168.4,17.6z"/>
		<path class="st3" d="M166.7,20.8c-0.8,0-1.5-0.1-2.2-0.4c-0.7-0.3-1.4-0.7-1.9-1.2c-0.6-0.5-1-1.1-1.3-1.8
			c-0.3-0.7-0.5-1.5-0.5-2.4c0-0.9,0.2-1.7,0.5-2.4c0.3-0.7,0.7-1.4,1.3-1.9c0.6-0.5,1.2-0.9,1.9-1.2c1.4-0.5,3.1-0.5,4.6,0
			c0.7,0.3,1.4,0.7,1.9,1.1l0,0c0.6,0.5,1,1.1,1.3,1.8c0.3,0.7,0.5,1.5,0.5,2.4c0,0.8-0.1,1.5-0.4,2.3c-0.3,0.7-0.7,1.4-1.2,1.9
			c-0.5,0.6-1.2,1-1.9,1.3C168.5,20.6,167.6,20.8,166.7,20.8z M166.6,17.2c0,0,0.2,0,0.3,0c0,0,0.1-0.1,0.2-0.2l0,0
			c0.1-0.2,0.2-0.5,0.2-0.8c0.1-0.4,0.1-0.8,0.1-1.3c0-0.4,0-0.8-0.1-1.2c0-0.3-0.1-0.6-0.2-0.8c-0.1-0.1-0.1-0.2-0.2-0.3h0
			c0,0,0,0-0.1,0c-0.1,0-0.2,0-0.3,0.2c-0.2,0.3-0.4,0.9-0.4,2.1c0,0.4,0,0.8,0.1,1.2c0.1,0.3,0.1,0.6,0.2,0.8
			C166.5,17,166.5,17.1,166.6,17.2C166.6,17.2,166.6,17.2,166.6,17.2z"/>
	</g>
	<g>
		<path d="M181.6,19h-3.2c-0.6-0.8-1-1.5-1.4-2s-0.8-1.1-1.4-1.7h-0.3v2.5c0,0.1,0,0.3,0.1,0.4s0.2,0.2,0.3,0.2
			c0.1,0,0.2,0.1,0.3,0.1s0.3,0.1,0.4,0.1V19h-4.4v-0.5c0.1,0,0.3,0,0.4,0s0.3,0,0.4-0.1c0.1-0.1,0.2-0.1,0.3-0.2s0.1-0.2,0.1-0.4
			V12c0-0.1,0-0.3-0.1-0.4s-0.1-0.2-0.3-0.2c-0.1-0.1-0.3-0.1-0.4-0.1s-0.3-0.1-0.4-0.1v-0.5h4.7c1,0,1.8,0.2,2.4,0.5
			s0.8,0.8,0.8,1.5c0,0.6-0.2,1-0.5,1.4s-0.8,0.6-1.5,0.8c0.3,0.3,0.6,0.7,0.9,1.2s0.7,0.9,1.1,1.4c0.1,0.2,0.3,0.3,0.5,0.6
			s0.4,0.4,0.6,0.4c0.1,0,0.2,0.1,0.3,0.1s0.2,0,0.3,0V19z M177.6,12.9c0-0.6-0.2-1-0.5-1.2s-0.8-0.4-1.3-0.4h-0.5v3.5h0.4
			c0.6,0,1-0.2,1.3-0.5S177.6,13.5,177.6,12.9z"/>
		<path class="st3" d="M183.1,20.5h-12.5v-3.3l1.2-0.1v-4.4l-1.2-0.2V9.2h6.2c1.3,0,2.4,0.2,3.2,0.7c1,0.6,1.5,1.6,1.5,2.8
			c0,1-0.3,1.8-0.9,2.4c-0.1,0.1-0.2,0.2-0.3,0.3c0.3,0.4,0.6,0.8,0.9,1.1c0.1,0.1,0.2,0.3,0.4,0.5c0,0,0,0,0,0c0.1,0,0.1,0,0.2,0
			l1.4,0.1L183.1,20.5z M181.6,17.1L181.6,17.1L181.6,17.1z"/>
	</g>
</g>
<g class="st2">
	<g>
		<path d="M54,33.4h-3.2c-0.6-0.8-1-1.5-1.4-2c-0.4-0.5-0.8-1.1-1.4-1.7h-0.3v2.5c0,0.1,0,0.3,0.1,0.4s0.2,0.2,0.3,0.2
			c0.1,0,0.2,0.1,0.3,0.1s0.3,0.1,0.4,0.1v0.5h-4.4V33c0.1,0,0.3,0,0.4,0s0.3,0,0.4-0.1c0.1-0.1,0.2-0.1,0.3-0.2s0.1-0.2,0.1-0.4
			v-5.9c0-0.1,0-0.3-0.1-0.4s-0.1-0.2-0.3-0.2c-0.1-0.1-0.3-0.1-0.4-0.1s-0.3-0.1-0.4-0.1v-0.5h4.7c1,0,1.8,0.2,2.4,0.5
			s0.8,0.8,0.8,1.5c0,0.6-0.2,1-0.5,1.4s-0.8,0.6-1.5,0.8c0.3,0.3,0.6,0.7,0.9,1.2s0.7,0.9,1.1,1.4c0.1,0.2,0.3,0.3,0.5,0.6
			s0.4,0.4,0.6,0.4c0.1,0,0.2,0.1,0.3,0.1s0.2,0,0.3,0V33.4z M50,27.3c0-0.6-0.2-1-0.5-1.2s-0.8-0.4-1.3-0.4h-0.5v3.5h0.4
			c0.6,0,1-0.2,1.3-0.5S50,27.9,50,27.3z"/>
		<path class="st3" d="M55.5,34.9H42.9v-3.3l1.2-0.1V27l-1.2-0.2v-3.2h6.2c1.3,0,2.4,0.2,3.2,0.7c1,0.6,1.5,1.6,1.5,2.8
			c0,1-0.3,1.8-0.9,2.4c-0.1,0.1-0.2,0.2-0.3,0.3c0.3,0.4,0.6,0.8,0.9,1.1c0.1,0.1,0.2,0.3,0.4,0.5c0,0,0,0,0,0c0.1,0,0.1,0,0.2,0
			l1.4,0.1L55.5,34.9z M53.9,31.5L53.9,31.5L53.9,31.5z"/>
	</g>
	<g>
		<path d="M61.4,27.2h-0.4c-0.1-0.3-0.3-0.6-0.6-1c-0.3-0.3-0.6-0.5-0.8-0.6c-0.1,0-0.3,0-0.5,0s-0.4,0-0.5,0h-1.2v3.2h0.9
			c0.2,0,0.4,0,0.6-0.1s0.3-0.1,0.5-0.3c0.1-0.1,0.2-0.2,0.3-0.5s0.2-0.4,0.2-0.6h0.4v3.5h-0.4c0-0.2-0.1-0.4-0.2-0.6
			s-0.2-0.4-0.3-0.5c-0.1-0.1-0.3-0.2-0.5-0.3s-0.4-0.1-0.6-0.1h-0.9v2.4c0,0.3,0,0.4,0.1,0.6s0.1,0.3,0.2,0.3
			c0.1,0.1,0.2,0.1,0.4,0.1s0.4,0,0.7,0c0.1,0,0.3,0,0.5,0s0.4,0,0.5,0c0.2,0,0.3,0,0.5-0.1s0.2-0.1,0.3-0.2
			c0.2-0.2,0.4-0.5,0.6-0.9c0.2-0.4,0.4-0.7,0.5-0.9h0.4l-0.2,2.6H54V33c0.1,0,0.3,0,0.4,0s0.3-0.1,0.4-0.1c0.1-0.1,0.2-0.1,0.3-0.2
			s0.1-0.2,0.1-0.4v-5.9c0-0.1,0-0.3-0.1-0.3s-0.1-0.2-0.3-0.2c-0.1,0-0.2-0.1-0.4-0.1s-0.3-0.1-0.4-0.1v-0.5h7.4V27.2z"/>
		<path class="st3" d="M63.2,34.9H52.5v-3.4l1.2-0.1v-4.4l-1.2-0.2v-3.3h10.4v5.1h-1.3v0.6h1.9L63.2,34.9z M58.1,31.4L58.1,31.4
			L58.1,31.4z"/>
	</g>
	<g>
		<path d="M70.4,27.2c0,0.5-0.1,0.9-0.3,1.2s-0.5,0.6-0.8,0.8c-0.4,0.2-0.8,0.4-1.2,0.5s-1,0.1-1.5,0.1h-0.7v2.3
			c0,0.1,0,0.3,0.1,0.4s0.2,0.2,0.3,0.2c0.1,0,0.2,0.1,0.4,0.1S67,33,67.1,33v0.5h-4.5V33c0.1,0,0.3,0,0.5,0s0.3,0,0.4-0.1
			c0.2-0.1,0.3-0.1,0.3-0.2s0.1-0.2,0.1-0.4v-5.9c0-0.1,0-0.3-0.1-0.4s-0.1-0.2-0.3-0.2c-0.1,0-0.3-0.1-0.4-0.1s-0.3-0.1-0.4-0.1
			v-0.5h4.6c1.1,0,1.9,0.2,2.4,0.5S70.4,26.5,70.4,27.2z M68.1,27.5c0-0.6-0.1-1.1-0.4-1.4s-0.7-0.5-1.3-0.5h-0.5v3.7h0.2
			c0.6,0,1.1-0.1,1.5-0.4S68.1,28.1,68.1,27.5z"/>
		<path class="st3" d="M68.6,34.9h-7.5v-3.3l1.2-0.1v-4.4l-1.2-0.2v-3.3h6.1c1.4,0,2.4,0.2,3.2,0.8c1,0.6,1.5,1.6,1.5,2.8
			c0,0.7-0.2,1.4-0.5,2c-0.3,0.6-0.8,1-1.3,1.4c-0.5,0.3-1.1,0.5-1.7,0.7c-0.3,0.1-0.7,0.1-1,0.1v0.2l1.2,0.1V34.9z"/>
	</g>
	<g>
		<path d="M80.6,25.6c-0.1,0-0.3,0-0.5,0.1s-0.4,0.1-0.5,0.2c-0.1,0.1-0.3,0.3-0.3,0.5s-0.1,0.6-0.1,1.1v3.1c0,0.9-0.3,1.6-0.9,2.2
			s-1.4,0.8-2.4,0.8c-1.2,0-2.1-0.3-2.7-0.8s-1-1.3-1-2.2v-4.3c0-0.1,0-0.3-0.1-0.4s-0.2-0.2-0.3-0.3c-0.1-0.1-0.2-0.1-0.4-0.1
			s-0.3-0.1-0.4-0.1v-0.4h4.4v0.4c-0.1,0-0.3,0-0.4,0s-0.3,0.1-0.4,0.1c-0.1,0-0.2,0.1-0.3,0.2s-0.1,0.2-0.1,0.4v4.2
			c0,0.8,0.2,1.4,0.5,1.8c0.4,0.4,0.9,0.6,1.6,0.6c0.7,0,1.2-0.2,1.6-0.6c0.4-0.4,0.6-1,0.6-1.8v-2.8c0-0.5,0-0.9-0.1-1.1
			s-0.2-0.4-0.3-0.5c-0.1-0.1-0.3-0.2-0.5-0.2s-0.4-0.1-0.5-0.1v-0.5h3.6V25.6z"/>
		<path class="st3" d="M75.8,35.2c-1.5,0-2.8-0.4-3.7-1.1c-1-0.8-1.5-2-1.5-3.4V27l-1.1-0.1v-3.3h12.6v3.3l-1.3,0.1c0,0,0,0-0.1,0
			c0,0.1,0,0.3,0,0.5v3.1c0,1.3-0.5,2.5-1.4,3.3C78.4,34.8,77.2,35.2,75.8,35.2z M75.7,27v3.5c0,0.6,0.1,0.8,0.1,0.8
			c0,0,0.2,0.1,0.5,0.1c0.4,0,0.5-0.1,0.5-0.1c0,0,0.2-0.2,0.2-0.8v-2.8c0-0.2,0-0.4,0-0.5c-0.1,0-0.1,0-0.2,0L76.4,27L75.7,27z
			 M75,27.1C75,27.1,75,27.1,75,27.1C75,27.1,75,27.1,75,27.1z"/>
	</g>
	<g>
		<path d="M88.4,29.6c0.2,0.2,0.5,0.4,0.6,0.6s0.2,0.6,0.2,0.9c0,0.4-0.1,0.8-0.3,1.1c-0.2,0.3-0.4,0.5-0.8,0.7
			c-0.4,0.2-0.8,0.3-1.2,0.4s-1,0.1-1.6,0.1h-4.3V33c0.1,0,0.3,0,0.5-0.1s0.3-0.1,0.4-0.1c0.1-0.1,0.2-0.1,0.3-0.2s0.1-0.2,0.1-0.4
			v-5.9c0-0.1,0-0.3-0.1-0.4s-0.1-0.2-0.3-0.2c-0.1-0.1-0.3-0.1-0.4-0.1s-0.3-0.1-0.4-0.1v-0.5h4.5c1.1,0,2,0.2,2.5,0.5
			s0.8,0.8,0.8,1.4c0,0.3-0.1,0.5-0.2,0.7s-0.3,0.4-0.5,0.6c-0.2,0.1-0.4,0.3-0.7,0.4s-0.6,0.2-0.9,0.3V29c0.3,0,0.6,0.1,0.9,0.2
			S88.2,29.5,88.4,29.6z M86.5,27.1c0-0.5-0.1-0.8-0.4-1.1s-0.6-0.4-1.2-0.4c-0.1,0-0.2,0-0.3,0s-0.2,0-0.3,0v3.1h0.3
			c0.6,0,1.1-0.1,1.4-0.4S86.5,27.6,86.5,27.1z M86.9,31.1c0-0.6-0.2-1-0.5-1.3c-0.3-0.3-0.8-0.5-1.5-0.5c-0.1,0-0.2,0-0.3,0
			s-0.2,0-0.3,0v3c0,0.1,0.1,0.3,0.3,0.4s0.4,0.1,0.7,0.1c0.5,0,0.8-0.2,1.1-0.5C86.8,32.1,86.9,31.7,86.9,31.1z"/>
		<path class="st3" d="M85.4,34.9h-5.8v-3.3l1.2-0.1V27l-1.2-0.2v-3.2h6c1.4,0,2.5,0.2,3.3,0.7c0.9,0.6,1.5,1.5,1.5,2.7
			c0,0.5-0.1,1-0.3,1.4c-0.1,0.1-0.1,0.2-0.2,0.4c0.2,0.2,0.4,0.5,0.6,0.7c0.3,0.5,0.4,1.1,0.4,1.7c0,0.7-0.2,1.3-0.5,1.9
			c-0.3,0.5-0.8,1-1.4,1.2c-0.5,0.2-1,0.4-1.7,0.5C86.7,34.9,86.1,34.9,85.4,34.9z"/>
	</g>
	<g>
		<path d="M98,30.8l-0.2,2.7h-7.7V33c0.1,0,0.3,0,0.5-0.1s0.3,0,0.4-0.1c0.1-0.1,0.2-0.1,0.3-0.2s0.1-0.2,0.1-0.4v-5.9
			c0-0.1,0-0.3-0.1-0.3s-0.1-0.2-0.3-0.2c-0.1-0.1-0.3-0.1-0.4-0.1s-0.3-0.1-0.4-0.1v-0.5h4.6v0.5c-0.1,0-0.3,0-0.4,0
			s-0.3,0.1-0.4,0.1c-0.2,0.1-0.3,0.1-0.3,0.2s-0.1,0.2-0.1,0.4v5.5c0,0.3,0,0.5,0.1,0.6s0.1,0.3,0.2,0.3c0.1,0.1,0.2,0.1,0.4,0.1
			s0.4,0,0.8,0c0.3,0,0.6,0,0.9-0.1s0.5-0.1,0.6-0.2c0.2-0.2,0.4-0.5,0.6-0.8c0.2-0.4,0.4-0.7,0.5-1H98z"/>
		<path class="st3" d="M99.2,34.9H88.6v-3.3l1.2-0.1V27l-1.2-0.2v-3.2h7.6v3.3l-1.3,0.1v4.3c0.2,0,0.4,0,0.6,0
			c0.1-0.1,0.1-0.2,0.2-0.4c0.2-0.3,0.3-0.6,0.4-0.8l0.4-0.9h3L99.2,34.9z"/>
	</g>
	<g>
		<path d="M102.9,33.4h-4.6V33c0.1,0,0.3,0,0.5,0s0.3,0,0.4-0.1c0.1-0.1,0.2-0.1,0.3-0.2s0.1-0.2,0.1-0.4v-5.9c0-0.1,0-0.2-0.1-0.4
			s-0.2-0.2-0.3-0.2c-0.1,0-0.2-0.1-0.4-0.1s-0.3-0.1-0.5-0.1v-0.5h4.6v0.5c-0.1,0-0.3,0-0.4,0s-0.3,0.1-0.4,0.1
			c-0.2,0.1-0.3,0.1-0.3,0.2s-0.1,0.2-0.1,0.4v5.9c0,0.1,0,0.3,0.1,0.4s0.2,0.2,0.3,0.2c0.1,0,0.2,0.1,0.4,0.1s0.3,0.1,0.5,0.1V33.4
			z"/>
		<polygon class="st3" points="104.4,34.9 96.8,34.9 96.8,31.6 98.1,31.5 98.1,27.1 96.8,26.9 96.8,23.6 104.4,23.6 104.4,26.9 
			103.2,27.1 103.2,31.5 104.4,31.6 		"/>
	</g>
	<g>
		<path d="M108.1,33.7c-0.6,0-1.2-0.1-1.7-0.3c-0.5-0.2-1-0.5-1.4-0.9c-0.4-0.4-0.7-0.8-0.9-1.4c-0.2-0.5-0.3-1.1-0.3-1.8
			c0-0.6,0.1-1.2,0.3-1.8c0.2-0.5,0.5-1,0.9-1.4c0.4-0.4,0.9-0.7,1.4-0.9c0.6-0.2,1.2-0.3,1.8-0.3c0.5,0,0.9,0.1,1.3,0.2
			s0.7,0.2,1,0.4l0.4-0.3h0.5l0.1,3h-0.5c-0.3-0.9-0.6-1.6-1.1-2c-0.4-0.4-0.9-0.7-1.5-0.7c-0.7,0-1.3,0.3-1.7,1
			c-0.4,0.6-0.6,1.6-0.6,2.7c0,0.7,0.1,1.2,0.2,1.7s0.3,0.8,0.5,1.1c0.2,0.3,0.5,0.5,0.8,0.7c0.3,0.1,0.6,0.2,1,0.2
			c0.5,0,1-0.1,1.5-0.4c0.4-0.3,0.8-0.7,1.2-1.3l0.5,0.3c-0.2,0.3-0.4,0.7-0.6,0.9s-0.5,0.5-0.7,0.7c-0.3,0.2-0.6,0.4-1,0.5
			S108.6,33.7,108.1,33.7z"/>
		<path class="st3" d="M108.1,35.2c-0.8,0-1.5-0.1-2.2-0.4c-0.7-0.3-1.4-0.7-1.9-1.2c-0.5-0.5-1-1.1-1.3-1.9
			c-0.3-0.7-0.4-1.5-0.4-2.4c0-0.8,0.2-1.6,0.4-2.4c0.3-0.7,0.7-1.4,1.3-1.9c0.5-0.5,1.2-1,1.9-1.3c1.3-0.5,2.8-0.6,4-0.2
			c0.1,0,0.2,0,0.2,0.1l0.1-0.1h2.6l0.1,6h-1.1l1.9,1.1l-0.6,1.2c-0.2,0.4-0.5,0.8-0.7,1.2c-0.3,0.4-0.7,0.7-1.1,1
			c-0.4,0.3-0.9,0.5-1.4,0.7C109.3,35.1,108.7,35.2,108.1,35.2z M108.3,27c-0.2,0-0.3,0-0.4,0.2c-0.2,0.3-0.4,0.9-0.4,2
			c0,0.5,0,1,0.1,1.3c0.1,0.4,0.2,0.6,0.3,0.6c0.1,0.1,0.2,0.2,0.2,0.2c0.3,0.1,0.7,0.1,1-0.1c0.2-0.2,0.5-0.5,0.7-0.9l0.4-0.6h-0.5
			l-0.3-1c-0.3-0.9-0.6-1.3-0.7-1.5C108.6,27,108.5,27,108.3,27z"/>
	</g>
	<g>
		<path d="M123,26c0.4,0.4,0.7,0.8,1,1.4s0.4,1.1,0.4,1.8c0,0.6-0.1,1.2-0.3,1.7s-0.5,1-0.9,1.4c-0.4,0.4-0.9,0.7-1.4,1
			s-1.2,0.3-1.9,0.3c-0.6,0-1.2-0.1-1.7-0.3s-1-0.5-1.4-0.9c-0.4-0.4-0.7-0.8-1-1.4s-0.4-1.1-0.4-1.8c0-0.7,0.1-1.3,0.3-1.8
			s0.6-1,1-1.4c0.4-0.4,0.9-0.7,1.4-0.9s1.1-0.3,1.8-0.3c0.6,0,1.2,0.1,1.7,0.3S122.6,25.7,123,26z M121.5,32
			c0.2-0.4,0.3-0.8,0.4-1.2c0.1-0.4,0.1-1,0.1-1.5c0-0.5,0-0.9-0.1-1.4s-0.2-0.9-0.3-1.2c-0.2-0.4-0.4-0.6-0.7-0.9
			c-0.3-0.2-0.6-0.3-1-0.3c-0.7,0-1.2,0.3-1.6,1s-0.6,1.6-0.6,2.8c0,0.5,0,1,0.1,1.5c0.1,0.5,0.2,0.9,0.4,1.2
			c0.2,0.3,0.4,0.6,0.7,0.8c0.3,0.2,0.6,0.3,1,0.3c0.4,0,0.7-0.1,1-0.3C121.1,32.6,121.4,32.3,121.5,32z"/>
		<path class="st3" d="M119.8,35.2c-0.8,0-1.5-0.1-2.2-0.4c-0.7-0.3-1.4-0.7-1.9-1.2c-0.6-0.5-1-1.1-1.3-1.8
			c-0.3-0.7-0.5-1.5-0.5-2.4c0-0.9,0.2-1.7,0.5-2.4c0.3-0.7,0.7-1.4,1.3-1.9c0.6-0.5,1.2-0.9,1.9-1.2c1.4-0.5,3.1-0.5,4.6,0
			c0.7,0.3,1.4,0.7,1.9,1.1l0,0c0.6,0.5,1,1.1,1.3,1.8c0.3,0.7,0.5,1.5,0.5,2.4c0,0.8-0.1,1.5-0.4,2.3c-0.3,0.7-0.7,1.4-1.2,1.9
			c-0.5,0.6-1.2,1-1.9,1.3C121.6,35,120.8,35.2,119.8,35.2z M119.7,31.6c0,0,0.2,0,0.3,0c0,0,0.1-0.1,0.2-0.2l0,0
			c0.1-0.2,0.2-0.5,0.2-0.8c0.1-0.4,0.1-0.8,0.1-1.3c0-0.4,0-0.8-0.1-1.2c0-0.3-0.1-0.6-0.2-0.8c-0.1-0.1-0.1-0.2-0.2-0.3l0,0
			c0,0,0,0-0.1,0c-0.1,0-0.2,0-0.3,0.2c-0.2,0.3-0.4,0.9-0.4,2.1c0,0.4,0,0.8,0.1,1.2c0.1,0.3,0.1,0.6,0.2,0.8
			C119.6,31.4,119.7,31.5,119.7,31.6C119.7,31.6,119.7,31.6,119.7,31.6z"/>
	</g>
	<g>
		<path d="M132.7,27.3h-0.5c-0.1-0.3-0.3-0.7-0.6-1c-0.3-0.4-0.6-0.6-0.8-0.6c-0.1,0-0.3,0-0.5,0s-0.4,0-0.5,0h-1.3v3.3h0.8
			c0.2,0,0.4,0,0.6-0.1s0.3-0.1,0.5-0.3c0.1-0.1,0.2-0.3,0.3-0.5s0.1-0.4,0.2-0.6h0.4V31h-0.4c0-0.2-0.1-0.4-0.2-0.6
			s-0.2-0.4-0.3-0.5c-0.1-0.1-0.3-0.2-0.4-0.3s-0.4-0.1-0.6-0.1h-0.8v2.8c0,0.1,0,0.3,0.1,0.4s0.2,0.2,0.3,0.2
			c0.1,0,0.2,0.1,0.4,0.1s0.3,0.1,0.4,0.1v0.5h-4.5V33c0.1,0,0.3,0,0.5,0s0.3,0,0.4-0.1c0.1-0.1,0.2-0.1,0.3-0.2s0.1-0.2,0.1-0.4
			v-5.9c0-0.1,0-0.2-0.1-0.3s-0.1-0.2-0.3-0.2c-0.1,0-0.3-0.1-0.4-0.1s-0.3-0.1-0.4-0.1v-0.5h7.5V27.3z"/>
		<polygon class="st3" points="131.2,34.9 123.7,34.9 123.7,31.6 124.9,31.5 124.9,27.1 123.7,26.9 123.7,23.6 134.2,23.6 
			134.2,28.8 132.8,28.8 132.8,32.5 131.2,32.5 		"/>
	</g>
	<g>
		<path d="M140.6,33.7c-0.6,0-1.2-0.1-1.7-0.3c-0.5-0.2-1-0.5-1.4-0.9c-0.4-0.4-0.7-0.8-0.9-1.4c-0.2-0.5-0.3-1.1-0.3-1.8
			c0-0.6,0.1-1.2,0.3-1.8c0.2-0.5,0.5-1,0.9-1.4c0.4-0.4,0.9-0.7,1.4-0.9c0.6-0.2,1.2-0.3,1.8-0.3c0.5,0,0.9,0.1,1.3,0.2
			s0.7,0.2,1,0.4l0.4-0.3h0.5l0.1,3h-0.5c-0.3-0.9-0.6-1.6-1.1-2c-0.4-0.4-0.9-0.7-1.5-0.7c-0.7,0-1.3,0.3-1.7,1
			c-0.4,0.6-0.6,1.6-0.6,2.7c0,0.7,0.1,1.2,0.2,1.7s0.3,0.8,0.5,1.1c0.2,0.3,0.5,0.5,0.8,0.7c0.3,0.1,0.6,0.2,1,0.2
			c0.5,0,1-0.1,1.5-0.4c0.4-0.3,0.8-0.7,1.2-1.3l0.5,0.3c-0.2,0.3-0.4,0.7-0.6,0.9s-0.5,0.5-0.7,0.7c-0.3,0.2-0.6,0.4-1,0.5
			S141.2,33.7,140.6,33.7z"/>
		<path class="st3" d="M140.6,35.2c-0.8,0-1.5-0.1-2.2-0.4c-0.7-0.3-1.4-0.7-1.9-1.2c-0.5-0.5-1-1.1-1.3-1.9
			c-0.3-0.7-0.4-1.5-0.4-2.4c0-0.8,0.2-1.6,0.4-2.4c0.3-0.7,0.7-1.4,1.3-1.9c0.5-0.5,1.2-1,1.9-1.3c1.3-0.5,2.8-0.6,4-0.2
			c0.1,0,0.2,0,0.2,0.1l0.1-0.1h2.6l0.1,6h-1.1l1.9,1.1l-0.6,1.2c-0.2,0.4-0.5,0.8-0.7,1.2c-0.3,0.4-0.7,0.7-1.1,1
			c-0.4,0.3-0.9,0.5-1.4,0.7C141.9,35.1,141.3,35.2,140.6,35.2z M140.9,27c-0.2,0-0.3,0-0.4,0.2c-0.2,0.3-0.4,0.9-0.4,2
			c0,0.5,0,1,0.1,1.3c0.1,0.4,0.2,0.6,0.3,0.6c0.1,0.1,0.2,0.2,0.2,0.2c0.3,0.1,0.7,0.1,1-0.1c0.2-0.2,0.5-0.5,0.7-0.9l0.4-0.6h-0.5
			l-0.3-1c-0.3-0.9-0.6-1.3-0.7-1.5C141.2,27,141.1,27,140.9,27z"/>
	</g>
	<g>
		<path d="M155,33.4h-4.5V33c0.1,0,0.2,0,0.4,0s0.3,0,0.4-0.1c0.1-0.1,0.2-0.1,0.3-0.2s0.1-0.2,0.1-0.4v-2.9h-3.6v2.8
			c0,0.1,0,0.3,0.1,0.4s0.2,0.2,0.3,0.2c0.1,0,0.2,0.1,0.4,0.1s0.3,0.1,0.4,0.1v0.5h-4.5V33c0.1,0,0.2,0,0.4,0s0.3,0,0.4-0.1
			c0.1-0.1,0.2-0.1,0.3-0.2s0.1-0.2,0.1-0.4v-5.9c0-0.1,0-0.3-0.1-0.3s-0.1-0.2-0.3-0.2c-0.1-0.1-0.3-0.1-0.4-0.1s-0.3-0.1-0.4-0.1
			v-0.5h4.5v0.5c-0.1,0-0.3,0-0.4,0.1s-0.3,0.1-0.4,0.1c-0.2,0.1-0.3,0.1-0.3,0.2s-0.1,0.2-0.1,0.4v2.5h3.6v-2.4
			c0-0.1,0-0.3-0.1-0.3s-0.2-0.2-0.3-0.2c-0.1,0-0.2-0.1-0.4-0.1s-0.3-0.1-0.4-0.1v-0.5h4.5v0.5c-0.1,0-0.3,0-0.4,0
			s-0.3,0.1-0.4,0.1c-0.1,0.1-0.2,0.1-0.3,0.2s-0.1,0.2-0.1,0.4v5.9c0,0.1,0,0.3,0.1,0.4s0.2,0.2,0.3,0.2c0.1,0,0.2,0.1,0.4,0.1
			s0.3,0.1,0.4,0.1V33.4z"/>
		<path class="st3" d="M156.5,34.9h-13.1v-3.4l1.2,0V27l-1.2-0.2l0-3.3h13.1V27l-1.2,0.1v4.4l1.2,0.1V34.9z M149.7,31.5l0.3,0l0.2,0
			v-0.6h-0.6V31.5z M149.7,27.3h0.6V27l-0.1,0l-0.4,0V27.3z"/>
	</g>
	<g>
		<path d="M160.4,33.4h-4.6V33c0.1,0,0.3,0,0.5,0s0.3,0,0.4-0.1c0.1-0.1,0.2-0.1,0.3-0.2s0.1-0.2,0.1-0.4v-5.9c0-0.1,0-0.2-0.1-0.4
			s-0.2-0.2-0.3-0.2c-0.1,0-0.2-0.1-0.4-0.1s-0.3-0.1-0.5-0.1v-0.5h4.6v0.5c-0.1,0-0.3,0-0.4,0s-0.3,0.1-0.4,0.1
			c-0.2,0.1-0.3,0.1-0.3,0.2s-0.1,0.2-0.1,0.4v5.9c0,0.1,0,0.3,0.1,0.4s0.2,0.2,0.3,0.2c0.1,0,0.2,0.1,0.4,0.1s0.3,0.1,0.5,0.1V33.4
			z"/>
		<polygon class="st3" points="161.9,34.9 154.3,34.9 154.3,31.6 155.6,31.5 155.6,27.1 154.3,26.9 154.3,23.6 161.9,23.6 
			161.9,26.9 160.6,27.1 160.6,31.5 161.9,31.6 		"/>
	</g>
	<g>
		<path d="M170.7,25.6c-0.1,0-0.3,0-0.5,0.1s-0.4,0.1-0.6,0.2c-0.1,0.1-0.2,0.3-0.3,0.5s-0.1,0.6-0.1,1.1v5.9h-1l-5.2-6.4V31
			c0,0.5,0,0.9,0.1,1.1c0.1,0.3,0.2,0.4,0.3,0.6c0.1,0.1,0.3,0.2,0.5,0.2s0.4,0.1,0.6,0.1v0.5H161V33c0.2,0,0.3,0,0.5-0.1
			s0.4-0.1,0.5-0.2c0.2-0.1,0.3-0.3,0.3-0.5c0.1-0.2,0.1-0.6,0.1-1.2v-3.9c0-0.2,0-0.4-0.1-0.6s-0.2-0.3-0.3-0.4
			c-0.1-0.1-0.3-0.2-0.5-0.3s-0.4-0.1-0.6-0.2v-0.5h3.1l4.5,5.6v-3.1c0-0.5,0-0.9-0.1-1.1s-0.2-0.4-0.3-0.5
			c-0.1-0.1-0.3-0.2-0.5-0.2s-0.4-0.1-0.5-0.1v-0.5h3.6V25.6z"/>
		<path class="st3" d="M170.1,35L170.1,35l-2.6,0l-1.5-1.9v1.8h-6.6v-3.3l1.4-0.1c0,0,0,0,0,0c0-0.1,0-0.3,0-0.5v-3.9
			c-0.1,0-0.1,0-0.2-0.1l-1.2-0.2v-3.2h2.1h0.7h2.5l0.9,1.1v-1.1h6.6v3.3l-1.3,0.1c0,0,0,0-0.1,0c0,0.1,0,0.3,0,0.5V35L170.1,35z
			 M164.6,31.4c0,0,0.1,0,0.1,0l-0.1-0.2C164.6,31.4,164.6,31.4,164.6,31.4z"/>
	</g>
	<g>
		<path d="M180.3,33.4h-4.5V33c0.2,0,0.5-0.1,0.7-0.1c0.3-0.1,0.4-0.1,0.4-0.2c0,0,0-0.1,0-0.1s0-0.1,0-0.2l-0.7-1.7h-2.9
			c-0.1,0.2-0.1,0.3-0.2,0.6c-0.1,0.2-0.1,0.4-0.2,0.6c-0.1,0.2-0.1,0.4-0.1,0.5s0,0.2,0,0.2c0,0.1,0.1,0.2,0.3,0.3s0.5,0.2,0.9,0.2
			v0.5h-3.4V33c0.1,0,0.3,0,0.4-0.1s0.3-0.1,0.4-0.1c0.2-0.1,0.3-0.2,0.4-0.3s0.2-0.3,0.3-0.5c0.5-1.1,0.9-2.2,1.4-3.3
			s1-2.3,1.5-3.6h1.2c0.8,1.9,1.4,3.4,1.8,4.5s0.8,2,1.1,2.7c0.1,0.1,0.1,0.2,0.2,0.3s0.2,0.2,0.3,0.3c0.1,0.1,0.2,0.1,0.4,0.1
			s0.3,0.1,0.4,0.1V33.4z M175.9,30.1l-1.2-3l-1.2,3H175.9z"/>
		<path class="st3" d="M181.8,34.9H169v-3.4l1.4-0.1c0.1,0,0.1,0,0.2,0c0,0,0,0,0-0.1l3.3-7.9h0.6h0.4h2.2l0.4,0.9
			c0.8,1.9,1.4,3.4,1.8,4.5c0.4,1,0.8,1.9,1,2.6c0,0,0,0,0.1,0l1.4,0.1V34.9z M170.6,31.5C170.6,31.5,170.5,31.5,170.6,31.5
			C170.5,31.5,170.6,31.5,170.6,31.5z"/>
	</g>
	<g>
		<path d="M184.9,35.4c-0.5-0.1-1.1-0.2-1.6-0.5s-1-0.6-1.4-1c-0.4-0.4-0.7-1-1-1.6c-0.2-0.7-0.4-1.4-0.4-2.3s0.1-1.6,0.4-2.3
			s0.6-1.2,1-1.6c0.4-0.4,0.9-0.8,1.4-1s1-0.4,1.6-0.5V25c-0.7,0.1-1.3,0.6-1.7,1.4s-0.6,2-0.6,3.5s0.2,2.7,0.6,3.5s1,1.3,1.7,1.4
			V35.4z"/>
		<path class="st3" d="M186.4,37.1l-1.7-0.2c-0.7-0.1-1.4-0.3-2-0.6c-0.7-0.3-1.3-0.8-1.8-1.4c-0.5-0.6-1-1.3-1.3-2.1
			c-0.3-0.8-0.5-1.8-0.5-2.8s0.2-2,0.5-2.8c0.3-0.8,0.7-1.5,1.3-2.1c0.5-0.6,1.1-1,1.8-1.4c0.7-0.3,1.3-0.5,2-0.6l1.7-0.2v3.5
			l-1.2,0.2c-0.1,0-0.4,0.1-0.6,0.6c-0.2,0.4-0.4,1.2-0.4,2.8s0.2,2.4,0.4,2.8c0.3,0.5,0.5,0.6,0.6,0.6l1.2,0.2V37.1z"/>
	</g>
	<g>
		<path d="M193.4,27.5H193c-0.1-0.4-0.3-0.7-0.6-1.1c-0.3-0.4-0.5-0.6-0.7-0.7c-0.1,0-0.3,0-0.5,0c-0.2,0-0.3,0-0.5,0h-0.3v6.5
			c0,0.1,0,0.3,0.1,0.4s0.2,0.2,0.3,0.3c0.1,0,0.2,0.1,0.4,0.1s0.4,0.1,0.5,0.1v0.5h-4.6V33c0.1,0,0.3,0,0.5,0s0.3,0,0.4-0.1
			c0.2-0.1,0.3-0.1,0.3-0.3s0.1-0.2,0.1-0.4v-6.6h-0.3c-0.1,0-0.3,0-0.5,0c-0.2,0-0.3,0-0.5,0c-0.2,0-0.5,0.2-0.7,0.7
			c-0.3,0.4-0.5,0.8-0.6,1.1h-0.5v-2.4h8.1V27.5z"/>
		<polygon class="st3" points="193.2,34.9 185.6,34.9 185.6,31.6 186.9,31.5 186.9,29 183.9,29 183.9,23.6 194.9,23.6 194.9,29 
			192,29 192,31.5 193.2,31.6 		"/>
	</g>
	<g>
		<path d="M202.9,33.4h-4.5V33c0.2,0,0.5-0.1,0.7-0.1c0.3-0.1,0.4-0.1,0.4-0.2c0,0,0-0.1,0-0.1s0-0.1,0-0.2l-0.7-1.7h-2.9
			c-0.1,0.2-0.1,0.3-0.2,0.6c-0.1,0.2-0.1,0.4-0.2,0.6c-0.1,0.2-0.1,0.4-0.1,0.5s0,0.2,0,0.2c0,0.1,0.1,0.2,0.3,0.3s0.5,0.2,0.9,0.2
			v0.5h-3.4V33c0.1,0,0.3,0,0.4-0.1s0.3-0.1,0.4-0.1c0.2-0.1,0.3-0.2,0.4-0.3s0.2-0.3,0.3-0.5c0.5-1.1,0.9-2.2,1.4-3.3
			s1-2.3,1.5-3.6h1.2c0.8,1.9,1.4,3.4,1.8,4.5s0.8,2,1.1,2.7c0.1,0.1,0.1,0.2,0.2,0.3s0.2,0.2,0.3,0.3c0.1,0.1,0.2,0.1,0.4,0.1
			s0.3,0.1,0.4,0.1V33.4z M198.6,30.1l-1.2-3l-1.2,3H198.6z"/>
		<path class="st3" d="M204.4,34.9h-12.8v-3.4l1.4-0.1c0.1,0,0.1,0,0.2,0c0,0,0,0,0-0.1l3.3-7.9h0.6h0.4h2.2l0.4,0.9
			c0.8,1.9,1.4,3.4,1.8,4.5c0.4,1,0.8,1.9,1,2.6c0,0,0,0,0.1,0l1.4,0.1V34.9z M193.2,31.5C193.2,31.5,193.2,31.5,193.2,31.5
			C193.2,31.5,193.2,31.5,193.2,31.5z"/>
	</g>
	<g>
		<path d="M207.6,33.4H203V33c0.1,0,0.3,0,0.5,0s0.3,0,0.4-0.1c0.1-0.1,0.2-0.1,0.3-0.2s0.1-0.2,0.1-0.4v-5.9c0-0.1,0-0.2-0.1-0.4
			s-0.2-0.2-0.3-0.2c-0.1,0-0.2-0.1-0.4-0.1s-0.3-0.1-0.5-0.1v-0.5h4.6v0.5c-0.1,0-0.3,0-0.4,0s-0.3,0.1-0.4,0.1
			c-0.2,0.1-0.3,0.1-0.3,0.2s-0.1,0.2-0.1,0.4v5.9c0,0.1,0,0.3,0.1,0.4s0.2,0.2,0.3,0.2c0.1,0,0.2,0.1,0.4,0.1s0.3,0.1,0.5,0.1V33.4
			z"/>
		<polygon class="st3" points="209.1,34.9 201.5,34.9 201.5,31.6 202.7,31.5 202.7,27.1 201.5,26.9 201.5,23.6 209.1,23.6 
			209.1,26.9 207.8,27.1 207.8,31.5 209.1,31.6 		"/>
	</g>
	<g>
		<path d="M221.7,25.6c-0.1,0-0.2,0-0.4,0.1s-0.2,0.1-0.4,0.2c-0.2,0.1-0.3,0.2-0.4,0.3s-0.1,0.3-0.2,0.4c-0.2,0.6-0.5,1.5-1,2.9
			s-0.9,2.7-1.4,4.1h-1.2l-2.2-6.2l-2,6.2h-1.2c-0.7-1.9-1.2-3.4-1.5-4.4s-0.6-1.9-0.9-2.6c-0.1-0.2-0.2-0.4-0.3-0.5
			s-0.2-0.2-0.4-0.3c-0.1-0.1-0.2-0.1-0.3-0.2s-0.3-0.1-0.4-0.1v-0.5h4.4v0.4c-0.3,0-0.5,0.1-0.6,0.1c-0.1,0-0.2,0.1-0.3,0.1
			c-0.1,0-0.1,0.1-0.1,0.1s0,0.1,0,0.1c0,0.1,0,0.1,0,0.2s0,0.1,0,0.2c0.1,0.3,0.3,0.9,0.6,1.7s0.6,1.9,1.1,3.2l1.9-6.1h1.2l2.2,6.2
			c0.3-1,0.6-1.8,0.8-2.5s0.4-1.2,0.5-1.6c0.1-0.3,0.1-0.5,0.2-0.7s0.1-0.3,0.1-0.5c0-0.1,0-0.2-0.1-0.2s-0.2-0.1-0.3-0.2
			c-0.1,0-0.3-0.1-0.4-0.1c-0.2,0-0.3,0-0.5,0v-0.5h3.3V25.6z"/>
		<path class="st3" d="M217.8,35h-2.1l-1.1-3l-1,3h-0.6h-0.7h-2.1l-0.3-1c-0.7-1.9-1.2-3.4-1.5-4.4l-0.9-2.5c0,0-0.1,0-0.1,0
			l-1.3-0.2v-3.3h8h0.6h8.3v3.3l-1.4,0.1c0,0,0,0,0,0c0,0,0,0,0,0c0,0,0,0,0,0c-0.2,0.6-0.5,1.5-1,2.8l-1.7,5.1h-0.5H217.8z
			 M207.6,27.1C207.6,27.1,207.7,27.1,207.6,27.1C207.7,27.1,207.6,27.1,207.6,27.1z M212.6,25.7L212.6,25.7
			C212.6,25.7,212.6,25.7,212.6,25.7z"/>
	</g>
	<g>
		<path d="M230.9,33.4h-4.5V33c0.2,0,0.5-0.1,0.7-0.1c0.3-0.1,0.4-0.1,0.4-0.2c0,0,0-0.1,0-0.1s0-0.1,0-0.2l-0.7-1.7h-2.9
			c-0.1,0.2-0.1,0.3-0.2,0.6c-0.1,0.2-0.1,0.4-0.2,0.6c-0.1,0.2-0.1,0.4-0.1,0.5s0,0.2,0,0.2c0,0.1,0.1,0.2,0.3,0.3s0.5,0.2,0.9,0.2
			v0.5h-3.4V33c0.1,0,0.3,0,0.4-0.1s0.3-0.1,0.4-0.1c0.2-0.1,0.3-0.2,0.4-0.3s0.2-0.3,0.3-0.5c0.5-1.1,0.9-2.2,1.4-3.3
			s1-2.3,1.5-3.6h1.2c0.8,1.9,1.4,3.4,1.8,4.5s0.8,2,1.1,2.7c0.1,0.1,0.1,0.2,0.2,0.3s0.2,0.2,0.3,0.3c0.1,0.1,0.2,0.1,0.4,0.1
			s0.3,0.1,0.4,0.1V33.4z M226.5,30.1l-1.2-3l-1.2,3H226.5z"/>
		<path class="st3" d="M232.4,34.9h-12.8v-3.4l1.4-0.1c0.1,0,0.1,0,0.2,0c0,0,0,0,0-0.1l3.3-7.9h0.6h0.4h2.2l0.4,0.9
			c0.8,1.9,1.4,3.4,1.8,4.5c0.4,1,0.8,1.9,1,2.6c0,0,0,0,0.1,0l1.4,0.1V34.9z M221.2,31.5C221.2,31.5,221.2,31.5,221.2,31.5
			C221.2,31.5,221.2,31.5,221.2,31.5z"/>
	</g>
	<g>
		<path d="M240.5,25.6c-0.1,0-0.3,0-0.5,0.1s-0.4,0.1-0.6,0.2c-0.1,0.1-0.2,0.3-0.3,0.5s-0.1,0.6-0.1,1.1v5.9h-1l-5.2-6.4V31
			c0,0.5,0,0.9,0.1,1.1c0.1,0.3,0.2,0.4,0.3,0.6c0.1,0.1,0.3,0.2,0.5,0.2s0.4,0.1,0.6,0.1v0.5h-3.6V33c0.2,0,0.3,0,0.5-0.1
			s0.4-0.1,0.5-0.2c0.2-0.1,0.3-0.3,0.3-0.5c0.1-0.2,0.1-0.6,0.1-1.2v-3.9c0-0.2,0-0.4-0.1-0.6s-0.2-0.3-0.3-0.4
			c-0.1-0.1-0.3-0.2-0.5-0.3s-0.4-0.1-0.6-0.2v-0.5h3.1l4.5,5.6v-3.1c0-0.5,0-0.9-0.1-1.1s-0.2-0.4-0.3-0.5
			c-0.1-0.1-0.3-0.2-0.5-0.2s-0.4-0.1-0.5-0.1v-0.5h3.6V25.6z"/>
		<path class="st3" d="M239.9,35L239.9,35l-2.6,0l-1.5-1.9v1.8h-6.6v-3.3l1.4-0.1c0,0,0,0,0,0c0-0.1,0-0.3,0-0.5v-3.9
			c-0.1,0-0.1,0-0.2-0.1l-1.2-0.2v-3.2h2.1h0.7h2.5l0.9,1.1v-1.1h6.6v3.3l-1.3,0.1c0,0,0,0-0.1,0c0,0.1,0,0.3,0,0.5V35L239.9,35z
			 M234.4,31.4c0,0,0.1,0,0.1,0l-0.1-0.2C234.4,31.4,234.4,31.4,234.4,31.4z"/>
	</g>
	<g>
		<path d="M245.3,29.9c0,0.9-0.1,1.6-0.4,2.3c-0.2,0.7-0.6,1.2-1,1.6c-0.4,0.4-0.9,0.8-1.4,1s-1,0.4-1.6,0.5v-0.5
			c0.7-0.1,1.3-0.6,1.7-1.4s0.6-2,0.6-3.5s-0.2-2.7-0.6-3.5s-1-1.3-1.7-1.4v-0.5c0.5,0.1,1.1,0.2,1.6,0.5s1,0.6,1.4,1
			c0.4,0.4,0.7,1,1,1.6S245.3,29,245.3,29.9z"/>
		<path class="st3" d="M239.6,37.1v-3.5l1.2-0.2c0.1,0,0.4-0.1,0.6-0.6c0.2-0.4,0.4-1.2,0.4-2.8s-0.2-2.4-0.4-2.8
			c-0.3-0.5-0.5-0.6-0.6-0.6l-1.2-0.2v-3.5l1.7,0.2c0.7,0.1,1.4,0.3,2,0.6c0.7,0.3,1.3,0.8,1.8,1.4c0.5,0.6,1,1.3,1.3,2.1
			c0.3,0.8,0.5,1.8,0.5,2.8s-0.2,2-0.5,2.8c-0.3,0.8-0.7,1.5-1.3,2.1c-0.5,0.6-1.1,1-1.8,1.4c-0.7,0.3-1.3,0.5-2,0.6L239.6,37.1z"/>
	</g>
</g>
<g>
	<path class="st4" d="M40.6,20.9c0,10.4-8.4,18.8-18.8,18.8C11.3,39.8,2.9,31.4,2.9,20.9c0-10.4,8.4-18.8,18.8-18.8
		S40.6,10.5,40.6,20.9"/>
	<polygon class="st3" points="27.6,11.6 21.3,17.6 15,11.6 5.3,21.4 13.5,29.5 13.5,36.3 19.2,36.3 19.2,27.5 13.3,21.6 12.9,21.2 
		14.8,19.5 21.3,26 21.3,26 21.3,26 21.3,26 21.3,26 27.8,19.5 29.6,21.4 29.2,21.6 23.4,27.5 23.4,36.3 29.1,36.3 29.1,29.5 
		37.3,21.4 	"/>
	<path class="st3" d="M21.5,13.2c2.4,0,4.3-1.9,4.3-4.3s-1.9-4.3-4.3-4.3s-4.3,1.9-4.3,4.3C17.1,11.2,19.1,13.2,21.5,13.2"/>
</g>
<text transform="matrix(1 0 0 1 44.0077 19.0318)" class="st5 st6">MINISTRY OF LABOR </text>
<text transform="matrix(1 0 0 1 44.0077 33.4318)" class="st5 st6">REPUBLIC OF CHINA(TAIWAN)</text>
</svg>
