<?xml version="1.0" encoding="utf-8"?>
<!-- Generator: Adobe Illustrator 25.4.1, SVG Export Plug-In . SVG Version: 6.00 Build 0)  -->
<svg version="1.1" id="圖層_1" xmlns="http://www.w3.org/2000/svg" xmlns:xlink="http://www.w3.org/1999/xlink" x="0px" y="0px"
	 viewBox="0 0 136 40" style="enable-background:new 0 0 136 40;" xml:space="preserve">
<style type="text/css">
	.st0{fill:#004EA2;}
	.st1{fill:#FFFFFF;}
</style>
<g>
	<g>
		<path class="st0" d="M40.1,19.9c0,10.4-8.4,18.8-18.8,18.8C10.8,38.8,2.4,30.4,2.4,19.9c0-10.4,8.4-18.8,18.8-18.8
			S40.1,9.5,40.1,19.9"/>
		<path class="st1" d="M21.1,40.3c-5.4,0-10.4-2.1-14.2-5.8c-3.9-3.8-6-9-6-14.5C0.9,8.8,10-0.4,21.2-0.4c11.2,0,20.4,9.1,20.4,20.3
			s-9.1,20.3-20.3,20.3C21.2,40.3,21.2,40.3,21.1,40.3z M21.2,2.6c-9.5,0-17.3,7.8-17.3,17.3c0,4.7,1.8,9.1,5.1,12.3
			c3.2,3.2,7.5,5,12.1,5c0.1,0,0.1,0,0.2,0c9.6,0,17.3-7.8,17.3-17.3S30.8,2.6,21.2,2.6z"/>
	</g>
	<g>
		<polygon class="st1" points="27.1,10.6 20.8,16.6 14.5,10.6 4.8,20.4 13,28.5 13,35.3 18.7,35.3 18.7,26.5 12.8,20.6 12.4,20.2 
			14.3,18.5 20.8,25 20.8,25 20.8,25 20.8,25 20.8,25 27.3,18.5 29.1,20.4 28.7,20.6 22.9,26.5 22.9,35.3 28.6,35.3 28.6,28.5 
			36.8,20.4 		"/>
		<path class="st1" d="M30.1,36.9h-8.7V26.6l-0.6,0.6l-0.6-0.6v10.3h-8.7v-7.7l-8.8-8.8L14.5,8.6l6.3,6l6.3-6l11.8,11.8l-8.8,8.8
			V36.9z M24.4,33.9h2.7v-5.9l7.6-7.6l-7.6-7.6l-6.3,6l-6.3-6l-7.6,7.6l7.6,7.6v5.9h2.7v-6.7l-7-7l4.1-3.7l6.4,6.4l6.5-6.5l4.1,4.1
			l-1.7,1.3l-5.3,5.4V33.9z"/>
	</g>
	<g>
		<path class="st1" d="M21,12.2c2.4,0,4.3-1.9,4.3-4.3S23.4,3.6,21,3.6s-4.3,1.9-4.3,4.3C16.6,10.2,18.6,12.2,21,12.2"/>
		<path class="st1" d="M21,13.8c-1.6,0-3.1-0.7-4.2-1.8c-1.1-1.1-1.6-2.6-1.6-4c0-3.2,2.5-5.7,5.8-5.7s5.8,2.5,5.8,5.8
			S24.3,13.8,21,13.8z M21,5.1c-1.6,0-2.8,1.2-2.8,2.8c0,0.7,0.2,1.4,0.7,1.9c0.5,0.6,1.3,0.9,2.1,0.9c1.6,0,2.8-1.2,2.8-2.8
			C23.8,6.4,22.6,5.1,21,5.1z"/>
	</g>
</g>
<g>
	<g>
		<path d="M49.1,32.8l1.9-4.6h2.9v0.2h-0.2c-0.2,0-0.4,0-0.5,0.1c-0.1,0-0.2,0.1-0.2,0.2s-0.1,0.3-0.1,0.6v4.6c0,0.4,0,0.6,0.1,0.7
			c0,0.1,0.1,0.2,0.2,0.2c0.1,0.1,0.3,0.1,0.5,0.1h0.2v0.3h-3.7v-0.2h0.2c0.2,0,0.4,0,0.5-0.1c0.1,0,0.2-0.1,0.2-0.2
			s0.1-0.3,0.1-0.7v-5.2l-2.7,6.4h-0.1l-2.7-6.4v4.9c0,0.3,0,0.6,0,0.6c0,0.2,0.1,0.3,0.3,0.4c0.1,0.1,0.4,0.2,0.7,0.2v0.3h-2.4
			v-0.2h0.1c0.2,0,0.3,0,0.4-0.1c0.1-0.1,0.2-0.1,0.3-0.2s0.1-0.2,0.2-0.4c0,0,0-0.2,0-0.5v-4.4c0-0.4,0-0.6-0.1-0.7
			c0-0.1-0.1-0.2-0.2-0.2c-0.1-0.1-0.3-0.1-0.5-0.1h-0.2v-0.2h2.9L49.1,32.8z"/>
		<path class="st1" d="M49.1,36.7L49.1,36.7l-6.3,0v-3.2h1v-3.6h-1v-3.2h1.4h2.2h1.8l0.9,2.2l0.9-2.2h0.5h2.2h2.7v3.2h-1l0,3.5h1
			v3.3L49.1,36.7z M54.5,28.6C54.5,28.7,54.5,28.7,54.5,28.6C54.5,28.7,54.5,28.7,54.5,28.6z"/>
	</g>
	<g>
		<path d="M56.3,30.4v3.8c0,0.3,0,0.6,0.1,0.7s0.2,0.1,0.5,0.2v0.1h-2.6v-0.2c0.2,0,0.4-0.1,0.5-0.2s0.1-0.3,0.1-0.6v-2.8
			c0-0.3,0-0.6-0.1-0.7s-0.2-0.1-0.5-0.2v-0.2h2V30.4z M55.6,27.9c0.2,0,0.4,0.1,0.6,0.2c0.2,0.2,0.2,0.3,0.2,0.6
			c0,0.2-0.1,0.4-0.2,0.6c-0.2,0.2-0.3,0.2-0.6,0.2c-0.2,0-0.4-0.1-0.6-0.2c-0.2-0.2-0.2-0.3-0.2-0.6c0-0.2,0.1-0.4,0.2-0.6
			C55.2,28,55.3,27.9,55.6,27.9z"/>
		<path class="st1" d="M56.9,36.7h-4.1v-3.2h0.6v-1.7l-0.6-0.2v-2.8h0.5c0-0.6,0.2-1,0.4-1.3l0.2-0.4l0.4-0.2
			c0.3-0.1,0.6-0.4,1.3-0.4c0.6,0,1,0.2,1.3,0.4l0.2,0.1l0.2,0.2c0.6,0.6,0.6,1.3,0.6,1.7c0,0.2,0,0.5-0.1,0.7v4.4l0.6,0.2v2.6
			L56.9,36.7z M56.2,28.7L56.2,28.7c0.1-0.1,0-0.3-0.1-0.4L56,28.6L56.2,28.7z M54.9,28.7L54.9,28.7L54.9,28.7
			C54.9,28.7,54.9,28.7,54.9,28.7z M55.8,28.5L55.8,28.5l0.3-0.3c0,0,0,0,0,0L55.8,28.5z M55.2,28.2l0.3,0.1l0.2-0.3
			C55.5,28.1,55.3,28.2,55.2,28.2z"/>
	</g>
	<g>
		<path d="M59.3,30.4V31c0.2-0.3,0.5-0.5,0.7-0.6s0.5-0.2,0.7-0.2c0.3,0,0.6,0.1,0.8,0.3s0.3,0.4,0.4,0.7c0.1,0.2,0.1,0.6,0.1,1.1
			v1.9c0,0.4,0,0.6,0.1,0.7s0.2,0.1,0.4,0.2v0.1h-2.4v-0.2c0.2,0,0.3-0.1,0.4-0.2c0.1-0.1,0.1-0.3,0.1-0.6v-2.2c0-0.4,0-0.6,0-0.8
			c0-0.1-0.1-0.2-0.2-0.2c-0.1-0.1-0.2-0.1-0.2-0.1c-0.3,0-0.6,0.2-0.8,0.6v2.7c0,0.4,0,0.6,0.1,0.7s0.2,0.2,0.4,0.2v0.1h-2.5v-0.2
			c0.2,0,0.3-0.1,0.4-0.2c0.1-0.1,0.1-0.3,0.1-0.7v-2.7c0-0.4,0-0.6-0.1-0.7s-0.2-0.1-0.4-0.2v-0.2h1.9V30.4z"/>
		<path class="st1" d="M62.5,36.7h-6.6v-3.2h0.5v-1.8l-0.5-0.3v-2.6H60c0.2-0.1,0.4-0.1,0.7-0.1c0.7,0,1.4,0.3,1.9,0.7
			c0.4,0.4,0.6,0.8,0.7,1.2c0.2,0.5,0.2,1,0.2,1.6v1.6l0.5,0.3v2.4L62.5,36.7z"/>
	</g>
	<g>
		<path d="M65.1,30.4v3.8c0,0.3,0,0.6,0.1,0.7c0.1,0.1,0.2,0.1,0.5,0.2v0.1h-2.6v-0.2c0.2,0,0.4-0.1,0.5-0.2s0.1-0.3,0.1-0.6v-2.8
			c0-0.3,0-0.6-0.1-0.7s-0.2-0.1-0.5-0.2v-0.2h2V30.4z M64.4,27.9c0.2,0,0.4,0.1,0.6,0.2c0.2,0.2,0.2,0.3,0.2,0.6
			c0,0.2-0.1,0.4-0.2,0.6c-0.2,0.2-0.3,0.2-0.6,0.2c-0.2,0-0.4-0.1-0.6-0.2c-0.2-0.2-0.2-0.3-0.2-0.6c0-0.2,0.1-0.4,0.2-0.6
			C64,28,64.2,27.9,64.4,27.9z"/>
		<path class="st1" d="M65.7,36.7h-4.1v-3.2h0.6v-1.7l-0.6-0.2v-2.8h0.5c0-0.6,0.2-1,0.4-1.3l0.2-0.4l0.4-0.2
			c0.3-0.1,0.7-0.4,1.3-0.4s1,0.2,1.3,0.4l0.2,0.1l0.2,0.2c0.6,0.6,0.6,1.3,0.6,1.7c0,0.2,0,0.5-0.1,0.7v4.4l0.6,0.2v2.6L65.7,36.7z
			 M65,28.7L65,28.7c0.1-0.1,0-0.3-0.1-0.4l-0.1,0.3L65,28.7z M63.7,28.7L63.7,28.7L63.7,28.7C63.7,28.7,63.7,28.7,63.7,28.7z
			 M64,28.2l0.3,0.1l0.2-0.3C64.3,28.1,64.1,28.2,64,28.2z"/>
	</g>
	<g>
		<path d="M69.2,30.1l0.1,1.7h-0.2c-0.2-0.5-0.4-0.8-0.7-1c-0.2-0.2-0.5-0.3-0.7-0.3c-0.1,0-0.3,0-0.4,0.1s-0.2,0.2-0.2,0.3
			c0,0.1,0,0.2,0.1,0.3c0.1,0.1,0.4,0.4,0.9,0.7c0.5,0.3,0.8,0.6,1,0.9c0.2,0.2,0.2,0.5,0.2,0.8c0,0.3-0.1,0.5-0.2,0.8
			c-0.1,0.3-0.3,0.5-0.6,0.6c-0.2,0.1-0.5,0.2-0.8,0.2c-0.2,0-0.5-0.1-0.9-0.2c-0.1,0-0.2-0.1-0.2-0.1c-0.1,0-0.2,0.1-0.3,0.3h0.1
			l-0.1-1.7h0.2c0.2,0.5,0.4,0.8,0.6,1c0.3,0.2,0.5,0.3,0.8,0.3c0.2,0,0.3-0.1,0.4-0.2c0.1-0.1,0.2-0.2,0.2-0.4
			c0-0.2-0.1-0.3-0.2-0.4c-0.1-0.1-0.3-0.3-0.7-0.5c-0.5-0.4-0.9-0.6-1-0.8c-0.2-0.3-0.3-0.6-0.3-0.9c0-0.4,0.1-0.7,0.4-1
			c0.3-0.3,0.6-0.5,1.1-0.5c0.3,0,0.5,0.1,0.8,0.2c0.1,0.1,0.2,0.1,0.2,0.1c0.1,0,0.1,0,0.1,0s0.1-0.1,0.2-0.2L69.2,30.1L69.2,30.1z
			"/>
		<path class="st1" d="M68,36.7h-4.1l1-2l-0.2-2.7h0.1c0-0.1,0-0.3,0-0.4c0-0.8,0.3-1.5,0.8-2.1c0.4-0.4,1.1-0.9,2.2-0.9
			c0.3,0,0.5,0,0.7,0.1h0.6l0,0.2l0.3,0.1l0.2,0.2c-0.1-0.1-0.3-0.2-0.5-0.3l0,0.5c0.1,0,0.1,0.1,0.2,0.2c0.2,0.1,0.3,0.3,0.5,0.4
			l0.9-0.1l0.2,3.3h-0.1c0,0.1,0,0.2,0,0.3c0,0.5-0.1,0.9-0.2,1.1l-0.1,0.1c-0.2,0.7-0.8,1.2-1.4,1.5C68.8,36.5,68.5,36.7,68,36.7
			L68,36.7z"/>
	</g>
	<g>
		<path d="M72.2,28.5v1.8h1.2v0.5h-1.2v3c0,0.3,0,0.5,0,0.5c0,0.1,0.1,0.1,0.1,0.2c0.1,0.1,0.1,0.1,0.2,0.1c0.2,0,0.4-0.2,0.6-0.5
			l0.2,0.1c-0.3,0.7-0.7,1-1.4,1c-0.3,0-0.6-0.1-0.8-0.3c-0.2-0.2-0.3-0.4-0.4-0.6c0-0.1-0.1-0.4-0.1-1v-2.6H70v-0.2
			c0.4-0.3,0.8-0.6,1.1-1c0.3-0.3,0.6-0.7,0.8-1.1h0.3V28.5z"/>
		<path class="st1" d="M71.9,36.7c-0.7,0-1.4-0.3-1.9-0.7c-0.4-0.4-0.6-0.7-0.7-1l-0.2-0.3l0-0.2c0-0.2-0.1-0.6-0.1-1.1v-1.1h-0.6
			v-2.4l0.6-0.5c0.3-0.2,0.6-0.5,0.8-0.7l0.1-0.2c0.2-0.2,0.4-0.5,0.5-0.7l0.4-0.8h2.7v1.9h1.2v3.5h-1.2v0.4l1.5,0.8l-0.6,1.3
			C74.1,36.1,73.2,36.7,71.9,36.7z"/>
	</g>
	<g>
		<path d="M75.9,30.4v1.1c0.3-0.5,0.6-0.8,0.8-1c0.2-0.2,0.5-0.2,0.7-0.2s0.3,0.1,0.5,0.2c0.1,0.1,0.2,0.3,0.2,0.5s-0.1,0.4-0.2,0.5
			s-0.2,0.2-0.4,0.2c-0.2,0-0.3-0.1-0.5-0.2c-0.1-0.1-0.2-0.2-0.2-0.2h-0.1c-0.1,0-0.2,0-0.3,0.1c-0.1,0.1-0.2,0.3-0.3,0.5
			c-0.1,0.3-0.2,0.7-0.2,1.1v1.1v0.3c0,0.2,0,0.3,0,0.4S76,35,76.1,35s0.2,0.1,0.4,0.1v0.1h-2.6v-0.2c0.2,0,0.4-0.1,0.4-0.2
			c0.1-0.1,0.1-0.4,0.1-0.8v-2.7c0-0.3,0-0.5,0-0.5c0-0.1-0.1-0.2-0.1-0.2c-0.1,0-0.2-0.1-0.3-0.1v-0.2h1.9V30.4z"/>
		<path class="st1" d="M74.4,36.7h-2v-3.2h0.5v-1.5h-0.4v-3.2h4.9c0.5,0,0.9,0.2,1.1,0.3l0.2,0.1l0.2,0.2c0.4,0.4,0.6,1,0.6,1.6
			c0,0.6-0.2,1.2-0.6,1.6c-0.2,0.2-0.6,0.6-1.5,0.6c0,0-0.1,0-0.1,0v0.4H78v3l-1.5,0.1h-2H74.4z"/>
	</g>
	<g>
		<path d="M80.8,35.3l-1.6-3.6c-0.2-0.5-0.4-0.9-0.5-1s-0.2-0.2-0.4-0.3v-0.2h2.6v0.2c-0.2,0-0.3,0-0.4,0.1
			c-0.1,0.1-0.1,0.2-0.1,0.3s0.1,0.4,0.3,0.8l0.8,1.9l0.6-1.5c0.2-0.5,0.3-0.9,0.3-1.1c0-0.1,0-0.2-0.1-0.3
			c-0.1-0.1-0.2-0.1-0.4-0.1v-0.2h1.5v0.2c-0.2,0-0.3,0.1-0.4,0.2s-0.3,0.5-0.5,1.1l-1.4,3.6c-0.3,0.9-0.6,1.4-0.8,1.7
			c-0.2,0.3-0.5,0.4-0.9,0.4c-0.3,0-0.5-0.1-0.7-0.2c-0.2-0.2-0.3-0.4-0.3-0.6c0-0.2,0.1-0.4,0.2-0.5s0.3-0.2,0.5-0.2
			s0.3,0.1,0.4,0.2c0.1,0.1,0.2,0.3,0.2,0.5c0,0.1,0,0.2,0,0.3l0.1,0.1c0.1,0,0.2,0,0.3-0.2c0.1-0.1,0.3-0.5,0.5-1L80.8,35.3z"/>
		<path class="st1" d="M79.4,39.1c-0.7,0-1.1-0.2-1.4-0.4l-0.2-0.1l-0.2-0.2c-0.6-0.6-0.7-1.2-0.7-1.7c0-0.6,0.2-1.2,0.6-1.6
			c0.3-0.3,0.8-0.6,1.3-0.6l-1-2.2c-0.1-0.3-0.2-0.5-0.3-0.6l-0.8-0.4l0-2.6h5.6v0.1h2.5v3.2H84c0,0.1-0.1,0.2-0.1,0.3L82.5,36
			c-0.3,1-0.7,1.6-0.9,2C81.2,38.5,80.6,39.1,79.4,39.1z M84.2,31.6L84.2,31.6L84.2,31.6z"/>
	</g>
	<g>
		<path d="M97.6,30.9v3.3c0,0.3,0,0.5,0.1,0.6s0.3,0.2,0.6,0.2v0.2h-2.9v-0.2c0.2,0,0.4,0,0.5-0.1c0.1,0,0.2-0.1,0.2-0.2
			s0.1-0.3,0.1-0.5v-3.4h-0.7v-0.5h0.7v-0.4v-0.2c0-0.5,0.2-0.9,0.5-1.2c0.4-0.3,0.9-0.5,1.5-0.5c0.4,0,0.7,0.1,0.9,0.2
			c0.2,0.2,0.3,0.3,0.3,0.5s-0.1,0.3-0.2,0.4s-0.3,0.2-0.5,0.2s-0.3,0-0.4-0.1s-0.2-0.2-0.2-0.3c0,0,0-0.1,0-0.2s0-0.1,0-0.2
			s0-0.1-0.1-0.2s-0.1-0.1-0.2-0.1s-0.2,0-0.3,0.1c-0.1,0.1-0.1,0.2-0.1,0.4v0.9v0.6h1v0.5h-0.8V30.9z"/>
		<path class="st1" d="M99.8,36.7h-5.9v-3.2h0.8v-1.2H94v-3.5h0.8c0.1-0.5,0.4-1,0.8-1.4l0.2-0.1c1.2-0.9,2.8-1,4-0.4l0.2,0.1
			l0.2,0.2c0.3,0.3,0.7,0.7,0.7,1.6s-0.5,1.3-0.6,1.5c-0.1,0.1-0.2,0.2-0.4,0.3v1.8h-0.8v1.3h0.7V36.7z M94.6,34.6
			C94.6,34.6,94.6,34.6,94.6,34.6C94.6,34.6,94.6,34.6,94.6,34.6z"/>
	</g>
	<g>
		<path d="M110.7,32.8l-0.3,2.4h-6.2v-0.2h0.2c0.2,0,0.4,0,0.5-0.1c0.1,0,0.2-0.1,0.2-0.2s0.1-0.3,0.1-0.7v-4.6c0-0.4,0-0.6-0.1-0.7
			c0-0.1-0.1-0.2-0.2-0.2c-0.1-0.1-0.3-0.1-0.5-0.1h-0.2v-0.2h3.7v0.2h-0.3c-0.2,0-0.4,0-0.5,0.1c-0.1,0-0.2,0.1-0.2,0.2
			s-0.1,0.3-0.1,0.7v4.5c0,0.4,0,0.6,0.1,0.7c0,0.1,0.1,0.2,0.2,0.2s0.3,0,0.6,0h0.6c0.4,0,0.7-0.1,0.9-0.2c0.2-0.1,0.5-0.3,0.6-0.6
			c0.2-0.3,0.4-0.7,0.5-1.3L110.7,32.8L110.7,32.8z"/>
		<path class="st1" d="M111.7,36.7h-9v-3.2h1v-3.6h-1v-3.2h6.7v3.2h-1.1v3.4c0.1,0,0.1,0,0.2,0l0.1-0.1c0.1-0.1,0.2-0.4,0.3-0.7
			l0.2-1.3h3.2l0,1.8L111.7,36.7z M103.6,34.6C103.6,34.6,103.6,34.6,103.6,34.6C103.6,34.6,103.6,34.6,103.6,34.6z M108.4,28.6
			C108.4,28.7,108.4,28.7,108.4,28.6C108.4,28.7,108.4,28.7,108.4,28.6z"/>
	</g>
	<g>
		<path d="M114.1,34.4c-0.6,0.5-1.1,0.8-1.6,0.8c-0.3,0-0.5-0.1-0.7-0.3c-0.2-0.2-0.3-0.4-0.3-0.7c0-0.4,0.2-0.7,0.5-1
			c0.3-0.3,1-0.7,2.1-1.2v-0.5c0-0.4,0-0.6-0.1-0.7c0-0.1-0.1-0.2-0.2-0.2c-0.1-0.1-0.2-0.1-0.4-0.1c-0.2,0-0.4,0-0.6,0.1
			c-0.1,0.1-0.1,0.1-0.1,0.2s0,0.2,0.1,0.3c0.1,0.1,0.2,0.3,0.2,0.4c0,0.2-0.1,0.3-0.2,0.4s-0.3,0.2-0.5,0.2s-0.4-0.1-0.5-0.2
			s-0.2-0.3-0.2-0.5s0.1-0.5,0.3-0.7c0.2-0.2,0.5-0.4,0.8-0.5c0.4-0.1,0.7-0.2,1.1-0.2c0.5,0,0.8,0.1,1.1,0.3
			c0.3,0.2,0.4,0.4,0.5,0.6c0,0.1,0.1,0.5,0.1,1v1.9c0,0.2,0,0.4,0,0.4c0,0.1,0,0.1,0.1,0.1h0.1c0.1,0,0.2-0.1,0.3-0.2l0.2,0.1
			c-0.2,0.3-0.4,0.4-0.5,0.6c-0.2,0.1-0.4,0.2-0.6,0.2c-0.3,0-0.5-0.1-0.6-0.2C114.2,34.9,114.1,34.8,114.1,34.4z M114.1,34.1v-1.6
			c-0.4,0.2-0.7,0.5-0.9,0.8c-0.1,0.2-0.2,0.4-0.2,0.6c0,0.2,0.1,0.3,0.2,0.4s0.2,0.1,0.4,0.1C113.7,34.3,113.9,34.2,114.1,34.1z"/>
		<path class="st1" d="M112.5,36.7c-0.7,0-1.3-0.2-1.8-0.7c-0.5-0.5-0.7-1.1-0.7-1.8c0-0.7,0.2-1.2,0.5-1.5
			c-0.2-0.4-0.4-0.8-0.4-1.3c0-0.6,0.3-1.3,0.7-1.8c0.4-0.4,0.9-0.7,1.4-0.9l0.3-0.1c0.4-0.1,0.8-0.2,1.3-0.2c0.8,0,1.4,0.2,1.9,0.6
			c0.6,0.4,0.9,0.9,1,1.2l0.2,0.3v0.3c0,0.3,0.1,0.7,0.1,1.1v1l1.4,0.7l-0.9,1.4c-0.2,0.3-0.4,0.4-0.5,0.6l-0.2,0.3l-0.4,0.2
			c-0.3,0.1-0.7,0.4-1.3,0.4c-0.4,0-0.7-0.1-1-0.2c0,0-0.1,0-0.1,0C113.6,36.6,113.1,36.7,112.5,36.7z"/>
	</g>
	<g>
		<path d="M118.6,28.1v2.7c0.4-0.4,0.9-0.6,1.3-0.6c0.3,0,0.6,0.1,0.9,0.3c0.3,0.2,0.5,0.5,0.7,0.8c0.2,0.4,0.2,0.8,0.2,1.2
			c0,0.5-0.1,1-0.3,1.4c-0.2,0.4-0.5,0.8-0.8,1c-0.4,0.2-0.8,0.3-1.2,0.3c-0.3,0-0.5,0-0.7-0.1s-0.4-0.2-0.6-0.4l-0.8,0.5h-0.2v-6.1
			c0-0.3,0-0.5,0-0.5c0-0.1-0.1-0.2-0.2-0.2s-0.2-0.1-0.4-0.1v-0.2H118.6z M118.6,31.2v2.2c0,0.4,0,0.7,0,0.8c0,0.2,0.1,0.4,0.2,0.5
			s0.3,0.2,0.5,0.2s0.3,0,0.5-0.2c0.1-0.1,0.2-0.3,0.3-0.6c0.1-0.3,0.1-0.8,0.1-1.6c0-0.7-0.1-1.3-0.3-1.5c-0.1-0.2-0.3-0.3-0.5-0.3
			C119.2,30.8,118.9,30.9,118.6,31.2z"/>
		<path class="st1" d="M119.4,36.7c-0.4,0-0.8,0-1.3-0.2l-0.4,0.2h-2.1v-6.9H115v-3.2h5.1v2.1c0.5,0,1,0.2,1.5,0.5
			c0.6,0.4,0.9,0.9,1.1,1.2l0.1,0.2c0.4,0.7,0.4,1.4,0.4,1.9c0,0.8-0.2,1.5-0.5,2.1c-0.2,0.3-0.6,1.1-1.3,1.6l-0.2,0.1
			C120.7,36.6,120,36.7,119.4,36.7z"/>
	</g>
	<g>
		<path d="M124.9,30.1c0.4,0,0.8,0.1,1.2,0.3c0.4,0.2,0.6,0.5,0.8,0.9c0.2,0.4,0.3,0.8,0.3,1.3c0,0.7-0.2,1.3-0.5,1.7
			c-0.4,0.6-1,0.8-1.7,0.8s-1.3-0.3-1.7-0.8c-0.4-0.5-0.6-1.1-0.6-1.8c0-0.7,0.2-1.3,0.6-1.8C123.7,30.4,124.2,30.1,124.9,30.1z
			 M124.9,30.5c-0.2,0-0.3,0.1-0.5,0.2c-0.1,0.1-0.2,0.4-0.2,0.8s-0.1,0.9-0.1,1.6c0,0.4,0,0.7,0.1,1c0,0.2,0.1,0.4,0.2,0.6
			c0.1,0.1,0.3,0.2,0.4,0.2c0.2,0,0.3,0,0.4-0.1s0.2-0.3,0.3-0.5c0.1-0.3,0.1-1,0.1-2c0-0.6,0-1-0.1-1.2s-0.2-0.4-0.3-0.5
			C125.2,30.5,125.1,30.5,124.9,30.5z"/>
		<path class="st1" d="M125,36.7c-1.1,0-2.2-0.5-2.9-1.4c-0.6-0.8-0.9-1.7-0.9-2.7c0-1,0.3-2,0.9-2.7l0.3-0.3
			c0.5-0.4,1.3-0.9,2.5-0.9c0.6,0,1.3,0.2,1.9,0.5c0.8,0.4,1.2,1,1.5,1.6c0.3,0.6,0.5,1.2,0.5,2c0,1-0.3,1.9-0.8,2.6
			C127.5,35.9,126.6,36.7,125,36.7z"/>
	</g>
	<g>
		<path d="M129.9,30.4v1.1c0.3-0.5,0.6-0.8,0.8-1c0.2-0.2,0.5-0.2,0.7-0.2c0.2,0,0.3,0.1,0.5,0.2c0.1,0.1,0.2,0.3,0.2,0.5
			s-0.1,0.4-0.2,0.5s-0.2,0.2-0.4,0.2c-0.2,0-0.3-0.1-0.5-0.2c-0.1-0.1-0.2-0.2-0.2-0.2h-0.1c-0.1,0-0.2,0-0.3,0.1
			c-0.1,0.1-0.2,0.3-0.3,0.5c-0.1,0.3-0.2,0.7-0.2,1.1v1.1v0.3c0,0.2,0,0.3,0,0.4s0.1,0.2,0.2,0.2c0.1,0,0.2,0.1,0.4,0.1v0.1h-2.6
			v-0.2c0.2,0,0.4-0.1,0.4-0.2c0.1-0.1,0.1-0.4,0.1-0.8v-2.7c0-0.3,0-0.5,0-0.5c0-0.1-0.1-0.2-0.2-0.2s-0.2-0.1-0.3-0.1v-0.2h2V30.4
			z"/>
		<path class="st1" d="M128.4,36.7h-2v-3.2h0.5v-1.5h-0.5v-3.2h5c0.5,0,0.9,0.2,1.1,0.3l0.2,0.1l0.2,0.2c0.4,0.4,0.6,1,0.6,1.6
			c0,0.6-0.2,1.2-0.6,1.6c-0.2,0.2-0.6,0.6-1.5,0.6c0,0-0.1,0-0.1,0v0.4h0.6v3l-1.5,0.1h-2H128.4z"/>
	</g>
	<g>
		<path d="M92.5,30c0.4,0,0.8,0.1,1.2,0.3c0.4,0.2,0.6,0.5,0.8,0.9c0.2,0.4,0.3,0.8,0.3,1.3c0,0.7-0.2,1.3-0.5,1.7
			c-0.4,0.6-1,0.8-1.7,0.8s-1.3-0.3-1.7-0.8c-0.4-0.5-0.6-1.1-0.6-1.8c0-0.7,0.2-1.3,0.6-1.8C91.2,30.2,91.8,30,92.5,30z M92.5,30.4
			c-0.2,0-0.3,0.1-0.5,0.2c-0.1,0.1-0.2,0.4-0.2,0.8s-0.1,0.9-0.1,1.6c0,0.4,0,0.7,0.1,1c0,0.2,0.1,0.4,0.2,0.6
			c0.1,0.1,0.3,0.2,0.4,0.2c0.2,0,0.3,0,0.4-0.1s0.2-0.3,0.3-0.5c0.1-0.3,0.1-1,0.1-2c0-0.6,0-1-0.1-1.2s-0.2-0.4-0.3-0.5
			C92.8,30.4,92.7,30.4,92.5,30.4z"/>
		<path class="st1" d="M92.6,36.6c-1.1,0-2.2-0.5-2.9-1.4c-0.6-0.8-0.9-1.7-0.9-2.7c0-1,0.3-2,0.9-2.7c0.5-0.7,1.5-1.2,2.8-1.2
			c0.6,0,1.3,0.2,1.9,0.5c0.8,0.4,1.2,1,1.5,1.6c0.3,0.6,0.5,1.3,0.5,2c0,1-0.3,1.9-0.8,2.6C95.1,35.8,94.2,36.6,92.6,36.6z"/>
	</g>
</g>
<g>
	<g>
		<path d="M55.2,14.1c-2.2,0-4.3,0.2-6.3,0.6c-0.6,0-0.9,0.3-0.9,1c0,0.9-0.2,1.7-0.5,2.3c-0.2,0.5-0.4,0.7-0.7,0.5
			c-0.4-0.2-0.7-0.6-0.7-1.2c-0.2-1.4-0.3-2.7-0.1-3.9c0-0.1,0-0.2,0.1-0.2c0.1-0.1,0.1-0.2,0.1-0.2c-1.4,0.2-2.3,0-2.8-0.6
			c-0.4-0.9-0.3-1.3,0.2-1.3c0.7,0.1,1.5,0.1,2.4,0c3.2-0.6,4.8-1.9,4.6-4c-0.2-1.3,0.2-1.9,1.2-1.9c1.1,0,1.5,0.6,1.3,1.8
			c0,0.2-0.1,0.4-0.2,0.9c-0.3,1.1-0.3,1.7,0,1.8c0.3,0.2,0.8,0.3,1.5,0.5c0.8,0.2,1.4,0.4,1.8,0.6l0.2,0c0.2-0.2,0.6-0.4,1.2-0.4
			c1.5-0.1,2.5-0.9,3-2.6c0.2-0.8,0.3-1.6,0.1-2.3c-0.1-0.5,0.3-0.7,1.2-0.7c1,0.1,1.4,0.6,1.2,1.6C63,7.2,63,7.7,63,8
			c0,0.2,0,0.4,0.1,0.4c0.8,0.5,2.1,1,3.9,1.5c0.9,0.3,2.1,0.6,3.7,0.9c0.4,0.1,0.3,0.4-0.2,1.1c-0.3,0.4-0.9,0.9-1.8,1.3
			c-0.1,0-0.1,0-0.2,0c0,0.2,0,0.4-0.1,0.6v0.1c0,0.9,0,1.5-0.1,1.8c-0.1,1.2-0.3,2-0.7,2.4c-0.5,0.5-0.9,0.3-1.3-0.5
			c0-0.2,0-0.4,0-0.7c0.1-0.4,0.1-0.7,0-1c0-0.1,0-0.2,0-0.2c-0.1-0.6-0.3-0.9-0.7-1.1c-0.2-0.2-1.1-0.3-2.6-0.5
			c-2.8-0.2-4.4-0.2-5,0c0.2,0.4,0.3,0.9,0.1,1.3c0,0.2,0,0.3,0,0.4c0.3,0.1,0.9,0.1,1.7,0.1c0.6,0.1,1,0.1,1.2,0.1
			c0.3,0.2,0.6,0.2,0.9,0.1c0.2,0,0.4,0,0.7-0.1c0.3-0.1,0.6-0.1,0.7-0.1c1,0.1,1.5,0.5,1.6,1.3c0,0.2-0.1,0.6-0.2,1.1
			c-0.2,0.3-0.2,0.6-0.2,0.7c-0.7,3.4-2.3,5-4.8,4.9c-1.7-0.2-3-0.6-3.8-1.5c-0.7-1-0.7-1.5,0-1.5c0.2,0,0.6,0.1,1,0.2
			c2,0.6,3.4,0.4,4-0.6l0.1-0.1c0.5-0.8,0.7-1.5,0.7-2.1c0-0.3-0.3-0.6-0.9-0.9c-0.7-0.2-1.7-0.2-2.9-0.2c-0.3-0.1-0.6,0.1-0.9,0.5
			l-0.2,0.4c-0.1,0.2-0.2,0.4-0.2,0.6c-2.1,3.3-5.4,5.1-9.9,5.4c-1.6,0.2-2.6-0.4-2.9-1.6c-0.2-0.5-0.1-0.7,0.2-0.7
			c0.7,0.1,1.7,0,3-0.1c-1,0.2-0.9,0.2,0.1,0c3.2-0.2,5.6-1.5,7.2-3.7c0.1-0.2,0.1-0.4,0.1-0.5c-0.1-0.1-0.2-0.1-0.5-0.1
			c-0.4,0-1.1,0.1-1.9,0.4c-0.8,0.2-1.5,0.3-2,0.4c-0.7-0.1-0.8-0.5-0.5-1.3c0.5-0.6,1-1,1.6-1c0.1,0,0.2,0,0.4,0.1
			c0.4,0.1,0.7,0.1,0.9,0c0.3-0.1,0.8-0.1,1.3,0c0.5,0,0.9,0,1.1,0c0.3-0.1,0.5-0.4,0.5-1.1c0-0.2,0.1-0.4,0.2-0.6l0.1-0.2
			C55.4,14.1,55.3,14.1,55.2,14.1z M49,9.2c-0.5-0.2-1-0.4-1.6-0.6c-0.7-0.3-1-0.8-1-1.3c0.2-0.9,0.6-1.3,1.3-1.3
			c0.6,0,1.1,0.6,1.2,1.7c0,0.1,0,0.2,0.1,0.2c0.3,0.2,0.4,0.4,0.5,0.6C49.7,8.9,49.5,9.1,49,9.2z M47.8,12.8c0.5,0.2,0.8,0.4,1,0.4
			c2.2-0.3,4.4-0.5,6.7-0.5c0.4,0,1,0,1.8,0c3.3-0.1,5.8,0,7.6,0.2c0.6,0.2,1.1,0.1,1.5-0.2c-1-1.1-2.1-2-3.3-2.7L63,9.9
			c-0.3-0.2-0.6-0.2-0.7,0c0,0.1,0,0.2-0.1,0.2c-0.6,0.9-1.1,1.5-1.7,1.7c-1.5,0.7-2.8,0.7-3.7-0.1c-0.3,0.5-0.7,0.7-1.2,0.6
			c-0.7,0-1.7-0.4-3-1.2c-0.5-0.6-1.1-0.4-2,0.4c-0.3,0.2-1.1,0.6-2.2,1.1C49.2,12.1,49.1,12.2,47.8,12.8z M54.3,7
			c0.3-0.6,0.9-0.9,1.6-0.6c0.6,0.4,0.7,0.9,0.2,1.5c-0.7,0.8-1.5,1.2-2.2,1.3c-0.4-0.1-0.5-0.3-0.3-0.6s0.4-0.8,0.6-1.3
			C54.2,7.4,54.3,7.3,54.3,7z M58.6,9c-0.7-0.2-1.2-0.5-1.6-1.1c-0.2-1,0.1-1.5,1-1.6c0.9,0.2,1.5,1.1,1.7,2.7
			C59.7,9.2,59.3,9.2,58.6,9z M64,7.9c0.1-0.1,0.2-0.2,0.5-0.5c0.2-0.1,0.4-0.4,0.6-1.1c0.3-0.5,0.7-0.7,1.2-0.7
			c1,0.2,1.2,0.8,0.7,1.7c-0.9,0.8-1.7,1.2-2.6,1.1c-0.2,0-0.4,0-0.6-0.1C63.8,8.2,63.8,8,64,7.9z"/>
		<path class="st1" d="M46.1,25.6c-2.2,0-3.3-1.3-3.7-2.7c-0.3-0.7-0.2-1.4,0.1-1.9c0.3-0.5,0.9-0.8,1.5-0.8l0.2,0
			c0.4,0.1,1.3,0,2.2-0.1l0.5,0l0,0l0.1,0c1-0.1,1.9-0.2,2.7-0.5c-0.5-0.1-0.8-0.3-1.1-0.4c-0.2,0.3-0.5,0.7-1.1,0.9
			c-0.5,0.2-1,0.1-1.5-0.2c-0.9-0.5-1.4-1.3-1.5-2.4c-0.1-0.9-0.2-1.9-0.2-2.9c-0.8-0.1-1.5-0.4-2.1-1.2l-0.1-0.2L42,13.1
			c-0.2-0.4-0.7-1.6-0.1-2.6c0.3-0.5,0.9-0.8,1.6-0.8l0.2,0c0.6,0.1,1.2,0.1,2,0c0.1,0,0.2,0,0.3-0.1c-0.7-0.6-1.2-1.4-1.2-2.3
			l0-0.3c0.5-2.2,1.9-2.5,2.8-2.5c0.6,0,1.1,0.2,1.6,0.6c0.1-0.2,0.2-0.4,0.4-0.6c0.3-0.4,1-0.9,2.1-0.9c0.9,0,1.6,0.3,2,0.6
			l1.9,0.5c0.3,0,0.5,0.1,0.8,0.2l0.2,0.1C57,5,57.4,4.9,57.8,4.9l0.2,0l0.2,0.1c0.3,0.1,0.6,0.2,0.9,0.3c0-0.4,0.2-0.7,0.4-1
			c0.6-0.7,1.6-0.8,2.3-0.8l0.1,0c0.9,0.1,1.7,0.5,2.1,1.1c0.1,0.1,0.2,0.3,0.2,0.4c0.5-0.5,1.2-0.7,1.9-0.7l0.3,0
			c1.2,0.2,1.7,0.9,2,1.4c0.2,0.5,0.4,1.4-0.2,2.5l-0.1,0.2L68,8.5c0,0-0.1,0.1-0.1,0.1C68.7,8.8,69.8,9,71,9.3
			c0.7,0.2,1.2,0.6,1.4,1.1c0.4,1-0.3,1.8-0.6,2.3c-0.4,0.6-1.1,1.1-1.8,1.5c0,0.7,0,1.3-0.1,1.7c-0.1,1.2-0.3,2.4-1.1,3.2
			c-0.7,0.7-1.5,0.7-1.9,0.7c-0.3-0.1-0.6-0.2-0.8-0.4c-1.1,5-4,6-6.3,5.9l-0.1,0c-1.5-0.2-3.5-0.6-4.7-2l-0.1-0.1
			c0-0.1-0.1-0.1-0.1-0.2c-2.1,1.5-4.7,2.3-7.7,2.5C46.5,25.6,46.3,25.6,46.1,25.6z M57.7,19.7c1.2,0.3,1.8,0.2,1.9,0l0.2-0.3
			c0.1-0.2,0.2-0.5,0.3-0.7c-0.5-0.1-1.2-0.1-1.9-0.1l0,0.1c0,0,0,0.1,0,0.1v0.3l-0.2,0.4C57.8,19.5,57.8,19.6,57.7,19.7z M63,17.4
			c0.1,0.2,0.1,0.4,0.2,0.6c0-0.1,0.1-0.2,0.1-0.2l0-0.2c0-0.1,0-0.1,0-0.2c0,0-0.1,0-0.1,0C63.1,17.4,63.1,17.4,63,17.4
			C63.1,17.4,63,17.4,63,17.4z M67.4,11.6h0.4c-0.2,0-0.3-0.1-0.5-0.1C67.3,11.6,67.4,11.6,67.4,11.6z M51.6,6.4L51.6,6.4z"/>
	</g>
	<g>
		<path d="M93.3,8.2c0.2-1,0.2-1.9,0.1-2.7c0.6-0.9,1.5-0.6,2.7,0.7c0.3,0.6,0.2,1.6-0.2,3c0.2,0.1,1.1,0.1,2.7,0.1
			c1.5-0.2,2.2,0.1,2.3,0.9c0.2,0.5,0.2,1.3-0.2,2.4c-0.1,0.5-0.2,1.5-0.5,2.9c-0.2,1.5-0.4,2.5-0.6,3c-0.7,3.2-2.2,4.9-4.5,5
			c-1.7,0-2.9-0.8-3.7-2.4c-1.1,1.7-2.4,2.6-3.9,2.7c-1.4,0.1-2.2-0.2-2.4-0.7c-0.2-0.2-0.4-0.4-0.4-0.5c0.1-0.2,0.2-0.3,0.5-0.4
			c1.1-0.5,2.1-1.2,3-2.1c-0.2,0-0.2,0-0.2,0.1c-6.3,1.1-10.5,2-12.6,2.9c-0.6,0.3-1,0.3-1.2-0.1s-0.2-0.9,0.2-1.5
			c0.8-1.1,1.4-1.5,1.8-1.3c0.3,0,0.8,0,1.3-0.1c0.4-0.1,1-0.2,1.8-0.2c0.7-0.2,1.3-0.2,1.6-0.2C81,19.5,81,19.2,81,19
			c0-0.4-0.1-0.6-0.4-0.6c-1.5,0-2.7,0.2-3.8,0.5c-0.5,0-0.6-0.3-0.4-0.9c0.6-0.7,1.1-1.1,1.7-1c0.7,0.1,1.5,0.1,2.3,0.1
			c0.3,0,0.5-0.2,0.5-0.6c0-0.2-0.2-0.4-0.5-0.4c-0.9,0-1.6,0.1-2.1,0.2c-1.1,0.2-1.6-0.2-1.7-1.1c-0.1-0.6-0.2-1.5-0.2-2.7
			c0-1.1,0.5-1.5,1.5-1.5c0.8,0.1,1.7,0.1,2.7,0c0.5-0.3,0.5-0.6,0-1c-1.4-0.1-2.5,0-3.3,0.4c-1.9,0.4-2.7,0.3-2.6-0.2
			c0.2-0.8,0.9-1.3,2.2-1.3h3.5c0.2,0,0.4-0.1,0.5-0.4c-0.1-0.2-0.2-0.4-0.5-0.4c-2,0-3.3-0.1-3.9-0.4c-0.3-0.3,0-0.5,0.9-0.5
			c2.8,0.2,5.5-0.6,8-2.2c0.8-0.6,1.5-0.5,2.2,0.2c0.5,0.4,0.7,0.8,0.7,1.1c-0.1,0.2-0.4,0.4-1,0.6c-0.2,0-0.4,0.1-0.7,0.2
			c-1.2,0.7-2.1,0.9-2.5,1c-0.2,0-0.4,0.2-0.5,0.5c0,0.3,0.1,0.5,0.4,0.5c1.9,0,3.2,0,4.1,0c0.5,0,0.8,0.2,0.9,0.6
			c0,0.4-0.2,0.6-0.7,0.6h-4.1c-0.5,0.3-0.5,0.7,0,1c1.2,0.1,2,0.1,2.4,0c1.4-0.4,2.1,0.1,2.1,1.6c0,0.5-0.1,1-0.2,1.5
			c0,0.3,0,0.6-0.1,0.7c-0.2,1.2-0.9,1.6-2.1,1.2c-0.1,0-0.2,0-0.5,0c-0.6-0.1-1.1-0.1-1.5-0.1c-0.3,0-0.5,0.2-0.5,0.5
			c0,0.2,0.2,0.4,0.5,0.4h3.8c0.3,0,0.5,0.2,0.6,0.6c0,0.2-0.2,0.4-0.6,0.4c-0.1,0-0.6,0-1.6,0.1c-1.3,0.1-2,0.1-2.2,0.1
			c-0.2,0.1-0.4,0.4-0.5,0.9v0.4c0.5-0.1,1.2-0.2,2.2-0.2c0.9-0.1,1.6-0.1,2.1-0.1c0.6-0.1,0.9,0,1,0.4c1.6-1.9,2.9-4.5,3.8-7.7
			c0.2-0.6-0.1-1-0.7-1c-0.1,0-0.2,0-0.2,0c-0.6,0.1-1.1,0.2-1.5,0.4c-0.6,0.1-1,0-1.2-0.1c-0.2-0.2-0.2-0.6,0-1
			C90,9.2,90.8,8.7,91.6,9c0.4,0.1,0.8,0.2,1,0.1C93,9.2,93.3,8.9,93.3,8.2z M79.6,13.4c0.5,0,0.9,0,1.3,0c0.2,0,0.4-0.2,0.4-0.5
			s-0.2-0.5-0.5-0.5c-0.5,0-0.9,0-1.1,0c-0.3,0-0.5,0.2-0.5,0.5S79.3,13.4,79.6,13.4z M79.6,15.3c0.2-0.1,0.6-0.1,1.1,0
			c0.2,0,0.3,0,0.4,0c0.2,0,0.2-0.2,0.2-0.5s-0.1-0.5-0.4-0.5h-1.3c-0.2-0.1-0.4,0.1-0.4,0.6C79.2,15.2,79.3,15.3,79.6,15.3z
			 M83.8,13.4h1.6c0.3,0,0.5-0.2,0.5-0.5c0.1-0.3-0.1-0.5-0.6-0.5h-1.5c-0.2,0-0.4,0.1-0.4,0.4C83.5,13.2,83.6,13.4,83.8,13.4z
			 M84.1,14.3c-0.3,0-0.5,0.2-0.5,0.5s0.2,0.5,0.5,0.5c0.5-0.1,0.9-0.1,1.3-0.1c0.3,0,0.5-0.1,0.5-0.4c0-0.3-0.1-0.5-0.4-0.5
			C85,14.3,84.5,14.3,84.1,14.3z M95,12c-1,3.7-2.1,6.6-3.3,8.7h0.1c1.6,0.6,2.9,0.5,3.9-0.2c1.1-1.4,1.8-4.1,2-8
			c0.1-0.8-0.4-1.3-1.6-1.3C95.6,11,95.2,11.3,95,12z"/>
		<path class="st1" d="M87,25.4c-1.9,0-2.7-0.7-3.1-1.3c-0.3-0.4-0.7-0.8-0.7-1.4c-3.7,0.7-5.9,1.3-7.2,1.9
			c-1.6,0.8-2.7,0.1-3.1-0.8c-0.3-0.5-0.6-1.7,0.3-3c0.6-0.8,1.2-1.4,1.7-1.7c-0.1-0.4-0.1-0.9,0.1-1.5l0.1-0.3l0.2-0.2
			c0.1-0.1,0.2-0.2,0.3-0.3c-0.2-0.3-0.4-0.8-0.4-1.3c-0.1-0.8-0.2-1.8-0.2-2.9c0-0.1,0-0.3,0-0.4c-0.5-0.1-0.9-0.2-1.2-0.6
			c-0.4-0.4-0.6-1-0.5-1.6c0.1-0.6,0.5-1.6,1.7-2.1c-0.1-0.3,0-0.7,0.1-0.9c0.5-1.2,1.9-1.2,2.4-1.2l0.1,0c2.4,0.2,4.8-0.5,7-1.9
			c1.3-1,2.8-0.9,4.1,0.3c0.8,0.6,1.2,1.4,1.2,2.2v0.4L89.6,7c-0.2,0.3-0.4,0.6-0.7,0.8c0.2,0.1,0.3,0.1,0.5,0.2
			c1-0.7,1.9-0.6,2.4-0.4C92,7,92,6.4,91.9,5.7l-0.1-0.6l0.3-0.5C92.6,4,93.3,3.6,94,3.5c1.3-0.1,2.4,0.9,3.2,1.7l0.1,0.2l0.1,0.2
			c0.3,0.6,0.4,1.3,0.3,2.3c0.2,0,0.5,0,0.8,0c0.9-0.1,2.1-0.1,3,0.5c0.5,0.4,0.8,0.9,0.9,1.5c0.2,0.6,0.3,1.7-0.2,3.2
			c0,0.1,0,0.3-0.1,0.5c-0.1,0.6-0.2,1.3-0.4,2.2c-0.3,1.9-0.5,2.7-0.6,3.2c-1.1,4.8-3.8,6-5.9,6.1c0,0,0,0,0,0
			c-1.5,0-2.8-0.5-3.8-1.4c-1.1,1.1-2.3,1.7-3.7,1.7C87.4,25.4,87.2,25.4,87,25.4z M96.1,13.6c-0.7,2.3-1.4,4.4-2.2,6.1
			c0.3,0,0.6-0.1,0.7-0.2C95.1,18.7,95.8,17.1,96.1,13.6z M82.1,17.7c0.2,0.2,0.3,0.5,0.3,0.8c0.1-0.2,0.2-0.4,0.3-0.6
			c-0.2-0.2-0.3-0.5-0.4-0.8C82.3,17.3,82.2,17.5,82.1,17.7z M89.8,15.7c-0.1,0.2-0.1,0.4-0.2,0.6c0.6-1,1-2.2,1.5-3.4L91,12.9
			l-0.2,0c-0.2,0-0.4,0.1-0.5,0.1c0,0.6-0.1,1.1-0.2,1.6C90,14.9,90,15.3,89.8,15.7z M79.8,12.9h0.9c0-0.1-0.1-0.2-0.1-0.3
			c-0.2,0-0.5,0-0.7,0C79.8,12.7,79.8,12.8,79.8,12.9z M98.7,10.8c0.3,0.4,0.5,1,0.5,1.6c0,0,0-0.1,0-0.1l0.1-0.2
			c0.3-0.9,0.2-1.3,0.2-1.3l0,0C99.4,10.8,99.1,10.8,98.7,10.8L98.7,10.8z M91.5,11.6C91.5,11.6,91.5,11.6,91.5,11.6
			C91.5,11.6,91.5,11.6,91.5,11.6z M82.2,11.5c0,0,0.1,0.1,0.1,0.1c0,0,0.1-0.1,0.1-0.1c0-0.1-0.1-0.2-0.1-0.3
			C82.3,11.3,82.3,11.4,82.2,11.5z M93.9,10.3c0,0.1,0.1,0.1,0.1,0.2c0,0,0,0,0,0.1c0.1-0.1,0.2-0.2,0.3-0.3l-0.3-0.1
			C94.1,10.1,94,10.2,93.9,10.3C93.9,10.3,93.9,10.3,93.9,10.3z M99.4,10.4C99.4,10.4,99.4,10.4,99.4,10.4L99.4,10.4z M82.1,9.5
			c0.2,0.2,0.3,0.5,0.3,0.7c0-0.1,0.1-0.2,0.1-0.2c-0.1-0.2-0.3-0.4-0.3-0.6C82.2,9.4,82.1,9.4,82.1,9.5z"/>
	</g>
	<g>
		<path d="M110.6,8c0.5,0.2,0.9,0.4,1.3,0.4c0.2,0,0.5,0,0.9,0c0.3,0,0.5-0.2,0.5-0.5c0-0.4,0-0.8,0-1.2c0.1-0.7,0.7-1,1.8-0.9
			c0.9,0.2,1.3,0.8,1.3,1.6c-0.1,0.6,0.1,0.8,0.6,0.7c0.1,0,1,0.1,2.8,0.2c0.4,0.1,0.6,0.3,0.5,0.7c-0.1,0.5-0.3,0.7-0.7,0.7
			c-0.5,0-1,0-1.5,0c0.4,1.1,0.3,1.9-0.2,2.3c-0.1,0.1-0.2,0.2-0.4,0.5c-0.3,0.4-0.5,0.7-0.6,0.9c1.3,0,2.4,0,3.4,0
			c0.7,0.4,0.6,0.9-0.2,1.5c-3.4,0-5.9,0.1-7.6,0.2c-1.7,0.2-3.5,0.5-5.5,1.1c-0.8,0.2-1.4,0.1-1.7-0.2c-0.2-0.3-0.2-0.8,0.1-1.3
			c0.7-1,1.6-1.4,2.7-1.2c0.4,0.2,0.8,0.2,1.1,0.2c0.8,0,1.7-0.1,2.8-0.2c-1.4-1.3-1.6-2.4-0.7-3.4c-0.1,0-0.4,0-0.9,0.1
			c-1.1,0.2-1.7,0-1.8-0.9C108.9,8.2,109.6,7.8,110.6,8z M109.8,22.1c0-0.6-0.1-1.9-0.2-3.9c-0.1-0.4-0.1-0.7-0.1-0.9
			c0.2-1.2,1-1.6,2.4-1.2c0.1,0,0.2,0,0.2,0.1c0.2,0.1,0.4,0.1,0.6,0.1c0.6,0,1.5,0,2.7,0.1c0.4,0.1,0.7,0.1,1,0.1s0.6-0.1,0.9-0.2
			c1.4-0.9,2.3-0.6,2.7,0.7c0,1.1-0.1,2.8-0.2,4.9c-0.6,1.5-1.6,1.6-3.2,0.5c-1.2,0-2.2,0-3,0c-0.3-0.1-0.6,0-0.9,0.4
			C111.1,23.9,110.1,23.8,109.8,22.1z M116,21c0.6,0,1-0.3,1-1v-1.2c0-0.6-0.3-1-1-1s-1.7,0-2.9,0c-0.7,0-1,0.3-1,1
			c0,0.3,0,0.7,0,1.2c0,0.7,0.4,1,1.2,1C114.2,21,115.1,21,116,21z M112.4,9.8c0.5,0.3,0.8,0.8,0.9,1.3c0.2,1.7,0.7,2.5,1.3,2.3
			c0.5,0.1,0.8-0.2,1-0.7c0.6-1.2,0.9-2.2,0.7-2.9C116.3,9.9,112.4,9.9,112.4,9.8z M122.6,6.9c0.5,0.1,1,0.4,1.5,1
			c1.5,0,2.9,0,4.1,0c1.3-1.1,2.3-1,3,0.2c0.7,1.7,0.2,3.2-1.6,4.4c-1.2,0.8-2.3,1.3-3.2,1.5c4.8,0.4,7.1,1.8,7.1,4.1
			c-0.2,2.4-1.9,3.9-5.1,4.4c-1.6,0.2-3.2-0.2-4.6-1c0,0.1,0,0.3,0.1,0.6c0,0.3,0,0.6,0,0.7c0.2,1.1-0.2,1.9-1,2.3
			c-1.1,0.2-1.7-0.2-1.8-1.2c0.1-6.3,0.2-10.9,0.2-13.9C120.8,8.2,121.2,7.1,122.6,6.9z M127.5,20.4c1.6-0.3,2.5-1.1,2.6-2.2
			c-0.1-1.1-1-1.9-2.7-2.4c-1.8-0.6-3-0.6-3.5-0.2c0,1.4,0,2.9,0,4.5C124.7,20.6,125.9,20.9,127.5,20.4z M124.8,13.4
			c0.7-0.4,1.5-0.9,2.2-1.5c1.1-1.3,1.2-2.2,0.2-2.8c-0.6,0-1.3,0-2.2,0c-0.7,0-1,0.3-1,1c-0.1,0.9-0.1,1.8-0.1,2.8
			c-0.1,0.3,0,0.5,0.1,0.6C124.1,13.6,124.4,13.5,124.8,13.4z"/>
		<path class="st1" d="M122.4,26.7c-0.7,0-1.2-0.2-1.7-0.5c-0.4-0.3-0.9-0.8-1-1.8c-0.1,0.1-0.3,0.1-0.5,0.2c-1.2,0.4-2.4-0.2-3-0.6
			h-2.4l-0.2,0.1c-0.5,0.3-2,1.4-3.5,0.8c-0.6-0.3-1.4-0.9-1.7-2.4l0-0.3c0-0.3,0-0.9-0.1-1.7c0-0.6-0.1-1.2-0.1-2
			c-0.1-0.4-0.1-0.7-0.1-0.9c-0.2,0.1-0.4,0.1-0.6,0.2c-1.8,0.5-2.8-0.2-3.2-0.6l-0.2-0.2c-0.5-0.8-0.5-1.9,0.1-2.9l0.1-0.1
			c1-1.5,2.5-2.1,4.2-1.8l0.2,0l0.2,0.1c0.1,0.1,0.4,0,0.6,0c0-0.2-0.1-0.3-0.1-0.5c-0.4-0.1-0.8-0.2-1.2-0.5
			c-0.4-0.3-0.9-0.8-1-1.8l0-0.3l0.1-0.3c0-0.1,0.1-0.3,0.1-0.4l0.1-0.2c0.6-1.4,1.9-2.1,3.5-1.8l0.3,0.1l0.3,0.1
			c0.1,0,0.3,0.1,0.4,0.1l0-0.4c0.2-1.2,1.2-2.4,3.4-2.2l0.2,0c1.3,0.3,2.1,1.1,2.4,2.3c0.5,0,1.1,0.1,2.1,0.1l0.2,0c0,0,0,0,0-0.1
			c0.3-0.5,1-1.2,2.3-1.4l0.3,0l0.3,0.1c0.7,0.1,1.3,0.5,1.8,1h3c0.9-0.6,1.8-0.9,2.6-0.7c0.6,0.1,1.5,0.5,2.2,1.7l0.1,0.2
			c0.9,2.2,0.3,4.3-1.6,5.8c2.7,0.9,4,2.5,4,4.7l0,0.1c-0.1,1.8-1.2,4.9-6.4,5.8c-1.1,0.1-2.2,0.1-3.2-0.2c-0.1,1.2-0.8,2.1-1.9,2.7
			l-0.2,0.1l-0.2,0C122.9,26.7,122.6,26.7,122.4,26.7z M111.3,21.8c0,0,0,0.1,0,0.1C111.3,21.9,111.3,21.9,111.3,21.8
			C111.3,21.9,111.3,21.9,111.3,21.8z M118,21.6c0.1,0,0.2,0.1,0.2,0.1c0,0,0,0,0-0.1l0-0.6C118.3,21.2,118.2,21.4,118,21.6z
			 M131.2,16.9c0.2,0.4,0.3,0.9,0.4,1.3l0,0.1l0,0.1c-0.1,0.6-0.2,1.1-0.5,1.6c0.7-0.6,0.9-1.3,0.9-1.9
			C132,17.6,131.7,17.2,131.2,16.9z M113.6,19.5h1.9v-0.2l-1.9,0V19.5z M125.4,19.1c0.5,0.1,1.1,0,1.7-0.1l0.1,0
			c0.4-0.1,1.2-0.3,1.4-0.7c-0.2-0.5-1.1-0.8-1.6-1c-0.7-0.2-1.2-0.3-1.6-0.4V19.1z M118.2,17.6c0.1,0.3,0.2,0.5,0.3,0.8
			c0-0.4,0-0.7,0-1C118.4,17.4,118.3,17.5,118.2,17.6z M118.4,17.2L118.4,17.2L118.4,17.2z M119.7,11.9L119.7,11.9
			c0.1-0.1,0.1-0.3,0.1-0.4C119.8,11.7,119.7,11.8,119.7,11.9z M125.5,10.6c0,0.2,0,0.4,0,0.6c0.2-0.1,0.3-0.3,0.5-0.4
			c0.1-0.1,0.1-0.2,0.2-0.2H125.5z M129.2,9.1c0.1,0.2,0.2,0.5,0.2,0.7c0.1,0.4,0,0.8-0.1,1.1c0.8-0.8,0.8-1.4,0.5-2.1
			c0-0.1-0.1-0.1-0.1-0.1C129.7,8.7,129.5,8.8,129.2,9.1L129.2,9.1z M122.6,8.6c0,0.1,0,0.3,0,0.6c0.1-0.2,0.1-0.3,0.2-0.4
			C122.8,8.7,122.7,8.6,122.6,8.6z M114.8,8.4h0.2c-0.1-0.3-0.1-0.6-0.1-1c0,0,0,0,0,0c0,0,0,0,0,0c0,0,0,0-0.1,0v0.6
			C114.8,8.1,114.8,8.2,114.8,8.4z M112.8,6.9C112.8,6.9,112.8,6.9,112.8,6.9L112.8,6.9z"/>
	</g>
</g>
<g>
	<path class="st0" d="M40.1,19.9c0,10.4-8.4,18.8-18.8,18.8C10.8,38.8,2.4,30.4,2.4,19.9c0-10.4,8.4-18.8,18.8-18.8
		S40.1,9.5,40.1,19.9"/>
	<polygon class="st1" points="27.1,10.6 20.8,16.6 14.5,10.6 4.8,20.4 13,28.5 13,35.3 18.7,35.3 18.7,26.5 12.8,20.6 12.4,20.2 
		14.3,18.5 20.8,25 20.8,25 20.8,25 20.8,25 20.8,25 27.3,18.5 29.1,20.4 28.7,20.6 22.9,26.5 22.9,35.3 28.6,35.3 28.6,28.5 
		36.8,20.4 	"/>
	<path class="st1" d="M21,12.2c2.4,0,4.3-1.9,4.3-4.3S23.4,3.6,21,3.6s-4.3,1.9-4.3,4.3C16.6,10.2,18.6,12.2,21,12.2"/>
</g>
<g>
	<path d="M49.1,32.8l1.9-4.6h2.9v0.2h-0.2c-0.2,0-0.4,0-0.5,0.1c-0.1,0-0.2,0.1-0.2,0.2s-0.1,0.3-0.1,0.6v4.6c0,0.4,0,0.6,0.1,0.7
		c0,0.1,0.1,0.2,0.2,0.2c0.1,0.1,0.3,0.1,0.5,0.1h0.2v0.3h-3.7v-0.2h0.2c0.2,0,0.4,0,0.5-0.1c0.1,0,0.2-0.1,0.2-0.2s0.1-0.3,0.1-0.7
		v-5.2l-2.7,6.4h-0.1l-2.7-6.4v4.9c0,0.3,0,0.6,0,0.6c0,0.2,0.1,0.3,0.3,0.4c0.1,0.1,0.4,0.2,0.7,0.2v0.3h-2.4v-0.2h0.1
		c0.2,0,0.3,0,0.4-0.1c0.1-0.1,0.2-0.1,0.3-0.2s0.1-0.2,0.2-0.4c0,0,0-0.2,0-0.5v-4.4c0-0.4,0-0.6-0.1-0.7c0-0.1-0.1-0.2-0.2-0.2
		c-0.1-0.1-0.3-0.1-0.5-0.1h-0.2v-0.2h2.9L49.1,32.8z"/>
	<path d="M56.3,30.4v3.8c0,0.3,0,0.6,0.1,0.7s0.2,0.1,0.5,0.2v0.1h-2.6v-0.2c0.2,0,0.4-0.1,0.5-0.2s0.1-0.3,0.1-0.6v-2.8
		c0-0.3,0-0.6-0.1-0.7s-0.2-0.1-0.5-0.2v-0.2h2V30.4z M55.6,27.9c0.2,0,0.4,0.1,0.6,0.2c0.2,0.2,0.2,0.3,0.2,0.6
		c0,0.2-0.1,0.4-0.2,0.6c-0.2,0.2-0.3,0.2-0.6,0.2c-0.2,0-0.4-0.1-0.6-0.2c-0.2-0.2-0.2-0.3-0.2-0.6c0-0.2,0.1-0.4,0.2-0.6
		C55.2,28,55.3,27.9,55.6,27.9z"/>
	<path d="M59.3,30.4V31c0.2-0.3,0.5-0.5,0.7-0.6s0.5-0.2,0.7-0.2c0.3,0,0.6,0.1,0.8,0.3s0.3,0.4,0.4,0.7c0.1,0.2,0.1,0.6,0.1,1.1
		v1.9c0,0.4,0,0.6,0.1,0.7s0.2,0.1,0.4,0.2v0.1h-2.4v-0.2c0.2,0,0.3-0.1,0.4-0.2c0.1-0.1,0.1-0.3,0.1-0.6v-2.2c0-0.4,0-0.6,0-0.8
		c0-0.1-0.1-0.2-0.2-0.2c-0.1-0.1-0.2-0.1-0.2-0.1c-0.3,0-0.6,0.2-0.8,0.6v2.7c0,0.4,0,0.6,0.1,0.7s0.2,0.2,0.4,0.2v0.1h-2.5v-0.2
		c0.2,0,0.3-0.1,0.4-0.2c0.1-0.1,0.1-0.3,0.1-0.7v-2.7c0-0.4,0-0.6-0.1-0.7s-0.2-0.1-0.4-0.2v-0.2h1.9V30.4z"/>
	<path d="M65.1,30.4v3.8c0,0.3,0,0.6,0.1,0.7c0.1,0.1,0.2,0.1,0.5,0.2v0.1h-2.6v-0.2c0.2,0,0.4-0.1,0.5-0.2s0.1-0.3,0.1-0.6v-2.8
		c0-0.3,0-0.6-0.1-0.7s-0.2-0.1-0.5-0.2v-0.2h2V30.4z M64.4,27.9c0.2,0,0.4,0.1,0.6,0.2c0.2,0.2,0.2,0.3,0.2,0.6
		c0,0.2-0.1,0.4-0.2,0.6c-0.2,0.2-0.3,0.2-0.6,0.2c-0.2,0-0.4-0.1-0.6-0.2c-0.2-0.2-0.2-0.3-0.2-0.6c0-0.2,0.1-0.4,0.2-0.6
		C64,28,64.2,27.9,64.4,27.9z"/>
	<path d="M69.2,30.1l0.1,1.7h-0.2c-0.2-0.5-0.4-0.8-0.7-1c-0.2-0.2-0.5-0.3-0.7-0.3c-0.1,0-0.3,0-0.4,0.1s-0.2,0.2-0.2,0.3
		c0,0.1,0,0.2,0.1,0.3c0.1,0.1,0.4,0.4,0.9,0.7c0.5,0.3,0.8,0.6,1,0.9c0.2,0.2,0.2,0.5,0.2,0.8c0,0.3-0.1,0.5-0.2,0.8
		c-0.1,0.3-0.3,0.5-0.6,0.6c-0.2,0.1-0.5,0.2-0.8,0.2c-0.2,0-0.5-0.1-0.9-0.2c-0.1,0-0.2-0.1-0.2-0.1c-0.1,0-0.2,0.1-0.3,0.3h0.1
		l-0.1-1.7h0.2c0.2,0.5,0.4,0.8,0.6,1c0.3,0.2,0.5,0.3,0.8,0.3c0.2,0,0.3-0.1,0.4-0.2c0.1-0.1,0.2-0.2,0.2-0.4
		c0-0.2-0.1-0.3-0.2-0.4c-0.1-0.1-0.3-0.3-0.7-0.5c-0.5-0.4-0.9-0.6-1-0.8c-0.2-0.3-0.3-0.6-0.3-0.9c0-0.4,0.1-0.7,0.4-1
		c0.3-0.3,0.6-0.5,1.1-0.5c0.3,0,0.5,0.1,0.8,0.2c0.1,0.1,0.2,0.1,0.2,0.1c0.1,0,0.1,0,0.1,0s0.1-0.1,0.2-0.2L69.2,30.1L69.2,30.1z"
		/>
	<path d="M72.2,28.5v1.8h1.2v0.5h-1.2v3c0,0.3,0,0.5,0,0.5c0,0.1,0.1,0.1,0.1,0.2c0.1,0.1,0.1,0.1,0.2,0.1c0.2,0,0.4-0.2,0.6-0.5
		l0.2,0.1c-0.3,0.7-0.7,1-1.4,1c-0.3,0-0.6-0.1-0.8-0.3c-0.2-0.2-0.3-0.4-0.4-0.6c0-0.1-0.1-0.4-0.1-1v-2.6H70v-0.2
		c0.4-0.3,0.8-0.6,1.1-1c0.3-0.3,0.6-0.7,0.8-1.1h0.3V28.5z"/>
	<path d="M75.9,30.4v1.1c0.3-0.5,0.6-0.8,0.8-1c0.2-0.2,0.5-0.2,0.7-0.2s0.3,0.1,0.5,0.2c0.1,0.1,0.2,0.3,0.2,0.5s-0.1,0.4-0.2,0.5
		s-0.2,0.2-0.4,0.2c-0.2,0-0.3-0.1-0.5-0.2c-0.1-0.1-0.2-0.2-0.2-0.2h-0.1c-0.1,0-0.2,0-0.3,0.1c-0.1,0.1-0.2,0.3-0.3,0.5
		c-0.1,0.3-0.2,0.7-0.2,1.1v1.1v0.3c0,0.2,0,0.3,0,0.4S76,35,76.1,35s0.2,0.1,0.4,0.1v0.1h-2.6v-0.2c0.2,0,0.4-0.1,0.4-0.2
		c0.1-0.1,0.1-0.4,0.1-0.8v-2.7c0-0.3,0-0.5,0-0.5c0-0.1-0.1-0.2-0.1-0.2c-0.1,0-0.2-0.1-0.3-0.1v-0.2h1.9V30.4z"/>
	<path d="M80.8,35.3l-1.6-3.6c-0.2-0.5-0.4-0.9-0.5-1s-0.2-0.2-0.4-0.3v-0.2h2.6v0.2c-0.2,0-0.3,0-0.4,0.1c-0.1,0.1-0.1,0.2-0.1,0.3
		s0.1,0.4,0.3,0.8l0.8,1.9l0.6-1.5c0.2-0.5,0.3-0.9,0.3-1.1c0-0.1,0-0.2-0.1-0.3c-0.1-0.1-0.2-0.1-0.4-0.1v-0.2h1.5v0.2
		c-0.2,0-0.3,0.1-0.4,0.2s-0.3,0.5-0.5,1.1l-1.4,3.6c-0.3,0.9-0.6,1.4-0.8,1.7c-0.2,0.3-0.5,0.4-0.9,0.4c-0.3,0-0.5-0.1-0.7-0.2
		c-0.2-0.2-0.3-0.4-0.3-0.6c0-0.2,0.1-0.4,0.2-0.5s0.3-0.2,0.5-0.2s0.3,0.1,0.4,0.2c0.1,0.1,0.2,0.3,0.2,0.5c0,0.1,0,0.2,0,0.3
		l0.1,0.1c0.1,0,0.2,0,0.3-0.2c0.1-0.1,0.3-0.5,0.5-1L80.8,35.3z"/>
	<path d="M97.6,30.9v3.3c0,0.3,0,0.5,0.1,0.6s0.3,0.2,0.6,0.2v0.2h-2.9v-0.2c0.2,0,0.4,0,0.5-0.1c0.1,0,0.2-0.1,0.2-0.2
		s0.1-0.3,0.1-0.5v-3.4h-0.7v-0.5h0.7v-0.4v-0.2c0-0.5,0.2-0.9,0.5-1.2c0.4-0.3,0.9-0.5,1.5-0.5c0.4,0,0.7,0.1,0.9,0.2
		c0.2,0.2,0.3,0.3,0.3,0.5s-0.1,0.3-0.2,0.4s-0.3,0.2-0.5,0.2s-0.3,0-0.4-0.1s-0.2-0.2-0.2-0.3c0,0,0-0.1,0-0.2s0-0.1,0-0.2
		s0-0.1-0.1-0.2s-0.1-0.1-0.2-0.1s-0.2,0-0.3,0.1c-0.1,0.1-0.1,0.2-0.1,0.4v0.9v0.6h1v0.5h-0.8V30.9z"/>
	<path d="M110.7,32.8l-0.3,2.4h-6.2v-0.2h0.2c0.2,0,0.4,0,0.5-0.1c0.1,0,0.2-0.1,0.2-0.2s0.1-0.3,0.1-0.7v-4.6c0-0.4,0-0.6-0.1-0.7
		c0-0.1-0.1-0.2-0.2-0.2c-0.1-0.1-0.3-0.1-0.5-0.1h-0.2v-0.2h3.7v0.2h-0.3c-0.2,0-0.4,0-0.5,0.1c-0.1,0-0.2,0.1-0.2,0.2
		s-0.1,0.3-0.1,0.7v4.5c0,0.4,0,0.6,0.1,0.7c0,0.1,0.1,0.2,0.2,0.2s0.3,0,0.6,0h0.6c0.4,0,0.7-0.1,0.9-0.2c0.2-0.1,0.5-0.3,0.6-0.6
		c0.2-0.3,0.4-0.7,0.5-1.3L110.7,32.8L110.7,32.8z"/>
	<path d="M114.1,34.4c-0.6,0.5-1.1,0.8-1.6,0.8c-0.3,0-0.5-0.1-0.7-0.3c-0.2-0.2-0.3-0.4-0.3-0.7c0-0.4,0.2-0.7,0.5-1
		c0.3-0.3,1-0.7,2.1-1.2v-0.5c0-0.4,0-0.6-0.1-0.7c0-0.1-0.1-0.2-0.2-0.2c-0.1-0.1-0.2-0.1-0.4-0.1c-0.2,0-0.4,0-0.6,0.1
		c-0.1,0.1-0.1,0.1-0.1,0.2s0,0.2,0.1,0.3c0.1,0.1,0.2,0.3,0.2,0.4c0,0.2-0.1,0.3-0.2,0.4s-0.3,0.2-0.5,0.2s-0.4-0.1-0.5-0.2
		s-0.2-0.3-0.2-0.5s0.1-0.5,0.3-0.7c0.2-0.2,0.5-0.4,0.8-0.5c0.4-0.1,0.7-0.2,1.1-0.2c0.5,0,0.8,0.1,1.1,0.3
		c0.3,0.2,0.4,0.4,0.5,0.6c0,0.1,0.1,0.5,0.1,1v1.9c0,0.2,0,0.4,0,0.4c0,0.1,0,0.1,0.1,0.1h0.1c0.1,0,0.2-0.1,0.3-0.2l0.2,0.1
		c-0.2,0.3-0.4,0.4-0.5,0.6c-0.2,0.1-0.4,0.2-0.6,0.2c-0.3,0-0.5-0.1-0.6-0.2C114.2,34.9,114.1,34.8,114.1,34.4z M114.1,34.1v-1.6
		c-0.4,0.2-0.7,0.5-0.9,0.8c-0.1,0.2-0.2,0.4-0.2,0.6c0,0.2,0.1,0.3,0.2,0.4s0.2,0.1,0.4,0.1C113.7,34.3,113.9,34.2,114.1,34.1z"/>
	<path d="M118.6,28.1v2.7c0.4-0.4,0.9-0.6,1.3-0.6c0.3,0,0.6,0.1,0.9,0.3c0.3,0.2,0.5,0.5,0.7,0.8c0.2,0.4,0.2,0.8,0.2,1.2
		c0,0.5-0.1,1-0.3,1.4c-0.2,0.4-0.5,0.8-0.8,1c-0.4,0.2-0.8,0.3-1.2,0.3c-0.3,0-0.5,0-0.7-0.1s-0.4-0.2-0.6-0.4l-0.8,0.5h-0.2v-6.1
		c0-0.3,0-0.5,0-0.5c0-0.1-0.1-0.2-0.2-0.2s-0.2-0.1-0.4-0.1v-0.2H118.6z M118.6,31.2v2.2c0,0.4,0,0.7,0,0.8c0,0.2,0.1,0.4,0.2,0.5
		s0.3,0.2,0.5,0.2s0.3,0,0.5-0.2c0.1-0.1,0.2-0.3,0.3-0.6c0.1-0.3,0.1-0.8,0.1-1.6c0-0.7-0.1-1.3-0.3-1.5c-0.1-0.2-0.3-0.3-0.5-0.3
		C119.2,30.8,118.9,30.9,118.6,31.2z"/>
	<path d="M124.9,30.1c0.4,0,0.8,0.1,1.2,0.3c0.4,0.2,0.6,0.5,0.8,0.9c0.2,0.4,0.3,0.8,0.3,1.3c0,0.7-0.2,1.3-0.5,1.7
		c-0.4,0.6-1,0.8-1.7,0.8s-1.3-0.3-1.7-0.8c-0.4-0.5-0.6-1.1-0.6-1.8c0-0.7,0.2-1.3,0.6-1.8C123.7,30.4,124.2,30.1,124.9,30.1z
		 M124.9,30.5c-0.2,0-0.3,0.1-0.5,0.2c-0.1,0.1-0.2,0.4-0.2,0.8s-0.1,0.9-0.1,1.6c0,0.4,0,0.7,0.1,1c0,0.2,0.1,0.4,0.2,0.6
		c0.1,0.1,0.3,0.2,0.4,0.2c0.2,0,0.3,0,0.4-0.1s0.2-0.3,0.3-0.5c0.1-0.3,0.1-1,0.1-2c0-0.6,0-1-0.1-1.2s-0.2-0.4-0.3-0.5
		C125.2,30.5,125.1,30.5,124.9,30.5z"/>
	<path d="M129.9,30.4v1.1c0.3-0.5,0.6-0.8,0.8-1c0.2-0.2,0.5-0.2,0.7-0.2c0.2,0,0.3,0.1,0.5,0.2c0.1,0.1,0.2,0.3,0.2,0.5
		s-0.1,0.4-0.2,0.5s-0.2,0.2-0.4,0.2c-0.2,0-0.3-0.1-0.5-0.2c-0.1-0.1-0.2-0.2-0.2-0.2h-0.1c-0.1,0-0.2,0-0.3,0.1
		c-0.1,0.1-0.2,0.3-0.3,0.5c-0.1,0.3-0.2,0.7-0.2,1.1v1.1v0.3c0,0.2,0,0.3,0,0.4s0.1,0.2,0.2,0.2c0.1,0,0.2,0.1,0.4,0.1v0.1h-2.6
		v-0.2c0.2,0,0.4-0.1,0.4-0.2c0.1-0.1,0.1-0.4,0.1-0.8v-2.7c0-0.3,0-0.5,0-0.5c0-0.1-0.1-0.2-0.2-0.2s-0.2-0.1-0.3-0.1v-0.2h2V30.4z
		"/>
	<path d="M92.5,30c0.4,0,0.8,0.1,1.2,0.3c0.4,0.2,0.6,0.5,0.8,0.9c0.2,0.4,0.3,0.8,0.3,1.3c0,0.7-0.2,1.3-0.5,1.7
		c-0.4,0.6-1,0.8-1.7,0.8s-1.3-0.3-1.7-0.8c-0.4-0.5-0.6-1.1-0.6-1.8c0-0.7,0.2-1.3,0.6-1.8C91.2,30.2,91.8,30,92.5,30z M92.5,30.4
		c-0.2,0-0.3,0.1-0.5,0.2c-0.1,0.1-0.2,0.4-0.2,0.8s-0.1,0.9-0.1,1.6c0,0.4,0,0.7,0.1,1c0,0.2,0.1,0.4,0.2,0.6
		c0.1,0.1,0.3,0.2,0.4,0.2c0.2,0,0.3,0,0.4-0.1s0.2-0.3,0.3-0.5c0.1-0.3,0.1-1,0.1-2c0-0.6,0-1-0.1-1.2s-0.2-0.4-0.3-0.5
		C92.8,30.4,92.7,30.4,92.5,30.4z"/>
</g>
<g>
	<path d="M55.2,14.1c-2.2,0-4.3,0.2-6.3,0.6c-0.6,0-0.9,0.3-0.9,1c0,0.9-0.2,1.7-0.5,2.3c-0.2,0.5-0.4,0.7-0.7,0.5
		c-0.4-0.2-0.7-0.6-0.7-1.2c-0.2-1.4-0.3-2.7-0.1-3.9c0-0.1,0-0.2,0.1-0.2c0.1-0.1,0.1-0.2,0.1-0.2c-1.4,0.2-2.3,0-2.8-0.6
		c-0.4-0.9-0.3-1.3,0.2-1.3c0.7,0.1,1.5,0.1,2.4,0c3.2-0.6,4.8-1.9,4.6-4c-0.2-1.3,0.2-1.9,1.2-1.9c1.1,0,1.5,0.6,1.3,1.8
		c0,0.2-0.1,0.4-0.2,0.9c-0.3,1.1-0.3,1.7,0,1.8c0.3,0.2,0.8,0.3,1.5,0.5c0.8,0.2,1.4,0.4,1.8,0.6l0.2,0c0.2-0.2,0.6-0.4,1.2-0.4
		c1.5-0.1,2.5-0.9,3-2.6c0.2-0.8,0.3-1.6,0.1-2.3c-0.1-0.5,0.3-0.7,1.2-0.7c1,0.1,1.4,0.6,1.2,1.6C63,7.2,63,7.7,63,8
		c0,0.2,0,0.4,0.1,0.4c0.8,0.5,2.1,1,3.9,1.5c0.9,0.3,2.1,0.6,3.7,0.9c0.4,0.1,0.3,0.4-0.2,1.1c-0.3,0.4-0.9,0.9-1.8,1.3
		c-0.1,0-0.1,0-0.2,0c0,0.2,0,0.4-0.1,0.6v0.1c0,0.9,0,1.5-0.1,1.8c-0.1,1.2-0.3,2-0.7,2.4c-0.5,0.5-0.9,0.3-1.3-0.5
		c0-0.2,0-0.4,0-0.7c0.1-0.4,0.1-0.7,0-1c0-0.1,0-0.2,0-0.2c-0.1-0.6-0.3-0.9-0.7-1.1c-0.2-0.2-1.1-0.3-2.6-0.5
		c-2.8-0.2-4.4-0.2-5,0c0.2,0.4,0.3,0.9,0.1,1.3c0,0.2,0,0.3,0,0.4c0.3,0.1,0.9,0.1,1.7,0.1c0.6,0.1,1,0.1,1.2,0.1
		c0.3,0.2,0.6,0.2,0.9,0.1c0.2,0,0.4,0,0.7-0.1c0.3-0.1,0.6-0.1,0.7-0.1c1,0.1,1.5,0.5,1.6,1.3c0,0.2-0.1,0.6-0.2,1.1
		c-0.2,0.3-0.2,0.6-0.2,0.7c-0.7,3.4-2.3,5-4.8,4.9c-1.7-0.2-3-0.6-3.8-1.5c-0.7-1-0.7-1.5,0-1.5c0.2,0,0.6,0.1,1,0.2
		c2,0.6,3.4,0.4,4-0.6l0.1-0.1c0.5-0.8,0.7-1.5,0.7-2.1c0-0.3-0.3-0.6-0.9-0.9c-0.7-0.2-1.7-0.2-2.9-0.2c-0.3-0.1-0.6,0.1-0.9,0.5
		l-0.2,0.4c-0.1,0.2-0.2,0.4-0.2,0.6c-2.1,3.3-5.4,5.1-9.9,5.4c-1.6,0.2-2.6-0.4-2.9-1.6c-0.2-0.5-0.1-0.7,0.2-0.7
		c0.7,0.1,1.7,0,3-0.1c-1,0.2-0.9,0.2,0.1,0c3.2-0.2,5.6-1.5,7.2-3.7c0.1-0.2,0.1-0.4,0.1-0.5c-0.1-0.1-0.2-0.1-0.5-0.1
		c-0.4,0-1.1,0.1-1.9,0.4c-0.8,0.2-1.5,0.3-2,0.4c-0.7-0.1-0.8-0.5-0.5-1.3c0.5-0.6,1-1,1.6-1c0.1,0,0.2,0,0.4,0.1
		c0.4,0.1,0.7,0.1,0.9,0c0.3-0.1,0.8-0.1,1.3,0c0.5,0,0.9,0,1.1,0c0.3-0.1,0.5-0.4,0.5-1.1c0-0.2,0.1-0.4,0.2-0.6l0.1-0.2
		C55.4,14.1,55.3,14.1,55.2,14.1z M49,9.2c-0.5-0.2-1-0.4-1.6-0.6c-0.7-0.3-1-0.8-1-1.3c0.2-0.9,0.6-1.3,1.3-1.3
		c0.6,0,1.1,0.6,1.2,1.7c0,0.1,0,0.2,0.1,0.2c0.3,0.2,0.4,0.4,0.5,0.6C49.7,8.9,49.5,9.1,49,9.2z M47.8,12.8c0.5,0.2,0.8,0.4,1,0.4
		c2.2-0.3,4.4-0.5,6.7-0.5c0.4,0,1,0,1.8,0c3.3-0.1,5.8,0,7.6,0.2c0.6,0.2,1.1,0.1,1.5-0.2c-1-1.1-2.1-2-3.3-2.7L63,9.9
		c-0.3-0.2-0.6-0.2-0.7,0c0,0.1,0,0.2-0.1,0.2c-0.6,0.9-1.1,1.5-1.7,1.7c-1.5,0.7-2.8,0.7-3.7-0.1c-0.3,0.5-0.7,0.7-1.2,0.6
		c-0.7,0-1.7-0.4-3-1.2c-0.5-0.6-1.1-0.4-2,0.4c-0.3,0.2-1.1,0.6-2.2,1.1C49.2,12.1,49.1,12.2,47.8,12.8z M54.3,7
		c0.3-0.6,0.9-0.9,1.6-0.6c0.6,0.4,0.7,0.9,0.2,1.5c-0.7,0.8-1.5,1.2-2.2,1.3c-0.4-0.1-0.5-0.3-0.3-0.6s0.4-0.8,0.6-1.3
		C54.2,7.4,54.3,7.3,54.3,7z M58.6,9c-0.7-0.2-1.2-0.5-1.6-1.1c-0.2-1,0.1-1.5,1-1.6c0.9,0.2,1.5,1.1,1.7,2.7
		C59.7,9.2,59.3,9.2,58.6,9z M64,7.9c0.1-0.1,0.2-0.2,0.5-0.5c0.2-0.1,0.4-0.4,0.6-1.1c0.3-0.5,0.7-0.7,1.2-0.7
		c1,0.2,1.2,0.8,0.7,1.7c-0.9,0.8-1.7,1.2-2.6,1.1c-0.2,0-0.4,0-0.6-0.1C63.8,8.2,63.8,8,64,7.9z"/>
	<path d="M93.3,8.2c0.2-1,0.2-1.9,0.1-2.7c0.6-0.9,1.5-0.6,2.7,0.7c0.3,0.6,0.2,1.6-0.2,3c0.2,0.1,1.1,0.1,2.7,0.1
		c1.5-0.2,2.2,0.1,2.3,0.9c0.2,0.5,0.2,1.3-0.2,2.4c-0.1,0.5-0.2,1.5-0.5,2.9c-0.2,1.5-0.4,2.5-0.6,3c-0.7,3.2-2.2,4.9-4.5,5
		c-1.7,0-2.9-0.8-3.7-2.4c-1.1,1.7-2.4,2.6-3.9,2.7c-1.4,0.1-2.2-0.2-2.4-0.7c-0.2-0.2-0.4-0.4-0.4-0.5c0.1-0.2,0.2-0.3,0.5-0.4
		c1.1-0.5,2.1-1.2,3-2.1c-0.2,0-0.2,0-0.2,0.1c-6.3,1.1-10.5,2-12.6,2.9c-0.6,0.3-1,0.3-1.2-0.1s-0.2-0.9,0.2-1.5
		c0.8-1.1,1.4-1.5,1.8-1.3c0.3,0,0.8,0,1.3-0.1c0.4-0.1,1-0.2,1.8-0.2c0.7-0.2,1.3-0.2,1.6-0.2C81,19.5,81,19.2,81,19
		c0-0.4-0.1-0.6-0.4-0.6c-1.5,0-2.7,0.2-3.8,0.5c-0.5,0-0.6-0.3-0.4-0.9c0.6-0.7,1.1-1.1,1.7-1c0.7,0.1,1.5,0.1,2.3,0.1
		c0.3,0,0.5-0.2,0.5-0.6c0-0.2-0.2-0.4-0.5-0.4c-0.9,0-1.6,0.1-2.1,0.2c-1.1,0.2-1.6-0.2-1.7-1.1c-0.1-0.6-0.2-1.5-0.2-2.7
		c0-1.1,0.5-1.5,1.5-1.5c0.8,0.1,1.7,0.1,2.7,0c0.5-0.3,0.5-0.6,0-1c-1.4-0.1-2.5,0-3.3,0.4c-1.9,0.4-2.7,0.3-2.6-0.2
		c0.2-0.8,0.9-1.3,2.2-1.3h3.5c0.2,0,0.4-0.1,0.5-0.4c-0.1-0.2-0.2-0.4-0.5-0.4c-2,0-3.3-0.1-3.9-0.4c-0.3-0.3,0-0.5,0.9-0.5
		c2.8,0.2,5.5-0.6,8-2.2c0.8-0.6,1.5-0.5,2.2,0.2c0.5,0.4,0.7,0.8,0.7,1.1c-0.1,0.2-0.4,0.4-1,0.6c-0.2,0-0.4,0.1-0.7,0.2
		c-1.2,0.7-2.1,0.9-2.5,1c-0.2,0-0.4,0.2-0.5,0.5c0,0.3,0.1,0.5,0.4,0.5c1.9,0,3.2,0,4.1,0c0.5,0,0.8,0.2,0.9,0.6
		c0,0.4-0.2,0.6-0.7,0.6h-4.1c-0.5,0.3-0.5,0.7,0,1c1.2,0.1,2,0.1,2.4,0c1.4-0.4,2.1,0.1,2.1,1.6c0,0.5-0.1,1-0.2,1.5
		c0,0.3,0,0.6-0.1,0.7c-0.2,1.2-0.9,1.6-2.1,1.2c-0.1,0-0.2,0-0.5,0c-0.6-0.1-1.1-0.1-1.5-0.1c-0.3,0-0.5,0.2-0.5,0.5
		c0,0.2,0.2,0.4,0.5,0.4h3.8c0.3,0,0.5,0.2,0.6,0.6c0,0.2-0.2,0.4-0.6,0.4c-0.1,0-0.6,0-1.6,0.1c-1.3,0.1-2,0.1-2.2,0.1
		c-0.2,0.1-0.4,0.4-0.5,0.9v0.4c0.5-0.1,1.2-0.2,2.2-0.2c0.9-0.1,1.6-0.1,2.1-0.1c0.6-0.1,0.9,0,1,0.4c1.6-1.9,2.9-4.5,3.8-7.7
		c0.2-0.6-0.1-1-0.7-1c-0.1,0-0.2,0-0.2,0c-0.6,0.1-1.1,0.2-1.5,0.4c-0.6,0.1-1,0-1.2-0.1c-0.2-0.2-0.2-0.6,0-1
		C90,9.2,90.8,8.7,91.6,9c0.4,0.1,0.8,0.2,1,0.1C93,9.2,93.3,8.9,93.3,8.2z M79.6,13.4c0.5,0,0.9,0,1.3,0c0.2,0,0.4-0.2,0.4-0.5
		s-0.2-0.5-0.5-0.5c-0.5,0-0.9,0-1.1,0c-0.3,0-0.5,0.2-0.5,0.5S79.3,13.4,79.6,13.4z M79.6,15.3c0.2-0.1,0.6-0.1,1.1,0
		c0.2,0,0.3,0,0.4,0c0.2,0,0.2-0.2,0.2-0.5s-0.1-0.5-0.4-0.5h-1.3c-0.2-0.1-0.4,0.1-0.4,0.6C79.2,15.2,79.3,15.3,79.6,15.3z
		 M83.8,13.4h1.6c0.3,0,0.5-0.2,0.5-0.5c0.1-0.3-0.1-0.5-0.6-0.5h-1.5c-0.2,0-0.4,0.1-0.4,0.4C83.5,13.2,83.6,13.4,83.8,13.4z
		 M84.1,14.3c-0.3,0-0.5,0.2-0.5,0.5s0.2,0.5,0.5,0.5c0.5-0.1,0.9-0.1,1.3-0.1c0.3,0,0.5-0.1,0.5-0.4c0-0.3-0.1-0.5-0.4-0.5
		C85,14.3,84.5,14.3,84.1,14.3z M95,12c-1,3.7-2.1,6.6-3.3,8.7h0.1c1.6,0.6,2.9,0.5,3.9-0.2c1.1-1.4,1.8-4.1,2-8
		c0.1-0.8-0.4-1.3-1.6-1.3C95.6,11,95.2,11.3,95,12z"/>
	<path d="M110.6,8c0.5,0.2,0.9,0.4,1.3,0.4c0.2,0,0.5,0,0.9,0c0.3,0,0.5-0.2,0.5-0.5c0-0.4,0-0.8,0-1.2c0.1-0.7,0.7-1,1.8-0.9
		c0.9,0.2,1.3,0.8,1.3,1.6c-0.1,0.6,0.1,0.8,0.6,0.7c0.1,0,1,0.1,2.8,0.2c0.4,0.1,0.6,0.3,0.5,0.7c-0.1,0.5-0.3,0.7-0.7,0.7
		c-0.5,0-1,0-1.5,0c0.4,1.1,0.3,1.9-0.2,2.3c-0.1,0.1-0.2,0.2-0.4,0.5c-0.3,0.4-0.5,0.7-0.6,0.9c1.3,0,2.4,0,3.4,0
		c0.7,0.4,0.6,0.9-0.2,1.5c-3.4,0-5.9,0.1-7.6,0.2c-1.7,0.2-3.5,0.5-5.5,1.1c-0.8,0.2-1.4,0.1-1.7-0.2c-0.2-0.3-0.2-0.8,0.1-1.3
		c0.7-1,1.6-1.4,2.7-1.2c0.4,0.2,0.8,0.2,1.1,0.2c0.8,0,1.7-0.1,2.8-0.2c-1.4-1.3-1.6-2.4-0.7-3.4c-0.1,0-0.4,0-0.9,0.1
		c-1.1,0.2-1.7,0-1.8-0.9C108.9,8.2,109.6,7.8,110.6,8z M109.8,22.1c0-0.6-0.1-1.9-0.2-3.9c-0.1-0.4-0.1-0.7-0.1-0.9
		c0.2-1.2,1-1.6,2.4-1.2c0.1,0,0.2,0,0.2,0.1c0.2,0.1,0.4,0.1,0.6,0.1c0.6,0,1.5,0,2.7,0.1c0.4,0.1,0.7,0.1,1,0.1s0.6-0.1,0.9-0.2
		c1.4-0.9,2.3-0.6,2.7,0.7c0,1.1-0.1,2.8-0.2,4.9c-0.6,1.5-1.6,1.6-3.2,0.5c-1.2,0-2.2,0-3,0c-0.3-0.1-0.6,0-0.9,0.4
		C111.1,23.9,110.1,23.8,109.8,22.1z M116,21c0.6,0,1-0.3,1-1v-1.2c0-0.6-0.3-1-1-1s-1.7,0-2.9,0c-0.7,0-1,0.3-1,1
		c0,0.3,0,0.7,0,1.2c0,0.7,0.4,1,1.2,1C114.2,21,115.1,21,116,21z M112.4,9.8c0.5,0.3,0.8,0.8,0.9,1.3c0.2,1.7,0.7,2.5,1.3,2.3
		c0.5,0.1,0.8-0.2,1-0.7c0.6-1.2,0.9-2.2,0.7-2.9C116.3,9.9,112.4,9.9,112.4,9.8z M122.6,6.9c0.5,0.1,1,0.4,1.5,1c1.5,0,2.9,0,4.1,0
		c1.3-1.1,2.3-1,3,0.2c0.7,1.7,0.2,3.2-1.6,4.4c-1.2,0.8-2.3,1.3-3.2,1.5c4.8,0.4,7.1,1.8,7.1,4.1c-0.2,2.4-1.9,3.9-5.1,4.4
		c-1.6,0.2-3.2-0.2-4.6-1c0,0.1,0,0.3,0.1,0.6c0,0.3,0,0.6,0,0.7c0.2,1.1-0.2,1.9-1,2.3c-1.1,0.2-1.7-0.2-1.8-1.2
		c0.1-6.3,0.2-10.9,0.2-13.9C120.8,8.2,121.2,7.1,122.6,6.9z M127.5,20.4c1.6-0.3,2.5-1.1,2.6-2.2c-0.1-1.1-1-1.9-2.7-2.4
		c-1.8-0.6-3-0.6-3.5-0.2c0,1.4,0,2.9,0,4.5C124.7,20.6,125.9,20.9,127.5,20.4z M124.8,13.4c0.7-0.4,1.5-0.9,2.2-1.5
		c1.1-1.3,1.2-2.2,0.2-2.8c-0.6,0-1.3,0-2.2,0c-0.7,0-1,0.3-1,1c-0.1,0.9-0.1,1.8-0.1,2.8c-0.1,0.3,0,0.5,0.1,0.6
		C124.1,13.6,124.4,13.5,124.8,13.4z"/>
</g>
</svg>
