<?xml version="1.0" encoding="utf-8"?>
<!-- Generator: Adobe Illustrator 24.0.2, SVG Export Plug-In . SVG Version: 6.00 Build 0)  -->
<svg version="1.1" id="圖層_1" xmlns="http://www.w3.org/2000/svg" xmlns:xlink="http://www.w3.org/1999/xlink" x="0px" y="0px"
	 viewBox="0 0 244.2 37.7" style="enable-background:new 0 0 244.2 37.7;" xml:space="preserve">
<style type="text/css">
	.st0{fill:#004EA2;}
	.st1{fill:#FFFFFF;}
	.st2{font-family:'Georgia-Bold';}
	.st3{font-size:12px;}
</style>
<g>
	<path class="st0" d="M37.7,18.8c0,10.4-8.4,18.8-18.8,18.8C8.4,37.7,0,29.3,0,18.8C0,8.4,8.4,0,18.8,0S37.7,8.4,37.7,18.8"/>
	<polygon class="st1" points="24.7,9.5 18.4,15.5 12.1,9.5 2.4,19.2 10.6,27.4 10.6,34.2 16.3,34.2 16.3,25.4 10.4,19.5 10,19.1 
		11.9,17.4 18.4,23.9 18.4,23.9 18.4,23.9 18.4,23.9 18.4,23.9 24.9,17.4 26.7,19.2 26.3,19.5 20.5,25.4 20.5,34.2 26.2,34.2 
		26.2,27.4 34.4,19.2 	"/>
	<path class="st1" d="M18.6,11.1c2.4,0,4.3-1.9,4.3-4.3S21,2.5,18.6,2.5s-4.3,1.9-4.3,4.3C14.2,9.1,16.2,11.1,18.6,11.1"/>
</g>
<text transform="matrix(1 0 0 1 41.1077 16.8818)" class="st2 st3">MINISTRY OF LABOR </text>
<text transform="matrix(1 0 0 1 41.1077 31.2818)" class="st2 st3">REPUBLIC OF CHINA(TAIWAN)</text>
</svg>
