<?xml version="1.0" encoding="utf-8"?>
<!-- Generator: Adobe Illustrator 27.4.0, SVG Export Plug-In . SVG Version: 6.00 Build 0)  -->
<svg version="1.1" id="圖層_1" xmlns="http://www.w3.org/2000/svg" xmlns:xlink="http://www.w3.org/1999/xlink" x="0px" y="0px"
	 viewBox="0 0 23.1 31.4" style="enable-background:new 0 0 23.1 31.4;" xml:space="preserve">
<style type="text/css">
	.st0{fill:#FFFFFF;}
</style>
<g>
	<path class="st0" d="M23.1,6.3c0-0.2,0-0.4-0.2-0.5l-5.5-5.5l0,0c0,0,0,0-0.1-0.1l0,0c0,0,0,0-0.1,0l0,0h-0.1l0,0H17l0,0h-0.1l0,0
		l0,0h-16C0.5,0,0,0.3,0,0.7v30.1c0,0.4,0.5,0.7,0.9,0.7h21.7c0.4,0,0.5-0.3,0.5-0.7V6.3L23.1,6.3z M17.6,2.3l3.3,3.2h-3.3V2.3z
		 M1.6,29.9V1.4h14.7v4.8c0,0.4,0.4,0.6,0.8,0.6h4.6v23.1C21.7,29.9,1.6,29.9,1.6,29.9z"/>
	<path class="st0" d="M5.4,6.8h5c0.4,0,0.7-0.2,0.7-0.6s-0.3-0.6-0.7-0.6h-5C5,5.6,4.7,5.8,4.7,6.2S5,6.8,5.4,6.8z"/>
	<path class="st0" d="M18.1,10H5.4c-0.4,0-0.7,0.3-0.7,0.7s0.3,0.7,0.7,0.7h12.7c0.4,0,0.7-0.3,0.7-0.7C18.8,10.3,18.5,10,18.1,10z"
		/>
	<path class="st0" d="M18.1,14.3H5.4c-0.4,0-0.7,0.4-0.7,0.8c0,0.4,0.3,0.8,0.7,0.8h12.7c0.4,0,0.7-0.4,0.7-0.8
		C18.8,14.7,18.5,14.3,18.1,14.3z"/>
	<path class="st0" d="M18.1,18.7H5.4c-0.4,0-0.7,0.3-0.7,0.7s0.3,0.7,0.7,0.7h12.7c0.4,0,0.7-0.3,0.7-0.7S18.5,18.7,18.1,18.7z"/>
	<path class="st0" d="M14.1,23.2H5.4c-0.4,0-0.7,0.3-0.7,0.7s0.3,0.7,0.7,0.7h8.7c0.4,0,0.7-0.3,0.7-0.7S14.5,23.2,14.1,23.2z"/>
</g>
</svg>
