<svg width="48" height="49" viewBox="0 0 48 49" fill="none" xmlns="http://www.w3.org/2000/svg">
<path d="M44.0024 0.00218813H20.0013C17.7935 5.01301e-08 16.0037 1.78766 16.0015 3.99325C16.0015 3.99544 16.0015 3.99763 16.0015 4.002V22.5679C15.2072 22.4563 14.4042 22.3994 13.6012 22.4016C12.0783 22.3731 10.5597 22.5876 9.10683 23.0427C8.36069 23.2856 7.9012 24.0317 8.01936 24.8085L8.90116 30.4034H8.40008C7.4045 30.4034 6.46582 30.8673 5.85972 31.6572L4.2252 33.6615C3.3806 32.6484 1.87304 32.5105 0.859958 33.3573C0.312938 33.8146 -0.00215798 34.4907 3.0104e-05 35.2041V45.604C-0.00653414 46.9256 1.06125 48 2.38067 48.0043C3.26465 48.0087 4.07863 47.5252 4.49655 46.7462L6.5052 47.7505C6.83778 47.9168 7.20539 48.0022 7.57736 48.0043H17.601C18.9269 48.0043 20.0013 46.93 19.9991 45.604C19.9991 45.1927 19.8919 44.7857 19.6906 44.4268C20.7912 43.7245 21.1281 42.2716 20.4498 41.1556L20.7037 41.3241C21.2376 41.6939 21.9443 41.6983 22.4826 41.3351L24.0011 40.3242L25.5065 41.3219C26.0404 41.6917 26.7471 41.6961 27.2854 41.3329L28.7996 40.3242L30.305 41.3219C30.5697 41.5057 30.8826 41.6042 31.2043 41.6042C31.5194 41.6064 31.8257 41.5123 32.0839 41.3329L33.598 40.3242L35.1035 41.3219C35.6373 41.6917 36.3441 41.6961 36.8823 41.3307L38.3987 40.322L39.7181 41.2016C40.2629 41.5779 41.0113 41.4401 41.3876 40.8953C41.5255 40.6961 41.5999 40.4598 41.5999 40.217V26.9747C42.1228 27.292 42.7814 27.2766 43.2869 26.9331L44.801 25.9222L46.1357 26.8128C46.6871 27.1804 47.4333 27.0294 47.7987 26.478C47.93 26.2811 48 26.0513 48 25.815V3.99981C48.0022 1.79204 46.2145 0.00218808 44.0089 0C44.0067 0.00218808 44.0046 0.00218813 44.0024 0.00218813ZM16.0234 24.1914C16.5572 24.2746 17.0868 24.3993 17.601 24.5634L17.3296 26.2789C16.5354 25.9966 16.0037 25.2461 15.9993 24.4037C16.0059 24.3337 16.0124 24.2615 16.0234 24.1914ZM14.4414 24.0273C14.4217 24.1521 14.4085 24.279 14.402 24.4037C14.4085 26.0316 15.507 27.4517 17.0802 27.8696L16.1765 33.6046H11.0258L10.1309 27.8652C11.6997 27.4451 12.7937 26.0272 12.8003 24.4037C12.7937 24.2768 12.7806 24.1521 12.7609 24.0273C13.0279 24.0142 13.3036 24.0033 13.6012 24.0033C13.8987 24.0033 14.1744 24.0142 14.4414 24.0273ZM11.1789 24.1914C11.1899 24.2615 11.1964 24.3337 11.2008 24.4037C11.1964 25.2417 10.6713 25.9879 9.88142 26.2745L9.61445 24.5634C10.1265 24.3993 10.6494 24.2746 11.1789 24.1914ZM3.2012 45.604C3.2012 46.046 2.84234 46.4049 2.40035 46.4049C1.95836 46.4049 1.5995 46.046 1.5995 45.604V35.2041C1.5995 34.7621 1.95836 34.4032 2.40035 34.4032C2.84234 34.4032 3.2012 34.7621 3.2012 35.2041V45.604ZM18.4018 41.6042C18.8438 41.6042 19.2026 41.963 19.2026 42.405C19.2026 42.847 18.8438 43.2059 18.4018 43.2059H17.601C17.159 43.2059 16.8001 43.5647 16.8001 44.0067C16.8001 44.4487 17.159 44.8076 17.601 44.8076C18.0429 44.8076 18.4018 45.1664 18.4018 45.6084C18.4018 46.0504 18.0429 46.4092 17.601 46.4092H7.57736C7.45264 46.4114 7.33011 46.383 7.2207 46.3283L4.80067 45.1139V35.4929L7.12006 32.6484C7.42201 32.2458 7.89682 32.0095 8.40008 32.0073H9.15277L9.4044 33.6068H8.80049C8.3585 33.6068 7.99965 33.9656 7.99965 34.4076C7.99965 34.8496 8.3585 35.2084 8.80049 35.2084H17.601C18.0429 35.2084 18.4018 35.5673 18.4018 36.0093C18.4018 36.4513 18.0429 36.8101 17.601 36.8101C17.159 36.8101 16.8001 37.169 16.8001 37.611C16.8001 38.0529 17.159 38.4118 17.601 38.4118H18.4018C18.8438 38.4118 19.2026 38.7706 19.2026 39.2126C19.2026 39.6546 18.8438 40.0135 18.4018 40.0135C17.9598 40.0135 17.601 40.3723 17.601 40.8143C17.601 41.2563 17.9598 41.6042 18.4018 41.6042ZM40.0025 4.00419V39.4708L39.0879 38.8625C38.6853 38.5759 38.1449 38.5715 37.7357 38.8494L36.0028 40.0047L34.482 38.9982C33.9481 38.6394 33.2501 38.6394 32.7162 38.9982L31.2021 40.0047L29.6814 38.9982C29.1475 38.6394 28.4495 38.6394 27.9156 38.9982L26.4014 40.0047L24.8807 38.9982C24.3468 38.6394 23.6488 38.6394 23.1149 38.9982L21.6008 40.0047L20.7759 39.4577C20.789 39.3745 20.7977 39.2892 20.8021 39.2039C20.8021 38.3855 20.3842 37.6219 19.6928 37.1821C20.3426 36.0333 19.9378 34.5761 18.7913 33.9262C18.485 33.7534 18.1458 33.6505 17.7957 33.6243L19.1852 24.8129C19.3033 24.0383 18.8438 23.29 18.0977 23.0471C17.9511 22.9967 17.7826 22.9464 17.6031 22.8983V4.00419C17.601 2.6804 18.6709 1.60605 19.9925 1.60386C19.9947 1.60386 19.9991 1.60386 20.0013 1.60386H40.8012C40.2804 2.2953 40.0004 3.13771 40.0025 4.00419ZM46.4027 25.071L45.6894 24.5962C45.1533 24.2374 44.4531 24.2374 43.9148 24.5962L42.4029 25.6049L41.602 25.0732V4.00419C41.602 2.67821 42.6764 1.60386 44.0024 1.60386C45.3283 1.60386 46.4027 2.67821 46.4027 4.00419V25.071Z" fill="#0D6E74"/>
<path d="M23.2023 10.6646C22.7603 10.6646 22.4037 10.3058 22.4037 9.86378C22.4037 9.42179 22.7625 9.06513 23.2045 9.06513C23.4911 9.06513 23.7537 9.2183 23.8959 9.46555C24.1279 9.8419 24.6224 9.95787 24.9965 9.72593C25.3554 9.50275 25.4801 9.03887 25.281 8.6669C24.9922 8.17896 24.5392 7.81136 24.0031 7.62756V7.46783C24.0031 7.02584 23.6443 6.66699 23.2023 6.66699C22.7603 6.66699 22.4015 7.02584 22.4015 7.46783V7.61443C21.1543 8.05424 20.5 9.42179 20.9376 10.669C21.2746 11.6296 22.1827 12.2707 23.2001 12.2685C23.6421 12.2685 23.9988 12.6273 23.9988 13.0693C23.9988 13.5113 23.6399 13.868 23.1979 13.868C22.9113 13.868 22.6487 13.7148 22.5065 13.4676C22.2746 13.0912 21.78 12.9752 21.4059 13.2072C21.047 13.4304 20.9223 13.8942 21.1214 14.2662C21.4125 14.7541 21.8654 15.1217 22.4015 15.3055V15.4653C22.4015 15.9073 22.7603 16.2661 23.2023 16.2661C23.6443 16.2661 24.0031 15.9073 24.0031 15.4653V15.3187C25.2503 14.8789 25.9046 13.5113 25.467 12.2641C25.1278 11.3035 24.2198 10.6624 23.2023 10.6646Z" fill="#0D6E74"/>
<path d="M23.2023 23.3907C22.7603 23.3907 22.4037 23.0318 22.4037 22.5899C22.4037 22.1479 22.7625 21.7912 23.2045 21.7912C23.4911 21.7912 23.7537 21.9444 23.8959 22.1916C24.1279 22.568 24.6224 22.6839 24.9965 22.452C25.3554 22.2288 25.4801 21.7649 25.281 21.393C24.9922 20.905 24.5392 20.5374 24.0031 20.3536V20.1939C24.0031 19.7519 23.6443 19.3931 23.2023 19.3931C22.7603 19.3931 22.4015 19.7519 22.4015 20.1939V20.3405C21.1543 20.7803 20.5 22.1479 20.9376 23.3951C21.2746 24.3556 22.1827 24.9967 23.2001 24.9946C23.6421 24.9946 23.9988 25.3534 23.9988 25.7954C23.9988 26.2374 23.6399 26.594 23.1979 26.594C22.9113 26.594 22.6487 26.4409 22.5065 26.1936C22.2746 25.8173 21.78 25.7013 21.4059 25.9332C21.047 26.1564 20.9223 26.6203 21.1214 26.9923C21.4125 27.4802 21.8654 27.8478 22.4015 28.0316V28.1913C22.4015 28.6333 22.7603 28.9922 23.2023 28.9922C23.6443 28.9922 24.0031 28.6333 24.0031 28.1913V28.0447C25.2503 27.6049 25.9046 26.2374 25.467 24.9902C25.1278 24.0296 24.2198 23.3885 23.2023 23.3907Z" fill="#0D6E74"/>
<path d="M28.8018 9.0653H32.8016C33.2436 9.0653 33.6025 8.70645 33.6025 8.26446C33.6025 7.82247 33.2436 7.46362 32.8016 7.46362H28.8018C28.3598 7.46362 28.001 7.82247 28.001 8.26446C28.001 8.70645 28.3598 9.0653 28.8018 9.0653Z" fill="#0D6E74"/>
<path d="M28.8018 12.264H29.6027C30.0447 12.264 30.4035 11.9052 30.4035 11.4632C30.4035 11.0212 30.0447 10.6624 29.6027 10.6624H28.8018C28.3598 10.6624 28.001 11.0212 28.001 11.4632C28.001 11.9074 28.3598 12.264 28.8018 12.264Z" fill="#0D6E74"/>
<path d="M36.8011 10.6648H32.8013C32.3593 10.6648 32.0005 11.0236 32.0005 11.4656C32.0005 11.9076 32.3593 12.2665 32.8013 12.2665H36.8011C37.2431 12.2665 37.602 11.9076 37.602 11.4656C37.602 11.0236 37.2431 10.6648 36.8011 10.6648Z" fill="#0D6E74"/>
<path d="M28.8018 15.4654H29.6027C30.0447 15.4654 30.4035 15.1066 30.4035 14.6646C30.4035 14.2226 30.0447 13.8638 29.6027 13.8638H28.8018C28.3598 13.8638 28.001 14.2226 28.001 14.6646C28.001 15.1066 28.3598 15.4654 28.8018 15.4654Z" fill="#0D6E74"/>
<path d="M36.8011 13.8657H32.8013C32.3593 13.8657 32.0005 14.2246 32.0005 14.6666C32.0005 15.1086 32.3593 15.4674 32.8013 15.4674H36.8011C37.2431 15.4674 37.602 15.1086 37.602 14.6666C37.602 14.2246 37.2431 13.8657 36.8011 13.8657Z" fill="#0D6E74"/>
<path d="M28.8018 21.7911H32.8016C33.2436 21.7911 33.6025 21.4323 33.6025 20.9903C33.6025 20.5483 33.2436 20.1895 32.8016 20.1895H28.8018C28.3598 20.1895 28.001 20.5483 28.001 20.9903C28.001 21.4323 28.3598 21.7911 28.8018 21.7911Z" fill="#0D6E74"/>
<path d="M28.8018 24.9901H29.6027C30.0447 24.9901 30.4035 24.6313 30.4035 24.1893C30.4035 23.7473 30.0447 23.3884 29.6027 23.3884H28.8018C28.3598 23.3884 28.001 23.7473 28.001 24.1893C28.001 24.6313 28.3598 24.9901 28.8018 24.9901Z" fill="#0D6E74"/>
<path d="M36.8011 23.3906H32.8013C32.3593 23.3906 32.0005 23.7495 32.0005 24.1915C32.0005 24.6335 32.3593 24.9923 32.8013 24.9923H36.8011C37.2431 24.9923 37.602 24.6335 37.602 24.1915C37.602 23.7495 37.2431 23.3906 36.8011 23.3906Z" fill="#0D6E74"/>
<path d="M28.8018 28.1913H29.6027C30.0447 28.1913 30.4035 27.8324 30.4035 27.3904C30.4035 26.9484 30.0447 26.5896 29.6027 26.5896H28.8018C28.3598 26.5896 28.001 26.9484 28.001 27.3904C28.001 27.8324 28.3598 28.1913 28.8018 28.1913Z" fill="#0D6E74"/>
<path d="M36.8011 26.5918H32.8013C32.3593 26.5918 32.0005 26.9506 32.0005 27.3926C32.0005 27.8346 32.3593 28.1935 32.8013 28.1935H36.8011C37.2431 28.1935 37.602 27.8346 37.602 27.3926C37.602 26.9485 37.2431 26.5918 36.8011 26.5918Z" fill="#0D6E74"/>
<path d="M12.0015 30.4034C12.0015 30.8454 12.3603 31.2042 12.8023 31.2042H14.4018C14.8438 31.2042 15.2026 30.8454 15.2026 30.4034C15.2026 29.9614 14.8438 29.6025 14.4018 29.6025H12.8023C12.3581 29.6047 12.0015 29.9614 12.0015 30.4034Z" fill="#0D6E74"/>
</svg>
