<svg width="50" height="50" viewBox="0 0 50 50" fill="none" xmlns="http://www.w3.org/2000/svg">
<mask id="mask0_546_107" style="mask-type:alpha" maskUnits="userSpaceOnUse" x="0" y="0" width="50" height="50">
<rect width="50" height="50" fill="#C4C4C4"/>
</mask>
<g mask="url(#mask0_546_107)">
<path d="M48.8347 26.1191L47.0419 22.862V17.2947C47.0419 17.2569 47.04 17.2213 47.0373 17.1847C47.0354 17.1713 47.0345 17.1591 47.0327 17.1458C47.0309 17.1224 47.0281 17.1002 47.0244 17.0768C47.0226 17.0624 47.0198 17.0468 47.0171 17.0324C47.0125 17.0112 47.0088 16.9912 47.0024 16.9712C46.9996 16.9568 46.9969 16.9412 46.9923 16.9256C46.9868 16.9056 46.9794 16.8856 46.9739 16.8667C46.9712 16.8534 46.9657 16.8389 46.9611 16.8256C46.951 16.7945 46.9381 16.7645 46.9253 16.7344C46.9207 16.7244 46.9152 16.7144 46.9106 16.7044C46.9005 16.6833 46.8904 16.6633 46.8794 16.6433C46.8739 16.6322 46.8684 16.621 46.8592 16.6099C46.8509 16.5921 46.839 16.5744 46.828 16.5566C46.8206 16.5466 46.8133 16.5354 46.8069 16.5254C46.794 16.5077 46.7821 16.4921 46.7683 16.4754C46.7628 16.4654 46.7536 16.4576 46.7481 16.4487C46.7325 16.431 46.7169 16.4143 46.6995 16.3965C46.6939 16.3909 46.6884 16.3832 46.682 16.3776C46.6591 16.3554 46.6361 16.3342 46.6113 16.3142C46.6067 16.3109 46.6031 16.3076 46.5985 16.3042C46.5783 16.2887 46.5581 16.2742 46.5379 16.2598C46.5269 16.2531 46.5149 16.2464 46.503 16.2397C46.4883 16.2297 46.4746 16.222 46.4599 16.2142C46.4452 16.2064 46.4323 16.2008 46.4195 16.1942C46.4048 16.1875 46.391 16.1808 46.3763 16.1753C46.3616 16.1697 46.3479 16.1642 46.3332 16.1586C46.3286 16.1564 46.3249 16.1553 46.3185 16.153L24.7789 9.04169C24.61 8.9861 24.4328 8.9861 24.2639 9.04169L2.72062 16.1519C2.29559 16.2931 2 16.7611 2 17.2947C2 17.8294 2.29559 18.2974 2.72062 18.4386L10.8191 21.1122V36.2587C10.8191 36.9135 11.257 37.4437 11.7977 37.4437C14.0926 37.4437 21.5568 39.975 24.24 40.951C24.3309 40.9844 24.4264 41 24.5209 41C24.6155 41 24.71 40.9844 24.8018 40.951C27.4879 39.975 34.9603 37.4437 37.2442 37.4437C37.784 37.4437 38.2228 36.9135 38.2228 36.2587V21.1122L45.0847 18.8466V22.862L43.291 26.1191C43.1845 26.3137 43.1276 26.5416 43.1276 26.7761V32.7013C43.1276 33.3561 43.5655 33.8864 44.1061 33.8864H48.0223C48.562 33.8864 48.9999 33.3561 48.9999 32.7013V26.7761C48.9999 26.5427 48.943 26.3137 48.8347 26.1191ZM36.2656 35.1537C32.8838 35.6284 26.0228 38.0407 24.5209 38.5776C23.3845 38.1708 19.1728 36.6856 15.7239 35.7851V25.5922C15.7239 24.9374 15.286 24.4072 14.7453 24.4072C14.2046 24.4072 13.7667 24.9374 13.7667 25.5922V35.326C13.4133 35.2548 13.0801 35.1959 12.7762 35.1537V21.7581L24.263 25.55C24.3465 25.5778 24.4337 25.5922 24.52 25.5922C24.6063 25.5922 24.6926 25.5789 24.7771 25.55L36.2647 21.7581V35.1537H36.2656ZM23.5534 18.4809H38.7515L24.5209 23.1788L6.69917 17.2947L24.5209 11.4129L38.7515 16.1108H23.5534C23.0136 16.1108 22.5748 16.6411 22.5748 17.2958C22.5757 17.9495 23.0136 18.4809 23.5534 18.4809ZM47.0419 31.5185H45.0838V27.1363L46.0633 25.3588L47.0419 27.1363V31.5185V31.5185Z" fill="#0D6E74"/>
</g>
</svg>
