<svg width="50" height="50" viewBox="0 0 50 50" fill="none" xmlns="http://www.w3.org/2000/svg">
<path d="M37.9004 38.2352C37.5239 37.9481 36.9879 38.0204 36.7008 38.3947C36.4136 38.7712 36.486 39.3072 36.8603 39.5943L38.3236 40.7131C38.4789 40.8322 38.6618 40.8897 38.8426 40.8897C39.0766 40.8897 39.3106 40.7939 39.4786 40.6089L42.2755 37.5206C42.5925 37.1696 42.5669 36.6272 42.216 36.3103C41.865 35.9934 41.3227 36.0189 41.0057 36.3699L38.7363 38.8754L37.9004 38.2352Z" fill="#0D6E74"/>
<path d="M46.9937 33.6623C46.9831 33.2263 46.647 32.8668 46.2131 32.8285C44.1755 32.6499 41.6678 31.2822 39.8258 29.3424C39.6642 29.1723 39.4409 29.0766 39.2048 29.0766C38.9708 29.0766 38.7453 29.1723 38.5837 29.3424C37.7563 30.2124 36.797 30.9653 35.8059 31.5502C34.066 29.6083 31.9263 28.179 29.4186 27.2793C29.3973 27.2708 29.3739 27.2623 29.3527 27.2559C29.157 27.1857 28.9592 27.1198 28.7592 27.0581C30.8798 24.9417 32.307 22.1618 32.307 19.6669V18.3205C33.3088 17.8845 34.0128 16.8827 34.0128 15.7214C34.0128 14.5132 33.2535 13.4817 32.1858 13.0754C31.7455 8.80235 28.7337 5.20779 24.5989 4.02094C24.4777 3.43815 23.9587 3 23.3419 3H20.2386C19.6431 3 19.1411 3.40838 18.9965 3.95926C16.961 4.50164 15.1041 5.66083 13.711 7.27094C12.2966 8.90445 11.4181 10.9463 11.1948 13.0775C10.1271 13.4838 9.36773 14.5175 9.36773 15.7235C9.36773 16.8869 10.0718 17.8866 11.0757 18.3248V19.669C11.0757 22.1618 12.5029 24.9417 14.6235 27.0602C14.4299 27.1219 14.2364 27.1857 14.0471 27.2516C14.0088 27.2623 13.9726 27.275 13.9386 27.2899C11.131 28.3023 8.78707 29.9784 6.9515 32.2947C5.18612 34.5216 3.93122 37.2717 3.22081 40.4686C2.9677 41.6108 2.7784 43.0465 3.55687 44.0163C4.31832 44.9628 5.67958 45.0862 6.78135 45.0862H12.3838C12.856 45.0862 13.2409 44.7034 13.2409 44.229C13.2409 43.7547 12.8581 43.3719 12.3838 43.3719H6.78135C5.75615 43.3719 5.12231 43.2272 4.8926 42.9422C4.65013 42.6402 4.65013 41.9319 4.8926 40.8365C5.7838 36.8272 7.95968 31.9203 13.2026 29.4424C13.041 32.3351 14.6086 34.2281 15.6061 35.4277C15.7593 35.6106 15.9805 35.7233 16.2187 35.7361C16.4569 35.7488 16.6909 35.6616 16.861 35.4957L21.6871 30.8015L26.5174 35.4957C26.677 35.651 26.8918 35.7382 27.1151 35.7382C27.13 35.7382 27.1449 35.7382 27.1619 35.7361C27.4001 35.7233 27.6235 35.6106 27.7745 35.4277C28.7699 34.2259 30.3353 32.3329 30.1758 29.4467C31.6966 30.1677 33.0408 31.1333 34.1979 32.3351C33.5066 32.6031 32.8281 32.7732 32.1964 32.8285C31.7625 32.8668 31.4243 33.2263 31.4158 33.6623C31.3435 36.7251 31.854 38.918 33.2344 41.4853C33.245 41.5065 33.7129 42.3424 34.4404 43.3698H20.1387C19.6665 43.3698 19.2815 43.7526 19.2815 44.2269C19.2815 44.7012 19.6644 45.0841 20.1387 45.0841H35.8016C36.8332 46.2263 38.052 47.1962 39.2069 47.1962C41.9932 47.1962 45.1475 41.5427 45.1773 41.4874C46.5534 38.918 47.0639 36.7251 46.9937 33.6623ZM30.4374 12.8882H25.7219C24.8307 10.5614 24.6627 8.6407 24.6329 5.82461C27.7213 6.91787 29.9674 9.64463 30.4374 12.8882ZM20.664 4.71008H22.9122C22.9186 8.02601 23.0016 10.27 23.8991 12.8882H19.6792C20.5747 10.2721 20.6598 8.02601 20.664 4.71008ZM18.9454 5.75867C18.9178 8.61305 18.754 10.5443 17.8564 12.8904H12.941C13.4302 9.60209 15.7933 6.80301 18.9454 5.75867ZM12.1987 14.6026H17.9288C17.9798 14.643 18.0287 14.6494 18.0691 14.6026H31.1819C31.7987 14.6026 32.3006 15.1045 32.3006 15.7214C32.3006 16.3403 31.7987 16.8423 31.1819 16.8423H12.2008C11.5819 16.8423 11.0799 16.3403 11.0799 15.7214C11.0778 15.1045 11.5798 14.6026 12.1987 14.6026ZM12.7858 19.6669V18.5545H30.5927V19.6669C30.5927 22.9318 27.4299 26.9709 23.8226 28.3109C22.2444 28.8979 21.1235 28.8958 19.5431 28.3087C15.9422 26.9645 12.7858 22.9254 12.7858 19.6669ZM16.3399 33.6134C15.453 32.4563 14.6001 30.9377 15.0106 28.732C15.3892 28.6108 15.7784 28.498 16.1825 28.4002C17.0461 29.034 17.9777 29.553 18.9433 29.9146C19.2539 30.0294 19.5538 30.1252 19.8452 30.2039L16.3399 33.6134ZM27.0364 33.6134L23.5269 30.2017C23.8162 30.123 24.1118 30.0294 24.4181 29.9146C25.388 29.5551 26.3239 29.034 27.1917 28.3981C27.5915 28.4959 27.9829 28.6065 28.3636 28.7299C28.7763 30.9334 27.9234 32.4542 27.0364 33.6134ZM43.665 40.677C42.6526 42.5679 40.281 45.4818 39.2048 45.4818C38.1285 45.4818 35.757 42.5658 34.7424 40.6749C33.6109 38.5713 33.145 36.8145 33.1216 34.4259C34.0448 34.2493 35.0083 33.9048 35.9526 33.4241C35.9867 33.4092 36.0186 33.3922 36.0505 33.373C37.1544 32.7987 38.2349 32.0394 39.2048 31.1355C41.0297 32.837 43.2502 34.0366 45.2879 34.4259C45.2581 36.8166 44.7944 38.5735 43.665 40.677Z" fill="#0D6E74"/>
<path d="M16.2589 43.3718C15.7865 43.3718 15.4014 43.7548 15.4014 44.2293C15.4014 44.7038 15.7844 45.0868 16.2589 45.0868H16.2631C16.7355 45.0868 17.1185 44.7038 17.1185 44.2293C17.1185 43.7548 16.7313 43.3718 16.2589 43.3718Z" fill="#0D6E74"/>
</svg>
