<svg width="50" height="50" viewBox="0 0 50 50" fill="none" xmlns="http://www.w3.org/2000/svg">
<mask id="mask0_546:71" style="mask-type:alpha" maskUnits="userSpaceOnUse" x="0" y="0" width="50" height="50">
<rect width="50" height="50" fill="#C4C4C4"/>
</mask>
<g mask="url(#mask0_546:71)">
<path d="M44.8219 34.0373C45.3745 33.3351 46.0006 32.5394 46.0006 30.7167V16.9814C46.0006 15.6254 44.8761 14.5221 43.4937 14.5221C43.1999 14.5221 42.9186 14.5721 42.6564 14.664V12.1727C42.6564 10.688 41.4259 9.48047 39.9125 9.48047C39.4525 9.48047 39.0192 9.59285 38.6377 9.78973C38.2304 8.80371 37.2436 8.10645 36.0941 8.10645C34.5815 8.10645 33.3502 9.31394 33.3502 10.7987V11.756C33.0204 11.6174 32.6573 11.5411 32.2758 11.5411C30.7632 11.5411 29.5318 12.7486 29.5318 14.2334V20.2421C29.1587 20.0707 28.7421 19.9739 28.303 19.9739C26.7027 19.9739 25.4005 21.2511 25.4005 22.8212L25.3979 27.1516C25.3979 30.1162 26.1668 31.1064 27.6986 33.08L27.8689 33.2999C29.8248 35.8207 29.8349 36.1185 29.8349 38.3243C28.9608 38.6549 28.3381 39.4867 28.3381 40.4596V45.0779C28.3381 45.5307 28.7121 45.8982 29.1729 45.8982C29.6337 45.8982 30.0077 45.5307 30.0077 45.0779V40.4604C30.0077 40.1035 30.3049 39.8131 30.6697 39.8131H32.977C33.4378 39.8131 33.8118 39.4456 33.8118 38.9928C33.8118 38.54 33.4378 38.1725 32.977 38.1725H31.5045C31.4994 35.7854 31.3717 35.1078 29.1971 32.3065L29.026 32.0858C27.5217 30.1474 27.0675 29.5625 27.0675 27.1533L27.07 22.8228C27.07 22.1568 27.6235 21.6153 28.303 21.6153C28.94 21.6153 29.4659 22.0887 29.5318 22.6949C29.5318 22.6949 29.531 26.9761 29.5318 27.0425C29.536 27.4929 29.9083 27.8563 30.3666 27.8563H30.3733C30.3883 27.8563 30.4042 27.8563 30.4192 27.8563C31.5178 27.8563 32.3977 28.1713 33.0355 28.7931C33.8135 29.5519 34.2083 30.7446 34.2083 32.3385C34.2083 32.7913 34.5823 33.1588 35.0431 33.1588C35.5039 33.1588 35.8779 32.7913 35.8779 32.3385C35.8779 30.291 35.3169 28.7069 34.2117 27.6282C33.4286 26.8653 32.401 26.3994 31.2014 26.26V14.2325C31.2014 13.6526 31.6831 13.1809 32.2758 13.1809C32.8685 13.1809 33.3502 13.6526 33.3502 14.2325V19.0486V21.1232C33.3502 21.576 33.7242 21.9435 34.185 21.9435C34.6458 21.9435 35.0198 21.576 35.0198 21.1232V19.0486V14.2325V10.7987C35.0198 10.2187 35.5014 9.74707 36.0941 9.74707C36.6868 9.74707 37.1685 10.2187 37.1685 10.7987V21.5087C37.1685 21.9615 37.5425 22.329 38.0033 22.329C38.4641 22.329 38.8381 21.9615 38.8381 21.5087V12.1727C38.8381 11.5928 39.3198 11.1211 39.9125 11.1211C40.5052 11.1211 40.9868 11.5928 40.9868 12.1727V16.9814V18.3653V21.918C40.9868 22.3709 41.3608 22.7384 41.8216 22.7384C42.2824 22.7384 42.6564 22.3709 42.6564 21.918V18.3653V16.9814C42.6564 16.5294 43.0321 16.1627 43.4937 16.1627C43.9554 16.1627 44.331 16.5302 44.331 16.9814V30.7167C44.331 31.9792 44.0013 32.3992 43.5012 33.0341C42.81 33.9126 41.9544 35.0012 41.9619 38.1725H40.4918C40.031 38.1725 39.657 38.54 39.657 38.9928C39.657 39.4456 40.031 39.8131 40.4918 39.8131H42.7992C43.1656 39.8131 43.4628 40.1035 43.4628 40.4604V45.0779C43.4628 45.5307 43.8368 45.8982 44.2976 45.8982C44.7584 45.8982 45.1324 45.5307 45.1324 45.0779V40.4604C45.1324 39.4867 44.5088 38.654 43.6323 38.3243C43.5989 35.5926 44.22 34.8019 44.8219 34.0373Z" fill="white"/>
<path d="M21.2818 5.77844C20.8711 5.77844 20.4821 5.86949 20.134 6.03191C19.7592 4.85641 18.6381 4 17.3166 4C16.4885 4 15.7388 4.33715 15.2029 4.87855C14.6661 4.33715 13.9165 4 13.0875 4C12.2594 4 11.5106 4.33715 10.9747 4.87855C10.4387 4.33715 9.68993 4 8.86182 4C7.23481 4 5.91167 5.29773 5.91167 6.89242V9.96367C4.85232 9.9932 4 10.8488 4 11.8963V19.2554C4 21.1536 4.72293 22.1018 5.36154 22.9377C5.99265 23.7654 6.5386 24.4799 6.49769 26.278C6.49769 26.2838 6.49769 26.2904 6.49769 26.2961V29.0056C5.56189 29.3411 4.89239 30.2229 4.89239 31.2557V45.1797C4.89239 45.6325 5.26638 46 5.72718 46C6.18799 46 6.56197 45.6325 6.56197 45.1797V34.6042H21.2885V45.1797C21.2885 45.6325 21.6625 46 22.1233 46C22.5841 46 22.9581 45.6325 22.9581 45.1797V31.2565C22.9581 30.2237 22.2886 29.3419 21.3528 29.0064V25.7547C21.3528 23.6153 21.8946 23.1149 22.5223 22.5358C23.166 21.9419 23.9657 21.2028 23.9657 19.1561V8.41492C23.9657 6.96133 22.7619 5.77926 21.2818 5.77844ZM21.2818 7.41906C21.842 7.41906 22.2969 7.86531 22.2969 8.41492V11.7979V13.9652C22.2969 14.5139 21.842 14.961 21.2818 14.961C20.7225 14.961 20.2667 14.5139 20.2667 13.9652V8.41492C20.2667 7.86613 20.7217 7.41906 21.2818 7.41906ZM17.3166 5.64062C18.0228 5.64062 18.5972 6.20172 18.5972 6.89242V8.41574V14.7264C18.5972 15.4179 18.0228 15.9807 17.3166 15.9807C16.612 15.9807 16.0385 15.4179 16.0385 14.7264V14.2761C16.5945 13.6698 16.8925 12.8922 16.8925 11.971C16.8925 11.2417 16.5987 10.6987 16.0385 10.3705V6.89242C16.0385 6.20172 16.6112 5.64062 17.3166 5.64062ZM13.0875 5.64062C13.7938 5.64062 14.3681 6.20172 14.3681 6.89242V9.98336C13.9566 9.96203 13.4949 9.96203 12.9807 9.96203H11.8095V6.89242C11.8095 6.20172 12.383 5.64062 13.0875 5.64062ZM8.86182 5.64062C9.56639 5.64062 10.1399 6.20172 10.1399 6.89242V9.96203H7.58125V6.89242C7.58125 6.20172 8.15559 5.64062 8.86182 5.64062ZM21.3795 21.3398C20.624 22.0379 19.6832 22.9057 19.6832 25.7547V28.862H17.6814C17.2206 28.862 16.8466 29.2295 16.8466 29.6823C16.8466 30.1352 17.2206 30.5027 17.6814 30.5027H20.518C20.9362 30.5027 21.2885 30.848 21.2885 31.2565V32.9636H6.56114V31.2565C6.56114 30.8406 6.90674 30.5027 7.33165 30.5027H10.1683C10.6291 30.5027 11.0031 30.1352 11.0031 29.6823C11.0031 29.2295 10.6291 28.862 10.1683 28.862H8.16728V26.3059C8.2182 23.9484 7.41096 22.8893 6.69804 21.955C6.12287 21.2011 5.66958 20.6072 5.66958 19.2554V11.8963C5.66958 11.7372 5.80649 11.6027 5.96844 11.6027H12.9815C13.6418 11.6027 14.4908 11.6027 14.9299 11.6871C14.9758 11.7027 15.0234 11.7142 15.0718 11.7224C15.1294 11.7405 15.1728 11.7618 15.1979 11.7872C15.1979 11.7872 15.2229 11.8332 15.2229 11.9718C15.2229 13.6887 13.3956 14.0808 11.8604 14.1071H8.82342C8.36262 14.1071 7.98863 14.4746 7.98863 14.9274C7.98863 15.3802 8.36262 15.7477 8.82342 15.7477C10.1749 15.7477 11.3161 17.3736 11.3161 19.2988C11.3161 19.7516 11.6901 20.1191 12.1509 20.1191C12.6117 20.1191 12.9857 19.7516 12.9857 19.2988C12.9857 17.9691 12.5883 16.7107 11.8671 15.7477C11.8712 15.7477 11.8754 15.7477 11.8796 15.7477C12.8588 15.7321 13.7145 15.5836 14.429 15.3162C14.707 16.6304 15.8958 17.6221 17.3157 17.6221C18.3951 17.6221 19.3401 17.0504 19.8543 16.1989C20.2676 16.4548 20.7568 16.6033 21.2802 16.6033C21.6391 16.6033 21.9822 16.5336 22.2953 16.4072V19.1569C22.2961 20.4932 21.9313 20.8295 21.3795 21.3398Z" fill="white"/>
<path d="M13.9249 28.8621C13.4641 28.8621 13.0901 29.2296 13.0901 29.6824C13.0901 30.1352 13.4641 30.5027 13.9249 30.5027H13.9274C14.3882 30.5027 14.7613 30.1352 14.7613 29.6824C14.7613 29.2296 14.3865 28.8621 13.9249 28.8621Z" fill="white"/>
<path d="M36.7347 38.1718C36.2739 38.1718 35.8999 38.5393 35.8999 38.9921C35.8999 39.4449 36.2739 39.8124 36.7347 39.8124H36.7397C37.2005 39.8124 37.572 39.4449 37.572 38.9921C37.572 38.5393 37.1955 38.1718 36.7347 38.1718Z" fill="white"/>
</g>
</svg>
