<svg width="46" height="50" viewBox="0 0 46 50" fill="none" xmlns="http://www.w3.org/2000/svg">
<path d="M14.8239 28.4392C11.1864 28.4392 8.23486 31.3884 8.23486 35.0282C8.23486 38.6681 11.1841 41.6173 14.8239 41.6173C18.4637 41.6173 21.4129 38.6681 21.4129 35.0282C21.4061 31.3884 18.4591 28.4415 14.8239 28.4392ZM14.8239 39.9672C12.0957 39.9672 9.88269 37.7541 9.88269 35.026C9.88269 32.2978 12.0957 30.0848 14.8239 30.0848C17.552 30.0848 19.7651 32.2978 19.7651 35.026C19.7605 37.7541 17.552 39.9649 14.8239 39.9672Z" fill="#0D6E74"/>
<path d="M28.8222 31.7326H24.9978C24.8246 31.1924 24.6058 30.6659 24.3482 30.1599L27.0513 27.4569C27.3727 27.1355 27.3727 26.6136 27.0513 26.2922L23.5574 22.7983C23.236 22.4769 22.7141 22.4769 22.3927 22.7983L19.6896 25.5013C19.1837 25.2438 18.6572 25.025 18.117 24.8518V21.0274C18.117 20.5715 17.7478 20.2046 17.2942 20.2046H12.353C11.8972 20.2046 11.5302 20.5738 11.5302 21.0274V24.8518C10.9901 25.0273 10.4636 25.2438 9.95763 25.5013L7.25456 22.7983C6.9332 22.4769 6.41126 22.4769 6.0899 22.7983L2.59596 26.2922C2.2746 26.6136 2.2746 27.1355 2.59596 27.4569L5.29676 30.1599C5.03693 30.6659 4.82042 31.1924 4.6472 31.7326H0.822772C0.366941 31.7326 0 32.1018 0 32.5553V37.4965C0 37.9524 0.36922 38.3193 0.822772 38.3193H4.6472C4.82042 38.8595 5.03921 39.386 5.29676 39.8919L2.59368 42.595C2.27232 42.9164 2.27232 43.4383 2.59368 43.7597L6.08762 47.2536C6.40898 47.575 6.93092 47.575 7.25228 47.2536L9.95535 44.5505C10.4613 44.8081 10.9878 45.0269 11.528 45.2001V49.0245C11.528 49.4804 11.8972 49.8473 12.3507 49.8473H17.292C17.7478 49.8473 18.1147 49.4781 18.1147 49.0245V45.2001C18.6549 45.0246 19.1814 44.8081 19.6874 44.5505L22.3904 47.2536C22.7118 47.575 23.2337 47.575 23.5551 47.2536L27.049 43.7597C27.3704 43.4383 27.3704 42.9164 27.049 42.595L24.3459 39.8919C24.6058 39.386 24.8223 38.8595 24.9955 38.3193H28.8199C29.2757 38.3193 29.6427 37.9501 29.6427 37.4965V32.5553C29.645 32.1018 29.278 31.7326 28.8222 31.7326ZM27.9994 36.6738H24.3801C24.0041 36.6738 23.6759 36.929 23.5824 37.2914C23.3727 38.1096 23.0468 38.8937 22.6183 39.6207C22.4269 39.9444 22.4793 40.3546 22.746 40.6213L25.3055 43.1808L22.9762 45.5101L20.419 42.9529C20.1523 42.6862 19.7421 42.6338 19.4184 42.8252C18.6914 43.2537 17.9073 43.5773 17.0914 43.7893C16.729 43.8827 16.4737 44.2109 16.4737 44.587V48.2063H13.1781V44.587C13.1781 44.2109 12.9228 43.8827 12.5604 43.7893C11.7422 43.5796 10.9605 43.2537 10.2334 42.8252C9.90976 42.6338 9.49725 42.6862 9.23286 42.9529L6.67336 45.5101L4.34407 43.1808L6.90356 40.6236C7.16794 40.3569 7.22036 39.9466 7.03119 39.623C6.60271 38.896 6.27907 38.1119 6.06711 37.2937C5.97367 36.9313 5.64547 36.6761 5.26941 36.6761H1.65011V33.3804H5.26941C5.64547 33.3804 5.97367 33.1251 6.06711 32.7627C6.27679 31.9445 6.60271 31.1605 7.03119 30.4334C7.22264 30.1098 7.17022 29.6996 6.90356 29.4329L4.34407 26.8734L6.67564 24.5441L9.23286 27.1013C9.49952 27.368 9.90976 27.4204 10.2334 27.2289C10.9605 26.8005 11.7445 26.4768 12.5604 26.2649C12.9228 26.1714 13.1781 25.8432 13.1781 25.4672V21.8501H16.4715V25.4694C16.4715 25.8455 16.7267 26.1737 17.0891 26.2671C17.9073 26.4768 18.6891 26.8027 19.4161 27.2312C19.7398 27.4227 20.1523 27.3703 20.4167 27.1036L22.9762 24.5464L25.3077 26.8757L22.7483 29.4329C22.4839 29.6996 22.4315 30.1098 22.6206 30.4334C23.0491 31.1605 23.3727 31.9445 23.5847 32.7627C23.6781 33.1251 24.0063 33.3804 24.3824 33.3804H27.9994V36.6738Z" fill="#0D6E74"/>
<path d="M39.0279 14.3245H36.3408C36.1448 9.43798 34.2257 1.55666 28.0743 0.893429V0.843288C28.0743 0.37834 27.696 0 27.231 0H22.1758C21.7109 0 21.3326 0.37834 21.3326 0.843288V0.893429C15.1811 1.55666 13.2644 9.43798 13.0661 14.3245H10.3789C9.91399 14.3245 9.53564 14.7028 9.53564 15.1678V18.5387C9.53564 19.0036 9.91399 19.3819 10.3789 19.3819H39.0279C39.4929 19.3819 39.8712 19.0036 39.8712 18.5387V15.1678C39.8712 14.7028 39.4929 14.3245 39.0279 14.3245ZM38.1847 17.6954H11.2222V16.0088H17.9617V14.3245H14.7549C14.9304 10.0534 16.478 3.29794 21.3326 2.59368V10.1126H23.0169V1.68658H26.3877V10.1126H28.072V2.59368C32.9289 3.29794 34.4765 10.0556 34.6497 14.3245H19.646V16.0088H38.1824V17.6954H38.1847Z" fill="#0D6E74"/>
<path d="M45.2911 26.0825H43.568L44.7851 24.8654C45.0609 24.5897 45.0609 24.1384 44.7851 23.8626L42.4558 21.5333C42.1869 21.2644 41.7196 21.2644 41.453 21.5333L40.2359 22.7504V21.0296C40.2359 20.6376 39.9168 20.3208 39.5271 20.3208H36.2337C35.8417 20.3208 35.5249 20.6399 35.5249 21.0296V22.7504L34.3078 21.5333C34.0321 21.2575 33.5808 21.2575 33.305 21.5333L30.9757 23.8626C30.6999 24.1384 30.6999 24.5897 30.9757 24.8654L32.1928 26.0825H30.472C30.08 26.0825 29.7632 26.4016 29.7632 26.7913V30.0847C29.7632 30.4767 30.0823 30.7935 30.472 30.7935H32.1928L30.9757 32.0106C30.6999 32.2864 30.6999 32.7376 30.9757 33.0134L33.305 35.3427C33.5739 35.6117 34.0412 35.6117 34.3078 35.3427L35.5249 34.1256V35.8487C35.5249 36.2407 35.844 36.5575 36.2337 36.5575H39.5271C39.9191 36.5575 40.2359 36.2384 40.2359 35.8487V34.1256L41.453 35.3427C41.7333 35.6071 42.1755 35.6071 42.4581 35.3404L44.7851 33.0134C45.0609 32.7376 45.0609 32.2864 44.7851 32.0106L43.568 30.7935H45.2911C45.6831 30.7935 45.9999 30.4744 45.9999 30.0847V26.7913C46.0022 26.3993 45.6831 26.0825 45.2911 26.0825ZM44.5823 29.3759H42.5333C42.2347 29.3759 41.9658 29.5651 41.8655 29.8454C41.8154 29.9844 41.7584 30.1234 41.6968 30.2579C41.5669 30.5291 41.6239 30.8551 41.8381 31.0647L43.2877 32.5143L41.9567 33.8408L40.5094 32.3889C40.2974 32.1747 39.9738 32.12 39.7026 32.2476C39.5704 32.3114 39.4314 32.3684 39.2923 32.4163C39.0097 32.5166 38.8183 32.7855 38.8183 33.0864V35.1422H36.9425V33.0932C36.9425 32.7923 36.7534 32.5234 36.4685 32.4231C36.3294 32.373 36.1904 32.316 36.0582 32.2545C35.787 32.1268 35.4634 32.1838 35.2514 32.3958L33.8018 33.8408L32.4754 32.5143L33.9272 31.067C34.1414 30.8551 34.1984 30.5314 34.0685 30.2602C34.0047 30.1257 33.9477 29.9867 33.8999 29.8477C33.7996 29.5673 33.5306 29.3782 33.2321 29.3782C33.2298 29.3782 33.2275 29.3782 33.2252 29.3782H31.1763V27.5024H33.2252C33.5238 27.5024 33.7927 27.3133 33.893 27.0329C33.9409 26.8939 33.9979 26.7549 34.0617 26.6204C34.1893 26.3492 34.1323 26.0233 33.9204 25.8136L32.4777 24.364L33.8041 23.0398L35.2537 24.4917C35.4656 24.7059 35.7893 24.7629 36.0605 24.633C36.1927 24.5691 36.3317 24.5122 36.4685 24.4643C36.7534 24.364 36.9448 24.0928 36.9425 23.7897V21.7407H38.8183V23.7897C38.8183 24.0905 39.0075 24.3595 39.2923 24.4597C39.4314 24.5076 39.5681 24.5646 39.7003 24.6284C39.9715 24.756 40.2952 24.6991 40.5071 24.4871L41.9567 23.0376L43.2832 24.364L41.8313 25.8158C41.6171 26.0278 41.5601 26.3514 41.69 26.6227C41.7538 26.7571 41.8108 26.8962 41.8587 27.0352C41.959 27.3155 42.2279 27.5047 42.5265 27.5047H44.5823V29.3759Z" fill="#0D6E74"/>
<path d="M37.8816 25.2576C36.1289 25.2576 34.7021 26.6843 34.7021 28.437C34.7021 30.1897 36.1289 31.6164 37.8816 31.6164C39.6342 31.6164 41.061 30.1897 41.061 28.437C41.061 26.6843 39.6342 25.2576 37.8816 25.2576ZM37.8816 30.1988C36.9106 30.1988 36.1198 29.4079 36.1198 28.437C36.1198 27.4661 36.9106 26.6752 37.8816 26.6752C38.8525 26.6752 39.6433 27.4661 39.6433 28.437C39.6411 29.4102 38.8525 30.1988 37.8816 30.1988Z" fill="#0D6E74"/>
</svg>
