<svg width="50" height="50" viewBox="0 0 50 50" fill="none" xmlns="http://www.w3.org/2000/svg">
<mask id="mask0_546:122" style="mask-type:alpha" maskUnits="userSpaceOnUse" x="0" y="0" width="50" height="50">
<rect width="50" height="50" fill="#C4C4C4"/>
</mask>
<g mask="url(#mask0_546:122)">
<path d="M43.9275 26.9706L38.7458 24.6649C38.3796 24.5018 38.1429 24.1376 38.1429 23.7364V22.3115C39.8837 20.9236 41.0025 18.7845 41.0025 16.3883V14.3837C41.5757 14.067 41.9561 13.4528 41.9561 12.7672V12.5731C41.9561 8.39731 38.5627 5 34.3927 5H32.4867C28.3156 5 24.9233 8.39731 24.9233 12.5719V14.3384C24.9233 14.942 25.1825 15.4883 25.6356 15.8383C25.7128 15.8978 25.7925 15.9502 25.8769 15.9954V16.3895C25.8769 18.7857 26.9958 20.9236 28.7365 22.3127V23.7376C28.7365 24.1388 28.4999 24.503 28.1337 24.6661L22.9519 26.9718C21.2552 27.7265 20.1577 29.4168 20.1577 31.275V43.1073C20.1577 43.6001 20.5572 44.0001 21.0495 44.0001C21.5417 44.0001 21.9413 43.6001 21.9413 43.1073V31.275C21.9413 31.1714 21.9484 31.0691 21.9591 30.9679L24.3467 33.3582C24.7176 33.7307 24.9233 34.2247 24.9233 34.7509V43.1073C24.9233 43.6001 25.3228 44.0001 25.8151 44.0001C26.3074 44.0001 26.7069 43.6001 26.7069 43.1073V34.7509C26.7069 33.7474 26.3169 32.8046 25.6082 32.0952L22.7617 29.2454C23.0185 28.9788 23.3253 28.7586 23.676 28.6026L28.771 26.3362L32.5486 30.118V43.1073C32.5486 43.6001 32.9481 44.0001 33.4403 44.0001C33.9326 44.0001 34.3321 43.6001 34.3321 43.1073V30.118L38.1096 26.3362L43.2046 28.6026C43.5542 28.7586 43.8622 28.9788 44.119 29.2454L41.2725 32.0952C40.5638 32.8046 40.1738 33.7474 40.1738 34.7509V43.1073C40.1738 43.6001 40.5733 44.0001 41.0656 44.0001C41.5578 44.0001 41.9573 43.6001 41.9573 43.1073V34.7509C41.9573 34.2247 42.1618 33.7296 42.534 33.3582L44.9216 30.9679C44.9323 31.0691 44.9394 31.1714 44.9394 31.275V43.1073C44.9394 43.6001 45.3389 44.0001 45.8312 44.0001C46.3234 44.0001 46.7229 43.6001 46.7229 43.1073V31.275C46.7218 29.4157 45.6255 27.7253 43.9275 26.9706ZM33.4391 28.486L30.1241 25.1672C30.3762 24.7423 30.5189 24.2518 30.5189 23.7376V23.3745C31.4178 23.7531 32.4047 23.9626 33.4403 23.9626C34.476 23.9626 35.4617 23.7531 36.3606 23.3745V23.7376C36.3606 24.2518 36.5033 24.7423 36.7553 25.1672L33.4391 28.486ZM33.4391 22.1758C30.2526 22.1758 27.6593 19.5796 27.6593 16.3895V15.9871C28.2157 15.7669 28.7591 15.4145 29.2787 14.9348C29.6402 14.6003 29.6628 14.0361 29.3287 13.673C28.9946 13.3112 28.431 13.2885 28.0683 13.6218C27.6224 14.0337 27.1765 14.3004 26.7437 14.4134C26.733 14.4158 26.7259 14.417 26.72 14.4182C26.714 14.4063 26.7045 14.3801 26.7045 14.3373V12.5719C26.7045 9.38175 29.2978 6.78555 32.4844 6.78555H34.3904C37.5781 6.78555 40.1702 9.38175 40.1702 12.5719V12.766C40.1702 12.7945 40.1524 12.8195 40.1298 12.8243C34.7899 13.8802 32.111 11.8899 31.2073 10.9852C30.859 10.6364 30.2942 10.6364 29.9458 10.9852C29.5974 11.334 29.5974 11.8994 29.9458 12.2482C32.715 15.0205 36.7553 15.0705 39.2154 14.7741V16.3871C39.219 19.5796 36.6269 22.1758 33.4391 22.1758Z" fill="white"/>
<path d="M19.0804 22.115V20.2069C19.0804 17.8773 17.8712 15.8275 16.0496 14.6478C16.1625 14.286 16.2208 13.9086 16.2208 13.5277C16.2208 11.4565 14.5383 9.77209 12.4694 9.77209C10.4005 9.77209 8.71922 11.4553 8.71922 13.5265C8.71922 13.9122 8.77748 14.286 8.89044 14.6467C7.06885 15.8263 5.85961 17.8761 5.85961 20.2057V22.1138C5.85961 24.3696 6.99275 26.3635 8.71922 27.5586V29.5215C8.71922 29.9084 8.504 30.2572 8.158 30.4298L5.07366 31.9737C3.79427 32.6153 3 33.9021 3 35.3341V43.1072C3 43.6 3.39951 44 3.89177 44C4.38403 44 4.78354 43.6 4.78354 43.1072V35.7209L6.23653 37.1756C6.60751 37.5482 6.81321 38.0422 6.81321 38.5683V43.1084C6.81321 43.6012 7.21272 44.0012 7.70498 44.0012C8.19723 44.0012 8.59675 43.6012 8.59675 43.1084V38.5683C8.59675 37.5648 8.20675 36.6221 7.49809 35.9126L5.47555 33.8878C5.46604 33.8783 5.45534 33.8699 5.44583 33.8604C5.57305 33.7485 5.71455 33.6509 5.8715 33.5723L8.95583 32.0284C9.11397 31.9487 9.26141 31.8558 9.39815 31.7523L11.5788 33.9354V43.1072C11.5788 43.6 11.9783 44 12.4706 44C12.9629 44 13.3624 43.6 13.3624 43.1072V33.9342L15.543 31.7511C15.6798 31.8546 15.8272 31.9487 15.9854 32.0272L16.8355 32.4534C16.9639 32.5177 17.0995 32.5474 17.2338 32.5474C17.5608 32.5474 17.8759 32.3665 18.0317 32.0534C18.2516 31.613 18.0733 31.0761 17.6333 30.8559L16.7832 30.4298C16.4372 30.2572 16.222 29.9084 16.222 29.5215V27.5586C17.9472 26.3646 19.0804 24.3696 19.0804 22.115ZM12.4694 11.5565C13.5538 11.5565 14.4372 12.4397 14.4372 13.5265C14.4372 13.6467 14.4265 13.7634 14.4063 13.8789C13.794 13.6908 13.1436 13.5884 12.4694 13.5884C11.7964 13.5884 11.1472 13.6896 10.536 13.8777C10.5158 13.7634 10.5028 13.6456 10.5028 13.5265C10.5028 12.4397 11.385 11.5565 12.4694 11.5565ZM12.4694 15.374C15.1316 15.374 17.2969 17.5416 17.2969 20.2069V20.5307C13.5847 21.6686 11.3719 18.8415 11.2768 18.7177C11.121 18.5106 10.8844 18.3808 10.6264 18.363C10.3684 18.3451 10.1151 18.4392 9.93321 18.6225C9.08187 19.4748 8.24836 19.8855 7.64552 20.0843C7.71211 17.475 9.84998 15.374 12.4694 15.374ZM12.4694 32.3022L10.4088 30.2393C10.4695 30.0096 10.5016 29.7691 10.5016 29.5227V28.4335C11.1234 28.6275 11.7845 28.7335 12.4694 28.7335C13.1543 28.7335 13.8154 28.6287 14.4372 28.4335V29.5227C14.4372 29.7691 14.4705 30.0096 14.53 30.2393L12.4694 32.3022ZM12.4694 26.9467C9.80717 26.9467 7.64196 24.7791 7.64196 22.1138V21.9293C8.353 21.7663 9.40766 21.3853 10.5075 20.4997C10.8963 20.8675 11.4528 21.3187 12.1614 21.7044C12.9997 22.1615 14.1566 22.5852 15.5692 22.5852C16.1066 22.5852 16.6809 22.5233 17.2885 22.3793C17.1506 24.9219 15.0425 26.9467 12.4694 26.9467Z" fill="white"/>
</g>
</svg>
