<svg width="50" height="50" viewBox="0 0 50 50" fill="none" xmlns="http://www.w3.org/2000/svg">
<mask id="mask0_546:86" style="mask-type:alpha" maskUnits="userSpaceOnUse" x="0" y="0" width="50" height="50">
<rect width="50" height="50" fill="#C4C4C4"/>
</mask>
<g mask="url(#mask0_546:86)">
<path d="M41.6277 19.2829L45.8835 14.9775C46.0664 14.7924 46.1698 14.5409 46.1698 14.2781C46.1698 14.0153 46.0664 13.7638 45.8835 13.5787L35.7146 3.28931C35.3334 2.90356 34.7135 2.90356 34.3323 3.28931L32.337 5.30846C30.0542 4.16536 27.2072 4.55393 25.3083 6.47559L20.8556 10.9802C20.2217 10.9208 19.5836 10.9067 18.9483 10.9463L15.8347 7.79532C15.6518 7.61022 15.4032 7.50566 15.1435 7.50566C14.8838 7.50566 14.6353 7.61022 14.4524 7.79532L4.28623 18.0847C4.10332 18.2698 4 18.5213 4 18.7841C4 19.0469 4.10332 19.2984 4.28623 19.4835L5.82072 21.0364L5.21474 27.2097C4.64926 28.5803 4.91734 30.2222 6.01759 31.3356C6.74504 32.0718 7.70008 32.4392 8.65512 32.4392C8.71097 32.4392 8.76682 32.4378 8.82128 32.435C8.81848 32.4915 8.81709 32.548 8.81709 32.6059C8.81709 33.6134 9.20525 34.5615 9.90896 35.2751C10.6141 35.9872 11.5496 36.38 12.5465 36.38C12.6023 36.38 12.6596 36.3786 12.7154 36.3758C12.6708 37.3974 13.0324 38.4345 13.8017 39.2145C14.5068 39.928 15.4423 40.3194 16.4393 40.3194C16.4951 40.3194 16.5524 40.318 16.6082 40.3152C16.5635 41.3368 16.9252 42.3739 17.6945 43.1524C18.4219 43.8886 19.377 44.256 20.332 44.256C21.0246 44.256 21.7171 44.061 22.3217 43.6752C22.3356 43.6908 22.3496 43.7077 22.365 43.7233L24.4873 45.871C25.2301 46.6241 26.2075 47 27.1835 47C28.1594 47 29.1368 46.6241 29.8796 45.871C30.6001 45.1419 30.9966 44.1726 30.9966 43.1426C30.9966 43.0733 30.9952 43.0055 30.991 42.9377C31.0581 42.9405 31.1265 42.9433 31.1935 42.9433C32.2128 42.9433 33.1692 42.542 33.8897 41.8129C34.6101 41.0838 35.0067 40.1145 35.0067 39.0845C35.0067 39.0152 35.0053 38.946 35.0011 38.8768C35.0681 38.881 35.1365 38.8824 35.2036 38.8824C36.1795 38.8824 37.1569 38.5065 37.8997 37.7534C38.6202 37.0243 39.0167 36.055 39.0167 35.025C39.0167 34.9557 39.0153 34.8879 39.0111 34.8201C39.0782 34.8229 39.1466 34.8257 39.2136 34.8257C40.2315 34.8257 41.1893 34.4244 41.9098 33.6953C42.6302 32.9662 43.0268 31.9969 43.0268 30.9669C43.0268 29.9368 42.6302 28.9675 41.9098 28.2384L39.6339 25.9352C40.9478 23.9217 41.597 21.6101 41.6026 19.3041C41.6124 19.297 41.6208 19.29 41.6277 19.2829ZM35.0234 5.38759L43.8087 14.2781L41.3499 16.7664C40.8863 14.5254 39.7986 12.3988 38.1036 10.682L33.9469 6.47559L35.0234 5.38759ZM7.39849 29.9382C6.70595 29.2374 6.70595 28.0985 7.39849 27.3977L8.87852 25.9013C9.21362 25.5622 9.65903 25.3757 10.1338 25.3757C10.6085 25.3757 11.0539 25.5622 11.389 25.9013C11.7241 26.2404 11.9084 26.6912 11.9084 27.1716C11.9084 27.652 11.7241 28.1027 11.389 28.4419L11.1056 28.7287L9.91036 29.9382C9.21781 30.6376 8.09103 30.6376 7.39849 29.9382ZM12.5465 34.4032C12.0718 34.4032 11.6264 34.2167 11.2913 33.8776C10.9562 33.5385 10.7718 33.0877 10.7718 32.6073C10.7718 32.1283 10.9562 31.6776 11.2913 31.3385C11.2913 31.3385 11.2913 31.3385 11.2927 31.3371L14.1117 28.4842C14.4468 28.1451 14.8922 27.9586 15.3669 27.9586C15.8417 27.9586 16.2871 28.1451 16.6222 28.4842C17.3147 29.1851 17.3147 30.3239 16.6222 31.0248L15.9785 31.6762L13.8017 33.8762C13.4666 34.2167 13.0212 34.4032 12.5465 34.4032ZM16.4393 38.3426C15.9645 38.3426 15.5191 38.1561 15.184 37.817C14.4915 37.1162 14.4915 35.9773 15.184 35.2765L18.0031 32.4236L18.0045 32.4222L19.1871 31.2254C19.5222 30.8863 19.9676 30.6998 20.4423 30.6998C20.9171 30.6998 21.3625 30.8863 21.6976 31.2254C22.0327 31.5646 22.217 32.0153 22.217 32.4957C22.217 32.9761 22.0327 33.4269 21.6962 33.766L20.5107 34.9656L17.6945 37.8156C17.3594 38.1561 16.914 38.3426 16.4393 38.3426ZM19.0768 41.755C18.3842 41.0542 18.3842 39.9153 19.0768 39.2145L21.8958 36.3616C22.5884 35.6622 23.7138 35.6622 24.4063 36.3616C25.0988 37.0625 25.0988 38.2013 24.4063 38.9022L21.5873 41.755C20.8947 42.4558 19.7693 42.4558 19.0768 41.755ZM41.0748 30.9669C41.0748 31.4699 40.8807 31.9418 40.5303 32.2965C40.1798 32.6511 39.7121 32.8475 39.2164 32.8475C38.7207 32.8475 38.253 32.6525 37.9025 32.2965L37.344 31.7313C36.9628 31.3455 36.3429 31.3455 35.9617 31.7313C35.5805 32.117 35.5805 32.7444 35.9617 33.1301L36.5202 33.6953C36.8707 34.05 37.0648 34.5233 37.0648 35.025C37.0648 35.5266 36.8721 35.9999 36.5202 36.3546C35.7956 37.0879 34.6171 37.0879 33.8911 36.3546L33.3326 35.7894C32.9514 35.4036 32.3315 35.4036 31.9503 35.7894C31.5691 36.1751 31.5691 36.8025 31.9503 37.1882L32.5088 37.7534C32.8592 38.1081 33.0533 38.5814 33.0533 39.083C33.0533 39.5847 32.8606 40.058 32.5088 40.4127C31.7841 41.146 30.6057 41.146 29.881 40.4127C29.881 40.4127 29.881 40.4127 29.8796 40.4113L29.3225 39.8475C28.9413 39.4617 28.3228 39.4617 27.9402 39.8475C27.559 40.2332 27.559 40.8606 27.9402 41.2463L28.4987 41.8115C28.8492 42.1676 29.0433 42.6395 29.0433 43.1411C29.0433 43.6427 28.8506 44.1161 28.4987 44.4708C27.7741 45.2041 26.5942 45.2041 25.8696 44.4708L23.7682 42.3442L25.7886 40.2982C27.2421 38.8259 27.2421 36.4323 25.7886 34.96C25.251 34.416 24.5878 34.0726 23.8925 33.9313C24.0768 33.4806 24.1731 32.9931 24.1731 32.4901C24.1731 31.4826 23.785 30.5345 23.0813 29.8209C22.3761 29.1088 21.4406 28.716 20.4437 28.716C19.9467 28.716 19.4649 28.8135 19.0195 29C18.8799 28.2963 18.5406 27.6251 18.0031 27.0812C17.298 26.3676 16.3625 25.9762 15.3655 25.9762C14.8056 25.9762 14.2639 26.1005 13.771 26.3365C13.6188 25.6456 13.2767 25.0111 12.7699 24.4982C12.0648 23.7861 11.1293 23.3933 10.1324 23.3933C9.13543 23.3933 8.19994 23.7861 7.49483 24.4982L7.43759 24.5561L7.81039 20.7637C7.83971 20.4684 7.73638 20.1759 7.52834 19.9668L6.35688 18.7813L15.1421 9.89078L17.8844 12.6659C18.0771 12.8609 18.3354 12.9654 18.6132 12.9541C18.6398 12.9527 18.6649 12.9513 18.6914 12.9485C19.3742 12.8821 20.0625 12.8835 20.7453 12.9527L20.1379 19.2546C20.036 20.32 20.3488 21.3614 21.0204 22.188C21.692 23.0146 22.6414 23.5261 23.6942 23.6292C23.8241 23.6419 23.9511 23.6476 24.0796 23.6476C26.0916 23.6476 27.8174 22.0961 28.0156 20.0289L28.2823 17.2411L40.5289 29.6344C40.8807 29.9919 41.0748 30.4638 41.0748 30.9669ZM38.2209 24.501L28.7263 14.8927C28.6649 14.8306 28.5965 14.7797 28.5253 14.7373L28.7124 12.7888C28.764 12.2448 28.3717 11.7616 27.8341 11.7093C27.2966 11.6556 26.819 12.0541 26.7674 12.5981L26.0734 19.841C25.9673 20.953 24.9857 21.7697 23.8869 21.6624C23.3549 21.6101 22.8732 21.3515 22.5339 20.9333C22.1946 20.515 22.0355 19.988 22.0871 19.4496L22.8257 11.7884L26.6934 7.87445C28.313 6.23538 30.9464 6.23538 32.566 7.87445L36.7241 12.0823C40.0053 15.4042 40.5694 20.563 38.2209 24.501Z" fill="white"/>
</g>
</svg>
