<svg width="50" height="50" viewBox="0 0 50 50" fill="none" xmlns="http://www.w3.org/2000/svg">
<mask id="mask0_554_83" style="mask-type:alpha" maskUnits="userSpaceOnUse" x="0" y="0" width="50" height="50">
<rect width="50" height="50" fill="#C4C4C4"/>
</mask>
<g mask="url(#mask0_554_83)">
<path d="M44.4844 27.2264V20.457C44.4844 10.1914 35.6329 2 25.5 2C15.404 2 6.51562 10.1615 6.51562 20.457V27.2264C4.5126 27.6351 3 29.4096 3 31.5312C3 33.6793 4.54951 35.4723 6.58945 35.852C6.96914 37.8919 8.76211 39.4414 10.9102 39.4414H12.668C13.1531 39.4414 13.5469 39.0477 13.5469 38.5625V24.5C13.5469 24.0148 13.1531 23.6211 12.668 23.6211H10.9102C9.92139 23.6211 9.0082 23.9498 8.27344 24.5035V21.2568C10.1596 20.9141 11.6827 19.4858 12.1187 17.5487C13.4361 11.6908 19.1895 7.27344 25.5 7.27344C31.8132 7.27344 37.57 11.6952 38.8901 17.5584C39.3252 19.4894 40.8448 20.9141 42.7266 21.256V24.5026C41.9918 23.9498 41.0786 23.6202 40.0898 23.6202H38.332C37.8469 23.6202 37.4531 24.014 37.4531 24.4991V38.5616C37.4531 39.0468 37.8469 39.4405 38.332 39.4405H40.0898C41.0716 39.4405 41.9786 39.1162 42.7107 38.5704C42.5262 40.8266 40.6339 42.6055 38.332 42.6055H28.904C28.5129 41.0911 27.1348 39.9688 25.5 39.9688C23.5611 39.9688 21.9844 41.5455 21.9844 43.4844C21.9844 45.4232 23.5611 47 25.5 47C27.1348 47 28.5129 45.8776 28.904 44.3633H38.332C41.7246 44.3633 44.4844 41.6035 44.4844 38.2109V35.8361C46.4874 35.4274 48 33.6529 48 31.5312C48 29.4096 46.4874 27.6351 44.4844 27.2264ZM10.9102 25.3789H11.7891V37.6836H10.9102C9.45645 37.6836 8.27344 36.5006 8.27344 35.0469C8.27344 34.5617 7.87969 34.168 7.39453 34.168C5.94082 34.168 4.75781 32.985 4.75781 31.5312C4.75781 30.0775 5.94082 28.8945 7.39453 28.8945C7.87969 28.8945 8.27344 28.5008 8.27344 28.0156C8.27344 26.5619 9.45645 25.3789 10.9102 25.3789ZM40.6049 17.1726C39.1081 10.5271 32.6147 5.51562 25.5 5.51562C18.387 5.51562 11.8972 10.5228 10.4039 17.1629C10.1534 18.2747 9.34307 19.1237 8.30771 19.4419C8.87021 10.8409 16.5132 3.75781 25.5 3.75781C34.4859 3.75781 42.1289 10.8409 42.6923 19.4419C41.6613 19.1237 40.8545 18.2782 40.6049 17.1726ZM43.6055 34.168C43.1203 34.168 42.7266 34.5617 42.7266 35.0469C42.7266 36.5006 41.5436 37.6836 40.0898 37.6836H39.2109V25.3789H40.0898C41.5436 25.3789 42.7266 26.5619 42.7266 28.0156C42.7266 28.5008 43.1203 28.8945 43.6055 28.8945C45.0592 28.8945 46.2422 30.0775 46.2422 31.5312C46.2422 32.985 45.0592 34.168 43.6055 34.168Z" fill="#0D6E74"/>
</g>
</svg>
