<svg width="67" height="65" viewBox="0 0 67 65" fill="none" xmlns="http://www.w3.org/2000/svg">
<path d="M22.2354 13.3682C21.2396 13.7062 20.5318 14.4777 20.2425 15.5409C19.9598 16.5795 20.0749 17.867 20.5842 19.3678C20.9406 20.4179 21.5983 22.3876 22.2949 24.473C22.9962 26.5733 23.7197 28.7396 24.1966 30.15L20.7285 24.9739C19.8463 23.6572 18.8938 22.7833 17.8973 22.3765C16.8772 21.9599 15.8344 22.0533 14.9608 22.6386C14.0871 23.2239 13.6045 24.1531 13.6016 25.2547C13.5989 26.3311 14.0447 27.5443 14.9269 28.861L16.9281 31.8478C17.1118 32.1219 17.4132 32.2701 17.72 32.2701C17.9023 32.2701 18.0865 32.2178 18.2493 32.1087C18.6862 31.8159 18.803 31.2245 18.5103 30.7875L16.5091 27.8008C16.0853 27.1682 14.7975 25.0404 16.0209 24.2207C16.3661 23.9893 16.7443 23.9629 17.1775 24.1397C17.6168 24.3191 18.315 24.7932 19.1462 26.0338L22.6547 31.2702C23.3329 32.2823 24.3818 32.3673 25.1206 32.0024C25.9583 31.5887 26.3878 30.681 26.1198 29.891C25.6519 28.5123 24.8635 26.1519 24.1013 23.8693C23.4041 21.7817 22.7456 19.8098 22.3877 18.7553C21.9077 17.3412 21.9556 16.4986 22.0801 16.0406C22.2029 15.5892 22.454 15.3049 22.8474 15.1714C23.2411 15.0378 23.613 15.1107 23.9851 15.3939C24.3627 15.6814 24.9135 16.321 25.3918 17.73C25.5252 18.1301 28.661 27.5391 28.9474 28.3454C29.2829 29.2893 30.2328 29.7775 31.2567 29.5331C32.3328 29.2762 33.0159 28.3243 32.8809 27.2698C32.6783 25.6866 31.5604 17.0879 31.3395 15.443C31.1408 13.963 31.3499 13.1451 31.5603 12.7198C31.7676 12.3005 32.0687 12.0698 32.4804 12.0145C32.8923 11.959 33.2434 12.1022 33.5541 12.4519C33.8694 12.8066 34.2867 13.5403 34.4855 15.0203L36.1438 27.3654C36.2812 28.3883 37.1787 29.3943 38.4478 29.3111C39.7236 29.2258 40.3046 28.104 40.3046 27.0977V17.2472C40.3046 16.4858 40.419 14.0013 41.8917 14.0013C43.3645 14.0013 43.4789 16.4857 43.4789 17.2471V23.0393C43.4789 23.5652 43.9051 23.9916 44.4312 23.9916C44.9572 23.9916 45.3835 23.5652 45.3835 23.0393V17.2471C45.3835 15.6622 45.0786 14.4061 44.477 13.5135C43.8615 12.5998 42.9433 12.0966 41.8917 12.0966C40.8402 12.0966 39.9219 12.5998 39.3063 13.5135C38.705 14.4061 38.4 15.6622 38.4 17.2472V27.0977C38.4 27.3075 38.3497 27.3969 38.3392 27.4074C38.3261 27.413 38.2663 27.4167 38.196 27.3777C38.1037 27.3264 38.0483 27.237 38.0315 27.1117L36.3732 14.7666C36.1621 13.1958 35.6927 11.9913 34.9779 11.1867C34.2461 10.3632 33.2693 9.98632 32.2269 10.1266C31.1847 10.2667 30.3416 10.8876 29.8531 11.8752C29.376 12.8399 29.241 14.1255 29.4519 15.6963C29.6726 17.3389 30.7893 25.9293 30.9917 27.5113C30.997 27.5529 30.9974 27.5765 30.9461 27.6177C30.8765 27.6736 30.786 27.6917 30.7357 27.6892C30.4163 26.7818 27.231 17.2246 27.197 17.1225C26.6876 15.6217 25.9952 14.5302 25.1388 13.8783C24.2623 13.2115 23.231 13.0301 22.2354 13.3682V13.3682Z" fill="#0D6E74" stroke="#0D6E74" stroke-width="0.4"/>
<path d="M65.7288 32.7962C65.6404 32.4695 65.3852 32.2143 65.0585 32.1259C65.0122 32.1133 64.9654 32.1023 64.9188 32.0907C64.9383 32.0582 64.9595 32.0267 64.9784 31.994C66.3108 29.6862 66.3419 26.8809 65.0595 24.6729C64.8895 24.3802 64.5769 24.1996 64.2385 24.1989C64.2325 24.1989 64.2267 24.1989 64.2209 24.1989C64.1786 24.1989 64.1366 24.2003 64.0944 24.201C64.1047 24.1646 64.117 24.1288 64.1269 24.0921C64.8167 21.5182 64.1207 18.8004 62.3104 16.9996C62.0705 16.7608 61.722 16.6675 61.3946 16.7541C61.3481 16.7664 61.3023 16.7801 61.2562 16.7935C61.2567 16.7555 61.2594 16.7178 61.2594 16.6798C61.2594 14.0149 59.8836 11.57 57.6691 10.2991C57.3755 10.1306 57.0147 10.1306 56.721 10.2991C56.6793 10.323 56.6385 10.3482 56.5974 10.3729C56.5882 10.3362 56.5809 10.299 56.571 10.2624C55.8815 7.68856 53.9197 5.6829 51.4516 5.02823C51.1249 4.94177 50.7759 5.03484 50.5358 5.27367C50.5018 5.30757 50.4689 5.34236 50.4356 5.3769C50.4171 5.34389 50.4006 5.30986 50.3816 5.2771C49.0521 2.9742 46.6465 1.54602 44.0994 1.54602C44.0937 1.54602 44.0876 1.54602 44.0818 1.54602C43.7434 1.54691 43.4308 1.72734 43.2608 2.02001C41.9784 4.22793 42.0095 7.03325 43.3418 9.3411C44.5503 11.4341 46.6479 12.8044 48.9326 13.0365C49.6766 15.0551 51.2263 16.647 53.1632 17.3828C53.3594 19.525 54.4443 21.4636 56.1247 22.6756C55.7598 24.7957 56.306 26.949 57.6154 28.5544C56.7141 30.5078 56.6843 32.729 57.5336 34.6189C56.1575 36.2724 55.554 38.4103 55.8851 40.4556C54.128 41.6967 52.9916 43.6054 52.7822 45.6667C50.7636 46.4108 49.1719 47.9603 48.4362 49.8972C46.2939 50.0933 44.3553 51.1783 43.1432 52.8587C42.0226 52.6659 40.8928 52.728 39.8393 53.0226V51.4229C41.0809 50.7188 44.3542 48.7769 46.8146 46.5478C47.7001 45.7457 48.2715 44.7601 48.6128 43.4462C50.0509 37.9109 51.7424 34.7155 54.4515 32.417C55.7499 31.3154 56.0463 29.6123 55.1722 28.2753C54.7119 27.5714 53.9878 27.0779 53.133 26.8859C52.2266 26.6822 51.2269 26.8289 50.2421 27.3102C47.8981 28.4556 46.3816 30.0507 45.3838 31.6119V26.849C45.3838 26.3231 44.9575 25.8968 44.4315 25.8968C43.9054 25.8968 43.4792 26.3231 43.4792 26.849V36.4468C43.4792 36.9273 43.8372 37.3326 44.3143 37.3918C44.7935 37.4507 45.2375 37.1454 45.3548 36.6794C45.7727 35.0206 46.7509 31.1361 51.0782 29.0214C52.3684 28.3909 53.2308 28.7872 53.5779 29.3176C53.8509 29.7351 53.8999 30.3871 53.2191 30.9649C50.1837 33.5404 48.3149 37.0177 46.7693 42.9674C46.5222 43.9186 46.1418 44.5874 45.5358 45.1365C42.679 47.7246 38.4771 50.0019 38.4351 50.0247C38.1268 50.1909 37.9346 50.5129 37.9346 50.8631V53.8677C37.5671 54.1006 37.2202 54.3676 36.9 54.6688C35.5239 55.1536 34.4113 55.6387 33.4998 56.1878C32.5883 55.6386 31.4759 55.1534 30.0997 54.6688C29.7796 54.3676 29.4326 54.1006 29.0652 53.8677V50.8631C29.0652 50.4965 28.8548 50.1625 28.5243 50.0042C28.4965 49.9909 25.7288 48.6399 24.5897 45.9078C23.3594 42.9576 22.4916 36.9461 22.4829 36.8857C22.4627 36.7441 22.4109 36.6089 22.3313 36.4902L20.5099 33.7717C20.2172 33.3347 19.6254 33.218 19.1888 33.5105C18.7519 33.8033 18.6349 34.3948 18.9276 34.8317L20.6294 37.3716C20.8014 38.5182 21.6318 43.7631 22.8317 46.6407C23.9211 49.2533 26.1341 50.8138 27.1605 51.4252V53.0227C26.107 52.7281 24.9772 52.6661 23.8565 52.8588C22.6444 51.1783 20.706 50.0935 18.5636 49.8973C17.8277 47.9605 16.236 46.4109 14.2175 45.6668C14.0082 43.6056 12.8718 41.6968 11.1146 40.4556C11.4457 38.4104 10.8421 36.2725 9.46612 34.619C10.3153 32.7291 10.2856 30.5079 9.38435 28.5545C10.6938 26.9488 11.2399 24.7957 10.875 22.6756C12.5554 21.4635 13.6402 19.525 13.8364 17.3828C15.7733 16.647 17.323 15.0551 18.067 13.0365C20.3516 12.8043 22.4495 11.434 23.6578 9.34123C24.9901 7.03351 25.0212 4.22818 23.7388 2.02013C23.5689 1.72746 23.2563 1.54691 22.9178 1.54615C22.9118 1.54615 22.9061 1.54615 22.9002 1.54615C20.3534 1.54615 17.9474 2.97446 16.6181 5.27685C16.5992 5.30973 16.5825 5.34363 16.564 5.37677C16.5307 5.34224 16.4978 5.30732 16.4637 5.27342C16.2238 5.03471 15.875 4.94126 15.548 5.02798C13.0801 5.68265 11.1184 7.6883 10.4287 10.2623C10.4189 10.2989 10.4117 10.3359 10.4024 10.3727C10.3614 10.348 10.3206 10.3228 10.2789 10.299C9.98531 10.1305 9.62432 10.1305 9.33089 10.299C7.92886 11.1036 6.83094 12.3996 6.23925 13.9484C6.05158 14.4397 6.29765 14.9901 6.78903 15.1779C7.28004 15.3656 7.83072 15.1194 8.01851 14.6281C8.38406 13.671 9.00876 12.8472 9.80488 12.2603C11.1495 13.2518 11.9647 14.8961 11.9647 16.6798C11.9647 18.2514 11.3301 19.7128 10.2598 20.7168C9.34537 18.7657 7.6494 17.2962 5.60515 16.7541C5.27781 16.6675 4.9294 16.7607 4.68942 16.9996C2.87918 18.8004 2.18312 21.5181 2.87283 24.0921C2.88261 24.1288 2.89492 24.1646 2.90534 24.201C2.86331 24.2003 2.82128 24.1989 2.77913 24.1989C2.77341 24.1989 2.76719 24.1989 2.76148 24.1989C2.42297 24.1998 2.11049 24.3802 1.94047 24.6729C0.658054 26.8809 0.689162 29.6861 2.02148 31.9938C2.04053 32.0267 2.06161 32.0581 2.08103 32.0907C2.03443 32.1023 1.98783 32.1133 1.94149 32.1259C1.61479 32.2143 1.35958 32.4695 1.2712 32.7962C0.603964 35.2608 1.35996 37.9625 3.24435 39.8468C3.27114 39.8736 3.29971 39.8985 3.32688 39.9249C3.28486 39.9481 3.2427 39.9709 3.20118 39.995C2.90851 40.165 2.72796 40.4775 2.72719 40.816C2.72072 43.3694 4.15017 45.7834 6.45789 47.1157C6.49078 47.1346 6.52481 47.1513 6.55795 47.1698C6.52341 47.2031 6.48849 47.236 6.45472 47.27C6.21601 47.51 6.12256 47.8585 6.20928 48.1857C6.86382 50.6538 8.86935 52.6155 11.4433 53.3051C11.48 53.3149 11.5171 53.3222 11.5539 53.3315C11.5292 53.3727 11.504 53.4134 11.4802 53.4551C11.3117 53.7486 11.3117 54.1096 11.4802 54.4032C12.2603 55.7624 13.5101 56.8422 14.9992 57.4435C15.116 57.4907 15.2368 57.513 15.3555 57.513C15.7322 57.513 16.0891 57.2878 16.2388 56.917C16.4357 56.4293 16.2 55.8744 15.7124 55.6773C14.7981 55.3081 14.0084 54.6971 13.4416 53.9288C14.4333 52.5843 16.0774 51.7691 17.861 51.7691C19.4325 51.7691 20.894 52.4037 21.898 53.474C19.9468 54.3884 18.4773 56.0844 17.9353 58.1287C17.8486 58.4559 17.942 58.8044 18.1807 59.0444C19.5221 60.3927 21.3717 61.1228 23.292 61.1228C23.95 61.1228 24.6166 61.037 25.2733 60.861C27.4968 60.2651 29.2954 58.7197 30.166 56.7191C30.8071 56.9614 31.3683 57.2015 31.8622 57.452C30.7112 58.6148 30.0274 60.107 29.4762 62.2657C29.346 62.7752 29.6536 63.2939 30.1632 63.4239C30.2423 63.4441 30.3216 63.4537 30.3995 63.4537C30.8244 63.4537 31.2116 63.1673 31.3215 62.7369C31.8269 60.7575 32.4078 59.5006 33.5003 58.5314C34.5928 59.5006 35.1737 60.7575 35.6792 62.737C35.7891 63.1675 36.1763 63.4539 36.6011 63.4539C36.6791 63.4539 36.7584 63.4442 36.8374 63.424C37.3471 63.2939 37.6547 62.7753 37.5244 62.2657C36.9733 60.107 36.2894 58.615 35.1384 57.452C35.6323 57.2015 36.1935 56.9614 36.8346 56.7191C37.7051 58.7198 39.5038 60.2652 41.7273 60.861C42.3844 61.037 43.0507 61.1228 43.7088 61.1228C45.6288 61.1228 47.4787 60.3926 48.8199 59.0444C49.0586 58.8044 49.1519 58.4559 49.0652 58.1287C49.0529 58.0822 49.0392 58.0363 49.0258 57.9903C49.0638 57.9908 49.1015 57.9934 49.1396 57.9934C51.8045 57.9934 54.2494 56.6177 55.5203 54.403C55.6888 54.1095 55.6888 53.7486 55.5203 53.4551C55.4965 53.4134 55.4713 53.3727 55.4466 53.3315C55.4834 53.3222 55.5206 53.315 55.5572 53.3051C58.131 52.6154 60.1365 50.6538 60.7912 48.1857C60.8781 47.8585 60.7846 47.5098 60.5458 47.27C59.0542 45.7706 56.9338 45.0367 54.7867 45.2203C55.1211 43.7915 56.0694 42.5111 57.4304 41.7254C58.9753 40.8334 60.8072 40.7175 62.3381 41.3864C62.2169 42.4825 61.7373 43.5272 60.9567 44.3757C60.6005 44.7627 60.6258 45.3652 61.0127 45.7212C61.3998 46.0772 62.0021 46.0522 62.3583 45.6651C63.5977 44.3179 64.2777 42.5958 64.2732 40.816C64.2723 40.4775 64.0919 40.1649 63.7992 39.995C63.7577 39.9709 63.7155 39.9481 63.6735 39.9249C63.7007 39.8985 63.7292 39.8736 63.7561 39.8468C65.64 37.9625 66.396 35.2608 65.7288 32.7962V32.7962ZM18.2677 6.22914C19.1596 4.68439 20.6877 3.66811 22.3478 3.48171C23.0166 5.01274 22.9004 6.84419 22.0086 8.38894C21.2227 9.74995 19.9425 10.6984 18.5137 11.0328C18.6282 9.6937 18.3863 8.36481 17.8234 7.19235C17.9415 6.86133 18.0894 6.53793 18.2677 6.22914V6.22914ZM15.4984 7.04531C16.5406 8.3511 16.9025 10.1503 16.4408 11.8732C16.0341 13.3911 15.0429 14.6385 13.7493 15.3313C13.5134 14.0082 12.9358 12.7873 12.0887 11.8004C12.117 11.4501 12.1762 11.0994 12.2685 10.7549C12.7301 9.0323 13.943 7.65504 15.4984 7.04531V7.04531ZM4.71266 23.5991C4.25099 21.8762 4.61286 20.077 5.65505 18.7712C7.21046 19.3809 8.42342 20.7582 8.88509 22.4811C9.29178 23.999 9.05701 25.5749 8.28324 26.8217C7.41742 25.7939 6.30667 25.0256 5.07986 24.5945C4.92902 24.2767 4.80484 23.9435 4.71266 23.5991V23.5991ZM3.33171 26.1343C4.99174 26.3207 6.52011 27.3371 7.41183 28.8817C8.19754 30.2426 8.3786 31.8257 7.95388 33.2303C6.85151 32.4616 5.57988 32.0067 4.28311 31.9079C4.05532 31.6401 3.84925 31.3503 3.67098 31.0415C2.77913 29.4968 2.66295 27.6654 3.33171 26.1343V26.1343ZM4.59102 38.5001C3.32968 37.2388 2.74357 35.4998 2.9932 33.8479C4.64536 33.5985 6.38425 34.1845 7.64546 35.4457C8.7566 36.557 9.3413 38.0391 9.29445 39.5058C8.03057 39.0485 6.68441 38.9383 5.40643 39.1784C5.11706 38.9786 4.84306 38.7522 4.59102 38.5001V38.5001ZM7.41006 45.4663C5.86531 44.5745 4.84903 43.0464 4.66263 41.3861C6.19341 40.7176 8.02524 40.8336 9.56985 41.7254C10.9309 42.5112 11.8791 43.7915 12.2135 45.2203C10.8745 45.1057 9.54573 45.3478 8.37339 45.9105C8.04212 45.7924 7.71885 45.6446 7.41006 45.4663ZM8.22636 48.2355C9.53214 47.1933 11.3316 46.8314 13.0542 47.2931C14.5722 47.6998 15.8196 48.6911 16.5123 49.9847C15.1893 50.2206 13.9683 50.7982 12.9816 51.6452C12.631 51.6169 12.2805 51.5577 11.9362 51.4654C10.2132 51.0039 8.83608 49.7909 8.22636 48.2355V48.2355ZM24.7801 59.0214C23.0572 59.4831 21.2579 59.1212 19.9522 58.079C20.5621 56.5237 21.9394 55.3106 23.6621 54.8491C25.385 54.3874 27.1842 54.7492 28.49 55.7915C27.8801 57.3466 26.5027 58.5597 24.7801 59.0214ZM42.22 59.0214C40.497 58.5597 39.1197 57.3469 38.51 55.7915C39.8158 54.7493 41.615 54.3872 43.3377 54.8491C45.0608 55.3108 46.438 56.5236 47.0477 58.079C45.7418 59.1211 43.9426 59.4831 42.22 59.0214ZM49.1392 56.0888C48.7827 56.0888 48.4287 56.0552 48.0829 55.992C47.349 54.9184 46.3192 54.0445 45.1023 53.4741C46.1064 52.404 47.5677 51.7693 49.1392 51.7693C50.9229 51.7693 52.5672 52.5844 53.5587 53.929C52.5672 55.2738 50.9229 56.0888 49.1392 56.0888V56.0888ZM58.7736 48.2355C58.1638 49.7908 56.7866 51.0039 55.0638 51.4654C54.7194 51.5577 54.3688 51.6168 54.0183 51.6452C53.0316 50.7982 51.8106 50.2206 50.4875 49.9847C51.1803 48.6912 52.4278 47.6998 53.9458 47.2931C55.6684 46.8314 57.4677 47.1932 58.7736 48.2355V48.2355ZM63.329 31.0415C63.1507 31.3502 62.9447 31.64 62.7169 31.9079C61.4202 32.0067 60.1484 32.4616 59.046 33.2303C58.6213 31.8257 58.8023 30.2428 59.5882 28.8817C60.4799 27.337 62.0081 26.3207 63.6684 26.1343C64.337 27.6654 64.2209 29.4968 63.329 31.0415V31.0415ZM62.2872 23.5991C62.195 23.9434 62.0708 24.2767 61.9201 24.5945C60.6933 25.0256 59.5826 25.7939 58.7169 26.8216C57.9431 25.5749 57.7082 23.9989 58.1149 22.4811C58.5767 20.7582 59.7895 19.3809 61.3449 18.7712C62.3871 20.077 62.7489 21.8762 62.2872 23.5991ZM44.9913 8.38894C44.0996 6.84419 43.9834 5.01274 44.652 3.48171C46.3121 3.66811 47.8404 4.68452 48.7323 6.22914C48.9106 6.53781 49.0583 6.86108 49.1764 7.19222C48.6136 8.36468 48.3717 9.69357 48.4862 11.0328C47.0575 10.6983 45.777 9.74982 44.9913 8.38894ZM50.5589 11.8731C50.0972 10.1503 50.4591 8.3511 51.5013 7.04519C53.0568 7.65504 54.2698 9.03218 54.7313 10.7552C54.8236 11.0995 54.8827 11.4501 54.911 11.8006C54.064 12.7873 53.4865 14.0082 53.2505 15.3313C51.957 14.6385 50.9657 13.3911 50.5589 11.8731V11.8731ZM55.0352 16.6797C55.0352 14.896 55.8503 13.2517 57.195 12.2602C58.5396 13.2517 59.3548 14.8959 59.3548 16.6797C59.3548 17.0364 59.3211 17.3903 59.2579 17.736C58.1843 18.4699 57.3104 19.4998 56.74 20.7167C55.6699 19.7127 55.0352 18.2512 55.0352 16.6797V16.6797ZM57.7054 39.5056C57.6587 38.039 58.2433 36.5568 59.3545 35.4456C60.6156 34.1844 62.3551 33.598 64.0068 33.8478C64.2565 35.4997 63.6703 37.2388 62.4091 38.5C62.1571 38.7521 61.8829 38.9786 61.5934 39.1784C60.3154 38.9382 58.9693 39.0484 57.7054 39.5056Z" fill="#0D6E74" stroke="#0D6E74" stroke-width="0.4"/>
</svg>
