<svg width="48" height="44" viewBox="0 0 48 44" fill="none" xmlns="http://www.w3.org/2000/svg">
<path d="M47.8374 20.0986C47.3717 18.6002 45.9469 17.5933 44.3808 17.6609L44.0366 17.6749C43.0515 17.7147 42.1262 18.1206 41.4297 18.8151L36.017 24.1701L35.9513 24.0686C35.826 23.8776 35.6827 23.6985 35.5275 23.5373C34.8469 22.8289 33.8917 22.4229 32.9087 22.4229H25.3965C23.9717 22.4229 22.5787 22.2379 21.2614 21.8737C17.8844 20.9384 14.6607 21.613 11.9424 23.8258C10.7822 24.7711 9.9524 25.8019 9.45889 26.5024L9.40117 26.5839L9.31958 26.5282C8.75443 26.1342 8.08184 25.9273 7.39729 25.9452C6.51772 25.9611 5.69983 26.3173 5.0909 26.9501L0.2354 31.9907C-0.0849844 32.323 -0.0770333 32.8543 0.251311 33.1787L4.15563 37.0293C4.48795 37.3556 5.02325 37.3517 5.34961 37.0213C5.67596 36.689 5.67197 36.1537 5.34164 35.8273L2.03033 32.5618L6.30677 28.1222C6.60327 27.8157 6.99927 27.6426 7.42513 27.6346C7.84899 27.6307 8.25297 27.7859 8.55942 28.0824L16.0676 35.3677C16.372 35.6642 16.5452 36.0622 16.5511 36.486C16.5571 36.9099 16.3959 37.3138 16.0994 37.6183L11.8966 41.9306L10.7603 40.85C10.6031 40.6988 10.3962 40.6172 10.1793 40.6172C10.1713 40.6172 10.1653 40.6172 10.1574 40.6172C9.93251 40.6232 9.72155 40.7167 9.56633 40.8799C9.41112 41.043 9.32755 41.258 9.33352 41.4828C9.33949 41.7077 9.43301 41.9186 9.59619 42.0738L11.3354 43.7315C11.4926 43.8807 11.6996 43.9643 11.9185 43.9643C12.1473 43.9643 12.3623 43.8728 12.5234 43.7096L17.3093 38.7984C17.9222 38.1695 18.2526 37.3417 18.2406 36.4641C18.2346 36.0661 18.159 35.6781 18.0158 35.3119L17.968 35.1925L19.7828 34.9816C20.5729 34.8901 21.3728 34.8443 22.1589 34.8443H33.5892C33.7644 34.8443 33.9375 34.8363 34.1066 34.8224L35.2011 34.7309C36.2936 34.6393 37.3463 34.2612 38.2477 33.6344C38.6895 33.326 39.0915 32.9618 39.4397 32.5519L47.1409 23.4895C47.9429 22.5463 48.2035 21.2787 47.8374 20.0986ZM45.8554 22.3931L38.1522 31.4554C37.8975 31.7539 37.607 32.0185 37.2826 32.2434C36.6259 32.7011 35.8578 32.9757 35.0618 33.0434L33.9653 33.1349C33.84 33.1449 33.7126 33.1508 33.5872 33.1508H22.1569C21.3012 33.1508 20.4356 33.2006 19.5858 33.3001L16.8098 33.6225L10.6768 27.7083L10.7245 27.6386C11.1663 26.9819 11.9225 26.0168 13.007 25.1333C15.3173 23.2547 17.9421 22.7055 20.8096 23.4995C22.2743 23.9054 23.8165 24.1104 25.3945 24.1104H32.9067C33.432 24.1104 33.9434 24.3273 34.3096 24.7074C34.5683 24.976 34.7434 25.3124 34.815 25.6805L34.817 25.6904V25.7004C34.817 25.776 34.825 25.8536 34.8449 25.9253L34.8489 25.9452C34.8767 26.4267 34.7255 26.9003 34.425 27.2745L34.3952 27.3103C34.023 27.7739 33.4698 28.0386 32.8768 28.0386H26.3378C25.8721 28.0386 25.494 28.4167 25.494 28.8824C25.494 29.348 25.8721 29.7281 26.3378 29.7281H32.8768C33.9852 29.7281 35.018 29.2326 35.7125 28.367L35.7424 28.3311C36.2538 27.6943 36.5364 26.8904 36.5403 26.0685V26.0268L36.5702 25.9969L42.6217 20.0091C43.0197 19.6131 43.547 19.3823 44.1062 19.3584L44.4505 19.3444C45.2524 19.3146 45.9847 19.824 46.2235 20.5961C46.4166 21.223 46.2793 21.8956 45.8554 22.3931Z" fill="#0D6E74"/>
<path d="M7.40731 29.8218C6.05214 29.8218 4.94971 30.9242 4.94971 32.2794C4.94971 33.6346 6.05214 34.737 7.40731 34.737C8.76248 34.737 9.86492 33.6346 9.86492 32.2794C9.86492 30.9242 8.76248 29.8218 7.40731 29.8218ZM7.40731 33.0455C6.98345 33.0455 6.63919 32.7013 6.63919 32.2774C6.63919 31.8535 6.98345 31.5093 7.40731 31.5093C7.83117 31.5093 8.17544 31.8535 8.17544 32.2774C8.17544 32.7013 7.83117 33.0455 7.40731 33.0455Z" fill="#0D6E74"/>
<path d="M22.35 28.1759L22.3022 28.1878C22.0813 28.2396 21.8963 28.3729 21.7769 28.5659C21.6575 28.757 21.6217 28.9838 21.6734 29.2027C21.7769 29.6485 22.2246 29.941 22.6883 29.8316L22.7381 29.8196C22.9569 29.7679 23.144 29.6345 23.2614 29.4415C23.3808 29.2505 23.4166 29.0236 23.3649 28.8027C23.2594 28.353 22.8037 28.0704 22.35 28.1759Z" fill="#0D6E74"/>
<path d="M7.3098 38.1676L7.26005 38.1795C6.80633 38.287 6.52375 38.7427 6.63121 39.1944C6.72076 39.5785 7.05905 39.8451 7.45307 39.8451C7.51874 39.8451 7.58443 39.8372 7.64811 39.8233L7.69785 39.8113C7.91675 39.7596 8.10378 39.6262 8.22119 39.4332C8.34059 39.2422 8.37641 39.0153 8.32467 38.7944C8.21722 38.3447 7.76152 38.0621 7.3098 38.1676Z" fill="#0D6E74"/>
<path d="M27.5318 19.7843C32.9863 19.7843 37.4239 15.3466 37.4239 9.89213C37.4239 4.43763 32.9863 0 27.5318 0C25.295 0 23.1837 0.728328 21.4286 2.10738C21.0286 2.42179 20.6485 2.77003 20.3002 3.14216C19.7809 3.69935 19.3251 4.31624 18.9451 4.97492C18.0914 6.46341 17.6396 8.16483 17.6396 9.89213C17.6396 15.3466 22.0773 19.7843 27.5318 19.7843ZM20.4097 5.81667C20.7241 5.26943 21.1022 4.75602 21.534 4.29435C21.8206 3.9859 22.135 3.69736 22.4713 3.43468C23.928 2.29244 25.6771 1.68749 27.5318 1.68749C32.055 1.68749 35.7344 5.36694 35.7344 9.89014C35.7344 14.4133 32.055 18.0928 27.5318 18.0928C23.0086 18.0928 19.3291 14.4133 19.3291 9.89014C19.3271 8.46134 19.7012 7.05045 20.4097 5.81667Z" fill="#0D6E74"/>
<path d="M25.4863 10.9726C25.4863 9.76863 24.7142 9.02239 23.4744 9.02239C22.9371 9.02239 22.4556 9.1398 21.9999 9.38257L21.8267 9.47411L22.1471 7.26923H24.8415C25.0127 7.26923 25.146 7.14983 25.146 6.9966C25.146 6.84935 25.0505 6.69214 24.8415 6.69214H21.9521C21.7392 6.69214 21.6098 6.82547 21.5859 7.06824L21.182 9.46615C21.1521 9.71291 21.1621 9.84425 21.3034 9.96364C21.4904 10.1228 21.7153 10.1189 21.8009 10.0532C22.2247 9.81042 22.6526 9.59749 23.351 9.59749C24.2744 9.59749 24.8475 10.099 24.8475 10.9089C24.8475 12.1267 23.8485 12.282 22.9769 12.282C22.4735 12.282 21.9959 12.1606 21.4725 11.8979C21.4228 11.876 21.373 11.8641 21.3253 11.8641C21.2715 11.8641 21.2198 11.878 21.176 11.9059C21.1004 11.9556 21.0586 12.0412 21.0586 12.1486C21.0845 12.272 21.1084 12.3337 21.2278 12.4053C21.7929 12.7516 22.4058 12.9187 23.1023 12.9187C24.5948 12.9227 25.4863 12.1944 25.4863 10.9726Z" fill="#0D6E74"/>
<path d="M25.685 10.9725C25.685 9.66712 24.8174 8.82338 23.4742 8.82338C22.9707 8.82338 22.513 8.92089 22.0772 9.12187L22.318 7.4702H24.8413C25.1239 7.4702 25.3448 7.26324 25.3448 6.99858C25.3448 6.71202 25.1279 6.49512 24.8413 6.49512H21.9519C21.6374 6.49512 21.4206 6.70804 21.3887 7.04435L20.9847 9.44027C20.9529 9.68901 20.945 9.92781 21.1738 10.1188C21.4265 10.3358 21.7569 10.3377 21.9101 10.2223C22.314 9.99149 22.7001 9.80045 23.3508 9.80045C24.1627 9.80045 24.6483 10.2164 24.6483 10.9128C24.6483 11.7347 24.1488 12.0869 22.9767 12.0869C22.5051 12.0869 22.0553 11.9715 21.5579 11.7228C21.3887 11.6471 21.2056 11.6551 21.0663 11.7466C20.935 11.8322 20.8594 11.9815 20.8614 12.1765C20.8952 12.3416 20.933 12.469 21.1241 12.5844C21.721 12.9486 22.3678 13.1277 23.1021 13.1277C24.7199 13.1217 25.685 12.3178 25.685 10.9725ZM21.1758 12.4949C21.0206 12.4013 20.9887 12.3078 20.9589 12.1526C20.9589 11.8422 21.2375 11.6869 21.5181 11.8103C22.0156 12.0591 22.4812 12.1824 22.9787 12.1824C24.0035 12.1824 24.7498 11.9337 24.7498 10.9089C24.7498 10.1009 24.1587 9.69697 23.3528 9.69697C22.7001 9.69697 22.2961 9.88403 21.8623 10.1328C21.7389 10.2263 21.4584 10.2263 21.2415 10.0392C21.0544 9.88403 21.0544 9.69697 21.0862 9.44823L21.4902 7.05629C21.522 6.74585 21.7071 6.59064 21.9558 6.59064H24.8453C25.094 6.59064 25.2493 6.77769 25.2493 6.9946C25.2493 7.2115 25.0622 7.36672 24.8453 7.36672H22.2364L21.9578 9.29301C22.4235 9.04427 22.921 8.92089 23.4802 8.92089C24.8154 8.92089 25.5915 9.75866 25.5915 10.9706C25.5915 12.1188 24.8154 13.0202 23.1061 13.0202C22.3558 13.0222 21.735 12.8371 21.1758 12.4949Z" fill="#0D6E74"/>
<path d="M25.5857 10.9727C25.5857 9.7608 24.8097 8.92302 23.4744 8.92302C22.9152 8.92302 22.4177 9.0464 21.9521 9.29515L22.2307 7.36886H24.8395C25.0564 7.36886 25.2435 7.21364 25.2435 6.99674C25.2435 6.77983 25.0883 6.59277 24.8395 6.59277H21.9501C21.7014 6.59277 21.5143 6.74799 21.4844 7.05842L21.0805 9.45037C21.0486 9.69911 21.0486 9.88617 21.2357 10.0414C21.4526 10.2284 21.7332 10.2284 21.8566 10.1349C22.2924 9.88617 22.6943 9.69911 23.347 9.69911C24.155 9.69911 24.744 10.1031 24.744 10.911C24.744 11.9358 23.9978 12.1846 22.9729 12.1846C22.4754 12.1846 22.0098 12.0612 21.5123 11.8125C21.2337 11.6891 20.9531 11.8443 20.9531 12.1547C20.985 12.3099 21.0148 12.4035 21.17 12.497C21.7292 12.8393 22.3501 13.0243 23.0963 13.0243C24.8097 13.0224 25.5857 12.1229 25.5857 10.9727ZM21.2277 12.4094C21.1064 12.3378 21.0844 12.2761 21.0586 12.1527C21.0586 12.0453 21.1004 11.9597 21.176 11.91C21.2198 11.8821 21.2715 11.8682 21.3252 11.8682C21.373 11.8682 21.4247 11.8781 21.4725 11.902C21.9959 12.1627 22.4734 12.2861 22.9769 12.2861C23.8485 12.2861 24.8475 12.1309 24.8475 10.913C24.8475 10.1051 24.2744 9.6016 23.351 9.6016C22.6525 9.6016 22.2227 9.81453 21.8009 10.0573C21.7153 10.121 21.4884 10.127 21.3034 9.96776C21.1621 9.85035 21.1521 9.71702 21.182 9.47027L21.5859 7.07236C21.6098 6.82958 21.7411 6.69625 21.9521 6.69625H24.8415C25.0505 6.69625 25.146 6.85346 25.146 7.00072C25.146 7.15394 25.0126 7.27334 24.8415 7.27334H22.1471L21.8267 9.47823L21.9998 9.38669C22.4556 9.14391 22.9391 9.0265 23.4744 9.0265C24.7161 9.0265 25.4863 9.77473 25.4863 10.9767C25.4863 12.1985 24.5947 12.9268 23.1003 12.9268C22.4058 12.9229 21.7929 12.7557 21.2277 12.4094Z" fill="#0D6E74"/>
<path d="M28.5348 12.9228C30.0094 12.9228 30.8889 11.7527 30.8889 9.79257C30.8889 7.83245 30.0094 6.66235 28.5348 6.66235C26.4095 6.66235 26.1807 8.85132 26.1807 9.79257C26.1807 10.7338 26.4095 12.9228 28.5348 12.9228ZM27.4463 7.6454C27.7289 7.35486 28.095 7.2076 28.5348 7.2076C29.6253 7.2076 30.2502 8.14886 30.2502 9.79257C30.2502 11.4104 29.6094 12.3775 28.5348 12.3775C27.4443 12.3775 26.8195 11.4363 26.8195 9.79257C26.7976 8.84734 27.0185 8.08319 27.4463 7.6454Z" fill="#0D6E74"/>
<path d="M28.5346 13.1218C30.1325 13.1218 31.0877 11.8781 31.0877 9.79259C31.0877 7.70711 30.1325 6.46338 28.5346 6.46338C26.9128 6.46338 25.9814 7.67726 25.9814 9.79259C25.9814 11.9079 26.9128 13.1218 28.5346 13.1218ZM28.5346 6.56288C30.2738 6.56288 30.9882 8.05336 30.9882 9.79259C30.9882 11.5318 30.2738 13.0223 28.5346 13.0223C26.7635 13.0223 26.0809 11.5318 26.0809 9.79259C26.0809 8.05336 26.7635 6.56288 28.5346 6.56288Z" fill="#0D6E74"/>
<path d="M28.5344 12.2781C29.7463 12.2781 30.1502 11.0363 30.1502 9.7926C30.1502 8.54887 29.7781 7.30713 28.5344 7.30713C27.2906 7.30713 26.8887 8.54887 26.9185 9.7926C26.9185 11.0343 27.2926 12.2781 28.5344 12.2781ZM27.018 9.79061C26.9961 8.89711 27.1971 8.1847 27.5871 7.78472C27.8319 7.53399 28.1503 7.40862 28.5324 7.40862C29.8517 7.40862 30.0487 8.90308 30.0487 9.79459C30.0487 10.511 29.9015 12.1806 28.5324 12.1806C27.215 12.1786 27.018 10.6841 27.018 9.79061Z" fill="#0D6E74"/>
<path d="M28.5352 13.0224C30.2744 13.0224 30.9888 11.5319 30.9888 9.7927C30.9888 8.05347 30.2744 6.56299 28.5352 6.56299C26.7641 6.56299 26.0815 8.05347 26.0815 9.7927C26.0815 11.5319 26.7641 13.0224 28.5352 13.0224ZM28.5352 6.66249C30.0098 6.66249 30.8893 7.83259 30.8893 9.7927C30.8893 11.7528 30.0098 12.9229 28.5352 12.9229C26.4099 12.9229 26.181 10.734 26.181 9.7927C26.181 8.85145 26.4099 6.66249 28.5352 6.66249Z" fill="#0D6E74"/>
<path d="M28.535 12.3775C29.6095 12.3775 30.2503 11.4123 30.2503 9.79249C30.2503 8.15076 29.6255 7.20752 28.535 7.20752C28.0952 7.20752 27.729 7.35478 27.4465 7.64531C27.0186 8.08311 26.7957 8.84725 26.8196 9.79249C26.8196 11.4342 27.4464 12.3775 28.535 12.3775ZM28.535 7.30702C29.7767 7.30702 30.1508 8.54876 30.1508 9.79249C30.1508 11.0362 29.7468 12.278 28.535 12.278C27.2932 12.278 26.9191 11.0362 26.9191 9.79249C26.8893 8.55075 27.2932 7.30702 28.535 7.30702Z" fill="#0D6E74"/>
<path d="M32.19 12.3678C32.2099 12.3877 32.2338 12.3956 32.2596 12.3936C32.2895 12.3897 32.3173 12.3698 32.3352 12.3359L33.9551 9.73703C33.9829 9.69126 33.9869 9.63753 33.963 9.62161C33.9431 9.6037 33.9212 9.59375 33.8954 9.59375C33.8914 9.59375 33.8854 9.59375 33.8815 9.59375C33.8596 9.59574 33.8277 9.60768 33.8078 9.6435L32.1701 12.2603C32.1581 12.2862 32.1561 12.3399 32.182 12.3598L32.19 12.3678Z" fill="#0D6E74"/>
<path d="M32.7434 10.9667L31.9951 12.1607C31.9414 12.2662 31.9454 12.4254 32.0548 12.5109C32.1086 12.5627 32.1782 12.5905 32.2498 12.5905C32.2618 12.5905 32.2737 12.5905 32.2857 12.5885C32.3772 12.5766 32.4588 12.5189 32.5066 12.4353L33.1075 11.4702C33.1533 11.2931 33.2448 11.1498 33.3702 11.0483L34.1244 9.83841C34.208 9.69911 34.1901 9.53991 34.0926 9.46827C34.0329 9.40857 33.9433 9.38071 33.8538 9.39464C33.7602 9.40658 33.6806 9.46031 33.6349 9.53991L33.016 10.5269C32.9702 10.712 32.8747 10.8632 32.7434 10.9667ZM33.7204 9.59364C33.7921 9.46827 33.9513 9.46827 34.0229 9.53991C34.0946 9.59364 34.0945 9.69911 34.0408 9.78866L32.423 12.3836C32.3514 12.5089 32.2101 12.5249 32.1205 12.4373C32.0489 12.3836 32.0489 12.2781 32.0847 12.2065L33.7204 9.59364Z" fill="#0D6E74"/>
<path d="M32.1209 12.4375C32.2104 12.527 32.3517 12.5091 32.4234 12.3838L34.0412 9.78885C34.0949 9.6993 34.0949 9.59383 34.0233 9.5401C33.9516 9.46846 33.7924 9.46846 33.7208 9.59383L32.085 12.2067C32.0492 12.2783 32.0492 12.3838 32.1209 12.4375ZM32.1686 12.2584L33.8064 9.64159C33.8263 9.60577 33.8581 9.59383 33.88 9.59184C33.884 9.59184 33.8899 9.59184 33.8939 9.59184C33.9198 9.59184 33.9437 9.60179 33.9616 9.6197C33.9855 9.63761 33.9815 9.69134 33.9536 9.73512L32.3338 12.334C32.3139 12.3678 32.288 12.3877 32.2582 12.3917C32.2343 12.3937 32.2084 12.3858 32.1885 12.3659L32.1786 12.3559C32.1547 12.34 32.1567 12.2863 32.1686 12.2584Z" fill="#0D6E74"/>
<path d="M33.88 12.4452C34.3317 12.4452 34.4909 12.093 34.4909 11.7626C34.4909 11.4482 34.3317 11.0801 33.88 11.0801C33.4282 11.0801 33.269 11.4323 33.269 11.7626C33.269 12.0771 33.4282 12.4452 33.88 12.4452ZM33.88 11.2711C33.9755 11.2632 34.067 11.293 34.1367 11.3567C34.2302 11.4423 34.2819 11.5855 34.2819 11.7606C34.2819 12.0631 34.1287 12.2522 33.88 12.2522C33.6392 12.2522 33.478 12.0552 33.478 11.7606C33.478 11.4602 33.6312 11.2711 33.88 11.2711Z" fill="#0D6E74"/>
<path d="M33.8796 12.1529C34.0926 12.1529 34.1821 11.9758 34.1821 11.7609C34.1821 11.5459 34.0926 11.3529 33.8796 11.3688C33.6667 11.3688 33.5771 11.5459 33.5771 11.7609C33.5771 11.9579 33.6667 12.1529 33.8796 12.1529ZM33.8876 11.4703C33.8936 11.4703 33.8995 11.4703 33.9055 11.4703C33.9453 11.4703 33.9771 11.4823 34.001 11.5042C34.0508 11.5499 34.0806 11.6474 34.0806 11.7629C34.0806 11.8962 34.0448 12.0554 33.8776 12.0554C33.6846 12.0554 33.6747 11.8126 33.6747 11.7629C33.6766 11.6295 33.7125 11.4703 33.8876 11.4703Z" fill="#0D6E74"/>
<path d="M33.0698 11.7627C33.0698 12.29 33.3962 12.6442 33.8797 12.6442C34.3713 12.6442 34.6896 12.298 34.6896 11.7627C34.6896 11.2353 34.3633 10.8811 33.8797 10.8811C33.6768 10.8811 33.5056 10.9428 33.3723 11.0503L33.1096 11.4721C33.0837 11.5597 33.0698 11.6572 33.0698 11.7627ZM33.8797 10.9786C34.3414 10.9786 34.5901 11.3348 34.5901 11.7607C34.5901 12.2044 34.3414 12.5427 33.8797 12.5427C33.4181 12.5427 33.1693 12.1865 33.1693 11.7607C33.1693 11.3169 33.4181 10.9786 33.8797 10.9786Z" fill="#0D6E74"/>
<path d="M33.1074 11.4702L33.3701 11.0483C33.2447 11.1498 33.1552 11.2931 33.1074 11.4702Z" fill="#0D6E74"/>
<path d="M33.88 12.2522C34.1288 12.2522 34.282 12.0632 34.282 11.7607C34.282 11.5856 34.2302 11.4423 34.1367 11.3567C34.0671 11.2911 33.9735 11.2612 33.88 11.2712C33.6313 11.2712 33.478 11.4602 33.478 11.7627C33.478 12.0552 33.6392 12.2522 33.88 12.2522ZM33.88 11.3707C34.0929 11.3527 34.1825 11.5478 34.1825 11.7627C34.1825 11.9776 34.0929 12.1547 33.88 12.1547C33.6671 12.1547 33.5775 11.9597 33.5775 11.7627C33.5775 11.5478 33.6671 11.3707 33.88 11.3707Z" fill="#0D6E74"/>
<path d="M33.8798 12.5448C34.3415 12.5448 34.5902 12.2065 34.5902 11.7628C34.5902 11.3369 34.3415 10.9807 33.8798 10.9807C33.4182 10.9807 33.1694 11.319 33.1694 11.7628C33.1694 12.1886 33.4182 12.5448 33.8798 12.5448ZM33.8798 11.0782C34.3316 11.0782 34.4908 11.4464 34.4908 11.7608C34.4908 12.0911 34.3296 12.4433 33.8798 12.4433C33.4281 12.4433 33.2689 12.0752 33.2689 11.7608C33.2689 11.4324 33.4281 11.0782 33.8798 11.0782Z" fill="#0D6E74"/>
<path d="M32.2442 10.9327C32.696 10.9327 32.8551 10.5646 32.8551 10.2502C32.8551 9.93577 32.696 9.56763 32.2442 9.56763C31.7925 9.56763 31.6333 9.91985 31.6333 10.2502C31.6393 10.4074 31.703 10.9327 32.2442 10.9327ZM32.2442 9.76065C32.485 9.76065 32.6462 9.95766 32.6462 10.2522C32.6462 10.5547 32.493 10.7437 32.2442 10.7437C32.0034 10.7437 31.8423 10.5467 31.8423 10.2522C31.8423 9.94771 31.9975 9.76065 32.2442 9.76065Z" fill="#0D6E74"/>
<path d="M32.244 11.132C32.441 11.132 32.6101 11.0703 32.7435 10.9668L33.0181 10.5271C33.04 10.4415 33.0559 10.35 33.0559 10.2505C33.0559 9.72311 32.7295 9.3689 32.246 9.3689C31.7544 9.3689 31.436 9.71515 31.436 10.2544C31.4559 10.7877 31.7743 11.132 32.244 11.132ZM32.244 9.46839C32.7056 9.46839 32.9544 9.8246 32.9544 10.2505C32.9544 10.6763 32.7056 11.0325 32.244 11.0325C31.7823 11.0325 31.5515 10.6763 31.5335 10.2505C31.5335 9.80669 31.7823 9.46839 32.244 9.46839Z" fill="#0D6E74"/>
<path d="M32.2439 10.6422C32.4568 10.6422 32.5464 10.4651 32.5464 10.2502C32.5464 10.0552 32.4568 9.85815 32.2439 9.85815C32.031 9.85815 31.9414 10.0353 31.9414 10.2502C31.9414 10.4452 32.031 10.6422 32.2439 10.6422ZM32.2439 9.95964C32.4369 9.95964 32.4469 10.2024 32.4469 10.2522C32.4469 10.3616 32.421 10.5447 32.2439 10.5447C32.0509 10.5447 32.0409 10.3019 32.0409 10.2522C32.0409 10.1168 32.0767 9.95964 32.2439 9.95964Z" fill="#0D6E74"/>
<path d="M33.0178 10.5269L32.7432 10.9666C32.8745 10.8632 32.97 10.7119 33.0178 10.5269Z" fill="#0D6E74"/>
<path d="M32.2443 10.7418C32.493 10.7418 32.6462 10.5528 32.6462 10.2503C32.6462 9.95779 32.485 9.75879 32.2443 9.75879C31.9955 9.75879 31.8423 9.94784 31.8423 10.2503C31.8423 10.5448 32.0035 10.7418 32.2443 10.7418ZM32.2443 9.86028C32.4572 9.86028 32.5467 10.0553 32.5467 10.2523C32.5467 10.4652 32.4572 10.6443 32.2443 10.6443C32.0313 10.6443 31.9418 10.4493 31.9418 10.2523C31.9418 10.0374 32.0313 9.86028 32.2443 9.86028Z" fill="#0D6E74"/>
<path d="M32.2441 11.0324C32.7058 11.0324 32.9545 10.6762 32.9545 10.2503C32.9545 9.82447 32.7058 9.46826 32.2441 9.46826C31.7825 9.46826 31.5337 9.80656 31.5337 10.2503C31.5516 10.6782 31.7825 11.0324 32.2441 11.0324ZM32.2441 9.56776C32.6958 9.56776 32.855 9.9359 32.855 10.2503C32.855 10.5647 32.6958 10.9329 32.2441 10.9329C31.7029 10.9329 31.6392 10.4075 31.6332 10.2503C31.6332 9.91998 31.7924 9.56776 32.2441 9.56776Z" fill="#0D6E74"/>
</svg>
