<svg width="48" height="49" viewBox="0 0 48 49" fill="none" xmlns="http://www.w3.org/2000/svg">
<path d="M47.9889 20.4711H46.2498L43.6568 21.859C43.3648 21.6957 43.0615 21.5573 42.7338 21.4734L39.472 20.6434V20.2647C40.9145 19.2397 41.7952 17.5479 41.7952 15.7473V14.3708C41.7952 11.3116 39.4385 8.75356 36.5423 8.66285C36.3952 8.65831 36.2503 8.66512 36.1053 8.67192L36.9503 6.65815L32.8502 2.49L30.4334 4.08877C29.5148 3.56265 28.5449 3.15446 27.535 2.86645L26.9374 0H21.038L20.4405 2.86872C19.4328 3.15672 18.4607 3.56492 17.5421 4.09104L15.1253 2.49227L11.0385 6.65815L11.8701 8.67192C11.8389 8.66965 11.8077 8.66512 11.7765 8.66285C10.2938 8.61976 8.89813 9.16856 7.83686 10.2163C6.7756 11.2617 6.19145 12.6677 6.19145 14.1712V15.7451C6.19145 17.5479 7.06989 19.2374 8.51464 20.2624V20.6412L6.38766 21.1832L2.53277 18.895H0V35.2093L7.61614 37.79H9.0988L9.28384 37.1301L11.6182 38.5542C11.6561 39.8446 12.675 40.8832 13.9414 40.9286C13.986 42.2121 15.0004 43.2462 16.2646 43.2916C16.3092 44.5751 17.3236 45.6092 18.5878 45.6546C18.6346 46.9699 19.6914 48.0244 20.9957 48.0244C21.4795 48.0244 21.9544 47.8702 22.3535 47.598L23.0402 48.2149C23.4705 48.6004 24.0234 48.8136 24.5986 48.8136H24.7413C26.03 48.8136 27.0779 47.7545 27.0935 46.4483C28.3666 46.4324 29.3988 45.3824 29.4167 44.0853C30.692 44.0694 31.7243 43.0172 31.7399 41.72C33.0263 41.6883 34.0653 40.6201 34.0653 39.3048C34.0653 39.2255 34.0608 39.1484 34.0542 39.069L48 31.9777V20.4711H47.9889ZM40.2478 14.3708V15.7473C40.2478 17.1443 39.5054 18.4505 38.3104 19.1535L37.9224 19.3803L37.9247 21.8726L41.7929 22.8545L33.2805 27.4127V25.2923C33.2805 24.2333 32.8591 23.265 32.1724 22.5483L34.83 21.8726V19.378L34.4443 19.1512C33.2493 18.4482 32.5091 17.1443 32.5091 15.7451V14.1712C32.5091 13.0986 32.926 12.094 33.684 11.3456C34.4421 10.5972 35.4476 10.1959 36.4977 10.2367C38.5668 10.3002 40.2478 12.1552 40.2478 14.3708ZM25.1605 26.7936L21.6556 25.6552C20.0593 25.1336 18.3314 25.0565 16.6949 25.4261L16.2512 25.5259V25.2923C16.2512 24.2061 16.9758 23.265 18.0103 22.9996L22.4449 21.8726V19.378L22.0592 19.1512C20.8641 18.4482 20.1239 17.1443 20.1239 15.7451V14.1712C20.1239 13.0986 20.5408 12.094 21.2989 11.3456C22.0569 10.5972 23.0692 10.1959 24.1126 10.2367C26.1794 10.3002 27.8627 12.1529 27.8627 14.3685V15.7451C27.8627 17.142 27.1203 18.4482 25.9252 19.1512L25.5373 19.378L25.5395 21.8703L29.9719 22.9974C31.0064 23.2604 31.731 24.2038 31.731 25.2901V28.2404L31.5392 28.3425H31.0643L26.3042 26.9591C25.9341 26.8526 25.5484 26.8095 25.1605 26.7936ZM16.4251 11.7833C17.8788 8.91911 20.8039 7.08449 23.9922 7.08449C27.1492 7.08449 30.0633 8.89189 31.5281 11.7198C31.1602 12.4704 30.9595 13.3027 30.9595 14.1712V15.7451C30.9595 17.5479 31.838 19.2374 33.2827 20.2624V20.6412L30.1859 21.4303L27.089 20.6412V20.2647C28.5316 19.2397 29.4122 17.5479 29.4122 15.7473V14.3708C29.4122 11.3116 27.0556 8.75356 24.1594 8.66285C22.6768 8.61976 21.2811 9.16856 20.2198 10.2163C19.1585 11.264 18.5744 12.6677 18.5744 14.1712V15.7451C18.5744 17.5479 19.4528 19.2374 20.8976 20.2624V20.6412L17.8007 21.4303L14.7039 20.6412V20.2647C16.1464 19.2397 17.0271 17.5479 17.0271 15.7473V14.3708C17.0271 13.4433 16.8064 12.5634 16.4251 11.7833ZM12.8667 7.02326L15.3393 4.50831L17.5154 5.94834L17.9323 5.68755C18.9757 5.0367 20.1039 4.56047 21.2833 4.27246L21.7604 4.15681L22.3 1.57383H25.6889L26.2262 4.15681L26.7033 4.27246C27.8828 4.56047 29.0109 5.0367 30.0543 5.68755L30.4713 5.94834L32.6473 4.50831L35.1176 7.02099L34.2392 9.11186C33.6417 9.37266 33.0865 9.7423 32.605 10.2163C32.5737 10.248 32.547 10.282 32.5158 10.3138C30.692 7.36569 27.4681 5.51293 23.9944 5.51293C20.4963 5.51293 17.2634 7.38383 15.4441 10.3614C14.958 9.84208 14.3784 9.42255 13.7363 9.13001L12.8667 7.02326ZM10.0597 21.8726V19.378L9.67401 19.1512C8.47897 18.4482 7.73876 17.1443 7.73876 15.7451V14.1712C7.73876 13.0986 8.15569 12.094 8.91374 11.3456C9.67179 10.5972 10.6795 10.1959 11.7274 10.2367C13.7942 10.3002 15.4775 12.1529 15.4775 14.3685V15.7451C15.4775 17.142 14.7351 18.4482 13.5401 19.1512L13.1521 19.378L13.1544 21.8703L15.8097 22.5461C15.1208 23.2627 14.7016 24.231 14.7016 25.2901V25.8729L12.2871 26.4194L12.3495 26.1972L12.3785 24.7413L8.29838 22.3216L10.0597 21.8726ZM1.54508 20.4711H2.10915L7.67634 23.7729L4.8671 35.2025L1.54508 34.0754V20.4711ZM7.86362 36.2184L6.34083 35.7014L9.06981 24.6007L10.8356 25.6484V25.8729L7.9305 36.2184H7.86362ZM13.1566 38.4839C13.1566 38.2526 13.248 38.0236 13.4107 37.8603L14.7708 36.4769C14.9335 36.3114 15.1565 36.2184 15.3839 36.2184C15.8633 36.2184 16.2512 36.6153 16.2512 37.1006C16.2512 37.3319 16.1598 37.5609 15.997 37.7242L14.637 39.1075C14.4742 39.2731 14.2513 39.3661 14.0239 39.3661C13.5445 39.3683 13.1566 38.9715 13.1566 38.4839ZM15.4775 40.8469C15.4775 40.6156 15.569 40.3866 15.7317 40.2233L17.0917 38.8399C17.2545 38.6744 17.4774 38.5814 17.7049 38.5814C18.1842 38.5814 18.5722 38.9783 18.5722 39.4636C18.5722 39.6949 18.4807 39.9239 18.318 40.0872L16.958 41.4705C16.7952 41.6361 16.5723 41.7291 16.3448 41.7291C15.8677 41.7291 15.4775 41.3322 15.4775 40.8469ZM17.8007 43.2077C17.8007 42.9763 17.8921 42.7473 18.0549 42.584L19.4149 41.2007C19.5777 41.0351 19.8006 40.9422 20.028 40.9422C20.5074 40.9422 20.8953 41.339 20.8953 41.8243C20.8953 42.0556 20.8039 42.2847 20.6412 42.448L19.2812 43.8313C19.1184 43.9968 18.8954 44.0898 18.668 44.0898C18.1887 44.0921 17.8007 43.6952 17.8007 43.2077ZM20.9912 46.4528C20.5119 46.4528 20.1239 46.056 20.1239 45.5707C20.1239 45.3393 20.2153 45.1103 20.3781 44.947L21.7381 43.5637C21.9009 43.3981 22.1238 43.3052 22.3512 43.3052C22.8306 43.3052 23.2185 43.702 23.2185 44.1873C23.2185 44.4186 23.1271 44.6477 22.9644 44.811L21.6043 46.1943C21.4416 46.3598 21.2186 46.4528 20.9912 46.4528ZM24.7346 47.2397H24.5919C24.3957 47.2397 24.2062 47.1672 24.0591 47.0334L23.4794 46.5141L24.0613 45.9222C24.2687 45.7113 24.4292 45.4595 24.5496 45.1897L25.2541 45.7861C25.4392 45.9426 25.544 46.1716 25.544 46.4165C25.5417 46.8724 25.1783 47.2397 24.7346 47.2397ZM31.6752 40.1552H31.5415C31.3475 40.1552 31.158 40.0849 31.0086 39.958L26.8104 36.3998L25.8182 37.6108L29.8938 41.0646C30.0766 41.2211 30.1836 41.4501 30.1836 41.6951C30.1836 42.1486 29.8225 42.516 29.3766 42.516H29.2071C29.0198 42.516 28.8348 42.448 28.6899 42.3255L24.4849 38.7628L23.4928 39.9738L27.5684 43.4299C27.7534 43.5841 27.8582 43.8154 27.8582 44.0603C27.8582 44.5139 27.497 44.8813 27.0511 44.8813C26.7546 44.8813 26.4648 44.7747 26.2374 44.5819L24.5095 43.1169C24.1282 42.3255 23.3479 41.7744 22.4315 41.7404C22.3869 40.4569 21.3725 39.4228 20.1083 39.3774C20.0637 38.0939 19.0493 37.0598 17.7851 37.0144C17.7405 35.6991 16.6815 34.6446 15.3794 34.6446C14.744 34.6446 14.1197 34.9076 13.6716 35.3635L12.3116 36.7468C12.2313 36.8284 12.1622 36.9237 12.0953 37.0167L9.71861 35.5653L11.8032 28.1452L17.0293 26.9637C18.4005 26.653 19.8452 26.7188 21.183 27.1542L22.3223 27.5261L18.4562 29.4922C17.5733 29.9435 17.0248 30.8461 17.0248 31.8507V32.0072C17.0248 33.4608 18.1887 34.6446 19.6178 34.6446C20.0883 34.6446 20.5498 34.5153 20.9511 34.2681L23.8339 32.5106C24.4136 32.1569 25.1895 32.234 25.6911 32.692L32.2304 38.6789C32.4043 38.8399 32.5069 39.069 32.5069 39.3094C32.5069 39.7743 32.1345 40.1552 31.6752 40.1552ZM46.4415 31.0071L33.4009 37.6403C33.3585 37.5949 33.3139 37.5519 33.2671 37.5088L26.7278 31.5219C26.1549 30.9958 25.4146 30.7078 24.6432 30.7078C24.0791 30.7078 23.524 30.8642 23.0402 31.159L20.1574 32.9188C19.9946 33.0186 19.8118 33.0708 19.6223 33.0708C19.0448 33.0708 18.5766 32.5945 18.5766 32.0072V31.8507C18.5766 31.4448 18.7973 31.0819 19.1541 30.9005L23.4727 28.7053C24.2107 28.3289 25.0891 28.245 25.8851 28.4785L30.75 29.8914L31.9272 29.9208L46.4438 22.1492V31.0071H46.4415Z" fill="#0D6E74"/>
</svg>
