<?xml version="1.0" encoding="utf-8"?>
<!-- Generator: Adobe Illustrator 28.0.0, SVG Export Plug-In . SVG Version: 6.00 Build 0)  -->
<svg version="1.1" id="Layer_1" xmlns="http://www.w3.org/2000/svg" xmlns:xlink="http://www.w3.org/1999/xlink" x="0px" y="0px"
	 viewBox="0 0 510.7 499.5" style="enable-background:new 0 0 510.7 499.5;" xml:space="preserve">
<style type="text/css">
	.st0{fill:#0D6E74;}
</style>
<g>
	<path class="st0" d="M0,382.7c3.4-4.7,6.3-9.7,10.2-13.9c8.2-8.8,16.8-17.1,25.3-25.5c11.2-11.2,13.9-11.7,27.9-4.1
		c6-5.3,10.1-11.8,10.6-20c0.5-7.6,0.6-15.3,0.4-23c-0.2-13.3,4.5-24.3,13.9-33.6c10.4-10.3,20.7-20.7,31-31.1
		c7-7.1,15-12,25.2-12.7c0.6,0,1.2-0.4,1.9-0.7c-6.6-21.4-2.4-43.3-3.5-64.9c-0.6-12.7,4.1-23.4,13-32.4c4.9-5,9.9-9.9,14.7-14.9
		c5.7-5.9,8.4-13,8.5-21.2c0-2.6-0.8-3.7-3.6-4.2c-7.8-1.2-12.5-5.6-12.9-13.5c-0.7-13.1-0.4-26.3-0.5-39.5c0-4-0.2-8,0.1-12
		c0.8-9.7,7-15.4,16.7-15.5c14.1-0.1,28.3,0,42.4,0c30.8,0,61.5,0,92.3,0c13.3,0,19.3,5.9,19.3,19.1c0,14.3,0,28.7,0,43
		c0,11.1-3.1,15.1-14,18.6c-1.1,0.4-2.4,2.3-2.5,3.5c-0.3,8,0.8,15.8,6.4,22c8.5,9.5,11.7,20.5,11.6,33c-0.2,25.5-0.1,51-0.1,76.5
		c0,1.5-0.1,3,0.1,4.5c0.7,4,3.4,5.4,7,3.5c17.7-9.1,35.1-6.6,49.4,7.3c11,10.7,21.6,21.7,32.5,32.5c7.7,7.7,12,17,12.9,27.7
		c8.6,1.5,10.9,3.2,10.8,7.7c-0.1,4.5-2.7,6.3-10.4,6.9c-1.3,11.4-0.1,22.1,8.4,31c1.8,1.9,3,2.3,5.4,0.6c7.8-5.4,14.2-4.8,21,1.9
		c11.3,11.1,22.4,22.3,33.5,33.6c7.5,7.7,7.3,16.1-0.2,23.7c-32.1,32.2-64.1,64.4-96.2,96.6c-8.1,8.1-16.6,8.1-24.8,0
		c-9.9-9.9-19.8-19.8-29.6-29.7c-10.4-10.4-10.9-14-3.9-26.7c-6.6-8-14.6-13.1-25.4-13.6c-8.5-0.4-16.3-3.6-22.5-9.5
		c-9.1-8.6-17.9-17.4-26.7-26.3c-3.8-3.8-3.8-7.8-0.5-11c2.9-2.8,7-2.5,10.6,1c7.1,7,14.3,13.9,21.2,21.2c5.9,6.2,12.7,10,21.2,10.7
		c12.2,1,22.1,6.6,30.4,15.4c0.6,0.6,1.2,1.1,1.2,1.1c25.8-25.6,51.5-51,77.4-76.7c-1.7-1.9-3.7-3.9-5.4-6.1
		c-6.2-8.2-9.6-17.4-9.5-27.8c0-7.2,0.1-14.3,0-21.5c-0.1-6.5-1.8-12.8-6.3-17.5c-12.5-12.9-25.1-25.8-38.2-38
		c-7.9-7.4-20.4-7.9-28.6-1.8c6.3,6.2,12.6,12.4,18.9,18.6c2.7,2.7,3.4,6.3,1.1,9c-1.6,1.9-5,2.8-7.7,3c-1.5,0.1-3.3-1.9-4.7-3.2
		c-7-6.8-14-13.7-21.7-21.3c-0.2,2.5-0.4,4.2-0.4,5.8c0,14.7-0.5,29.4,0.1,44c0.9,21.4-18.6,32.6-34,26.6c-0.4-0.2-0.9,0-2.3,0
		c0,4-0.4,7.9,0.1,11.8c2.4,21.9-15.5,35.7-34.6,29.4c-4.1,5.1-7,11.6-12,14.4c-10.4,5.7-17.7,14.4-25.9,22.3
		c-5.2,5-10.1,10.2-15.2,15.1c-7.5,7.2-16.4,11-26.8,11.6c-9.9,0.6-17.4,5.9-23.3,13.5c7,11.7,6.4,16.3-3.3,26
		c-10.1,10.1-20.2,20.3-30.3,30.4c-8,7.9-16.5,8-24.4,0.1c-21-20.9-41.9-41.9-62.8-62.9c-4.1-4.1-4.7-8.2-1.8-11.3
		c3.2-3.4,7.6-3,11.8,1.2c20,20,40,40.1,59.9,60.2c1.5,1.5,2.4,3.6,3.2,4.9c13.3-13.3,25.3-25.4,37.1-37.2
		c-32.7-32.7-66-66-98.7-98.7c-11.4,11.3-23.4,23.3-36.1,35.8c3.3,3.3,7.4,7.4,11.4,11.5c2.6,2.7,3.6,6.2,1.3,9
		c-1.6,1.9-4.9,2.4-7.6,3.2c-0.8,0.2-2.3-0.6-3-1.4c-5.8-6.7-11.5-13.6-17.2-20.4C0,386.1,0,384.4,0,382.7z M318.6,15
		c-1.2-0.3-1.7-0.5-2.2-0.5c-45.4,0-90.8,0-136.2-0.1c-3.8,0-3.8,2-3.8,4.8c0.1,14.2,0.1,28.3-0.1,42.5c-0.1,4,1.2,5.3,5.1,5.2
		c8.6-0.2,17.3-0.1,25.9,0c5.6,0,8.3,2.4,8.3,7c0,4.5-2.7,6.7-8.5,6.8c-3,0.1-6,0.2-9,0c-3.6-0.3-5,0.9-5,4.8
		c0,12.2-4.8,22.6-13.3,31.3c-4.8,4.9-9.7,9.6-14.5,14.5c-4.8,4.9-8.1,10.7-8.2,17.7c-0.1,17.5-0.2,35,0.1,52.5
		c0.1,9,4.7,15.8,12.2,20.6c1.4,0.9,3.3,1.1,5,1.6c0.5-1.8,1.4-3.6,1.5-5.4c0.2-7.2,0-14.3,0.3-21.5c0.2-4.2,2.8-6.8,7.2-6.6
		c4.4,0.2,6.5,2.9,6.8,7.1c0.1,1.5,0,3,0,4.5c0,43.5,0,87,0,130.5c0,1.8-0.1,3.7,0.1,5.5c0.6,5.2,5.2,9.6,10.3,10
		c4.9,0.3,10.1-3.7,11.1-8.9c0.5-2.3,0.5-4.6,0.6-6.9c0-38.5,0-77,0-115.5c0-2-0.1-4,0.2-6c0.4-3.5,2.5-5.3,5.9-5.6
		c5.2-0.5,7.7,2.4,7.7,9c0,45.5,0,91,0,136.5c0,2-0.1,4,0.3,6c1,5.3,5.2,9,10.3,9.2c5.4,0.2,10-3.2,11.1-8.7
		c0.4-2.1,0.5-4.3,0.5-6.4c0-44.5-0.1-89-0.1-133.5c0-2-0.1-4,0.2-6c0.5-3.6,2.6-5.6,6.3-5.8c5.2-0.2,7.5,2.5,7.5,9.3
		c0,39.7,0,79.3,0,119c0,2.3,0.1,4.7,0.8,6.9c1.5,4.8,5.2,7.5,10.1,7.5c4.8,0,8.7-2.6,10.2-7.4c0.8-2.3,0.9-4.9,0.9-7.4
		c0.1-38.8,0-77.7,0-116.5c0-1.7-0.1-3.3,0.1-5c0.3-4.2,3.1-6.6,7.3-6.4c4.4,0.2,6.5,2.9,6.5,8.8c0,26.7,0,53.3,0.1,80
		c0,7.9,4.4,12.7,11.1,12.7c6.6,0,11-4.9,11-12.7c0-52.3,0-104.7,0-157c0-7.3-2.2-13.8-6.9-19.3c-7.7-9-11.6-19.4-11-31.2
		c0.2-4.5-1.4-5.7-5.7-5.6c-17.1,0.2-34.3,0.1-51.4,0.1c-5.3,0-8.6-2.6-8.7-6.8c-0.1-4.1,3.2-6.9,8.4-7c3.3-0.1,6.7,0,10,0
		c19.5,0,38.9,0,58.4,0c2.2,0,5,0.6,5-3.1C318.6,47.5,318.6,31.4,318.6,15z M161.9,236.4c-10-6.2-22.1-4.8-30.5,3.4
		c-11.7,11.4-23.2,22.9-34.6,34.5c-5.5,5.6-8.2,12.4-8.2,20.3c0.1,6.8,0,13.7,0,20.5c0.1,10.9-3.6,20.5-10.3,29
		c-1.5,1.9-3.2,3.7-4.6,5.3c25.9,25.7,51.6,51.2,77.3,76.8c0,0,0.5-0.4,1-0.9c8.4-9.3,18.7-14.5,31.2-16c4.6-0.6,10.1-1.7,13.4-4.5
		c10-8.6,19.2-18.1,28.1-26.6c-4.8-6.6-9-12.4-13.3-18.4c-13.4,3.7-23,1.1-30.2-8.4c-4.2-5.5-5-11.9-5-18.4c0-27.8,0-55.6,0-83.4
		c0-1.9-0.2-3.7-0.3-5.6c-0.4-0.2-0.8-0.3-1.2-0.5c-6.7,6.8-13.4,13.7-20.2,20.5c-1.4,1.4-3.2,3.4-4.7,3.3c-2.7-0.1-6.1-0.9-7.7-2.8
		c-2.5-2.9-1.6-6.6,1.2-9.4C149.3,248.9,155.4,242.8,161.9,236.4z M359.8,449.5c10.8,10.7,21.6,21.3,32.2,32.2
		c3.3,3.4,5.1,3.6,8.6,0.1c30.8-31.2,61.7-62.1,92.6-93.1c1.1-1.1,2.2-2.4,2.8-3.1c-12.3-12.4-24.4-24.5-35.8-36
		C427.1,382.4,393.8,415.7,359.8,449.5z"/>
	<path class="st0" d="M116.7,458.5c-3.9,0-7.7-3.9-7.5-7.7c0.2-3.9,3.6-7.1,7.6-7.1c4,0,7.4,3.2,7.5,7.1
		C124.4,454.6,120.6,458.5,116.7,458.5z"/>
	<path class="st0" d="M58.5,205.4c-3.8-0.3-6.7-3.6-6.4-7.5c0.2-3.8,3.7-7,7.3-6.7c3.8,0.3,6.5,3.6,6.3,7.6
		C65.5,202.7,62.3,205.7,58.5,205.4z"/>
	<path class="st0" d="M160.5,85.9c0,3.9-2.9,6.8-6.9,6.9c-4.2,0.1-6.8-2.6-6.8-6.8c0-4,2.8-6.9,6.8-7
		C157.6,79,160.5,81.9,160.5,85.9z"/>
	<path class="st0" d="M135.4,102.1c-0.1,3.6-4.1,7.4-7.5,7.2c-3.4-0.3-6.9-4.1-6.7-7.5c0.1-3.4,4-6.9,7.3-6.8
		C132.2,95.2,135.6,98.7,135.4,102.1z"/>
	<path class="st0" d="M449.7,237c-0.5,3.8-4.5,7-8.1,6.4c-3.4-0.5-6.4-4.6-5.9-8c0.6-3.7,4.3-6.7,7.7-6.2
		C446.9,229.8,450.1,233.7,449.7,237z"/>
	<path class="st0" d="M267.8,464.5c-3.6-0.1-7-3.6-6.9-7.2c0.1-3.6,3.6-6.7,7.3-6.6c3.8,0.1,7,3.5,6.9,7.1
		C274.9,461.5,271.5,464.6,267.8,464.5z"/>
	<path class="st0" d="M367,110.6c-4,0.1-7.3-3.1-7.4-7.1c0-3.6,3.3-6.7,7.1-6.7c3.8,0,7.2,3.2,7.2,6.7
		C373.9,107.3,370.7,110.5,367,110.6z"/>
	<path class="st0" d="M86.2,151.8c-3.8-0.1-7.2-3.5-6.9-7c0.3-3.9,3.4-6.9,7.2-6.8c3.6,0.1,6.9,3.1,6.9,6.5
		C93.4,148.4,90,151.9,86.2,151.8z"/>
	<path class="st0" d="M432,176.5c-0.1,3.9-3.1,6.8-7,6.8c-3.8,0-6.7-3.2-6.6-7.2c0.1-3.8,3.4-7.1,7-6.9
		C429.1,169.4,432.1,172.7,432,176.5z"/>
	<path class="st0" d="M443,205.6c0,4.1-2.7,6.9-6.7,6.9c-3.8,0-6.8-3.1-6.8-7c0-3.8,3.1-6.9,6.9-6.9
		C440.4,198.7,443,201.4,443,205.6z"/>
	<path class="st0" d="M55.7,257.7c-0.1,3.8-2.8,6.7-6.4,6.8c-4.1,0.1-7.4-3.2-7.2-7.2c0.2-4.1,3-6.7,7.1-6.6
		C53.5,250.8,55.8,253.2,55.7,257.7z"/>
	<path class="st0" d="M318.5,442.1c0-3.7,3.4-7.1,7.1-6.9c3.8,0.2,6.9,3.4,6.8,7.2c-0.1,3.8-3.2,6.8-7.1,6.9
		C321.8,449.4,318.5,445.8,318.5,442.1z"/>
	<path class="st0" d="M297.3,458.8c-4,0.1-6.7-2.4-6.8-6.3c-0.1-4.1,2.6-7.3,6.2-7.5c4-0.2,7.4,3,7.4,7
		C304.2,456,301.4,458.8,297.3,458.8z"/>
	<path class="st0" d="M347.2,86.8c-0.1,4-3.1,6.9-7,6.7c-3.8-0.2-6.8-3.4-6.7-7.2c0.1-3.7,3.5-6.8,7.2-6.6
		C344.7,79.8,347.3,82.7,347.2,86.8z"/>
	<path class="st0" d="M105.7,128.7c-4,0-6.8-2.9-6.7-6.9c0.1-3.9,3.1-7,6.9-6.9c3.9,0.1,6.8,3.1,6.7,7
		C112.6,126,109.8,128.7,105.7,128.7z"/>
	<path class="st0" d="M77.6,170.3c0,4-2.9,7.1-6.7,7.2c-4,0.1-7.3-3.2-7.1-7.3c0.2-4.2,2.6-6.3,6.7-6.5
		C74.6,163.5,77.6,166.4,77.6,170.3z"/>
	<path class="st0" d="M57,310c3.9-0.1,6.7,2.8,6.8,6.9c0.1,4.1-2.6,7-6.7,6.9c-4-0.1-6.5-2.2-6.9-6.3C49.8,313.4,53,310.1,57,310z"
		/>
	<path class="st0" d="M238.1,465.5c-3.6-0.1-7.2-3.6-7.2-7c0-3.9,3.5-7,7.7-6.7c3.6,0.2,6.6,3.3,6.5,6.8
		C245.2,462.3,241.8,465.6,238.1,465.5z"/>
	<path class="st0" d="M390,117.7c3.9,0,6.9,3,7,6.9c0.1,3.8-3.2,7-6.9,6.9c-4-0.1-6.8-3-6.9-7C383.1,120.4,385.8,117.7,390,117.7z"
		/>
	<path class="st0" d="M409.4,142c3.8-0.1,7,2.9,7,6.7c0.1,4.1-2.7,7.1-6.6,7.1c-3.8,0-7.2-3.1-7.3-6.7
		C402.4,145.5,405.6,142.1,409.4,142z"/>
	<path class="st0" d="M51.5,234.5c-3.7-0.1-6.7-3.6-6.5-7.4c0.2-4,3.2-6.6,7.3-6.4c3.5,0.2,6.4,3.3,6.3,7
		C58.6,231.4,55.2,234.6,51.5,234.5z"/>
	<path class="st0" d="M444.2,274.6c-4,0.1-6.9-2.7-7.1-6.7c-0.1-4.1,2.5-6.9,6.6-7c3.9-0.1,7,2.7,7.1,6.6
		C451,271.5,448.1,274.5,444.2,274.6z"/>
	<path class="st0" d="M186.5,447.1c-0.1,4.2-2.7,6.8-6.9,6.7c-4,0-6.9-3-6.8-6.9c0.1-3.9,3.3-7,7-6.9
		C183.7,440.1,186.6,443.1,186.5,447.1z"/>
	<path class="st0" d="M208.4,461.8c-4.1-0.1-6.9-2.9-6.7-7c0.1-3.7,3.1-6.7,6.7-6.7c3.9,0,7,3,7,6.9
		C215.4,459,212.5,461.8,208.4,461.8z"/>
	<path class="st0" d="M57.6,287.8c-0.1,3.8-3.5,7.1-7.2,6.7c-3.8-0.5-6.5-2.5-6.4-6.9c0.1-4.3,2.7-6.9,6.8-6.9
		C54.9,280.7,57.8,283.8,57.6,287.8z"/>
	<path class="st0" d="M208.7,40.5c0,4.1-3.1,7.3-7.2,7.4c-4,0.1-7.4-3.1-7.6-7.1c-0.2-3.9,3.7-7.8,7.5-7.7
		C205.4,33.1,208.7,36.4,208.7,40.5z"/>
	<path class="st0" d="M469.9,382.3c0.1,4-3,7.3-7.1,7.5c-4.2,0.1-7.3-2.8-7.5-7c-0.2-4.1,2.8-7.5,6.8-7.8
		C466.2,374.8,469.8,378,469.9,382.3z"/>
</g>
</svg>
