<svg width="48" height="45" viewBox="0 0 48 45" fill="none" xmlns="http://www.w3.org/2000/svg">
<path fill-rule="evenodd" clip-rule="evenodd" d="M43.1426 30.2524L47.5722 32.0955C47.8342 32.203 48.0044 32.4605 47.9999 32.7427V44.0227C47.9999 44.4101 47.6841 44.7259 47.2967 44.7259C47.2843 44.7259 47.2719 44.7255 47.2596 44.7249V44.7281H31.6924H24H16.3075H10.3686H7.5312H0.989196V44.6672C0.90175 44.7063 0.804937 44.7281 0.70318 44.7281C0.315759 44.7281 0 44.4123 0 44.0249V32.7449C0 32.4605 0.170197 32.203 0.434449 32.0932L4.86404 30.2502V29.0633C3.283 28.8797 2.05132 27.5338 2.05132 25.9035V22.2465C1.26976 22.3428 0.553139 21.7314 0.562096 21.0058V19.5547C0.562096 18.95 0.996546 18.4462 1.5676 18.3364C1.59447 18.1438 1.63254 17.9535 1.68181 17.7676C1.78035 17.3936 2.16777 17.1697 2.54175 17.2705C2.91574 17.369 3.13968 17.7542 3.0389 18.1304C3.02323 18.1909 3.00979 18.2513 2.99636 18.3118H5.64336V15.6715C5.30521 15.7409 4.98049 15.8596 4.68041 16.0276C4.57067 16.0881 4.45422 16.1172 4.33777 16.1172C4.0892 16.1172 3.84958 15.9873 3.72193 15.7566C3.53158 15.4185 3.65475 14.9885 3.9929 14.8004C4.50349 14.516 5.06335 14.3301 5.64112 14.245V14.1868C5.64112 13.5396 6.16739 13.0133 6.81458 13.0133H8.24782C8.89501 13.0133 9.42128 13.5396 9.42128 14.1868V14.245C11.5308 14.554 13.197 16.2269 13.497 18.3364C14.0681 18.4484 14.5025 18.9523 14.5025 19.5547V21.0058C14.4981 21.8053 13.7075 22.3473 13.0133 22.2465V25.9035C13.0133 27.5338 11.7816 28.8797 10.2006 29.0633V30.2502L12.8207 31.3408L13.2104 29.7844C13.562 28.3915 14.6145 27.2113 15.8619 26.7074L20.5244 24.7658V22.6317C18.314 22.5107 16.5516 20.6744 16.5516 18.435V17.6937C14.9034 17.3645 13.656 15.9067 13.656 14.1644C13.656 13.1096 14.1129 12.1601 14.8385 11.5017C14.5966 11.2419 14.4488 10.8948 14.4488 10.5119V8.94427C14.4488 8.16271 15.0646 7.52448 15.8372 7.48641C16.162 4.42063 18.6455 2.01772 21.6239 1.70197V1.36605C21.6239 0.613603 22.2375 0 22.99 0H25.0144C25.7669 0 26.3805 0.613603 26.3805 1.36605V1.70197C29.4462 2.02444 31.8581 4.52141 32.1671 7.48641C32.9398 7.52448 33.5556 8.16271 33.5556 8.94427V10.5119C33.5556 10.8948 33.4078 11.2419 33.1659 11.5017C33.8915 12.1601 34.3484 13.1096 34.3484 14.1644C34.3484 15.9089 33.101 17.3668 31.4528 17.6937V18.435C31.4528 20.6744 29.6903 22.5107 27.48 22.6317V24.7658L28.8147 25.3212C29.173 25.4713 29.3432 25.8833 29.1932 26.2416C29.0431 26.5999 28.6311 26.7701 28.2728 26.6201L27.0433 26.1073L24.7031 29.6769V33.9251H30.9892V32.8009C30.9892 31.2423 31.4841 29.7329 32.3911 28.481C32.1537 28.284 31.8872 28.1227 31.6006 28.004L31.0765 27.7868C30.7182 27.6368 30.548 27.2247 30.6981 26.8664C30.8481 26.5081 31.2602 26.3379 31.6185 26.488L32.1425 26.7052C33.4615 27.2471 34.4917 28.4922 34.794 29.7844L35.1837 31.3408L37.8038 30.2502V29.0633C36.2228 28.8797 34.9911 27.5338 34.9911 25.9035V22.2465H34.7425C34.0572 22.2465 33.5019 21.6889 33.5019 21.0058V19.5547C33.5019 18.95 33.9363 18.4462 34.5074 18.3364C34.8052 16.2269 36.4758 14.5518 38.5831 14.245C38.554 13.5575 39.1833 13.0088 39.7566 13.0156H41.1898C41.8885 13.02 42.3969 13.6784 42.3633 14.245C44.4706 14.5518 46.1389 16.2269 46.439 18.3364C47.0101 18.4484 47.4445 18.9523 47.4445 19.5547V21.0058C47.4445 21.6911 46.8869 22.2465 46.2039 22.2465H45.9553V25.9057C45.9553 27.536 44.7236 28.8819 43.1426 29.0655V30.2524ZM1.40636 43.1857H6.82802V41.1898H1.40636V43.1857ZM8.23438 43.1857H9.85263L10.3529 41.1898H8.23438V43.1857ZM11.3022 43.1857H15.6043V32.8031C15.6043 31.6946 15.2953 30.6175 14.722 29.6859C14.6615 29.8292 14.6123 29.977 14.5742 30.127L11.3022 43.1857ZM17.0107 43.1857H23.2968V39.7319H17.0107V43.1857ZM24.7031 43.1857H30.9892V39.7319H24.7031V43.1857ZM32.3956 43.1857H36.6982L33.4257 30.127C33.3876 29.977 33.3384 29.8292 33.2779 29.6859C32.7046 30.6175 32.3956 31.6969 32.3956 32.8031V43.1857ZM38.1478 43.1857H39.7655V41.1876H37.647L38.1478 43.1857ZM41.1719 43.1857H46.5935V41.1876H41.1719V43.1857ZM8.23438 36.6684H11.486L12.4759 32.7225L9.83109 31.6207L8.23438 34.7962V36.6684ZM6.26816 30.0173H8.792V29.0857H6.26816V30.0173ZM7.5312 33.0652L8.35531 31.4237H6.70709L7.5312 33.0652ZM9.42128 18.314H12.066C11.7884 16.9928 10.7425 15.9492 9.42128 15.6738V18.314ZM8.01491 14.4219H7.04972V18.314H8.01491V14.4219ZM13.0962 19.7204H1.96846V20.8401H13.0962V19.7204ZM3.45544 22.2465V25.9057C3.45544 26.8843 4.25267 27.6793 5.2313 27.6793H9.82885C10.8075 27.6793 11.6047 26.8821 11.6047 25.9035V22.2465H3.45544ZM6.82802 34.7962L5.2313 31.6207L1.40636 33.213V36.6684H6.82802V34.7962ZM1.40636 38.0748V39.7834H6.82802V38.0748H1.40636ZM8.23438 38.0748V39.7834H10.7067L11.1344 38.0748H8.23438ZM22.5286 25.9393L24.0022 28.1877L25.4757 25.9393H22.5286ZM21.9307 24.5329H26.0759V22.6384H21.9307V24.5329ZM32.942 14.1644C32.942 13.2014 32.3172 12.3818 31.4528 12.0884V16.2403C32.3172 15.947 32.942 15.1273 32.942 14.1644ZM28.0981 4.57739L28.7811 4.11831C28.0959 3.59652 27.274 3.24045 26.3805 3.11952V7.48193H30.7496C30.6309 6.61079 30.2883 5.80908 29.7866 5.13501L28.8841 5.74413C28.7632 5.82699 28.6266 5.86506 28.4922 5.86506C28.2661 5.86506 28.0444 5.75533 27.9078 5.55378C27.6905 5.2313 27.7756 4.79462 28.0981 4.57739ZM24.9741 1.40636H23.0303V7.48193H24.9741V1.40636ZM19.1202 5.74637L18.2177 5.13725C17.7139 5.81132 17.3735 6.61303 17.2526 7.48417H21.6262V3.11952C20.7304 3.24269 19.9108 3.59876 19.2255 4.12055L19.9063 4.57963C20.2288 4.79685 20.3139 5.23354 20.0966 5.55602C19.96 5.75757 19.7383 5.8673 19.5121 5.8673C19.3778 5.8673 19.2412 5.82699 19.1202 5.74637ZM15.8552 10.5119C15.8552 10.5432 15.8798 10.5679 15.9111 10.5679H32.0955C32.1268 10.5679 32.1515 10.5432 32.1515 10.5119V8.94427C32.1515 8.91292 32.1268 8.88829 32.0955 8.88829H15.9111C15.8798 8.88829 15.8552 8.91292 15.8552 8.94427V10.5119ZM16.5516 12.0884C15.6872 12.3818 15.0624 13.2014 15.0624 14.1644C15.0624 15.1273 15.6872 15.947 16.5516 16.2403V12.0884ZM17.958 11.9742V18.435C17.958 19.9779 19.2121 21.232 20.755 21.232H27.2494C28.7923 21.232 30.0464 19.9779 30.0464 18.435V11.9742H17.958ZM16.4016 28.0063C16.1149 28.125 15.8484 28.2862 15.6111 28.4833C16.5203 29.7351 17.0129 31.2445 17.0129 32.8031V33.9273H23.299V29.6791L20.9588 26.1095L16.4016 28.0063ZM17.0129 35.3315V38.3233H23.299V35.3315H17.0129ZM24.7054 38.3233H30.9914V35.3315H24.7054V38.3233ZM39.6491 31.4214L40.4732 33.0629L41.2995 31.4214H39.6491ZM39.2124 30.0173H41.7362V29.0857H39.2124V30.0173ZM42.361 18.314H45.008C44.7303 16.9928 43.6845 15.9492 42.361 15.6738V18.314ZM40.9569 14.4219H39.9917V18.314H40.9569V14.4219ZM38.5854 18.314V15.6738C37.2596 15.9514 36.216 16.9928 35.9383 18.314H38.5854ZM46.0382 19.7204H34.9104V20.8401H46.0382V19.7204ZM36.3974 22.2465V25.9057C36.3974 26.8843 37.1947 27.6793 38.1711 27.6793H42.7708C43.7495 27.6793 44.5467 26.8821 44.5467 25.9035V22.2465H36.3974ZM39.77 34.7962L38.1733 31.6207L35.5285 32.7225L36.5184 36.6684H39.77V34.7962ZM36.8699 38.0748L37.2977 39.7834H39.77V38.0748H36.8699ZM41.1764 38.0748V39.7834H46.598V38.0748H45.5477C45.1603 38.0748 44.8446 37.759 44.8446 37.3716C44.8446 36.9842 45.1603 36.6684 45.5477 36.6684H46.598V33.213L42.7731 31.6207L41.1764 34.7962V36.6684H42.2692C42.6566 36.6684 42.9724 36.9842 42.9724 37.3716C42.9724 37.759 42.6566 38.0748 42.2692 38.0748H41.1764Z" fill="url(#paint0_linear_945_143)"/>
<defs>
<linearGradient id="paint0_linear_945_143" x1="48" y1="44.7281" x2="9.77136" y2="-7.19431" gradientUnits="userSpaceOnUse">
<stop stop-color="#06575C"/>
<stop offset="1" stop-color="#0A9289"/>
</linearGradient>
</defs>
</svg>
