<svg width="49" height="67" viewBox="0 0 49 67" fill="none" xmlns="http://www.w3.org/2000/svg">
<g clip-path="url(#clip0_110_52)">
<path d="M34.7626 66.9025C34.5189 66.9019 34.2795 66.8371 34.0683 66.7145C33.8572 66.5919 33.6816 66.4159 33.559 66.2038L24.4993 50.4126L15.4382 66.2064C15.316 66.4185 15.1406 66.5946 14.9297 66.7171C14.7187 66.8397 14.4795 66.9045 14.2359 66.9051C14.201 66.9051 14.1648 66.9051 14.1299 66.9051C13.8691 66.8844 13.6193 66.7903 13.409 66.6337C13.1988 66.477 13.0364 66.2641 12.9406 66.0191L10.3331 59.3022L3.24866 60.3885C3.17845 60.3988 3.1076 60.404 3.03664 60.4041C2.79477 60.3988 2.55835 60.3308 2.35023 60.2066C2.14211 60.0825 1.96933 59.9064 1.84858 59.6954C1.72784 59.4844 1.66321 59.2457 1.66095 59.0022C1.65868 58.7588 1.71886 58.5189 1.83566 58.3056C1.86539 58.2562 11.4966 41.4672 12.4157 39.8657L5.64158 38.6662C5.2862 38.6042 4.96883 38.4052 4.75689 38.1115C4.54495 37.8178 4.45513 37.4526 4.50653 37.0933L5.52135 29.8482L0.487292 24.5832C0.236768 24.323 0.0966797 23.9749 0.0966797 23.6126C0.0966797 23.2504 0.236768 22.9023 0.487292 22.6421L5.52135 17.3849L4.50653 10.1398C4.4548 9.78046 4.54448 9.41502 4.75648 9.12125C4.96848 8.82747 5.28605 8.62858 5.64158 8.5669L12.7674 7.30366L16.1596 0.845641C16.3279 0.523618 16.6144 0.280304 16.9581 0.167354C17.3018 0.0544032 17.6757 0.0807099 18.0005 0.240689L24.4993 3.44758L30.9981 0.240689C31.3228 0.0807099 31.6967 0.0544032 32.0405 0.167354C32.3842 0.280304 32.6706 0.523618 32.839 0.845641L36.2312 7.30626L43.357 8.56951C43.7125 8.63118 44.0301 8.83008 44.2421 9.12385C44.4541 9.41762 44.5438 9.78306 44.492 10.1424L43.4785 17.3875L48.5113 22.6447C48.7618 22.9049 48.9019 23.253 48.9019 23.6152C48.9019 23.9775 48.7618 24.3256 48.5113 24.5858L43.4785 29.843L44.492 37.0894C44.5434 37.4485 44.4535 37.8136 44.2416 38.1071C44.0296 38.4006 43.7123 38.5993 43.357 38.661L36.5828 39.8618L47.1629 58.3017C47.2819 58.5122 47.3431 58.7508 47.3402 58.9929C47.3372 59.235 47.2702 59.472 47.1461 59.6795C47.0271 59.8943 46.8541 60.0739 46.6445 60.2004C46.4349 60.3269 46.196 60.3958 45.9516 60.4002C45.8841 60.4002 45.8166 60.395 45.7499 60.3846L38.6655 59.2983L36.058 66.0152C35.9621 66.2602 35.7998 66.4731 35.5895 66.6298C35.3792 66.7864 35.1294 66.8805 34.8686 66.9012C34.8337 66.9012 34.7975 66.9025 34.7626 66.9025ZM34.5222 62.2853L36.482 57.2362C36.5844 56.9748 36.7623 56.7503 36.9927 56.5917C37.2232 56.4331 37.4956 56.3476 37.7748 56.3464C37.8453 56.3464 37.9157 56.3516 37.9855 56.362L43.3104 57.1777L34.8828 42.4897L32.8622 46.338C32.9618 46.5279 33.4142 47.3398 33.7206 47.8875C33.8452 48.0845 33.9137 48.3122 33.9188 48.5457C33.9238 48.7792 33.8651 49.0096 33.7491 49.2118C33.6129 49.4394 33.4213 49.6283 33.1924 49.7606C32.9634 49.8929 32.7048 49.9641 32.4408 49.9677C32.2092 49.9686 31.9818 49.9058 31.7832 49.7861C31.5845 49.6665 31.4221 49.4944 31.3135 49.2886L29.5902 46.2899L27.4649 45.24L26.1036 47.613L34.5222 62.2853ZM11.2238 56.3464C11.5035 56.3453 11.777 56.4298 12.0078 56.5887C12.2387 56.7477 12.4161 56.9735 12.5166 57.2362L14.4777 62.284L24.9647 44.0054L24.4993 43.7777L19.407 46.2925L17.6838 49.2912C17.5761 49.4954 17.415 49.6661 17.2179 49.7849C17.0208 49.9037 16.7952 49.966 16.5655 49.9651C16.3005 49.9611 16.041 49.889 15.8114 49.7559C15.5817 49.6227 15.3897 49.4327 15.2534 49.204C15.138 49.0034 15.0793 48.7748 15.0836 48.543C15.0879 48.3111 15.1551 48.0849 15.2779 47.8888L16.1531 46.3679C15.967 46.0154 14.8539 43.8961 14.1157 42.4923L5.68812 57.1777L11.0131 56.362C11.0828 56.3518 11.1533 56.3465 11.2238 56.3464ZM24.4993 40.8232C24.7117 40.8218 24.9217 40.8689 25.1133 40.9611L31.0136 43.8753L34.093 38.0105C34.1919 37.8223 34.3322 37.6592 34.5031 37.5336C34.674 37.4081 34.8711 37.3233 35.0793 37.2858L41.5536 36.1384L40.6318 29.5568C40.6013 29.3456 40.6193 29.1303 40.6845 28.9273C40.7497 28.7243 40.8604 28.5391 41.008 28.3859L45.5806 23.6126L41.0067 18.8342C40.859 18.6811 40.7483 18.4959 40.6831 18.2928C40.6178 18.0898 40.5999 17.8744 40.6305 17.6633L41.5523 11.0817L35.078 9.93943C34.8698 9.90174 34.6728 9.81693 34.502 9.6914C34.3311 9.56586 34.1908 9.40289 34.0917 9.21479L31.0123 3.35001L25.1121 6.26419C24.9213 6.35836 24.7117 6.40733 24.4993 6.40733C24.2868 6.40733 24.0772 6.35836 23.8865 6.26419L17.9863 3.35001L14.9069 9.21479C14.8089 9.40373 14.6689 9.5674 14.4978 9.69307C14.3268 9.81874 14.1292 9.90305 13.9205 9.93943L7.4463 11.0869L8.36804 17.6685C8.3987 17.8796 8.38072 18.095 8.31549 18.298C8.25026 18.5011 8.13953 18.6863 7.99185 18.8394L3.41801 23.6126L7.99185 28.3911C8.13945 28.5443 8.25012 28.7295 8.31535 28.9325C8.38057 29.1355 8.3986 29.3509 8.36804 29.562L7.4463 36.1436L13.9205 37.291C14.1292 37.3274 14.3268 37.4117 14.4978 37.5374C14.6689 37.6631 14.8089 37.8267 14.9069 38.0157L17.9876 43.8805L23.8865 40.9663C24.0773 40.8724 24.2869 40.8235 24.4993 40.8232Z" fill="#0D6E74"/>
<path d="M17.3891 0.195192C17.5861 0.19401 17.7807 0.238527 17.9579 0.325289L24.4993 3.5595L31.0408 0.325289C31.2179 0.238394 31.4125 0.193869 31.6096 0.195192C31.8449 0.195016 32.0759 0.259504 32.2775 0.381702C32.4791 0.503899 32.6438 0.679169 32.7537 0.888609L36.1679 7.39346L43.3402 8.66451C43.6703 8.72295 43.9649 8.90809 44.1619 9.18089C44.359 9.45369 44.443 9.79283 44.3964 10.1268L43.3738 17.4174L48.4402 22.7098C48.6725 22.9523 48.8022 23.2759 48.8022 23.6127C48.8022 23.9494 48.6725 24.2731 48.4402 24.5155L43.3738 29.8079L44.3951 37.0998C44.4417 37.4338 44.3577 37.7729 44.1606 38.0457C43.9636 38.3185 43.669 38.5037 43.3389 38.5621L36.429 39.7876L47.0789 58.3486C47.5715 59.2059 46.8915 60.3 45.9516 60.3C45.8889 60.2997 45.8262 60.2949 45.7642 60.2857L38.6035 59.1877L35.9675 65.9775C35.8789 66.2057 35.7279 66.4041 35.5322 66.5497C35.3364 66.6954 35.1037 66.7825 34.8609 66.801C34.8286 66.801 34.795 66.801 34.7627 66.801C34.5357 66.801 34.3128 66.7409 34.1163 66.6267C33.9198 66.5125 33.7566 66.3483 33.6431 66.1505L24.4993 50.2149L15.3542 66.1544C15.2409 66.352 15.0779 66.5161 14.8816 66.6303C14.6854 66.7444 14.4627 66.8046 14.236 66.8049C14.2037 66.8049 14.1701 66.8049 14.1377 66.8049C13.8949 66.7864 13.6623 66.6993 13.4665 66.5536C13.2707 66.408 13.1198 66.2096 13.0311 65.9814L10.3952 59.1877L3.23319 60.2857C3.16901 60.2955 3.10418 60.3003 3.03927 60.3C2.81436 60.295 2.59454 60.2317 2.40104 60.1163C2.20753 60.0008 2.04688 59.8371 1.93459 59.6409C1.82231 59.4447 1.76219 59.2227 1.76004 58.9964C1.75789 58.77 1.81378 58.5469 1.92231 58.3486L12.5709 39.7876L5.66102 38.5634C5.3307 38.505 5.03588 38.3197 4.83881 38.0466C4.64174 37.7735 4.55783 37.434 4.60482 37.0998L5.62611 29.8079L0.557145 24.5155C0.324902 24.2731 0.195135 23.9494 0.195135 23.6127C0.195135 23.2759 0.324902 22.9523 0.557145 22.7098L5.62482 17.4174L4.60353 10.132C4.5569 9.79803 4.64097 9.45889 4.83801 9.18609C5.03506 8.91329 5.32967 8.72815 5.65972 8.66971L12.832 7.39867L16.2463 0.893813C16.3554 0.683597 16.5195 0.507397 16.7209 0.384265C16.9224 0.261132 17.1534 0.195751 17.3891 0.195192ZM24.4993 6.30975C24.3019 6.31076 24.1069 6.26626 23.9292 6.17966L17.945 3.22125L14.8216 9.17189C14.7297 9.34715 14.5993 9.49896 14.4402 9.61576C14.2811 9.73255 14.0976 9.81123 13.9037 9.84579L7.33775 11.0167L8.27113 17.6919C8.29845 17.8874 8.28122 18.0865 8.22074 18.2743C8.16027 18.462 8.05814 18.6335 7.92208 18.7757L3.28361 23.6127L7.92208 28.4588C8.05832 28.6011 8.16056 28.7727 8.22104 28.9607C8.28152 29.1487 8.29865 29.3481 8.27113 29.5438L7.33775 36.2178L13.8986 37.3821C14.0925 37.4167 14.2759 37.4954 14.435 37.6122C14.5941 37.729 14.7246 37.8808 14.8164 38.056L17.9385 44.0028L17.9592 43.995L23.9292 41.0457C24.1077 40.9617 24.3023 40.9181 24.4993 40.9181C24.6963 40.9181 24.891 40.9617 25.0694 41.0457L31.0343 43.9924L31.055 44.0002L34.177 38.0534C34.2691 37.878 34.3997 37.7261 34.559 37.6093C34.7183 37.4925 34.9021 37.4139 35.0962 37.3795L41.6609 36.2152L40.7275 29.5412C40.7 29.3455 40.7171 29.1461 40.7776 28.9581C40.8381 28.7701 40.9403 28.5985 41.0766 28.4562L45.715 23.6127L41.0766 18.7665C40.9405 18.6244 40.8384 18.4529 40.7779 18.2652C40.7174 18.0774 40.7002 17.8783 40.7275 17.6828L41.6609 11.0076L35.0962 9.83669C34.9029 9.80329 34.7197 9.72608 34.5605 9.61091C34.4012 9.49573 34.2701 9.3456 34.177 9.17189L31.0537 3.22125L25.0694 6.17966C24.8918 6.26626 24.6967 6.31076 24.4993 6.30975ZM32.4408 49.8701C32.2263 49.8708 32.0156 49.8124 31.8317 49.7012C31.6478 49.59 31.4976 49.4302 31.3976 49.2392C31.3976 49.2327 29.6588 46.2144 29.6588 46.2144L27.4262 45.1125L25.9925 47.613L34.539 62.5117L36.5725 57.274C36.6671 57.0304 36.8324 56.8213 37.0469 56.6737C37.2613 56.5261 37.515 56.4469 37.7748 56.4466C37.8401 56.4468 37.9054 56.4516 37.97 56.4609L43.4953 57.3078L34.879 42.2881L32.7524 46.3367C32.7524 46.3471 33.6367 47.9356 33.6367 47.9356C34.2171 48.9465 33.3238 49.8701 32.4408 49.8701ZM5.5033 57.3078L11.0273 56.4609C11.0924 56.4516 11.1581 56.4468 11.2238 56.4466C11.4836 56.4469 11.7373 56.5261 11.9518 56.6737C12.1662 56.8213 12.3315 57.0304 12.4261 57.274L14.4596 62.5117L25.1005 43.9663L24.4993 43.6658L19.3373 46.2157L17.5998 49.2418C17.5007 49.4313 17.3519 49.5898 17.1696 49.7001C16.9873 49.8105 16.7783 49.8684 16.5656 49.8675C15.6839 49.8675 14.7867 48.94 15.362 47.9382L16.2669 46.377C16.2669 46.3653 14.1235 42.2972 14.1235 42.2972L5.5033 57.3078ZM17.3891 4.62101e-05C17.1185 -0.000258239 16.853 0.0738778 16.6213 0.214438C16.3895 0.354998 16.2004 0.556634 16.0743 0.797541L12.7041 7.22043L5.62482 8.47067C5.24452 8.5365 4.9048 8.74918 4.67805 9.0634C4.4513 9.37762 4.35544 9.76852 4.4109 10.1528L5.41798 17.3511L0.417525 22.5719C0.148081 22.8505 -0.00268555 23.2239 -0.00268555 23.6127C-0.00268555 24.0014 0.148081 24.3748 0.417525 24.6534L5.41798 29.8781L4.4109 37.0751C4.35648 37.4591 4.45277 37.8493 4.67938 38.1631C4.90598 38.4769 5.24508 38.6895 5.62482 38.756L12.2619 39.9268L1.7465 58.251C1.60644 58.4951 1.53774 58.774 1.54829 59.0556C1.55885 59.3372 1.64824 59.6101 1.80616 59.8429C1.96408 60.0756 2.18412 60.2587 2.44094 60.3712C2.69775 60.4836 2.98089 60.5207 3.25775 60.4783L10.2659 59.4037L12.845 66.049C12.9478 66.3111 13.1216 66.5388 13.3468 66.7062C13.5719 66.8737 13.8392 66.9741 14.1183 66.9961C14.1528 66.9961 14.1903 66.9961 14.2308 66.9961C14.4916 66.9958 14.7476 66.9265 14.9734 66.7952C15.1991 66.6639 15.3866 66.4752 15.5171 66.2481L24.4993 50.6052L33.4763 66.252C33.6069 66.4791 33.7945 66.6677 34.0202 66.7989C34.2459 66.9302 34.5019 66.9996 34.7627 67C34.8027 67 34.8402 67 34.8764 67C35.1552 66.9777 35.4223 66.877 35.6471 66.7096C35.872 66.5422 36.0457 66.3147 36.1485 66.0529L38.7276 59.4076L45.7331 60.4822C45.8055 60.4929 45.8785 60.4985 45.9516 60.4991C46.2129 60.4946 46.4685 60.4213 46.6929 60.2864C46.9172 60.1514 47.1025 59.9597 47.2302 59.7302C47.3628 59.5079 47.4343 59.2541 47.4372 58.9949C47.4402 58.7356 47.3745 58.4802 47.247 58.2549L36.7367 39.9346L43.3738 38.7638C43.754 38.6976 44.0935 38.4849 44.3202 38.1707C44.5469 37.8566 44.6429 37.4659 44.5877 37.0816L43.5807 29.8833L48.5811 24.6534C48.8506 24.3748 49.0013 24.0014 49.0013 23.6127C49.0013 23.2239 48.8506 22.8505 48.5811 22.5719L43.5807 17.3511L44.5877 10.1528C44.6432 9.76852 44.5474 9.37762 44.3206 9.0634C44.0938 8.74918 43.7541 8.5365 43.3738 8.47067L36.2946 7.22043L32.9243 0.797541C32.7442 0.453243 32.4376 0.193292 32.0699 0.0730174C31.7022 -0.0472576 31.3023 -0.0183596 30.9554 0.153561L24.4993 3.34224L18.0432 0.153561C17.8398 0.0523555 17.616 -0.000182804 17.3891 4.62101e-05ZM24.4993 6.5049C24.7265 6.50494 24.9506 6.45289 25.1548 6.35269L30.9722 3.48014L34.0077 9.26166C34.1136 9.46394 34.2638 9.63933 34.447 9.77456C34.6303 9.9098 34.8416 10.0013 35.0652 10.0422L41.4463 11.1741L40.5414 17.662C40.5095 17.8869 40.5292 18.1161 40.5989 18.3321C40.6686 18.5481 40.7864 18.7452 40.9434 18.9084L45.4423 23.6127L40.9331 28.3235C40.7758 28.4868 40.6577 28.6841 40.5878 28.9003C40.5179 29.1165 40.4981 29.346 40.5297 29.5711L41.4347 36.059L35.0535 37.1896C34.8299 37.2303 34.6185 37.3218 34.4352 37.457C34.252 37.5923 34.1018 37.7678 33.996 37.9702L30.9619 43.7517L25.1444 40.8791C24.9396 40.7815 24.7157 40.7308 24.489 40.7308C24.2623 40.7308 24.0384 40.7815 23.8335 40.8791L18.0161 43.7517L14.9806 37.9702C14.8758 37.7673 14.7261 37.5913 14.543 37.456C14.3598 37.3206 14.1482 37.2295 13.9244 37.1896L7.542 36.059L8.44695 29.5711C8.47908 29.3461 8.45955 29.1166 8.38985 28.9003C8.32016 28.684 8.20215 28.4867 8.04489 28.3235L3.55638 23.6127L8.06558 18.9018C8.22281 18.7389 8.34082 18.5418 8.41052 18.3257C8.48022 18.1096 8.49975 17.8804 8.46763 17.6555L7.56269 11.1676L13.9451 10.0357C14.169 9.99632 14.3809 9.90536 14.5641 9.76995C14.7473 9.63455 14.8969 9.45836 15.0013 9.25515L18.0355 3.48014L23.8529 6.35269C24.0543 6.45155 24.2752 6.50357 24.4993 6.5049ZM5.87303 57.0476L14.1119 42.6875C15.5042 45.3376 15.9218 46.1247 16.042 46.3588C15.3361 47.5856 15.2172 47.7899 15.1939 47.8341C15.0622 48.045 14.9903 48.2881 14.986 48.5371C14.9817 48.7861 15.0451 49.0316 15.1694 49.247C15.3147 49.4901 15.5191 49.6919 15.7634 49.8335C16.0076 49.9751 16.2837 50.0517 16.5656 50.0562C16.8125 50.0576 17.0551 49.9909 17.267 49.8634C17.479 49.7359 17.6522 49.5524 17.7678 49.3329L19.4756 46.3601L24.4993 43.8831L24.829 44.0457L14.4945 62.0602L12.6058 57.1998C12.498 56.919 12.308 56.6778 12.061 56.508C11.814 56.3382 11.5217 56.2478 11.2225 56.2488C11.1477 56.2487 11.0729 56.2543 10.9989 56.2657L5.87174 57.0463L5.87303 57.0476ZM32.9722 46.3341L34.8868 42.6914L43.1256 57.0476L37.9998 56.267C37.9253 56.2555 37.8501 56.2499 37.7748 56.2501C37.4761 56.2517 37.1847 56.3433 36.9382 56.513C36.6917 56.6827 36.5013 56.9228 36.3916 57.2024L34.5054 62.0602L26.2161 47.6195L27.5089 45.374L29.5256 46.3705C31.0162 48.9647 31.2062 49.2977 31.2347 49.3433C31.3515 49.5642 31.5261 49.7489 31.7395 49.8773C31.953 50.0057 32.1973 50.0729 32.446 50.0718C32.727 50.0678 33.0023 49.9918 33.2459 49.8508C33.4896 49.7099 33.6935 49.5088 33.8383 49.2665C33.9632 49.0495 34.0266 48.8022 34.0216 48.5515C34.0166 48.3008 33.9434 48.0563 33.8099 47.8445C33.5358 47.3554 33.1118 46.5943 32.9773 46.3445L32.9722 46.3341Z" fill="#0D6E74"/>
<path d="M24.4994 37.3704C22.4845 37.3691 20.4948 36.9197 18.6726 36.0543C16.8505 35.1888 15.2409 33.9287 13.9592 32.3642C12.6775 30.7996 11.7553 28.9693 11.2586 27.0042C10.7619 25.0391 10.7029 22.9878 11.086 20.9971C11.4691 19.0064 12.2846 17.1255 13.4744 15.4891C14.6641 13.8526 16.1986 12.501 17.968 11.5311C19.7374 10.5611 21.698 9.99673 23.7095 9.87833C25.7209 9.75993 27.7335 10.0904 29.6032 10.8462C29.9023 10.9675 30.1501 11.1897 30.3042 11.4747C30.4583 11.7597 30.5092 12.0898 30.4481 12.4084C30.387 12.7269 30.2177 13.0142 29.9692 13.221C29.7207 13.4278 29.4086 13.5412 29.0861 13.5418C28.9089 13.542 28.7333 13.5075 28.569 13.4403C26.4056 12.5629 24.0193 12.4074 21.7615 12.9968C19.5037 13.5862 17.4934 14.8892 16.0265 16.7143C14.5596 18.5394 13.7135 20.7901 13.6128 23.1352C13.512 25.4804 14.1618 27.7962 15.4667 29.7419C16.7716 31.6876 18.6625 33.1604 20.8614 33.9437C23.0603 34.7271 25.4509 34.7795 27.6816 34.0932C29.9122 33.407 31.8651 32.0184 33.2529 30.1318C34.6408 28.2451 35.3902 25.96 35.391 23.6126C35.391 23.2417 35.5374 22.886 35.798 22.6237C36.0587 22.3614 36.4121 22.2141 36.7807 22.2141C37.1493 22.2141 37.5028 22.3614 37.7634 22.6237C38.024 22.886 38.1705 23.2417 38.1705 23.6126C38.1663 27.2601 36.7247 30.7571 34.1617 33.3363C31.5988 35.9155 28.1239 37.3663 24.4994 37.3704Z" fill="#0D6E74"/>
<path d="M24.4992 9.95249C26.2357 9.94997 27.9563 10.2843 29.5669 10.9373C29.8797 11.0698 30.1282 11.3208 30.2588 11.636C30.3893 11.9513 30.3914 12.3056 30.2646 12.6224C30.1378 12.9392 29.8924 13.1931 29.5811 13.3294C29.2699 13.4656 28.918 13.4733 28.6012 13.3506C26.4187 12.4669 24.012 12.3113 21.7351 12.9068C19.4582 13.5023 17.4314 14.8175 15.9527 16.6588C14.474 18.5002 13.6215 20.7705 13.5208 23.1357C13.42 25.501 14.0761 27.8364 15.3928 29.7984C16.7094 31.7603 18.6169 33.2453 20.8348 34.0348C23.0527 34.8243 25.4638 34.8766 27.7134 34.1841C29.9631 33.4916 31.9325 32.0909 33.332 30.1879C34.7315 28.2849 35.4871 25.9801 35.4878 23.6127C35.4878 23.2676 35.624 22.9367 35.8665 22.6928C36.1089 22.4488 36.4377 22.3117 36.7806 22.3117C37.1235 22.3117 37.4523 22.4488 37.6947 22.6928C37.9372 22.9367 38.0734 23.2676 38.0734 23.6127C38.0734 26.3144 37.2773 28.9555 35.7857 31.2019C34.2942 33.4483 32.1742 35.1992 29.6938 36.2331C27.2135 37.267 24.4842 37.5375 21.8511 37.0104C19.2179 36.4833 16.7993 35.1823 14.9009 33.2719C13.0025 31.3615 11.7097 28.9275 11.1859 26.2777C10.6622 23.6278 10.931 20.8812 11.9584 18.3852C12.9858 15.8891 14.7256 13.7556 16.9579 12.2546C19.1901 10.7536 21.8145 9.95249 24.4992 9.95249ZM24.4992 9.75734C21.7762 9.75734 19.1143 10.5699 16.8501 12.0924C14.586 13.6148 12.8213 15.7787 11.7792 18.3105C10.7372 20.8422 10.4645 23.6281 10.9958 26.3157C11.527 29.0034 12.8383 31.4722 14.7638 33.4099C16.6893 35.3476 19.1425 36.6672 21.8132 37.2018C24.484 37.7364 27.2523 37.462 29.768 36.4133C32.2838 35.3647 34.4341 33.5888 35.9469 31.3103C37.4598 29.0318 38.2673 26.353 38.2673 23.6127C38.2673 23.2159 38.1106 22.8353 37.8318 22.5548C37.553 22.2742 37.1749 22.1166 36.7806 22.1166C36.3863 22.1166 36.0082 22.2742 35.7293 22.5548C35.4505 22.8353 35.2939 23.2159 35.2939 23.6127C35.2917 25.9355 34.549 28.1964 33.1749 30.0628C31.8009 31.9292 29.868 33.3027 27.6605 33.9814C25.453 34.6601 23.0874 34.6081 20.9115 33.8331C18.7356 33.0581 16.8641 31.601 15.5723 29.676C14.2805 27.751 13.6366 25.4597 13.7351 23.139C13.8336 20.8183 14.6695 18.5906 16.1197 16.7835C17.57 14.9764 19.5581 13.6852 21.7918 13.0999C24.0255 12.5145 26.3869 12.6658 28.5288 13.5315C28.71 13.6048 28.9037 13.6416 29.099 13.6396C29.2942 13.6377 29.4872 13.597 29.6668 13.52C29.8465 13.443 30.0093 13.3311 30.146 13.1908C30.2827 13.0504 30.3905 12.8844 30.4635 12.7021C30.5364 12.5198 30.5729 12.3248 30.5709 12.1283C30.569 11.9318 30.5286 11.7377 30.4521 11.5569C30.3755 11.3761 30.2644 11.2122 30.1249 11.0747C29.9855 10.9371 29.8205 10.8286 29.6393 10.7552C28.0056 10.0933 26.2604 9.75447 24.4992 9.75734Z" fill="#0D6E74"/>
<path d="M24.6932 28.0464C24.3275 28.0513 23.9745 27.9111 23.7107 27.6561C23.6732 27.6184 19.1666 23.0845 19.1214 23.0376C18.9883 22.9087 18.882 22.7544 18.8089 22.5837C18.7357 22.4129 18.6971 22.2293 18.6954 22.0434C18.6936 21.8574 18.7287 21.673 18.7986 21.5009C18.8684 21.3288 18.9717 21.1725 19.1024 21.041C19.233 20.9096 19.3884 20.8056 19.5594 20.7353C19.7304 20.665 19.9136 20.6297 20.0984 20.6315C20.2831 20.6332 20.4656 20.6721 20.6353 20.7457C20.8049 20.8193 20.9583 20.9262 21.0864 21.0602L24.6932 24.6899L33.678 15.652C33.8061 15.5181 33.9595 15.4112 34.1291 15.3376C34.2988 15.2639 34.4813 15.2251 34.666 15.2233C34.8508 15.2215 35.034 15.2569 35.205 15.3272C35.3761 15.3975 35.5314 15.5014 35.6621 15.6329C35.7927 15.7644 35.896 15.9207 35.9658 16.0928C36.0357 16.2649 36.0708 16.4493 36.069 16.6352C36.0673 16.8211 36.0287 17.0048 35.9555 17.1755C35.8824 17.3463 35.7761 17.5006 35.643 17.6295L25.6757 27.6587C25.4116 27.9128 25.0586 28.052 24.6932 28.0464Z" fill="#0D6E74"/>
<path d="M34.6592 15.3398C34.9148 15.3398 35.1647 15.4161 35.3773 15.5591C35.5898 15.7021 35.7555 15.9052 35.8533 16.1429C35.9511 16.3806 35.9767 16.6421 35.9269 16.8945C35.877 17.1468 35.7539 17.3786 35.5732 17.5605L25.6072 27.5897C25.3581 27.8205 25.0318 27.9486 24.6932 27.9486C24.3546 27.9486 24.0284 27.8205 23.7792 27.5897L19.1899 22.9713C19.0664 22.8512 18.9679 22.7077 18.9002 22.549C18.8324 22.3902 18.7968 22.2195 18.7953 22.0468C18.7938 21.874 18.8265 21.7027 18.8915 21.5429C18.9565 21.383 19.0525 21.2377 19.1739 21.1156C19.2952 20.9934 19.4396 20.8968 19.5985 20.8314C19.7573 20.766 19.9276 20.7331 20.0992 20.7346C20.2709 20.7361 20.4405 20.772 20.5982 20.8401C20.756 20.9083 20.8986 21.0074 21.0179 21.1317L24.6932 24.8303L33.7426 15.7236C33.985 15.4796 34.3138 15.3424 34.6566 15.3424L34.6592 15.3398ZM34.6566 15.1472C34.4613 15.1468 34.2679 15.1853 34.0875 15.2606C33.9071 15.3358 33.7433 15.4463 33.6056 15.5856L24.6855 24.5623L21.1471 21.0016C20.8684 20.7209 20.4903 20.5631 20.0959 20.563C19.7016 20.5629 19.3234 20.7204 19.0444 21.0009C18.7655 21.2815 18.6088 21.662 18.6086 22.0588C18.6085 22.4557 18.7651 22.8363 19.0438 23.117L23.6331 27.7354C23.9196 28.0013 24.2951 28.1489 24.6848 28.1489C25.0745 28.1489 25.45 28.0013 25.7365 27.7354L35.7038 17.7049C35.9117 17.4956 36.0532 17.229 36.1105 16.9387C36.1678 16.6484 36.1382 16.3475 36.0256 16.0742C35.9129 15.8008 35.7223 15.5672 35.4777 15.4029C35.2331 15.2386 34.9455 15.151 34.6514 15.1511L34.6566 15.1472Z" fill="#0D6E74"/>
<path d="M35.1002 54.5432C35.8677 54.5432 36.4899 53.917 36.4899 53.1446C36.4899 52.3722 35.8677 51.7461 35.1002 51.7461C34.3327 51.7461 33.7104 52.3722 33.7104 53.1446C33.7104 53.917 34.3327 54.5432 35.1002 54.5432Z" fill="#0D6E74"/>
<path d="M35.1002 51.8437C35.3559 51.8437 35.6058 51.92 35.8184 52.063C36.031 52.2059 36.1967 52.4091 36.2946 52.6468C36.3924 52.8845 36.418 53.1461 36.3682 53.3985C36.3183 53.6508 36.1951 53.8827 36.0143 54.0646C35.8335 54.2465 35.6032 54.3704 35.3524 54.4206C35.1016 54.4708 34.8417 54.4451 34.6055 54.3466C34.3693 54.2481 34.1674 54.0814 34.0253 53.8675C33.8833 53.6535 33.8074 53.402 33.8074 53.1447C33.8074 52.7996 33.9436 52.4687 34.1861 52.2247C34.4285 51.9808 34.7574 51.8437 35.1002 51.8437ZM35.1002 51.6486C34.8062 51.6486 34.5187 51.7363 34.2743 51.9007C34.0298 52.0651 33.8392 52.2988 33.7267 52.5721C33.6142 52.8455 33.5847 53.1463 33.6421 53.4366C33.6995 53.7268 33.8411 53.9934 34.049 54.2026C34.2569 54.4118 34.5218 54.5543 34.8102 54.612C35.0986 54.6698 35.3975 54.6401 35.6691 54.5269C35.9408 54.4137 36.173 54.2219 36.3364 53.9759C36.4997 53.7298 36.5869 53.4406 36.5869 53.1447C36.5866 52.748 36.4298 52.3676 36.1511 52.0871C35.8724 51.8066 35.4944 51.6489 35.1002 51.6486Z" fill="#0D6E74"/>
<path d="M13.8985 54.5432C14.666 54.5432 15.2883 53.917 15.2883 53.1446C15.2883 52.3722 14.666 51.7461 13.8985 51.7461C13.131 51.7461 12.5088 52.3722 12.5088 53.1446C12.5088 53.917 13.131 54.5432 13.8985 54.5432Z" fill="#0D6E74"/>
<path d="M13.8986 51.8437C14.1542 51.8437 14.4042 51.92 14.6168 52.063C14.8294 52.2059 14.9951 52.4091 15.0929 52.6468C15.1908 52.8845 15.2164 53.1461 15.1665 53.3985C15.1166 53.6508 14.9935 53.8827 14.8127 54.0646C14.6319 54.2465 14.4015 54.3704 14.1508 54.4206C13.9 54.4708 13.6401 54.4451 13.4038 54.3466C13.1676 54.2481 12.9657 54.0814 12.8237 53.8675C12.6816 53.6535 12.6058 53.402 12.6058 53.1447C12.6058 52.7996 12.742 52.4687 12.9844 52.2247C13.2269 51.9808 13.5557 51.8437 13.8986 51.8437ZM13.8986 51.6486C13.6045 51.6486 13.3171 51.7363 13.0726 51.9007C12.8281 52.0651 12.6376 52.2988 12.525 52.5721C12.4125 52.8455 12.3831 53.1463 12.4404 53.4366C12.4978 53.7268 12.6394 53.9934 12.8473 54.2026C13.0552 54.4118 13.3201 54.5543 13.6085 54.612C13.8969 54.6698 14.1958 54.6401 14.4675 54.5269C14.7391 54.4137 14.9713 54.2219 15.1347 53.9759C15.2981 53.7298 15.3852 53.4406 15.3852 53.1447C15.3849 52.748 15.2282 52.3676 14.9494 52.0871C14.6707 51.8066 14.2927 51.6489 13.8986 51.6486Z" fill="#0D6E74"/>
</g>
<defs>
<clipPath id="clip0_110_52">
<rect width="49" height="67" fill="white"/>
</clipPath>
</defs>
</svg>
