<svg width="47" height="47" viewBox="0 0 47 47" fill="none" xmlns="http://www.w3.org/2000/svg">
<g clip-path="url(#clip0_13_25)">
<path d="M42.5086 38.7879C43.0082 38.1153 43.3417 37.3343 43.4817 36.5085C43.6217 35.6827 43.5642 34.8355 43.3141 34.0361C43.064 33.2367 42.6282 32.5077 42.0424 31.9085C41.4565 31.3094 40.7372 30.8571 39.9431 30.5886C40.8951 28.5396 41.7422 25.9418 41.7422 23.1815V8.24428L23.5046 0L5.26694 8.24428V23.1815C5.26694 25.6031 5.8642 28.0862 7.04403 30.5867C6.24868 30.855 5.52816 31.3074 4.94135 31.9071C4.35455 32.5068 3.91812 33.2367 3.66774 34.0372C3.41736 34.8377 3.36013 35.686 3.50073 36.5127C3.64133 37.3395 3.97577 38.1213 4.47672 38.7943C3.14745 39.3733 2.01601 40.327 1.2209 41.5386C0.425796 42.7501 0.00151622 44.167 0 45.6157L0 47H47V45.6157C46.9984 44.1643 46.5725 42.7449 45.7746 41.5319C44.9767 40.319 43.8415 39.3652 42.5086 38.7879ZM40.7848 35.6236C40.7848 36.128 40.6351 36.621 40.3546 37.0404C40.0741 37.4597 39.6754 37.7866 39.209 37.9796C38.7426 38.1726 38.2294 38.2231 37.7342 38.1247C37.239 38.0263 36.7842 37.7835 36.4272 37.4268C36.0702 37.0702 35.8271 36.6158 35.7286 36.1211C35.6301 35.6264 35.6807 35.1137 35.8739 34.6477C36.0671 34.1818 36.3943 33.7835 36.814 33.5033C37.2338 33.2231 37.7273 33.0735 38.2322 33.0735C38.9089 33.0745 39.5576 33.3435 40.0361 33.8215C40.5146 34.2995 40.7838 34.9476 40.7848 35.6236ZM38.9709 23.1815C38.9709 25.9473 37.9106 28.5901 36.9053 30.472C35.7623 30.7676 34.7498 31.4338 34.0264 32.3661C33.3031 33.2984 32.9098 34.4441 32.9083 35.6236C32.9083 35.7301 32.9083 35.8357 32.9184 35.9403C31.7348 37.2232 30.483 38.4415 29.1685 39.5902C28.7305 39.2723 28.2591 39.0033 27.7626 38.7879C28.2784 38.0935 28.6169 37.2838 28.7485 36.4291C28.8801 35.5745 28.801 34.7006 28.518 33.8834C28.235 33.0662 27.7566 32.3304 27.1244 31.7397C26.4922 31.1491 25.7253 30.7215 24.8902 30.494V28.3294C27.4449 27.9965 29.791 26.7464 31.4908 24.8124C33.1906 22.8783 34.128 20.3925 34.128 17.8187C34.128 15.2449 33.1906 12.7591 31.4908 10.825C29.791 8.89097 27.4449 7.64086 24.8902 7.30795V3.66545L38.9709 10.0306V23.1815ZM20.9336 35.6236C20.9338 35.1193 21.0837 34.6263 21.3642 34.2071C21.6448 33.7878 22.0436 33.4611 22.51 33.2683C22.9765 33.0754 23.4897 33.025 23.9848 33.1235C24.4799 33.222 24.9346 33.465 25.2915 33.8216C25.6484 34.1783 25.8914 34.6327 25.9898 35.1274C26.0883 35.622 26.0377 36.1347 25.8444 36.6006C25.6512 37.0666 25.324 37.4648 24.9043 37.7449C24.4845 38.0251 23.991 38.1746 23.4862 38.1746C22.8093 38.1739 22.1603 37.9049 21.6817 37.4266C21.2032 36.9483 20.9341 36.2999 20.9336 35.6236ZM23.5064 9.98934C25.0569 9.98934 26.5724 10.4487 27.8616 11.3092C29.1507 12.1697 30.1554 13.3929 30.7487 14.8239C31.3419 16.2549 31.4971 17.8295 31.1946 19.3487C30.8921 20.8678 30.1454 22.2632 29.049 23.3583C27.9526 24.4535 26.5558 25.1993 25.0352 25.5014C23.5145 25.8034 21.9383 25.6482 20.506 25.0553C19.0737 24.4625 17.8495 23.4586 16.9882 22.1706C16.127 20.8827 15.6674 19.3685 15.6676 17.8196C15.67 15.7438 16.4965 13.7537 17.9656 12.2858C19.4348 10.8179 21.4268 9.99201 23.5046 9.98934H23.5064ZM8.04008 10.0306L22.1189 3.66545V7.3107C19.5643 7.64361 17.2182 8.89373 15.5184 10.8278C13.8185 12.7618 12.8812 15.2477 12.8812 17.8214C12.8812 20.3952 13.8185 22.8811 15.5184 24.8151C17.2182 26.7492 19.5643 27.9993 22.1189 28.3322V30.4867C21.2785 30.7094 20.5056 31.1345 19.8677 31.7248C19.2298 32.3151 18.7464 33.0525 18.4598 33.8726C18.1733 34.6927 18.0922 35.5704 18.2237 36.4291C18.3553 37.2877 18.6954 38.101 19.2144 38.7979C18.7322 39.008 18.2738 39.2689 17.8471 39.5764C16.5139 38.4335 15.2509 37.2113 14.0651 35.9164C14.0706 35.821 14.0734 35.7246 14.0734 35.6273C14.0736 34.4505 13.6836 33.3068 12.9642 32.3749C12.2449 31.443 11.2368 30.7754 10.0974 30.4766C8.72923 27.9788 8.03824 25.5269 8.03824 23.1815L8.04008 10.0306ZM8.75128 33.0717C9.2564 33.0715 9.75023 33.221 10.1703 33.5012C10.5904 33.7814 10.9178 34.1799 11.1112 34.646C11.3046 35.1122 11.3552 35.6252 11.2567 36.1202C11.1582 36.6151 10.915 37.0697 10.5578 37.4266C10.2006 37.7834 9.74556 38.0264 9.25014 38.1248C8.75472 38.2232 8.24122 38.1726 7.77458 37.9794C7.30795 37.7862 6.90915 37.4591 6.62863 37.0394C6.34812 36.6197 6.19849 36.1264 6.19867 35.6218C6.19989 34.9463 6.46902 34.2988 6.94712 33.8212C7.42522 33.3436 8.07331 33.0747 8.74944 33.0735L8.75128 33.0717ZM2.9808 44.2314C3.27761 43.279 3.87117 42.4461 4.67496 41.8543C5.47875 41.2625 6.45075 40.9427 7.44925 40.9414H10.068C11.0663 40.9426 12.0381 41.2621 12.8419 41.8536C13.6456 42.4451 14.2393 43.2775 14.5365 44.2296L2.9808 44.2314ZM17.7176 44.2314C18.0144 43.279 18.6079 42.4461 19.4117 41.8543C20.2155 41.2625 21.1875 40.9427 22.186 40.9414H24.8094C25.8077 40.9426 26.7795 41.2621 27.5832 41.8536C28.387 42.4451 28.9807 43.2775 29.2778 44.2296L17.7176 44.2314ZM32.4635 44.2314C32.7603 43.279 33.3539 42.4461 34.1577 41.8543C34.9615 41.2625 35.9335 40.9427 36.932 40.9414H39.5508C40.549 40.9426 41.5208 41.2621 42.3246 41.8536C43.1284 42.4451 43.7221 43.2775 44.0192 44.2296L32.4635 44.2314Z" fill="#0D6E74"/>
<path d="M22.1444 22.7657L29.1012 15.8158L27.1421 13.8586L22.1444 18.8478L19.8611 16.5667L17.9048 18.5247L22.1444 22.7657Z" fill="#0D6E74"/>
</g>
<defs>
<clipPath id="clip0_13_25">
<rect width="47" height="47" fill="white"/>
</clipPath>
</defs>
</svg>
