<svg width="50" height="50" viewBox="0 0 50 50" fill="none" xmlns="http://www.w3.org/2000/svg">
<mask id="mask0_546_71" style="mask-type:alpha" maskUnits="userSpaceOnUse" x="0" y="0" width="50" height="50">
<rect width="50" height="50" fill="#C4C4C4"/>
</mask>
<g mask="url(#mask0_546_71)">
<path d="M40.9339 35.1766C41.4339 34.5413 42.0004 33.8214 42.0004 32.1722V19.7451C42.0004 18.5182 40.983 17.52 39.7322 17.52C39.4664 17.52 39.2118 17.5653 38.9747 17.6484V15.3944C38.9747 14.051 37.8614 12.9585 36.492 12.9585C36.0759 12.9585 35.6839 13.0602 35.3387 13.2383C34.9701 12.3462 34.0774 11.7153 33.0374 11.7153C31.6688 11.7153 30.5547 12.8078 30.5547 14.1512V15.0173C30.2564 14.8919 29.9278 14.8229 29.5827 14.8229C28.2141 14.8229 27.1 15.9154 27.1 17.2587V22.6952C26.7624 22.5401 26.3855 22.4526 25.9883 22.4526C24.5404 22.4526 23.3621 23.6081 23.3621 25.0287L23.3599 28.9467C23.3599 31.629 24.0555 32.5248 25.4414 34.3105L25.5955 34.5094C27.3652 36.7901 27.3742 37.0595 27.3742 39.0553C26.5834 39.3544 26.02 40.107 26.02 40.9872V45.1657C26.02 45.5754 26.3584 45.9079 26.7753 45.9079C27.1922 45.9079 27.5306 45.5754 27.5306 45.1657V40.9879C27.5306 40.6651 27.7994 40.4024 28.1295 40.4024H30.2171C30.634 40.4024 30.9724 40.0699 30.9724 39.6602C30.9724 39.2505 30.634 38.918 30.2171 38.918H28.8848C28.8803 36.7582 28.7647 36.1452 26.7972 33.6106L26.6423 33.4109C25.2813 31.6572 24.8704 31.128 24.8704 28.9482L24.8727 25.0302C24.8727 24.4275 25.3735 23.9377 25.9883 23.9377C26.5645 23.9377 27.0404 24.3659 27.1 24.9144C27.1 24.9144 27.0993 28.7879 27.1 28.848C27.1038 29.2554 27.4407 29.5842 27.8553 29.5842H27.8614C27.875 29.5842 27.8893 29.5842 27.9029 29.5842C28.8969 29.5842 29.6929 29.8692 30.27 30.4318C30.9739 31.1183 31.3312 32.1975 31.3312 33.6395C31.3312 34.0492 31.6695 34.3817 32.0865 34.3817C32.5034 34.3817 32.8417 34.0492 32.8417 33.6395C32.8417 31.787 32.3342 30.3539 31.3342 29.3779C30.6257 28.6877 29.696 28.2661 28.6106 28.1399V17.258C28.6106 16.7333 29.0464 16.3065 29.5827 16.3065C30.1189 16.3065 30.5547 16.7333 30.5547 17.258V21.6154V23.4924C30.5547 23.902 30.8931 24.2345 31.31 24.2345C31.7269 24.2345 32.0653 23.902 32.0653 23.4924V21.6154V17.258V14.1512C32.0653 13.6265 32.5011 13.1997 33.0374 13.1997C33.5736 13.1997 34.0094 13.6265 34.0094 14.1512V23.8412C34.0094 24.2509 34.3478 24.5834 34.7647 24.5834C35.1816 24.5834 35.52 24.2509 35.52 23.8412V15.3944C35.52 14.8696 35.9558 14.4429 36.492 14.4429C37.0283 14.4429 37.4641 14.8696 37.4641 15.3944V19.7451V20.9971V24.2115C37.4641 24.6212 37.8025 24.9537 38.2194 24.9537C38.6363 24.9537 38.9747 24.6212 38.9747 24.2115V20.9971V19.7451C38.9747 19.3361 39.3146 19.0044 39.7322 19.0044C40.1499 19.0044 40.4898 19.3369 40.4898 19.7451V32.1722C40.4898 33.3145 40.1914 33.6945 39.739 34.2689C39.1136 35.0638 38.3395 36.0487 38.3463 38.918H37.0162C36.5993 38.918 36.2609 39.2505 36.2609 39.6602C36.2609 40.0699 36.5993 40.4024 37.0162 40.4024H39.1038C39.4354 40.4024 39.7043 40.6651 39.7043 40.9879V45.1657C39.7043 45.5754 40.0427 45.9079 40.4596 45.9079C40.8765 45.9079 41.2149 45.5754 41.2149 45.1657V40.9879C41.2149 40.107 40.6507 39.3536 39.8576 39.0553C39.8274 36.5838 40.3893 35.8683 40.9339 35.1766Z" fill="#0D6E74"/>
<path d="M19.636 9.60906C19.2643 9.60906 18.9124 9.69145 18.5974 9.8384C18.2583 8.77484 17.244 8 16.0483 8C15.2991 8 14.6208 8.30504 14.136 8.79488C13.6503 8.30504 12.9721 8 12.2221 8C11.4728 8 10.7953 8.30504 10.3104 8.79488C9.82553 8.30504 9.14804 8 8.39879 8C6.92674 8 5.72961 9.17414 5.72961 10.617V13.3957C4.77115 13.4224 4 14.1965 4 15.1443V21.8025C4 23.5199 4.65408 24.3779 5.23187 25.1341C5.80287 25.883 6.29683 26.5295 6.25982 28.1563C6.25982 28.1615 6.25982 28.1675 6.25982 28.1727V30.6241C5.41314 30.9277 4.8074 31.7255 4.8074 32.6599V45.2578C4.8074 45.6675 5.14577 46 5.56269 46C5.97961 46 6.31798 45.6675 6.31798 45.2578V35.6895H19.642V45.2578C19.642 45.6675 19.9804 46 20.3973 46C20.8142 46 21.1526 45.6675 21.1526 45.2578V32.6607C21.1526 31.7262 20.5468 30.9284 19.7001 30.6248V27.6828C19.7001 25.7472 20.1903 25.2945 20.7583 24.7705C21.3406 24.2331 22.0642 23.5644 22.0642 21.7127V11.9945C22.0642 10.6793 20.9751 9.6098 19.636 9.60906ZM19.636 11.0934C20.1427 11.0934 20.5544 11.4972 20.5544 11.9945V15.0552V17.0161C20.5544 17.5126 20.1427 17.9171 19.636 17.9171C19.1299 17.9171 18.7175 17.5126 18.7175 17.0161V11.9945C18.7175 11.4979 19.1292 11.0934 19.636 11.0934ZM16.0483 9.48438C16.6873 9.48438 17.2069 9.99203 17.2069 10.617V11.9952V17.7048C17.2069 18.3305 16.6873 18.8396 16.0483 18.8396C15.4109 18.8396 14.892 18.3305 14.892 17.7048V17.2974C15.395 16.7489 15.6647 16.0453 15.6647 15.2118C15.6647 14.552 15.3988 14.0607 14.892 13.7638V10.617C14.892 9.99203 15.4101 9.48438 16.0483 9.48438ZM12.2221 9.48438C12.861 9.48438 13.3807 9.99203 13.3807 10.617V13.4135C13.0083 13.3942 12.5906 13.3942 12.1254 13.3942H11.0657V10.617C11.0657 9.99203 11.5846 9.48438 12.2221 9.48438ZM8.39879 9.48438C9.03625 9.48438 9.55514 9.99203 9.55514 10.617V13.3942H7.24018V10.617C7.24018 9.99203 7.75982 9.48438 8.39879 9.48438ZM19.7243 23.6884C19.0408 24.32 18.1896 25.1052 18.1896 27.6828V30.4942H16.3784C15.9615 30.4942 15.6231 30.8267 15.6231 31.2364C15.6231 31.6461 15.9615 31.9786 16.3784 31.9786H18.9449C19.3233 31.9786 19.642 32.2911 19.642 32.6607V34.2052H6.31722V32.6607C6.31722 32.2844 6.62991 31.9786 7.01435 31.9786H9.58082C9.99773 31.9786 10.3361 31.6461 10.3361 31.2364C10.3361 30.8267 9.99773 30.4942 9.58082 30.4942H7.77039V28.1816C7.81646 26.0485 7.0861 25.0904 6.44109 24.245C5.92069 23.5629 5.51057 23.0256 5.51057 21.8025V15.1443C5.51057 15.0003 5.63444 14.8786 5.78097 14.8786H12.1261C12.7236 14.8786 13.4917 14.8786 13.889 14.955C13.9305 14.9691 13.9736 14.9795 14.0174 14.987C14.0695 15.0033 14.1088 15.0226 14.1314 15.0456C14.1314 15.0456 14.1541 15.0871 14.1541 15.2126C14.1541 16.766 12.5008 17.1207 11.1118 17.1445H8.36405C7.94713 17.1445 7.60876 17.477 7.60876 17.8867C7.60876 18.2964 7.94713 18.6289 8.36405 18.6289C9.58686 18.6289 10.6193 20.0999 10.6193 21.8418C10.6193 22.2515 10.9577 22.584 11.3746 22.584C11.7915 22.584 12.1299 22.2515 12.1299 21.8418C12.1299 20.6387 11.7704 19.5002 11.1178 18.6289C11.1216 18.6289 11.1254 18.6289 11.1292 18.6289C12.0151 18.6148 12.7893 18.4804 13.4358 18.2385C13.6873 19.4275 14.7628 20.3248 16.0476 20.3248C17.0242 20.3248 17.8792 19.8075 18.3444 19.0371C18.7183 19.2686 19.1609 19.403 19.6344 19.403C19.9592 19.403 20.2696 19.3399 20.5529 19.2256V21.7134C20.5536 22.9224 20.2236 23.2267 19.7243 23.6884Z" fill="#0D6E74"/>
<path d="M12.9797 30.4943C12.5627 30.4943 12.2244 30.8268 12.2244 31.2365C12.2244 31.6461 12.5627 31.9786 12.9797 31.9786H12.9819C13.3988 31.9786 13.7365 31.6461 13.7365 31.2365C13.7365 30.8268 13.3973 30.4943 12.9797 30.4943Z" fill="#0D6E74"/>
<path d="M33.6171 38.9174C33.2002 38.9174 32.8618 39.2499 32.8618 39.6595C32.8618 40.0692 33.2002 40.4017 33.6171 40.4017H33.6216C34.0386 40.4017 34.3747 40.0692 34.3747 39.6595C34.3747 39.2499 34.034 38.9174 33.6171 38.9174Z" fill="#0D6E74"/>
</g>
</svg>
