<svg width="47" height="47" viewBox="0 0 47 47" fill="none" xmlns="http://www.w3.org/2000/svg">
<g clip-path="url(#clip0_13_46)">
<path d="M47 46.0821V31.5222C46.9983 30.2183 46.4795 28.9684 45.5575 28.0465C44.6354 27.1246 43.3854 26.6061 42.0815 26.6046H40.8964C42.0421 25.4525 42.6853 23.8938 42.6855 22.2691V20.8297C42.6853 20.795 42.6831 20.7604 42.6791 20.7259C42.6831 20.6915 42.6852 20.6569 42.6855 20.6222V20.0852C42.6855 18.4482 42.0352 16.8782 40.8777 15.7206C39.7201 14.5631 38.1502 13.9128 36.5131 13.9128C34.8761 13.9128 33.3061 14.5631 32.1486 15.7206C30.991 16.8782 30.3407 18.4482 30.3407 20.0852V20.6222C30.3493 20.6911 30.3493 20.7608 30.3407 20.8297V21.4264L26.1594 16.1453C25.9041 15.818 25.5519 15.5796 25.1532 15.4643C24.7544 15.3489 24.3294 15.3623 23.9388 15.5027C23.7863 15.5554 23.6405 15.626 23.5046 15.7129C23.3687 15.626 23.2229 15.5554 23.0704 15.5027C22.6799 15.3627 22.2551 15.3494 21.8566 15.4648C21.4581 15.5801 21.1061 15.8183 20.8507 16.1453L18.5246 19.0828C18.2676 17.041 17.2409 15.1742 15.6543 13.8636C14.0676 12.553 12.0406 11.8974 9.98693 12.0306C7.9333 12.1638 6.00793 13.0758 4.60385 14.5803C3.19977 16.0849 2.42286 18.0686 2.4317 20.1265V27.2867C1.6925 27.7199 1.07928 28.3386 0.652767 29.0817C0.226251 29.8247 0.001234 30.6663 0 31.5231L0 46.0821C0 46.3255 0.0967143 46.559 0.268867 46.7312C0.441019 46.9033 0.674508 47.0001 0.917969 47.0001H16.2242C16.4676 47.0001 16.7011 46.9033 16.8733 46.7312C17.0454 46.559 17.1421 46.3255 17.1421 46.0821V34.0145L23.5 22.7951L25.033 25.4985C25.092 25.6043 25.1713 25.6973 25.2663 25.7723C25.3614 25.8473 25.4704 25.9028 25.587 25.9355C25.7036 25.9682 25.8255 25.9775 25.9457 25.9629C26.0659 25.9482 26.1821 25.91 26.2874 25.8503C26.3928 25.7906 26.4853 25.7106 26.5596 25.615C26.634 25.5194 26.6886 25.41 26.7205 25.2932C26.7524 25.1763 26.7608 25.0544 26.7453 24.9342C26.7298 24.8141 26.6907 24.6983 26.6303 24.5934L24.451 20.7461C24.4372 20.7221 24.4299 20.6949 24.4299 20.6672V17.3836C24.4303 17.3506 24.4409 17.3185 24.4602 17.2917C24.4795 17.2649 24.5066 17.2447 24.5378 17.2338C24.569 17.223 24.6028 17.222 24.6346 17.2311C24.6664 17.2402 24.6946 17.2588 24.7154 17.2845L31.3945 25.7169C31.5706 25.9762 31.7661 26.2217 31.9793 26.4513C32.0046 26.4818 32.0319 26.5106 32.061 26.5376C32.3726 26.8632 32.7189 27.1538 33.0937 27.4042C33.1027 27.4776 33.1203 27.5496 33.146 27.619L35.6502 34.2403C35.716 34.4135 35.8327 34.5628 35.9849 34.6685C36.1371 34.7741 36.3177 34.8313 36.503 34.8324H36.5085C36.693 34.8324 36.8731 34.777 37.0256 34.6731C37.178 34.5693 37.2957 34.422 37.3632 34.2504L39.6425 28.4424H42.0815C42.8984 28.4431 43.6816 28.7677 44.2594 29.3451C44.8373 29.9224 45.1626 30.7053 45.1641 31.5222V45.1641H43.1583V33.3737C43.1583 33.1303 43.0616 32.8968 42.8894 32.7246C42.7173 32.5525 42.4838 32.4558 42.2403 32.4558C41.9969 32.4558 41.7634 32.5525 41.5912 32.7246C41.4191 32.8968 41.3224 33.1303 41.3224 33.3737V45.1641H31.6938V33.773C31.6946 33.6154 31.6548 33.4601 31.5781 33.3223L29.7422 30.0856C29.6212 29.8756 29.4221 29.722 29.1883 29.6582C28.9546 29.5944 28.705 29.6257 28.4942 29.7452C28.2834 29.8646 28.1284 30.0626 28.0629 30.2959C27.9975 30.5293 28.027 30.779 28.1449 30.9907L29.8597 34.02V45.4946C29.8599 45.5961 29.877 45.697 29.9102 45.7929C29.8646 45.9304 29.8521 46.0766 29.8738 46.2198C29.8955 46.363 29.9508 46.499 30.0352 46.6167C30.1195 46.7344 30.2305 46.8305 30.359 46.8971C30.4876 46.9638 30.6301 46.999 30.7749 47.0001H46.082C46.3255 47.0001 46.559 46.9033 46.7311 46.7312C46.9033 46.559 47 46.3255 47 46.0821ZM4.26764 20.1265C4.26764 18.471 4.92529 16.8833 6.09593 15.7126C7.26657 14.542 8.85429 13.8843 10.5098 13.8843C12.1654 13.8843 13.7531 14.542 14.9237 15.7126C16.0944 16.8833 16.752 18.471 16.752 20.1265V21.3107L15.8184 22.4903V19.92C15.8184 19.6765 15.7217 19.443 15.5496 19.2709C15.3774 19.0987 15.1439 19.002 14.9005 19.002H6.11918C5.87572 19.002 5.64223 19.0987 5.47008 19.2709C5.29792 19.443 5.20121 19.6765 5.20121 19.92V23.1329C5.20035 24.4093 5.66177 25.643 6.50014 26.6055H4.91848C4.70079 26.6058 4.48337 26.6205 4.26764 26.6496V20.1265ZM13.9825 23.1329C13.9825 24.0539 13.6166 24.9372 12.9654 25.5884C12.3141 26.2397 11.4308 26.6055 10.5098 26.6055C9.58881 26.6055 8.70552 26.2397 8.05427 25.5884C7.40302 24.9372 7.03715 24.0539 7.03715 23.1329V20.8379H13.9825V23.1329ZM10.4942 28.4415H10.5126C10.9225 28.4412 11.331 28.3932 11.7298 28.2983L10.5117 31.4001L9.35043 28.4415H10.4942ZM22.5729 20.669C22.5727 20.6966 22.5658 20.7237 22.5527 20.748L15.4219 33.3223C15.3437 33.4603 15.3025 33.6162 15.3025 33.7749V45.1641H5.67764V37.8084C5.67764 37.565 5.58092 37.3315 5.40877 37.1593C5.23662 36.9872 5.00313 36.8905 4.75967 36.8905C4.51621 36.8905 4.28272 36.9872 4.11057 37.1593C3.93841 37.3315 3.8417 37.565 3.8417 37.8084V45.1641H1.83594V31.5231C1.83642 30.9349 2.00511 30.3592 2.32212 29.8637C2.63912 29.3683 3.09121 28.9739 3.62506 28.727C3.68273 28.7088 3.7384 28.6848 3.79121 28.6554C4.15014 28.5137 4.5326 28.4411 4.91848 28.4415H7.37588L9.65428 34.2485C9.72178 34.4202 9.83942 34.5675 9.99186 34.6713C10.1443 34.7751 10.3245 34.8306 10.5089 34.8305C10.6933 34.8306 10.8735 34.7751 11.026 34.6713C11.1784 34.5675 11.296 34.4202 11.3635 34.2485L13.8421 27.9412L18.2859 22.3351C18.3642 22.2647 18.43 22.1815 18.4805 22.0891L22.2883 17.2845C22.3089 17.2586 22.3371 17.2398 22.3688 17.2307C22.4006 17.2215 22.4344 17.2224 22.4657 17.2333C22.4969 17.2442 22.524 17.2645 22.5432 17.2914C22.5624 17.3183 22.5728 17.3506 22.5729 17.3836V20.669ZM36.5113 15.7487C37.589 15.7505 38.6275 16.153 39.4249 16.878C40.2223 17.603 40.7216 18.5985 40.8257 19.6712L40.2226 19.6501C39.9389 19.6415 39.6697 19.5224 39.4725 19.3181C39.2753 19.1139 39.1656 18.8407 39.167 18.5568C39.167 18.3683 39.1091 18.1843 39.0009 18.0299C38.8927 17.8754 38.7397 17.7581 38.5625 17.6937C38.3853 17.6293 38.1926 17.621 38.0105 17.67C37.8285 17.719 37.6659 17.8229 37.5449 17.9675C37.0897 18.5119 36.5204 18.9496 35.8774 19.2497C35.2343 19.5499 34.5331 19.705 33.8235 19.7042H32.1895C32.2861 18.6249 32.7828 17.6208 33.5819 16.8889C34.3811 16.157 35.4249 15.7504 36.5085 15.7487H36.5113ZM32.1748 22.2663V21.5374H33.8271C35.2732 21.5391 36.6807 21.071 37.8378 20.2036C38.0966 20.5854 38.4424 20.9004 38.8466 21.1227C39.2508 21.345 39.7019 21.4682 40.163 21.4824L40.8496 21.5062V22.2663C40.8482 23.4086 40.3967 24.5043 39.5928 25.3159C38.7889 26.1275 37.6976 26.5896 36.5554 26.6019H36.4984C35.9106 26.601 35.3291 26.4801 34.7896 26.2466C34.2501 26.0132 33.7639 25.6721 33.3608 25.2442L32.8807 24.6383C32.418 23.9348 32.1716 23.1111 32.1721 22.2691L32.1748 22.2663ZM36.5269 31.3542L35.3794 28.3249C35.7526 28.3954 36.1315 28.431 36.5113 28.4314H36.5535H37.6734L36.5269 31.3542Z" fill="#0D6E74" stroke="#0D6E74" stroke-width="0.4"/>
<path d="M26.658 28.3651C26.7244 28.4658 26.8106 28.552 26.9113 28.6185C26.9613 28.6518 27.0145 28.6801 27.0701 28.7029C27.1255 28.7259 27.183 28.7434 27.2418 28.7553C27.3599 28.7797 27.4817 28.7797 27.5998 28.7553C27.6586 28.7434 27.7161 28.7259 27.7715 28.7029C27.8271 28.6801 27.8803 28.6518 27.9303 28.6185C28.0303 28.5518 28.1159 28.4657 28.1818 28.3651C28.215 28.315 28.2432 28.2618 28.2663 28.2063C28.2896 28.1511 28.3072 28.0935 28.3186 28.0346C28.3309 27.9742 28.3371 27.9127 28.3369 27.8511C28.337 27.7894 28.3309 27.7279 28.3186 27.6675C28.307 27.6086 28.2895 27.5511 28.2663 27.4958C28.1978 27.3275 28.08 27.1838 27.9284 27.0836C27.8784 27.0503 27.8252 27.022 27.7696 26.9992C27.7142 26.9762 27.6568 26.9587 27.598 26.9469C27.4798 26.923 27.3581 26.923 27.24 26.9469C27.1812 26.9587 27.1237 26.9762 27.0683 26.9992C27.0127 27.022 26.9595 27.0503 26.9095 27.0836C26.8085 27.1501 26.7222 27.2366 26.6561 27.3379C26.6226 27.3875 26.5943 27.4404 26.5717 27.4958C26.5486 27.5512 26.5307 27.6087 26.5184 27.6675C26.5064 27.7279 26.5006 27.7894 26.501 27.8511C26.5005 27.9127 26.5064 27.9742 26.5184 28.0346C26.5306 28.0935 26.5484 28.1509 26.5717 28.2063C26.5949 28.2621 26.6238 28.3153 26.658 28.3651Z" fill="#0D6E74" stroke="#0D6E74" stroke-width="0.4"/>
<path d="M5.60803 33.562C5.58522 33.5064 5.55692 33.4532 5.52358 33.4032C5.49051 33.3529 5.45237 33.3061 5.40975 33.2636C5.36708 33.2212 5.32035 33.1831 5.27022 33.1498C5.21999 33.1168 5.16683 33.0885 5.11141 33.0653C5.05602 33.0424 4.99853 33.0249 4.93975 33.013C4.8213 32.9892 4.69928 32.9892 4.58082 33.013C4.52211 33.0251 4.46465 33.0426 4.40916 33.0653C4.24087 33.1338 4.0972 33.2516 3.997 33.4032C3.96365 33.4532 3.93536 33.5064 3.91254 33.562C3.88959 33.6174 3.87207 33.6748 3.86022 33.7336C3.84846 33.7926 3.84262 33.8525 3.84278 33.9126C3.84258 34.1559 3.939 34.3894 4.11082 34.5616C4.1956 34.6465 4.29597 34.7141 4.40641 34.7608C4.46189 34.7835 4.51936 34.801 4.57807 34.8132C4.63853 34.8251 4.70003 34.831 4.76166 34.8306C4.8233 34.8311 4.88481 34.8252 4.94526 34.8132C5.00403 34.8013 5.06152 34.7838 5.11692 34.7608C5.17234 34.7376 5.2255 34.7094 5.27572 34.6764C5.40141 34.5925 5.50445 34.4789 5.57571 34.3457C5.64697 34.2125 5.68424 34.0637 5.68422 33.9126C5.68407 33.8525 5.67792 33.7925 5.66586 33.7336C5.65223 33.6747 5.63286 33.6172 5.60803 33.562Z" fill="#0D6E74" stroke="#0D6E74" stroke-width="0.4"/>
<path d="M19.4783 10.8137C20.5804 11.8508 21.7454 12.8189 22.9666 13.7126C23.1225 13.8243 23.3095 13.8844 23.5013 13.8844C23.6932 13.8844 23.8801 13.8243 24.0361 13.7126C25.2575 12.8192 26.4225 11.851 27.5243 10.8137C29.9973 8.4701 31.1962 6.5598 31.1962 4.97447C31.1944 2.23158 29.0215 0 26.3503 0C25.3221 0.00297146 24.3225 0.337809 23.5 0.954687C22.6765 0.337658 21.6759 0.00283755 20.6469 0C17.9765 0 15.8037 2.23158 15.8037 4.97447C15.8037 6.5598 17.0053 8.4701 19.4783 10.8137ZM20.6469 1.83594C21.0573 1.83615 21.463 1.92274 21.8376 2.09007C22.2123 2.2574 22.5475 2.50172 22.8216 2.80715C22.9076 2.90106 23.0122 2.97606 23.1287 3.02737C23.2453 3.07867 23.3712 3.10517 23.4986 3.10517C23.6259 3.10517 23.7519 3.07867 23.8684 3.02737C23.985 2.97606 24.0896 2.90106 24.1756 2.80715C24.4497 2.50177 24.7849 2.25748 25.1596 2.09015C25.5342 1.92282 25.9399 1.83621 26.3503 1.83594C28.009 1.83594 29.3584 3.2441 29.3584 4.97447C29.3584 6.7792 25.962 9.96547 23.4981 11.8271C21.0352 9.96639 17.6396 6.77828 17.6396 4.97447C17.6396 3.2441 18.9881 1.83594 20.6469 1.83594Z" fill="#0D6E74" stroke="#0D6E74" stroke-width="0.4"/>
<path d="M36.4984 25.6838C36.7683 25.6843 37.0356 25.6314 37.285 25.5282C37.5344 25.425 37.7609 25.2736 37.9516 25.0825C38.1188 24.9094 38.2113 24.6775 38.2092 24.4368C38.2071 24.1962 38.1106 23.9659 37.9404 23.7957C37.7702 23.6255 37.54 23.529 37.2993 23.5269C37.0586 23.5248 36.8267 23.6173 36.6536 23.7845C36.6123 23.8255 36.5565 23.8484 36.4984 23.8484C36.4403 23.8484 36.3846 23.8255 36.3433 23.7845C36.1702 23.6173 35.9383 23.5248 35.6976 23.5269C35.4569 23.529 35.2267 23.6255 35.0565 23.7957C34.8863 23.9659 34.7897 24.1962 34.7876 24.4368C34.7855 24.6775 34.8781 24.9094 35.0453 25.0825C35.2358 25.2737 35.4624 25.4252 35.7118 25.5284C35.9612 25.6316 36.2285 25.6844 36.4984 25.6838Z" fill="#0D6E74" stroke="#0D6E74" stroke-width="0.4"/>
<path d="M10.5099 25.6838C10.7797 25.6843 11.0471 25.6314 11.2964 25.5282C11.5458 25.425 11.7724 25.2736 11.963 25.0825C12.1351 24.9103 12.2318 24.6767 12.2317 24.4332C12.2316 24.1897 12.1348 23.9562 11.9625 23.7841C11.7903 23.6119 11.5567 23.5153 11.3132 23.5154C11.0697 23.5155 10.8362 23.6123 10.6641 23.7845C10.6438 23.8049 10.6197 23.821 10.5931 23.832C10.5666 23.843 10.5381 23.8487 10.5094 23.8487C10.4807 23.8487 10.4522 23.843 10.4257 23.832C10.3991 23.821 10.375 23.8049 10.3547 23.7845C10.1826 23.6123 9.9491 23.5155 9.70559 23.5154C9.46208 23.5153 9.22851 23.6119 9.05626 23.7841C8.88401 23.9562 8.7872 24.1897 8.78711 24.4332C8.78702 24.6767 8.88367 24.9103 9.0558 25.0825C9.24659 25.2736 9.47327 25.4251 9.72281 25.5283C9.97235 25.6315 10.2398 25.6844 10.5099 25.6838Z" fill="#0D6E74" stroke="#0D6E74" stroke-width="0.4"/>
</g>
<defs>
<clipPath id="clip0_13_46">
<rect width="47" height="47" fill="white"/>
</clipPath>
</defs>
</svg>
