<svg width="66" height="54" viewBox="0 0 66 54" fill="none" xmlns="http://www.w3.org/2000/svg">
<g clip-path="url(#clip0_110_33)">
<path d="M64.6529 4.27797H57.3246V1.33555C57.3246 0.980981 57.1827 0.640936 56.9301 0.390222C56.6774 0.139507 56.3348 -0.00134277 55.9775 -0.00134277H51.6669C51.3096 -0.00134277 50.967 0.139507 50.7144 0.390222C50.4618 0.640936 50.3198 0.980981 50.3198 1.33555V4.27797H43.4324V1.33555C43.4324 0.980981 43.2905 0.640936 43.0378 0.390222C42.7852 0.139507 42.4426 -0.00134277 42.0853 -0.00134277H37.7695C37.4132 1.10234e-05 37.0718 0.141457 36.8203 0.392025C36.5688 0.642594 36.4276 0.981866 36.4276 1.33555V4.27797H29.5402V1.33555C29.5402 0.980981 29.3982 0.640936 29.1456 0.390222C28.893 0.139507 28.5504 -0.00134277 28.1931 -0.00134277H23.8825C23.7056 -0.00134277 23.5304 0.0332384 23.367 0.100423C23.2035 0.167608 23.055 0.26608 22.9299 0.390222C22.8049 0.514363 22.7056 0.661745 22.6379 0.823943C22.5702 0.986142 22.5354 1.15998 22.5354 1.33555V4.27797H15.6479V1.33555C15.6479 0.980981 15.506 0.640936 15.2534 0.390222C15.0008 0.139507 14.6581 -0.00134277 14.3009 -0.00134277H9.99023C9.81333 -0.00134277 9.63817 0.0332384 9.47473 0.100423C9.3113 0.167608 9.1628 0.26608 9.03771 0.390222C8.91262 0.514363 8.8134 0.661745 8.7457 0.823943C8.67801 0.986142 8.64316 1.15998 8.64316 1.33555V4.27797H1.34707C0.990697 4.27797 0.648843 4.41812 0.396366 4.66773C0.143889 4.91734 0.00136411 5.25606 0 5.60974L0 52.663C0 53.0176 0.141923 53.3576 0.394548 53.6083C0.647172 53.8591 0.989805 53.9999 1.34707 53.9999H64.6529C65.0102 53.9999 65.3528 53.8591 65.6055 53.6083C65.8581 53.3576 66 53.0176 66 52.663V5.60974C65.9986 5.25606 65.8561 4.91734 65.6036 4.66773C65.3512 4.41812 65.0093 4.27797 64.6529 4.27797ZM53.014 2.67883H54.6305V8.59567H53.014V2.67883ZM39.1218 2.67883H40.7344V8.59567H39.1218V2.67883ZM25.2295 2.67883H26.846V8.59567H25.2295V2.67883ZM11.3438 2.67371H12.9589V8.59055H11.3438V2.67371ZM2.69414 51.3261V15.5053H43.783C43.9599 15.5053 44.1351 15.4707 44.2985 15.4035C44.4619 15.3363 44.6104 15.2378 44.7355 15.1137C44.8606 14.9896 44.9598 14.8422 45.0275 14.68C45.0952 14.5178 45.1301 14.3439 45.1301 14.1684C45.1301 13.9928 45.0952 13.819 45.0275 13.6568C44.9598 13.4946 44.8606 13.3472 44.7355 13.2231C44.6104 13.0989 44.4619 13.0004 44.2985 12.9333C44.1351 12.8661 43.9599 12.8315 43.783 12.8315H2.69414V6.94663H8.64445V9.92616C8.64445 10.2807 8.78638 10.6208 9.039 10.8715C9.29163 11.1222 9.63426 11.263 9.99152 11.263H14.3009C14.6581 11.263 15.0008 11.1222 15.2534 10.8715C15.506 10.6208 15.6479 10.2807 15.6479 9.92616V6.94663H22.5354V9.92616C22.5354 10.2807 22.6773 10.6208 22.9299 10.8715C23.1826 11.1222 23.5252 11.263 23.8825 11.263H28.1931C28.5504 11.263 28.893 11.1222 29.1456 10.8715C29.3982 10.6208 29.5402 10.2807 29.5402 9.92616V6.94663H36.4276V9.92616C36.4276 10.2798 36.5688 10.6191 36.8203 10.8697C37.0718 11.1202 37.4132 11.2617 37.7695 11.263H42.0802C42.4374 11.263 42.7801 11.1222 43.0327 10.8715C43.2853 10.6208 43.4272 10.2807 43.4272 9.92616V6.94663H50.3147V9.92616C50.3147 10.2807 50.4566 10.6208 50.7092 10.8715C50.9619 11.1222 51.3045 11.263 51.6618 11.263H55.9724C56.3296 11.263 56.6723 11.1222 56.9249 10.8715C57.1775 10.6208 57.3195 10.2807 57.3195 9.92616V6.94663H63.3007V12.8315H52.8902C52.533 12.8315 52.1903 12.9723 51.9377 13.2231C51.6851 13.4738 51.5432 13.8138 51.5432 14.1684C51.5432 14.5229 51.6851 14.863 51.9377 15.1137C52.1903 15.3644 52.533 15.5053 52.8902 15.5053H63.3059V51.3261H2.69414Z" fill="#0D6E74"/>
<path d="M48.497 15.5015H48.4132C48.056 15.5015 47.7133 15.3607 47.4607 15.11C47.2081 14.8592 47.0662 14.5192 47.0662 14.1646C47.0662 13.8101 47.2081 13.47 47.4607 13.2193C47.7133 12.9686 48.056 12.8278 48.4132 12.8278H48.497C48.8543 12.8278 49.1969 12.9686 49.4495 13.2193C49.7022 13.47 49.8441 13.8101 49.8441 14.1646C49.8441 14.5192 49.7022 14.8592 49.4495 15.11C49.1969 15.3607 48.8543 15.5015 48.497 15.5015Z" fill="#0D6E74"/>
<path d="M20.5979 25.1821V38.6495H17.5131V29.5574L16.2847 38.6495H14.0933L12.8042 29.7659V38.6495H9.71045V25.1821H14.2763C14.4112 25.9924 14.5504 26.9467 14.694 28.0452L15.1954 31.4713L16.0062 25.1821H20.5979Z" fill="#0D6E74"/>
<path d="M25.3687 31.887H22.1912V31.1437C22.1912 30.2909 22.2904 29.6324 22.4889 29.1685C22.6875 28.7045 23.0858 28.2956 23.6839 27.9416C24.2812 27.5877 25.0576 27.4103 26.0132 27.4094C27.1588 27.4094 28.022 27.6103 28.603 28.012C29.1839 28.4137 29.5324 28.9084 29.6484 29.496C29.7653 30.0811 29.8241 31.2857 29.825 33.1101V38.6495H26.5327V37.6683C26.3602 38.0375 26.0806 38.3473 25.7298 38.5581C25.3789 38.7689 24.9727 38.8711 24.563 38.8516C23.9818 38.8549 23.4134 38.6822 22.9337 38.3565C22.4387 38.0265 22.1912 37.3041 22.1912 36.1894V35.2836C22.1912 34.4572 22.3226 33.8943 22.5856 33.5949C22.8486 33.2956 23.4996 32.9476 24.5385 32.551C25.6497 32.1169 26.2448 31.8256 26.3239 31.6772C26.4012 31.5275 26.4412 31.2218 26.4412 30.7625C26.4412 30.186 26.3982 29.8103 26.3123 29.6354C26.2747 29.5545 26.2134 29.4868 26.1363 29.4411C26.0592 29.3954 25.9701 29.374 25.8805 29.3796C25.651 29.3796 25.5092 29.4525 25.4538 29.5996C25.3984 29.7467 25.37 30.128 25.37 30.7433L25.3687 31.887ZM26.4412 33.4005C25.8985 33.7945 25.5853 34.1246 25.4976 34.3906C25.3978 34.7661 25.3543 35.154 25.3687 35.542C25.3687 36.1143 25.4061 36.4832 25.4809 36.6486C25.5192 36.7325 25.5832 36.8023 25.6636 36.8482C25.7441 36.8941 25.8371 36.9138 25.9294 36.9045C26.1421 36.9045 26.2801 36.8393 26.3445 36.7088C26.409 36.5783 26.4412 36.2367 26.4412 35.6853V33.4005Z" fill="#0D6E74"/>
<path d="M38.5094 27.6116L37.5426 35.5971C37.3897 36.861 37.2608 37.7233 37.1559 38.1839C37.0738 38.5978 36.8974 38.9877 36.6403 39.3237C36.3788 39.6366 36.0305 39.8666 35.6387 39.9851C35.209 40.1259 34.5258 40.1962 33.5891 40.1962H31.5382V38.4359C32.0641 38.4359 32.4027 38.4094 32.554 38.3566C32.6268 38.3324 32.6891 38.2842 32.7304 38.2199C32.7717 38.1556 32.7895 38.0792 32.7808 38.0035C32.7808 37.9152 32.7112 37.5288 32.572 36.8521L30.717 27.6192H33.7915L34.9039 35.0726L35.4492 27.6116H38.5094Z" fill="#0D6E74"/>
<path d="M49.5258 29.7365V34.2282C49.5258 35.2516 49.4699 35.9949 49.3582 36.458C49.2358 36.9428 48.997 37.391 48.6621 37.7642C48.322 38.1609 47.8828 38.4618 47.3885 38.6367C46.8523 38.821 46.2879 38.9115 45.7204 38.9041C45.036 38.9236 44.353 38.8307 43.6992 38.629C43.1967 38.4665 42.7516 38.1647 42.4166 37.7591C42.1119 37.3917 41.8812 36.9695 41.7372 36.5156C41.6032 36.0806 41.5361 35.3889 41.5361 34.4405V29.7365C41.5361 28.5007 41.644 27.5749 41.8597 26.9591C42.0893 26.3256 42.5459 25.7982 43.1423 25.4776C43.7817 25.1066 44.5551 24.9211 45.4626 24.9211C46.1472 24.9085 46.8267 25.0392 47.4568 25.3049C48.0429 25.5608 48.4816 25.8755 48.7729 26.2491C49.062 26.6187 49.2638 27.048 49.3633 27.5054C49.4725 27.9753 49.5266 28.719 49.5258 29.7365ZM46.1394 28.6056C46.1394 27.8909 46.1046 27.4431 46.035 27.2623C45.9641 27.0819 45.8016 26.9923 45.5438 26.9923C45.286 26.9923 45.1262 27.0883 45.045 27.2789C44.9638 27.4695 44.9238 27.9122 44.9238 28.6056V35.1774C44.9238 35.9587 44.9616 36.4299 45.0372 36.5911C45.112 36.7523 45.2757 36.8329 45.5271 36.8329C45.7784 36.8329 45.9434 36.7382 46.0221 36.5501C46.1007 36.3621 46.1394 35.9373 46.1394 35.2772V28.6056Z" fill="#0D6E74"/>
<path d="M56.3179 25.1821V38.6495H52.9328V31.429C52.9328 30.3868 52.9075 29.7604 52.8568 29.5497C52.8302 29.4433 52.7788 29.3445 52.7067 29.2614C52.6346 29.1783 52.5438 29.1131 52.4417 29.0713C52.2166 28.9629 51.7125 28.9088 50.9296 28.9088H50.5945V27.3391C52.2273 26.9894 53.4704 26.2704 54.3237 25.1821H56.3179Z" fill="#0D6E74"/>
</g>
<defs>
<clipPath id="clip0_110_33">
<rect width="66" height="54" fill="white"/>
</clipPath>
</defs>
</svg>
