<svg width="48" height="55" viewBox="0 0 48 55" fill="none" xmlns="http://www.w3.org/2000/svg">
<g clip-path="url(#clip0_212_39)">
<path d="M19.7359 16.9376C19.5179 16.9376 19.3089 17.0222 19.1548 17.1727C19.0006 17.3232 18.9141 17.5273 18.9141 17.7402V18.0612C18.9141 18.274 19.0006 18.4781 19.1548 18.6286C19.3089 18.7791 19.5179 18.8637 19.7359 18.8637C19.9538 18.8637 20.1629 18.7791 20.317 18.6286C20.4711 18.4781 20.5577 18.274 20.5577 18.0612V17.7402C20.5577 17.5273 20.4711 17.3232 20.317 17.1727C20.1629 17.0222 19.9538 16.9376 19.7359 16.9376Z" fill="#0D6E74"/>
<path d="M19.7358 18.9686C19.4889 18.9683 19.2522 18.8724 19.0776 18.7019C18.903 18.5314 18.8047 18.3002 18.8044 18.059V17.738C18.8044 17.4968 18.9026 17.2655 19.0772 17.0949C19.2519 16.9243 19.4888 16.8285 19.7358 16.8285C19.9829 16.8285 20.2198 16.9243 20.3944 17.0949C20.5691 17.2655 20.6672 17.4968 20.6672 17.738V18.059C20.6667 18.3001 20.5684 18.5311 20.3938 18.7015C20.2193 18.872 19.9827 18.968 19.7358 18.9686ZM19.7358 17.0425C19.547 17.0428 19.366 17.1162 19.2325 17.2465C19.099 17.3769 19.0239 17.5536 19.0236 17.738V18.059C19.0236 18.2435 19.0986 18.4204 19.2322 18.5508C19.3658 18.6813 19.5469 18.7546 19.7358 18.7546C19.9247 18.7546 20.1059 18.6813 20.2395 18.5508C20.3731 18.4204 20.4481 18.2435 20.4481 18.059V17.738C20.4472 17.554 20.3718 17.3778 20.2384 17.2479C20.1049 17.118 19.9243 17.0449 19.7358 17.0446V17.0425Z" fill="#0D6E74"/>
<path d="M18.1711 15.8077L20.8262 16.1715C20.8646 16.177 20.9035 16.1799 20.9423 16.1801C21.1504 16.1795 21.3504 16.1019 21.5022 15.9629C21.6539 15.8239 21.746 15.6339 21.7599 15.4312C21.7738 15.2285 21.7085 15.0282 21.5771 14.8707C21.4457 14.7132 21.258 14.6102 21.0519 14.5825L18.3958 14.2144C18.1794 14.1853 17.9601 14.2414 17.786 14.3702C17.612 14.499 17.4974 14.6901 17.4677 14.9014C17.4379 15.1127 17.4953 15.3269 17.6272 15.4968C17.7591 15.6668 17.9548 15.7786 18.1711 15.8077Z" fill="#0D6E74"/>
<path d="M20.9389 16.2871C20.8953 16.2869 20.8518 16.2841 20.8085 16.2785L18.1524 15.9136C17.9698 15.8889 17.7989 15.8118 17.6613 15.6921C17.5237 15.5724 17.4256 15.4154 17.3795 15.2412C17.3333 15.067 17.3412 14.8833 17.4022 14.7134C17.4631 14.5436 17.5743 14.3952 17.7217 14.2872C17.819 14.2149 17.9301 14.1622 18.0484 14.1323C18.1667 14.1023 18.29 14.0957 18.411 14.1128L21.0671 14.4766C21.3116 14.5103 21.5325 14.6374 21.681 14.83C21.8296 15.0227 21.8937 15.265 21.8594 15.5038C21.8276 15.7204 21.7171 15.9187 21.5482 16.0625C21.3792 16.2062 21.163 16.286 20.9389 16.2871ZM18.2806 14.3214C18.1014 14.3233 17.9295 14.391 17.7992 14.5112C17.6688 14.6314 17.5897 14.7951 17.5775 14.9697C17.5654 15.1443 17.6211 15.317 17.7335 15.4533C17.8459 15.5895 18.0069 15.6794 18.1842 15.705L20.8392 16.0688C21.0261 16.0936 21.2154 16.0453 21.366 15.9345C21.5166 15.8237 21.6163 15.6593 21.6435 15.4771C21.6697 15.2944 21.6207 15.1091 21.507 14.9619C21.3934 14.8146 21.2245 14.7174 21.0375 14.6917L18.3803 14.3214C18.3471 14.3193 18.3138 14.3193 18.2806 14.3214Z" fill="#0D6E74"/>
<path d="M28.252 16.9376C28.034 16.9376 27.825 17.0222 27.6709 17.1727C27.5168 17.3232 27.4302 17.5273 27.4302 17.7402V18.0612C27.4302 18.274 27.5168 18.4781 27.6709 18.6286C27.825 18.7791 28.034 18.8637 28.252 18.8637C28.47 18.8637 28.679 18.7791 28.8331 18.6286C28.9872 18.4781 29.0738 18.274 29.0738 18.0612V17.7402C29.0738 17.5273 28.9872 17.3232 28.8331 17.1727C28.679 17.0222 28.47 16.9376 28.252 16.9376Z" fill="#0D6E74"/>
<path d="M28.2522 18.9686C28.0053 18.9683 27.7685 18.8724 27.5939 18.7019C27.4193 18.5314 27.3211 18.3002 27.3208 18.059V17.738C27.3208 17.4968 27.4189 17.2655 27.5936 17.0949C27.7683 16.9243 28.0052 16.8285 28.2522 16.8285C28.4992 16.8285 28.7361 16.9243 28.9108 17.0949C29.0855 17.2655 29.1836 17.4968 29.1836 17.738V18.059C29.183 18.3001 29.0847 18.5311 28.9102 18.7015C28.7356 18.872 28.499 18.968 28.2522 18.9686ZM28.2522 17.0425C28.0634 17.0428 27.8824 17.1162 27.7489 17.2465C27.6154 17.3769 27.5402 17.5536 27.54 17.738V18.059C27.54 18.2435 27.615 18.4204 27.7486 18.5508C27.8821 18.6813 28.0633 18.7546 28.2522 18.7546C28.4411 18.7546 28.6223 18.6813 28.7558 18.5508C28.8894 18.4204 28.9644 18.2435 28.9644 18.059V17.738C28.9636 17.554 28.8882 17.3778 28.7547 17.2479C28.6213 17.118 28.4406 17.0449 28.2522 17.0446V17.0425Z" fill="#0D6E74"/>
<path d="M27.0467 16.18C27.0856 16.1798 27.1244 16.1769 27.1629 16.1715L29.8179 15.8076C29.925 15.793 30.0281 15.7578 30.1214 15.7042C30.2146 15.6506 30.2961 15.5796 30.3612 15.4952C30.4263 15.4109 30.4738 15.3148 30.5009 15.2126C30.528 15.1103 30.5342 15.0038 30.5192 14.8992C30.5041 14.7946 30.4682 14.6939 30.4133 14.6028C30.3584 14.5118 30.2857 14.4322 30.1993 14.3686C30.1129 14.305 30.0145 14.2587 29.9098 14.2322C29.8051 14.2057 29.696 14.1997 29.5889 14.2144L26.9371 14.5824C26.731 14.6101 26.5434 14.7131 26.412 14.8706C26.2806 15.0281 26.2152 15.2284 26.2291 15.4311C26.243 15.6338 26.3351 15.8238 26.4869 15.9628C26.6386 16.1018 26.8387 16.1794 27.0467 16.18Z" fill="#0D6E74"/>
<path d="M27.0467 16.287C26.8226 16.2859 26.6064 16.2062 26.4374 16.0624C26.2685 15.9187 26.158 15.7204 26.1263 15.5038C26.0919 15.265 26.156 15.0226 26.3046 14.83C26.4532 14.6374 26.674 14.5102 26.9185 14.4765L29.5746 14.1127C29.6972 14.0929 29.8227 14.0972 29.9435 14.1254C30.0644 14.1536 30.1783 14.2051 30.2784 14.277C30.3786 14.3488 30.463 14.4395 30.5267 14.5437C30.5905 14.6479 30.6322 14.7635 30.6494 14.8837C30.6667 15.0039 30.6591 15.1262 30.6272 15.2435C30.5953 15.3608 30.5397 15.4707 30.4636 15.5666C30.3876 15.6626 30.2926 15.7428 30.1844 15.8024C30.0761 15.8619 29.9567 15.8998 29.8332 15.9136L27.1782 16.2785C27.1346 16.284 27.0907 16.2869 27.0467 16.287ZM29.7039 14.3214C29.6706 14.3218 29.6373 14.3243 29.6042 14.3289L26.9481 14.6927C26.8538 14.7035 26.7628 14.7326 26.6802 14.7783C26.5976 14.824 26.5252 14.8853 26.4673 14.9587C26.4093 15.032 26.367 15.116 26.3427 15.2056C26.3184 15.2951 26.3127 15.3886 26.3259 15.4803C26.3392 15.5721 26.371 15.6603 26.4197 15.7399C26.4683 15.8195 26.5327 15.8888 26.6091 15.9437C26.6856 15.9986 26.7725 16.038 26.8647 16.0597C26.957 16.0814 27.0528 16.0848 27.1464 16.0698L29.8015 15.706C29.9804 15.6821 30.1434 15.5927 30.2574 15.4559C30.3714 15.3191 30.4279 15.1451 30.4155 14.9692C30.4031 14.7932 30.3227 14.6284 30.1906 14.5082C30.0585 14.3879 29.8845 14.3211 29.7039 14.3214Z" fill="#0D6E74"/>
<path d="M22.9322 27.9334H25.0656C25.2836 27.9334 25.4926 27.8489 25.6467 27.6984C25.8009 27.5479 25.8875 27.3437 25.8875 27.1309C25.8875 26.9181 25.8009 26.7139 25.6467 26.5634C25.4926 26.4129 25.2836 26.3284 25.0656 26.3284H22.9322C22.7142 26.3284 22.5052 26.4129 22.3511 26.5634C22.1969 26.7139 22.1104 26.9181 22.1104 27.1309C22.1104 27.3437 22.1969 27.5479 22.3511 27.6984C22.5052 27.8489 22.7142 27.9334 22.9322 27.9334Z" fill="#0D6E74"/>
<path d="M25.0656 28.0404H22.9321C22.6851 28.0404 22.4482 27.9446 22.2735 27.774C22.0989 27.6034 22.0007 27.3721 22.0007 27.1308C22.0007 26.8896 22.0989 26.6583 22.2735 26.4877C22.4482 26.3171 22.6851 26.2213 22.9321 26.2213H25.0656C25.3126 26.2213 25.5495 26.3171 25.7242 26.4877C25.8989 26.6583 25.997 26.8896 25.997 27.1308C25.997 27.3721 25.8989 27.6034 25.7242 27.774C25.5495 27.9446 25.3126 28.0404 25.0656 28.0404ZM22.9321 26.4353C22.7432 26.4353 22.5621 26.5086 22.4285 26.639C22.2949 26.7695 22.2199 26.9464 22.2199 27.1308C22.2199 27.3153 22.2949 27.4922 22.4285 27.6227C22.5621 27.7531 22.7432 27.8264 22.9321 27.8264H25.0656C25.2545 27.8264 25.4357 27.7531 25.5692 27.6227C25.7028 27.4922 25.7778 27.3153 25.7778 27.1308C25.7778 26.9464 25.7028 26.7695 25.5692 26.639C25.4357 26.5086 25.2545 26.4353 25.0656 26.4353H22.9321Z" fill="#0D6E74"/>
<path d="M22.9322 25.2519H25.0656C25.2836 25.2519 25.4926 25.1674 25.6467 25.0169C25.8009 24.8663 25.8875 24.6622 25.8875 24.4494C25.8875 24.2365 25.8009 24.0324 25.6467 23.8819C25.4926 23.7314 25.2836 23.6469 25.0656 23.6469H22.9322C22.7142 23.6469 22.5052 23.7314 22.3511 23.8819C22.1969 24.0324 22.1104 24.2365 22.1104 24.4494C22.1104 24.6622 22.1969 24.8663 22.3511 25.0169C22.5052 25.1674 22.7142 25.2519 22.9322 25.2519Z" fill="#0D6E74"/>
<path d="M25.0656 25.3589H22.9321C22.6851 25.3589 22.4482 25.263 22.2735 25.0925C22.0989 24.9219 22.0007 24.6906 22.0007 24.4493C22.0007 24.2081 22.0989 23.9768 22.2735 23.8062C22.4482 23.6356 22.6851 23.5398 22.9321 23.5398H25.0656C25.3126 23.5398 25.5495 23.6356 25.7242 23.8062C25.8989 23.9768 25.997 24.2081 25.997 24.4493C25.997 24.6906 25.8989 24.9219 25.7242 25.0925C25.5495 25.263 25.3126 25.3589 25.0656 25.3589ZM22.9321 23.7538C22.7432 23.7538 22.5621 23.8271 22.4285 23.9575C22.2949 24.088 22.2199 24.2649 22.2199 24.4493C22.2199 24.6338 22.2949 24.8107 22.4285 24.9411C22.5621 25.0716 22.7432 25.1449 22.9321 25.1449H25.0656C25.2545 25.1449 25.4357 25.0716 25.5692 24.9411C25.7028 24.8107 25.7778 24.6338 25.7778 24.4493C25.7778 24.2649 25.7028 24.088 25.5692 23.9575C25.4357 23.8271 25.2545 23.7538 25.0656 23.7538H22.9321Z" fill="#0D6E74"/>
<path d="M27.0984 42.5491C27.0986 43.5517 27.4033 44.5318 27.9739 45.3654C28.5445 46.199 29.3554 46.8487 30.3041 47.2322C31.2528 47.6158 32.2966 47.716 33.3037 47.5203C34.3107 47.3246 35.2357 46.8416 35.9616 46.1325C36.6876 45.4235 37.1819 44.5201 37.3822 43.5367C37.5824 42.5533 37.4795 41.5339 37.0866 40.6076C36.6936 39.6813 36.0281 38.8895 35.1744 38.3325C34.3206 37.7755 33.3169 37.4781 32.2901 37.4781C30.9134 37.4796 29.5936 38.0143 28.6202 38.965C27.6469 39.9157 27.0995 41.2047 27.0984 42.5491ZM35.8382 42.5491C35.838 43.2343 35.6297 43.9041 35.2397 44.4737C34.8497 45.0433 34.2955 45.4873 33.6472 45.7493C32.9988 46.0114 32.2854 46.0799 31.5973 45.9461C30.9091 45.8123 30.277 45.4822 29.7809 44.9976C29.2848 44.513 28.9469 43.8956 28.8101 43.2235C28.6733 42.5515 28.7436 41.8549 29.0122 41.2218C29.2808 40.5888 29.7356 40.0477 30.319 39.6671C30.9025 39.2864 31.5884 39.0832 32.2901 39.0832C33.231 39.0843 34.1329 39.4499 34.7981 40.0997C35.4633 40.7494 35.8373 41.6303 35.8382 42.5491Z" fill="#0D6E74"/>
<path d="M32.2901 47.7258C31.2413 47.726 30.216 47.4225 29.3438 46.8536C28.4717 46.2848 27.7919 45.4761 27.3904 44.5299C26.9889 43.5837 26.8838 42.5425 27.0884 41.538C27.293 40.5335 27.798 39.6108 28.5396 38.8866C29.2812 38.1624 30.2261 37.6692 31.2548 37.4694C32.2835 37.2697 33.3497 37.3723 34.3186 37.7644C35.2876 38.1564 36.1157 38.8202 36.6982 39.6719C37.2808 40.5236 37.5916 41.5248 37.5914 42.549C37.5899 43.9215 37.0309 45.2375 36.0371 46.208C35.0432 47.1785 33.6956 47.7244 32.2901 47.7258ZM32.2901 37.5851C31.2847 37.5849 30.3018 37.8758 29.4657 38.4211C28.6296 38.9664 27.9779 39.7416 27.593 40.6486C27.2081 41.5557 27.1073 42.5538 27.3033 43.5167C27.4993 44.4797 27.9833 45.3643 28.6942 46.0586C29.4051 46.7529 30.3108 47.2258 31.2969 47.4174C32.283 47.6091 33.3051 47.5108 34.234 47.1351C35.1629 46.7595 35.9569 46.1232 36.5155 45.3069C37.0741 44.4906 37.3722 43.5308 37.3722 42.549C37.3708 41.2331 36.8349 39.9715 35.8822 39.0409C34.9294 38.1103 33.6376 37.5868 32.2901 37.5851ZM32.2901 46.1208C31.5664 46.121 30.8588 45.9116 30.257 45.5191C29.6551 45.1266 29.186 44.5686 28.9089 43.9157C28.6319 43.2628 28.5593 42.5443 28.7005 41.8511C28.8416 41.158 29.1901 40.5213 29.7018 40.0215C30.2136 39.5218 30.8656 39.1815 31.5755 39.0437C32.2853 38.9058 33.021 38.9767 33.6896 39.2472C34.3582 39.5178 34.9296 39.9759 35.3316 40.5636C35.7335 41.1513 35.948 41.8423 35.9477 42.549C35.9466 43.4959 35.5609 44.4038 34.8752 45.0734C34.1895 45.743 33.2598 46.1196 32.2901 46.1208ZM32.2901 39.1901C31.6097 39.1899 30.9446 39.3867 30.3788 39.7557C29.8131 40.1246 29.372 40.6491 29.1115 41.2629C28.851 41.8766 28.7827 42.552 28.9153 43.2036C29.0479 43.8552 29.3754 44.4538 29.8564 44.9237C30.3374 45.3935 30.9503 45.7135 31.6175 45.8432C32.2848 45.9729 32.9764 45.9065 33.605 45.6523C34.2336 45.3981 34.7708 44.9676 35.1488 44.4152C35.5268 43.8628 35.7286 43.2134 35.7286 42.549C35.7277 41.6586 35.3652 40.8049 34.7206 40.1752C34.076 39.5455 33.2019 39.1913 32.2901 39.1901Z" fill="#0D6E74"/>
<path d="M31.4683 41.0862V41.7464H30.7933C30.5753 41.7464 30.3663 41.831 30.2121 41.9815C30.058 42.132 29.9714 42.3361 29.9714 42.549C29.9714 42.7618 30.058 42.9659 30.2121 43.1164C30.3663 43.2669 30.5753 43.3515 30.7933 43.3515H31.4683V44.0074C31.4683 44.2203 31.5548 44.4244 31.709 44.5749C31.8631 44.7254 32.0721 44.81 32.2901 44.81C32.508 44.81 32.7171 44.7254 32.8712 44.5749C33.0253 44.4244 33.1119 44.2203 33.1119 44.0074V43.3515H33.7869C34.0049 43.3515 34.2139 43.2669 34.368 43.1164C34.5221 42.9659 34.6087 42.7618 34.6087 42.549C34.6087 42.3361 34.5221 42.132 34.368 41.9815C34.2139 41.831 34.0049 41.7464 33.7869 41.7464H33.1119V41.0862C33.1119 40.8734 33.0253 40.6693 32.8712 40.5187C32.7171 40.3682 32.508 40.2837 32.2901 40.2837C32.0721 40.2837 31.8631 40.3682 31.709 40.5187C31.5548 40.6693 31.4683 40.8734 31.4683 41.0862Z" fill="#0D6E74"/>
<path d="M32.29 44.917C32.0431 44.9167 31.8064 44.8208 31.6318 44.6503C31.4571 44.4798 31.3589 44.2486 31.3586 44.0075V43.4586H30.7932C30.5462 43.4586 30.3093 43.3627 30.1346 43.1922C29.9599 43.0216 29.8618 42.7903 29.8618 42.549C29.8618 42.3078 29.9599 42.0765 30.1346 41.9059C30.3093 41.7353 30.5462 41.6395 30.7932 41.6395H31.3586V41.0863C31.3586 40.8451 31.4568 40.6137 31.6314 40.4432C31.8061 40.2726 32.043 40.1768 32.29 40.1768C32.5371 40.1768 32.774 40.2726 32.9486 40.4432C33.1233 40.6137 33.2214 40.8451 33.2214 41.0863V41.6395H33.7868C34.0339 41.6395 34.2708 41.7353 34.4454 41.9059C34.6201 42.0765 34.7182 42.3078 34.7182 42.549C34.7182 42.7903 34.6201 43.0216 34.4454 43.1922C34.2708 43.3627 34.0339 43.4586 33.7868 43.4586H33.2214V44.0075C33.2211 44.2486 33.1229 44.4798 32.9483 44.6503C32.7737 44.8208 32.537 44.9167 32.29 44.917ZM30.7932 41.8535C30.6043 41.8535 30.4232 41.9268 30.2896 42.0572C30.156 42.1877 30.081 42.3646 30.081 42.549C30.081 42.7335 30.156 42.9104 30.2896 43.0408C30.4232 43.1713 30.6043 43.2446 30.7932 43.2446H31.5778V44.0075C31.5778 44.192 31.6528 44.3689 31.7864 44.4993C31.92 44.6297 32.1011 44.703 32.29 44.703C32.4789 44.703 32.6601 44.6297 32.7937 44.4993C32.9272 44.3689 33.0023 44.192 33.0023 44.0075V43.2446H33.7868C33.9757 43.2446 34.1569 43.1713 34.2905 43.0408C34.4241 42.9104 34.4991 42.7335 34.4991 42.549C34.4991 42.3646 34.4241 42.1877 34.2905 42.0572C34.1569 41.9268 33.9757 41.8535 33.7868 41.8535H33.0023V41.0863C33.0023 40.9018 32.9272 40.7249 32.7937 40.5945C32.6601 40.464 32.4789 40.3908 32.29 40.3908C32.1011 40.3908 31.92 40.464 31.7864 40.5945C31.6528 40.7249 31.5778 40.9018 31.5778 41.0863V41.8535H30.7932Z" fill="#0D6E74"/>
<path d="M45.9959 38.1437C45.9362 38.0558 45.8595 37.9803 45.7699 37.9213C45.6804 37.8624 45.5798 37.8213 45.474 37.8003C45.3682 37.7794 45.2591 37.779 45.1532 37.7991C45.0472 37.8193 44.9463 37.8597 44.8563 37.9179C44.7663 37.9762 44.6889 38.0512 44.6286 38.1386C44.5682 38.2261 44.5261 38.3243 44.5047 38.4276C44.4832 38.5309 44.4828 38.6374 44.5034 38.7409C44.5241 38.8444 44.5654 38.9429 44.6251 39.0308C45.6866 40.5702 46.2515 42.3849 46.2468 44.2408V53.2869H39.4827V48.3144C39.4827 48.1016 39.3961 47.8975 39.242 47.747C39.0878 47.5965 38.8788 47.5119 38.6608 47.5119C38.4429 47.5119 38.2338 47.5965 38.0797 47.747C37.9256 47.8975 37.839 48.1016 37.839 48.3144V53.2869H24.8224V35.9951C26.4299 35.857 29.0192 35.3991 30.321 33.8946C30.3944 33.8147 30.4507 33.7212 30.4864 33.6196C30.5222 33.5181 30.5367 33.4106 30.5291 33.3034C30.5216 33.1963 30.4921 33.0918 30.4424 32.996C30.3927 32.9002 30.3238 32.8151 30.2398 32.7458C30.1559 32.6764 30.0585 32.6243 29.9535 32.5924C29.8485 32.5605 29.738 32.5494 29.6286 32.56C29.5192 32.5705 29.413 32.6024 29.3164 32.6537C29.2199 32.7051 29.1348 32.7748 29.0663 32.8588C28.3913 33.6378 26.8047 34.1995 24.8224 34.3847V30.8535H25.6092C28.1696 30.8507 30.6242 29.8561 32.4345 28.0879C34.2447 26.3197 35.2627 23.9225 35.2651 21.4222V17.9703C35.2651 17.8194 35.2574 17.6642 35.2431 17.493H38.7584V20.4763C38.7584 26.3786 37.1388 29.0816 34.5265 31.5298C34.4201 31.6291 34.343 31.7544 34.3033 31.8928C34.2635 32.0311 34.2626 32.1773 34.3006 32.3161C34.3385 32.455 34.414 32.5812 34.5191 32.6818C34.6242 32.7823 34.7551 32.8535 34.898 32.8877C37.5936 33.5372 40.2672 34.8394 42.2396 36.4595C42.4064 36.5965 42.6222 36.6633 42.8394 36.645C43.0566 36.6268 43.2575 36.525 43.3978 36.3621C43.5382 36.1992 43.6065 35.9885 43.5878 35.7764C43.5691 35.5643 43.4649 35.3681 43.2981 35.2311C41.4737 33.733 39.1035 32.4832 36.6424 31.7064C38.9337 29.2335 40.4009 26.1539 40.4009 20.4709V16.6188C40.4009 11.6966 38.7332 7.49993 35.5795 4.48884C32.621 1.6618 28.5042 0.101685 23.9995 0.101685C19.3403 0.101685 15.1315 1.75275 12.1477 4.74993C12.0713 4.82529 12.011 4.91469 11.9702 5.01294C11.9294 5.1112 11.909 5.21638 11.9101 5.3224C11.9111 5.42842 11.9337 5.53318 11.9765 5.63063C12.0193 5.72808 12.0814 5.81628 12.1593 5.89015C12.2372 5.96402 12.3293 6.02208 12.4303 6.06099C12.5313 6.09989 12.6392 6.11887 12.7477 6.11683C12.8563 6.11478 12.9633 6.09174 13.0627 6.04905C13.1621 6.00637 13.2518 5.94488 13.3267 5.86813C15.9993 3.18554 19.7918 1.70674 24.0006 1.70674C32.4457 1.70674 38.4143 7.49886 38.743 15.8837H35.2651V14.4188C35.2651 13.1497 34.5539 12.6607 33.6214 12.2787L34.2011 11.4923C34.2641 11.4067 34.3092 11.3098 34.3339 11.2072C34.3586 11.1046 34.3624 10.9982 34.345 10.8942C34.3276 10.7902 34.2894 10.6905 34.2325 10.6009C34.1757 10.5113 34.1013 10.4335 34.0137 10.3719C33.9261 10.3104 33.8269 10.2663 33.7218 10.2422C33.6167 10.2181 33.5078 10.2144 33.4013 10.2314C33.2947 10.2484 33.1927 10.2857 33.1009 10.3412C33.0091 10.3967 32.9295 10.4693 32.8664 10.5549L32.0227 11.6998C31.0969 11.4339 30.1529 11.2326 29.1978 11.0974L29.4882 9.65607C29.5303 9.4472 29.4858 9.23053 29.3643 9.05374C29.2429 8.87695 29.0545 8.75451 28.8406 8.71336C28.6267 8.67221 28.4048 8.71572 28.2238 8.83432C28.0427 8.95291 27.9174 9.13688 27.8752 9.34575L27.5618 10.9016C26.6721 10.8181 25.7494 10.7668 24.8224 10.7475V9.1264C24.8224 8.91355 24.7358 8.70943 24.5817 8.55892C24.4276 8.40842 24.2186 8.32387 24.0006 8.32387C23.7826 8.32387 23.5736 8.40842 23.4195 8.55892C23.2654 8.70943 23.1788 8.91355 23.1788 9.1264V10.7496C22.2496 10.7678 21.3291 10.8192 20.4394 10.9027L20.126 9.34682C20.1051 9.2434 20.0636 9.14501 20.0038 9.05725C19.944 8.9695 19.867 8.89411 19.7774 8.83539C19.6878 8.77666 19.5872 8.73576 19.4813 8.715C19.3755 8.69425 19.2665 8.69405 19.1606 8.71443C19.0547 8.7348 18.9539 8.77535 18.8641 8.83376C18.7742 8.89216 18.697 8.96727 18.6369 9.05481C18.5154 9.2316 18.4709 9.44826 18.513 9.65713L18.8034 11.0985C17.9183 11.2264 17.0424 11.4094 16.1812 11.6463L15.2465 10.3783C15.1848 10.2898 15.1055 10.2142 15.0133 10.156C14.9212 10.0978 14.818 10.0583 14.7099 10.0397C14.6019 10.0211 14.4911 10.0238 14.3841 10.0476C14.2772 10.0715 14.1762 10.1161 14.0871 10.1787C13.998 10.2413 13.9227 10.3206 13.8656 10.4121C13.8084 10.5036 13.7707 10.6053 13.7544 10.7113C13.7382 10.8173 13.7439 10.9254 13.7711 11.0292C13.7983 11.133 13.8466 11.2304 13.913 11.3157L14.5704 12.2081C13.5481 12.603 12.7394 13.0641 12.7394 14.4231V15.8923H9.25378C9.3524 13.2482 9.98466 10.8631 11.1396 8.78184C11.1916 8.68924 11.2244 8.58754 11.2362 8.48254C11.248 8.37755 11.2385 8.27132 11.2082 8.16992C11.1779 8.06853 11.1275 7.97394 11.0598 7.89157C10.9921 7.80921 10.9084 7.74067 10.8136 7.68987C10.7188 7.63907 10.6146 7.60701 10.5071 7.59552C10.3996 7.58402 10.2908 7.59332 10.187 7.62288C10.0831 7.65244 9.98628 7.70168 9.90193 7.7678C9.81758 7.83391 9.74739 7.9156 9.69538 8.0082C8.30156 10.5142 7.59589 13.4098 7.59589 16.6177V20.4699C7.59589 26.1475 9.06202 29.226 11.3533 31.6967C5.55776 33.5051 0.109619 37.903 0.109619 44.2344V54.0787C0.109619 54.2916 0.196204 54.4957 0.350326 54.6462C0.504448 54.7967 0.713482 54.8813 0.931443 54.8813H47.0686C47.2866 54.8813 47.4956 54.7967 47.6498 54.6462C47.8039 54.4957 47.8905 54.2916 47.8905 54.0787V44.2344C47.8969 42.0621 47.237 39.9378 45.9959 38.1352V38.1437ZM14.3831 14.4188C14.3831 14.0154 14.3831 13.9833 15.5994 13.5382C15.7867 13.4697 15.9905 13.3959 16.2097 13.3113C20.2235 12.0273 27.7799 12.0273 31.7937 13.3113C32.0128 13.3959 32.2166 13.4697 32.404 13.5382C33.6214 13.9833 33.6214 14.0154 33.6214 14.4188V16.6969C33.6214 17.981 33.159 19.0981 32.2868 19.9424C31.3602 20.8132 30.1211 21.2949 28.8351 21.2842H28.7814C26.626 21.2649 26.2392 20.793 25.7023 20.1392C25.499 19.8925 25.2415 19.6935 24.9489 19.557C24.6562 19.4205 24.3359 19.3499 24.0116 19.3506H23.9896C23.6649 19.3506 23.3443 19.422 23.0518 19.5597C22.7593 19.6973 22.5023 19.8976 22.3 20.1457C21.7641 20.7973 21.3773 21.2692 19.2209 21.2885H19.1672C17.8819 21.299 16.6435 20.8173 15.7177 19.9466C14.9832 19.2359 14.5239 18.2984 14.4181 17.294C14.4165 17.265 14.4132 17.236 14.4083 17.2073C14.3918 17.0415 14.3831 16.8735 14.3831 16.7012V14.4188ZM14.3831 20.899C14.4422 20.961 14.5025 21.0231 14.5639 21.083C15.7976 22.2487 17.4494 22.897 19.1661 22.8892H19.2362C21.717 22.8668 22.6451 22.2836 23.5798 21.1472C23.629 21.0873 23.6914 21.039 23.7624 21.0058C23.8333 20.9726 23.911 20.9555 23.9896 20.9557H24.0105C24.0894 20.9559 24.1673 20.9734 24.2384 21.007C24.3095 21.0405 24.3721 21.0891 24.4214 21.1494C25.3571 22.2879 26.2842 22.871 28.7661 22.8935H28.8362C30.5529 22.9013 32.2047 22.253 33.4384 21.0873C33.4998 21.0284 33.5579 20.9674 33.617 20.9054V21.4265C33.6147 23.5009 32.7698 25.4897 31.2677 26.9565C29.7657 28.4233 27.7291 29.2484 25.6048 29.2506H22.3909C20.2668 29.2481 18.2305 28.4229 16.7287 26.9561C15.2268 25.4893 14.3821 23.5007 14.3798 21.4265V20.9032L14.3831 20.899ZM23.1821 34.3815C21.1965 34.1963 19.611 33.6324 18.9382 32.8556C18.7976 32.6928 18.5967 32.5912 18.3795 32.5732C18.1623 32.5551 17.9466 32.6221 17.7799 32.7593C17.6133 32.8965 17.5092 33.0927 17.4907 33.3048C17.4723 33.517 17.5408 33.7276 17.6813 33.8903C18.9776 35.4012 21.568 35.857 23.1788 35.9951V53.2869H9.70852V48.3144C9.70852 48.1016 9.62194 47.8975 9.46782 47.747C9.3137 47.5965 9.10466 47.5119 8.8867 47.5119C8.66874 47.5119 8.4597 47.5965 8.30558 47.747C8.15146 47.8975 8.06488 48.1016 8.06488 48.3144V53.2869H1.75327V44.2408C1.75327 37.4353 8.8867 33.9021 13.1021 32.8877C13.245 32.8533 13.3758 32.782 13.4809 32.6813C13.5859 32.5807 13.6614 32.4543 13.6993 32.3155C13.7373 32.1766 13.7364 32.0303 13.6967 31.8919C13.6569 31.7536 13.5799 31.6281 13.4736 31.5287C10.8591 29.088 9.23954 26.3808 9.23954 20.4763V17.493H12.7558C12.7427 17.6471 12.7361 17.8044 12.7361 17.9703V21.4222C12.739 23.9219 13.7571 26.3185 15.5671 28.0861C17.377 29.8538 19.8311 30.8483 22.3909 30.8514H23.1788L23.1821 34.3815Z" fill="#0D6E74"/>
<path d="M47.0685 55.0001H0.936772C0.689927 54.9995 0.453358 54.9035 0.278811 54.733C0.104265 54.5626 0.00594986 54.3316 0.00537109 54.0905V44.2408C0.00537109 41.2907 1.21071 38.5108 3.48443 36.2016C5.42174 34.2306 8.14362 32.6191 11.1581 31.6561C9.32266 29.6401 7.48507 26.7093 7.48507 20.4795V16.6274C7.48507 13.4023 8.19512 10.4886 9.5977 7.96757C9.6554 7.86146 9.73406 7.76756 9.82913 7.69131C9.9242 7.61505 10.0338 7.55794 10.1516 7.52328C10.2694 7.48862 10.3931 7.47709 10.5155 7.48936C10.6379 7.50163 10.7565 7.53747 10.8647 7.59478C10.9728 7.6521 11.0682 7.72978 11.1454 7.82331C11.2227 7.91685 11.2801 8.02439 11.3145 8.13974C11.3489 8.25509 11.3596 8.37595 11.3459 8.49535C11.3322 8.61475 11.2945 8.73031 11.2348 8.83537C10.1061 10.8684 9.48155 13.2033 9.36649 15.7906H12.6286V14.4188C12.6286 13.0278 13.4844 12.5217 14.3982 12.1557L13.8219 11.3735C13.6784 11.1775 13.6202 10.9339 13.66 10.6961C13.6998 10.4583 13.8345 10.2456 14.0345 10.1044C14.1338 10.0346 14.2462 9.98457 14.3654 9.95721C14.4845 9.92985 14.6081 9.92569 14.7289 9.94497C14.8496 9.96425 14.9654 10.0066 15.0694 10.0696C15.1734 10.1326 15.2637 10.2149 15.3351 10.312L16.2238 11.519C17.0291 11.302 17.8469 11.1319 18.6728 11.0097L18.4044 9.67749C18.3589 9.44169 18.4107 9.19791 18.5485 8.99924C18.6863 8.80058 18.8989 8.66313 19.14 8.61683C19.3811 8.57054 19.6311 8.61915 19.8357 8.75208C20.0402 8.885 20.1827 9.09147 20.2321 9.32652L20.528 10.7903C21.3476 10.7154 22.2012 10.6683 23.069 10.648V9.12642C23.069 8.8852 23.1672 8.65385 23.3418 8.48328C23.5165 8.31271 23.7534 8.21689 24.0004 8.21689C24.2475 8.21689 24.4844 8.31271 24.659 8.48328C24.8337 8.65385 24.9318 8.8852 24.9318 9.12642V10.6448C25.7997 10.6641 26.6544 10.7122 27.4762 10.7871L27.7699 9.32652C27.8053 9.14992 27.8936 8.98756 28.0236 8.85999C28.1536 8.73242 28.3194 8.64537 28.5001 8.60986C28.6807 8.57435 28.8681 8.59196 29.0385 8.66049C29.2089 8.72901 29.3547 8.84536 29.4574 8.9948C29.5259 9.09382 29.5737 9.20518 29.5977 9.32238C29.6218 9.43959 29.6218 9.5603 29.5976 9.67749L29.3291 11.0097C30.2254 11.1407 31.1117 11.3302 31.982 11.5768L32.7797 10.4939C32.9262 10.3043 33.143 10.1781 33.3835 10.1425C33.6241 10.1068 33.8693 10.1645 34.0669 10.3032C34.2645 10.4418 34.3986 10.6505 34.4406 10.8845C34.4827 11.1186 34.4293 11.3593 34.2919 11.5554L33.7922 12.2338C34.7466 12.6479 35.3745 13.1968 35.3745 14.4188V15.781H38.6289C38.4459 11.7362 36.9644 8.2629 34.3379 5.73225C31.6829 3.17165 28.1085 1.81912 24.0004 1.81912C19.819 1.81912 16.0561 3.28508 13.4055 5.94733C13.3201 6.03355 13.218 6.10227 13.1051 6.14949C12.9922 6.19671 12.8708 6.22148 12.748 6.22233C12.5031 6.22322 12.2673 6.13114 12.0906 5.96552C11.9144 5.79732 11.8135 5.56785 11.81 5.32725C11.8065 5.08665 11.9007 4.85448 12.0719 4.68148C15.0765 1.66397 19.3139 0.00219727 24.0026 0.00219727C28.5369 0.00219727 32.6767 1.56981 35.6594 4.41718C38.8371 7.4486 40.5136 11.6688 40.5136 16.6231V20.4753C40.5136 26.705 38.6749 29.6369 36.8395 31.6539C39.2721 32.4436 41.5853 33.6806 43.3714 35.1487C43.4696 35.2241 43.5512 35.318 43.6115 35.4249C43.6717 35.5317 43.7093 35.6493 43.7221 35.7706C43.7349 35.892 43.7225 36.0146 43.6858 36.1312C43.649 36.2477 43.5886 36.3559 43.5082 36.4492C43.4278 36.5426 43.329 36.6191 43.2176 36.6744C43.1063 36.7297 42.9847 36.7625 42.8601 36.771C42.7355 36.7794 42.6104 36.7633 42.4923 36.7236C42.3742 36.6838 42.2655 36.6213 42.1726 36.5397C40.2134 34.9347 37.5529 33.6367 34.8737 32.9904C34.712 32.9512 34.564 32.8704 34.4451 32.7563C34.3262 32.6423 34.2408 32.4992 34.1977 32.342C34.1547 32.1848 34.1555 32.0192 34.2002 31.8625C34.2449 31.7057 34.3318 31.5635 34.4518 31.4506C37.0444 29.0227 38.6508 26.3401 38.6508 20.4753V17.6001H35.3635C35.3723 17.7317 35.3767 17.8537 35.3767 17.9703V21.4222C35.3738 23.9505 34.344 26.3744 32.5132 28.1622C30.6825 29.95 28.2003 30.9556 25.6112 30.9584H24.9318V34.267C26.8385 34.0722 28.3473 33.5233 28.9862 32.7893C29.0653 32.6979 29.1621 32.6227 29.271 32.5679C29.3799 32.5131 29.4988 32.4798 29.6209 32.4698C29.743 32.4599 29.8659 32.4735 29.9826 32.51C30.0993 32.5464 30.2076 32.605 30.3011 32.6823C30.3946 32.7595 30.4717 32.8541 30.5278 32.9604C30.5839 33.0668 30.618 33.1829 30.6282 33.3021C30.6384 33.4214 30.6244 33.5414 30.5871 33.6553C30.5498 33.7693 30.4898 33.875 30.4107 33.9663C29.0892 35.4933 26.4571 35.9566 24.9373 36.0957V53.1842H37.7293V48.3177C37.7293 48.0764 37.8274 47.8451 38.0021 47.6745C38.1768 47.504 38.4137 47.4081 38.6607 47.4081C38.9077 47.4081 39.1446 47.504 39.3193 47.6745C39.494 47.8451 39.5921 48.0764 39.5921 48.3177V53.1842H46.1371V44.2408C46.1417 42.4059 45.5833 40.6118 44.534 39.0896C44.401 38.8886 44.3545 38.6444 44.4046 38.41C44.4547 38.1757 44.5975 37.9701 44.8018 37.8379C45.0062 37.7057 45.2557 37.6574 45.4962 37.7037C45.7367 37.7499 45.9489 37.8869 46.0867 38.0849C47.3401 39.904 48.0065 42.0482 47.9999 44.2408V54.0905C47.9996 54.3317 47.9014 54.5628 47.7268 54.7333C47.5522 54.9039 47.3154 54.9998 47.0685 55.0001ZM10.4184 7.69899C10.2901 7.69908 10.1642 7.73291 10.0539 7.79693C9.94365 7.86095 9.85305 7.95279 9.79165 8.0628C8.4066 10.5528 7.7097 13.4323 7.7097 16.6231V20.4753C7.7097 26.7596 9.59441 29.6412 11.4353 31.6304L11.5449 31.7535L11.3827 31.8048C8.33757 32.754 5.5861 34.3729 3.63345 36.3493C1.39809 38.6178 0.215758 41.3464 0.215758 44.2397V54.0895C0.216048 54.2738 0.291181 54.4506 0.424691 54.581C0.5582 54.7113 0.739195 54.7847 0.928005 54.785H47.0685C47.2573 54.7847 47.4383 54.7113 47.5718 54.581C47.7053 54.4506 47.7804 54.2738 47.7807 54.0895V44.2408C47.787 42.0906 47.1336 39.9879 45.9048 38.2037V38.2037C45.8531 38.1275 45.7866 38.062 45.709 38.011C45.6315 37.9599 45.5444 37.9243 45.4527 37.9061C45.361 37.8879 45.2665 37.8875 45.1747 37.905C45.0829 37.9224 44.9955 37.9574 44.9175 38.0078C44.8395 38.0583 44.7725 38.1232 44.7202 38.199C44.6679 38.2747 44.6314 38.3598 44.6128 38.4493C44.5941 38.5389 44.5938 38.6311 44.6116 38.7208C44.6295 38.8104 44.6653 38.8958 44.717 38.9719C45.7918 40.5284 46.3643 42.3636 46.3606 44.2408V53.395H39.3729V48.3145C39.3729 48.13 39.2979 47.9531 39.1643 47.8226C39.0307 47.6922 38.8496 47.6189 38.6607 47.6189C38.4718 47.6189 38.2906 47.6922 38.157 47.8226C38.0235 47.9531 37.9484 48.13 37.9484 48.3145V53.395H24.7127V35.8967L24.8124 35.8881C26.2807 35.7629 28.9369 35.3274 30.2375 33.8251C30.3585 33.684 30.4173 33.502 30.4012 33.3187C30.385 33.1354 30.2951 32.9659 30.1512 32.8471C30.0073 32.7284 29.8211 32.6702 29.6334 32.6852C29.4456 32.7002 29.2716 32.7873 29.1494 32.9273C28.4646 33.7181 26.8483 34.3023 24.8321 34.4917L24.7127 34.5024V30.7444H25.609C28.14 30.7416 30.5664 29.7585 32.3561 28.0109C34.1457 26.2632 35.1524 23.8938 35.1553 21.4222V17.9703C35.1553 17.8258 35.1477 17.6728 35.1345 17.5016L35.1246 17.3861H38.8678V20.4763C38.8678 26.4172 37.2351 29.1436 34.602 31.6047C34.51 31.6909 34.4434 31.7996 34.4091 31.9194C34.3748 32.0393 34.3741 32.1659 34.407 32.2862C34.4399 32.4064 34.5053 32.5158 34.5962 32.603C34.6872 32.6902 34.8004 32.7519 34.9241 32.7818C37.635 33.4356 40.3273 34.7453 42.3107 36.375C42.3817 36.4369 42.4648 36.4843 42.555 36.5143C42.6451 36.5443 42.7405 36.5564 42.8356 36.5498C42.9306 36.5432 43.0233 36.518 43.1081 36.4758C43.193 36.4336 43.2684 36.3752 43.3297 36.304C43.3911 36.2329 43.4372 36.1504 43.4654 36.0615C43.4935 35.9727 43.5031 35.8792 43.4936 35.7867C43.4841 35.6941 43.4557 35.6043 43.41 35.5227C43.3644 35.4411 43.3024 35.3692 43.2278 35.3113C41.4242 33.8283 39.0738 32.5838 36.6105 31.8059L36.4494 31.7545L36.559 31.6326C38.4032 29.6412 40.2846 26.7585 40.2846 20.4742V16.622C40.2846 11.7266 38.6289 7.55881 35.4961 4.56912C32.5551 1.76134 28.469 0.215134 23.9906 0.215134C19.361 0.215134 15.1806 1.85336 12.2166 4.82914C12.0848 4.96139 12.0122 5.13935 12.0148 5.32386C12.0173 5.50838 12.0949 5.68434 12.2303 5.81304C12.3657 5.94174 12.5479 6.01264 12.7369 6.01013C12.9258 6.00762 13.106 5.93191 13.2378 5.79967C15.9312 3.09461 19.75 1.60618 23.9906 1.60618C28.1545 1.60618 31.7848 2.98012 34.4825 5.58031C37.1803 8.18051 38.6804 11.7373 38.8426 15.8848V15.9918H35.1553V14.4188C35.1553 13.2568 34.5527 12.7763 33.5807 12.3783L33.4547 12.3258L34.1122 11.4313C34.2141 11.2812 34.2526 11.0983 34.2194 10.9211C34.1863 10.7439 34.0841 10.5861 33.9344 10.4809C33.7847 10.3756 33.599 10.3311 33.4164 10.3567C33.2338 10.3823 33.0684 10.476 32.955 10.6181L32.0664 11.8261L31.9908 11.8037C31.0701 11.5387 30.1312 11.3385 29.1812 11.2044L29.0716 11.1884L29.3839 9.63576C29.4021 9.54615 29.4018 9.45389 29.383 9.3644C29.3642 9.27492 29.3272 9.19001 29.2744 9.11465C29.1961 9.00013 29.0847 8.9109 28.9544 8.85832C28.8241 8.80575 28.6807 8.79219 28.5425 8.81937C28.4042 8.84655 28.2774 8.91324 28.1781 9.01097C28.0788 9.1087 28.0114 9.23307 27.9846 9.36825L27.6559 11.0182L27.5573 11.0097C26.6807 10.9262 25.757 10.8749 24.8234 10.8567H24.7138V9.12642C24.7138 8.94196 24.6387 8.76505 24.5052 8.63461C24.3716 8.50417 24.1904 8.4309 24.0015 8.4309C23.8126 8.4309 23.6315 8.50417 23.4979 8.63461C23.3643 8.76505 23.2893 8.94196 23.2893 9.12642V10.8545H23.1797C22.245 10.8727 21.3268 10.9252 20.4491 11.0076L20.3494 11.0161L20.0206 9.36611C20.0026 9.27646 19.9667 9.19114 19.915 9.11504C19.8632 9.03893 19.7966 8.97353 19.719 8.92256C19.6414 8.87158 19.5542 8.83604 19.4625 8.81796C19.3708 8.79988 19.2764 8.79961 19.1846 8.81718C19.0927 8.83474 19.0054 8.86979 18.9274 8.92033C18.8495 8.97086 18.7825 9.0359 18.7303 9.11171C18.6781 9.18753 18.6417 9.27263 18.6232 9.36218C18.6047 9.45173 18.6044 9.54397 18.6224 9.63362L18.938 11.1884L18.8284 11.2044C17.9483 11.3281 17.0772 11.5069 16.2205 11.7395L16.146 11.7609L15.1664 10.4308C15.0561 10.2811 14.8894 10.1804 14.703 10.1507C14.5167 10.121 14.3258 10.1648 14.1725 10.2724C14.0194 10.3805 13.9164 10.5435 13.886 10.7255C13.8556 10.9076 13.9003 11.094 14.0103 11.244L14.75 12.2477L14.6185 12.298C13.6553 12.6704 12.8576 13.0866 12.8576 14.4135V15.9897H9.14077V15.8826C9.24048 13.2204 9.87931 10.8117 11.0397 8.72516C11.0985 8.61924 11.1281 8.50027 11.1257 8.37984C11.1233 8.25942 11.0889 8.14167 11.026 8.03808C10.9631 7.93448 10.8737 7.84859 10.7667 7.78878C10.6596 7.72898 10.5385 7.6973 10.4151 7.69685L10.4184 7.69899ZM23.2882 53.395H9.5988V48.3145C9.5988 48.13 9.52376 47.9531 9.39018 47.8226C9.25661 47.6922 9.07545 47.6189 8.88655 47.6189C8.69765 47.6189 8.51649 47.6922 8.38291 47.8226C8.24934 47.9531 8.1743 48.13 8.1743 48.3145V53.395H1.64354V44.2408C1.64354 37.369 8.82957 33.8058 13.0757 32.7839C13.1994 32.754 13.3126 32.6923 13.4036 32.6051C13.4945 32.518 13.5599 32.4085 13.5928 32.2883C13.6257 32.1681 13.625 32.0414 13.5907 31.9216C13.5564 31.8017 13.4898 31.693 13.3978 31.6069C10.768 29.1458 9.12981 26.4193 9.12981 20.4785V17.3861H12.874L12.8653 17.5016C12.8521 17.66 12.8455 17.813 12.8455 17.9703V21.4222C12.8482 23.8937 13.8546 26.2632 15.6441 28.0108C17.4336 29.7585 19.8599 30.7416 22.3908 30.7444H23.2882V34.5024L23.1677 34.4906C21.1471 34.3023 19.533 33.7181 18.8514 32.9284C18.7913 32.8583 18.7175 32.8006 18.6344 32.7585C18.5512 32.7165 18.4604 32.6909 18.3671 32.6833C18.2739 32.675 18.1799 32.6851 18.0907 32.7128C18.0015 32.7406 17.9189 32.7855 17.8477 32.8449C17.7036 32.9638 17.6136 33.1336 17.5976 33.3172C17.5816 33.5007 17.6408 33.683 17.7622 33.824C19.0585 35.322 21.718 35.7629 23.1874 35.8881L23.2882 35.8967V53.395ZM9.81795 53.181H23.069V36.0925C21.547 35.9534 18.9128 35.49 17.5902 33.962C17.471 33.8239 17.3966 33.6543 17.3765 33.4748C17.3564 33.2952 17.3915 33.1139 17.4773 32.9539C17.5631 32.7939 17.6957 32.6625 17.8583 32.5764C18.0209 32.4903 18.206 32.4534 18.3901 32.4704C18.5122 32.4802 18.6311 32.5136 18.7399 32.5687C18.8486 32.6238 18.945 32.6995 19.0235 32.7914C19.6557 33.5244 21.1646 34.0754 23.0778 34.267V30.9584H22.3995C19.8106 30.9556 17.3285 29.9499 15.4979 28.1621C13.6673 26.3743 12.6378 23.9504 12.6352 21.4222V17.9703C12.6352 17.8462 12.6352 17.7242 12.6461 17.6001H9.35882V20.4763C9.35882 26.3423 10.9663 29.0249 13.56 31.4517C13.6804 31.5649 13.7674 31.7077 13.8118 31.865C13.8563 32.0223 13.8565 32.1885 13.8126 32.3459C13.7687 32.5034 13.6822 32.6464 13.5621 32.76C13.4421 32.8736 13.293 32.9536 13.1304 32.9915C8.94462 33.9984 1.86269 37.5017 1.86269 44.2408V53.181H7.95515V48.3145C7.95515 48.0732 8.05328 47.8419 8.22795 47.6713C8.40262 47.5007 8.63953 47.4049 8.88655 47.4049C9.13357 47.4049 9.37048 47.5007 9.54515 47.6713C9.71982 47.8419 9.81795 48.0732 9.81795 48.3145V53.181ZM25.609 29.3534H22.3908C20.2376 29.3508 18.1734 28.5144 16.651 27.0275C15.1286 25.5407 14.2724 23.5248 14.27 21.4222V20.6261L14.4596 20.8262C14.5177 20.8872 14.5769 20.9482 14.6382 21.0071C15.8524 22.1538 17.4779 22.791 19.167 22.7823H19.2361C21.673 22.7598 22.5814 22.1916 23.4953 21.0798C23.5543 21.0069 23.6294 20.9479 23.7149 20.9071C23.8005 20.8664 23.8943 20.8449 23.9895 20.8444H24.0103C24.1057 20.8444 24.1998 20.8653 24.2858 20.9057C24.3717 20.9461 24.4472 21.0049 24.5067 21.0777C25.4206 22.1905 26.33 22.7598 28.767 22.7823H28.8361C30.5252 22.791 32.1507 22.1538 33.3649 21.0071C33.4251 20.9493 33.4832 20.8894 33.5402 20.8294L33.7308 20.6283V21.4222C33.7285 23.525 32.8721 25.541 31.3494 27.0279C29.8268 28.5148 27.7624 29.3511 25.609 29.3534V29.3534ZM14.4892 21.1697V21.4276C14.4915 23.4734 15.3247 25.4348 16.806 26.8815C18.2873 28.3283 20.2957 29.1422 22.3908 29.1447H25.609C27.7052 29.1424 29.7147 28.3279 31.1964 26.88C32.6781 25.4321 33.5108 23.4692 33.5117 21.4222V21.1697C32.2564 22.3504 30.579 23.0065 28.8361 22.9984H28.7648C26.2446 22.9749 25.2923 22.3799 24.3357 21.2146C24.2965 21.1663 24.2465 21.1273 24.1896 21.1006C24.1326 21.0739 24.0702 21.0602 24.007 21.0606H23.9884C23.925 21.0604 23.8624 21.0744 23.8055 21.1015C23.7485 21.1285 23.6986 21.168 23.6597 21.2168C22.7031 22.3799 21.7563 22.9759 19.2317 22.9984H19.1604C17.4189 23.0064 15.7428 22.3503 14.4892 21.1697V21.1697ZM19.167 21.3966C17.8528 21.4062 16.5868 20.9135 15.6397 20.0237C14.8896 19.2944 14.4198 18.3349 14.3095 17.3069C14.3077 17.28 14.3044 17.2532 14.2996 17.2266C14.2821 17.0458 14.2733 16.8724 14.2733 16.7023V14.4188C14.2733 13.9373 14.3446 13.8838 15.5609 13.4387C15.7482 13.3702 15.9509 13.2953 16.169 13.2118C20.1981 11.9203 27.8049 11.9203 31.8286 13.2118C32.0477 13.2974 32.2548 13.3723 32.4422 13.4408C33.6585 13.8849 33.7308 13.9395 33.7308 14.421V16.6969C33.7308 18.0056 33.2575 19.158 32.3633 20.0141C31.416 20.9042 30.1496 21.397 28.835 21.3869H28.7813C26.5733 21.3709 26.1701 20.8819 25.6222 20.2067C25.4291 19.9724 25.1847 19.7834 24.9068 19.6538C24.6289 19.5241 24.3248 19.4571 24.0169 19.4576H23.995C23.6872 19.4573 23.3833 19.5244 23.1056 19.654C22.828 19.7837 22.5837 19.9725 22.3908 20.2067C21.8363 20.8819 21.4353 21.3698 19.2273 21.3901L19.167 21.3966ZM14.4925 14.4242V16.6969C14.4922 16.8628 14.5007 17.0285 14.5177 17.1934C14.5225 17.2229 14.5258 17.2525 14.5275 17.2823C14.6333 18.2602 15.0806 19.1727 15.7943 19.8664C16.7001 20.7167 17.9106 21.1872 19.167 21.1772H19.2196C21.3246 21.1579 21.6971 20.7032 22.2143 20.074C22.4272 19.8138 22.6972 19.6036 23.0045 19.4592C23.3118 19.3147 23.6484 19.2396 23.9895 19.2394H24.0114C24.3524 19.2393 24.6891 19.3141 24.9965 19.4582C25.304 19.6023 25.5744 19.812 25.7876 20.0718C26.3048 20.7021 26.6796 21.1579 28.7824 21.1772H28.835C30.0917 21.1873 31.3027 20.7169 32.2088 19.8664C33.0613 19.0425 33.5117 17.9468 33.5117 16.6969V14.4188C33.5117 14.0711 33.5117 14.0572 32.3655 13.6388C32.1781 13.5703 31.9743 13.4954 31.7541 13.4119C27.7721 12.1354 20.231 12.1354 16.2435 13.4119C16.0298 13.4943 15.826 13.5692 15.6376 13.6377C14.4925 14.0561 14.4925 14.0657 14.4925 14.4178V14.4242Z" fill="#0D6E74"/>
</g>
<defs>
<clipPath id="clip0_212_39">
<rect width="48" height="55" fill="white"/>
</clipPath>
</defs>
</svg>
