<?xml version="1.0" encoding="utf-8"?>
<!-- Generator: Adobe Illustrator 24.0.2, SVG Export Plug-In . SVG Version: 6.00 Build 0)  -->
<svg version="1.1" id="圖層_1" xmlns="http://www.w3.org/2000/svg" xmlns:xlink="http://www.w3.org/1999/xlink" x="0px" y="0px"
	 viewBox="0 0 95 52.9" style="enable-background:new 0 0 95 52.9;" xml:space="preserve">
<style type="text/css">
	.st0{fill:#1075C2;}
</style>
<g>
	<path class="st0" d="M48.6,24.2h-2.3c-0.8,0-1.5-0.3-2-0.9c-0.5-0.6-0.8-1.4-0.7-2.1c0.1-1.4,1.4-2.5,2.9-2.5h2.7
		c0.9,0,1.6,0.6,1.8,1.5c0.1,0.4,0.4,0.6,0.8,0.6h3c0.2,0,0.5-0.1,0.6-0.3c0.2-0.2,0.2-0.4,0.2-0.6c-0.3-3.1-2.8-5.5-5.9-5.8v-2.8
		c0-0.5-0.4-0.8-0.8-0.8h-3c-0.5,0-0.8,0.4-0.8,0.8v2.8c-3.9,0.6-6.6,4.1-6.2,8.1c0.4,3.8,3.8,6.7,7.7,6.7h2c0.8,0,1.5,0.3,2,0.9
		c0.5,0.6,0.8,1.4,0.7,2.1c-0.1,1.4-1.4,2.5-2.9,2.5h-2.7c-0.9,0-1.6-0.6-1.8-1.5c-0.1-0.4-0.4-0.6-0.8-0.6h-3
		c-0.2,0-0.5,0.1-0.6,0.3c-0.2,0.2-0.2,0.4-0.2,0.6c0.3,3.1,2.8,5.5,5.9,5.8v2.8c0,0.5,0.4,0.8,0.8,0.8h3c0.5,0,0.8-0.4,0.8-0.8
		v-2.9c3.4-0.7,5.9-3.3,6.2-6.6c0.2-2.1-0.5-4.2-1.9-5.7C52.8,25,50.8,24.2,48.6,24.2z"/>
	<path class="st0" d="M94.4,40.9l-7.6-7.6c-1-1-2.5-1-3.5,0s-1,2.5,0,3.5l3.3,3.3H70.1c2.4-4,3.8-8.7,3.8-13.7
		C73.9,11.8,62,0,47.5,0c-7.3,0-13.9,3-18.7,7.8H8.5l3.3-3.3c1-1,1-2.5,0-3.5S9.3,0,8.3,1L0.8,8.6c-1,1-1,2.5,0,3.5l7.6,7.6
		c0.5,0.5,1.1,0.7,1.8,0.7s1.3-0.2,1.8-0.7c1-1,1-2.5,0-3.5l-3.4-3.4H25c-2.4,4-3.8,8.7-3.8,13.7c0,14.6,11.8,26.4,26.4,26.4
		c7.3,0,13.9-3,18.7-7.8h20.2l-3.3,3.3c-1,1-1,2.5,0,3.5c0.5,0.5,1.1,0.7,1.8,0.7s1.3-0.2,1.8-0.7l7.6-7.6
		C95.2,43.4,95.2,41.8,94.4,40.9z M47.5,47.9c-11.8,0-21.4-9.6-21.4-21.4S35.8,5.1,47.5,5.1S69,14.7,69,26.5S59.3,47.9,47.5,47.9z"
		/>
</g>
</svg>
