<?xml version="1.0" encoding="utf-8"?>
<!-- Generator: Adobe Illustrator 24.0.2, SVG Export Plug-In . SVG Version: 6.00 Build 0)  -->
<svg version="1.1" id="圖層_1" xmlns="http://www.w3.org/2000/svg" xmlns:xlink="http://www.w3.org/1999/xlink" x="0px" y="0px"
	 viewBox="0 0 65.5 65.5" style="enable-background:new 0 0 65.5 65.5;" xml:space="preserve">
<style type="text/css">
	.st0{fill:#1075C2;}
</style>
<g>
	<g>
		<path class="st0" d="M16.1,0.5C16.1,0.5,16.1,0.5,16.1,0.5c-0.1,0-0.1,0-0.2,0c0,0-0.1,0-0.1,0c0,0,0,0-0.1,0c0,0-0.1,0-0.1,0
			c0,0-0.1,0-0.1,0c0,0,0,0-0.1,0c0,0-0.1,0-0.1,0.1c0,0-0.1,0-0.1,0.1c0,0,0,0,0,0c0,0-0.1,0-0.1,0.1c0,0-0.1,0-0.1,0.1
			c0,0,0,0,0,0c0,0-0.1,0.1-0.1,0.1c0,0-0.1,0.1-0.1,0.1L1.1,14.8c-0.1,0.1-0.3,0.3-0.4,0.5c0,0,0,0,0,0c-0.2,0.3-0.2,0.7-0.2,1V63
			c0,1.1,0.9,2,2,2h44.4c1.1,0,2-0.9,2-2c0,0,0,0,0,0V44.4l15.5-15.5c0.8-0.8,0.8-2.1,0-2.9c0,0,0,0,0,0l-6.1-6.1
			c-0.4-0.4-0.9-0.6-1.5-0.6c-0.5,0-1,0.2-1.4,0.6l-6.6,6.6v-24c0-1.1-0.9-2-2-2H16.1C16.2,0.5,16.2,0.5,16.1,0.5
			C16.2,0.5,16.2,0.5,16.1,0.5z M18.2,4.5h26.6v26.1v0l-15,15c-0.4,0.4-0.6,0.9-0.6,1.5l0.2,5.9c0,0.8,0.6,1.6,1.3,1.8c0,0,0,0,0,0
			c0.1,0,0.2,0.1,0.4,0.1c0,0,0,0,0,0c0.1,0,0.1,0,0.2,0c0,0,0,0,0,0c0,0,0,0,0,0l5.9,0.2c0.6,0,1.1-0.2,1.5-0.6l6.1-6.1V61H4.5
			V18.2h11.7c1.1,0,2-0.9,2-2c0,0,0,0,0,0V4.5z M14.2,7.4v6.8H7.4L14.2,7.4z M56.9,24.2l3.2,3.2l-2.4,2.4l-3.2-3.2L56.9,24.2z
			 M13.4,24.2c-1.1,0-2,0.9-2.1,2c0,1.1,0.9,2,2,2.1c0,0,0.1,0,0.1,0H36c1.1,0,2-0.9,2.1-2c0-1.1-0.9-2-2-2.1c0,0-0.1,0-0.1,0H13.4z
			 M51.7,29.5l3.2,3.2l-9.4,9.4L36.5,51l-3.1-0.1l-0.1-3.1l15-15L51.7,29.5z M13.2,37.6c-1.1,0.1-2,1-1.9,2.1c0.1,1.1,1,2,2.1,1.9
			h12c1.1,0,2-0.9,2-2c0-1.1-0.9-2-2-2c0,0,0,0,0,0h-12C13.3,37.6,13.2,37.6,13.2,37.6z M13.4,50.9c-1.1,0-2,0.9-2.1,2
			c0,1.1,0.9,2,2,2.1c0,0,0.1,0,0.1,0h6.8c1.1,0,2-0.9,2.1-2c0-1.1-0.9-2-2-2.1c0,0-0.1,0-0.1,0H13.4z"/>
		<path class="st0" d="M46.9,65.5C46.9,65.5,46.9,65.5,46.9,65.5H2.5C1.1,65.5,0,64.4,0,63V16.3c0-0.4,0.1-0.8,0.2-1.2v0L0.3,15
			c0.1-0.2,0.3-0.4,0.4-0.6L14.5,0.6c0.1-0.1,0.1-0.1,0.2-0.1l0.1-0.1c0,0,0.1-0.1,0.1-0.1l0.2-0.1c0,0,0.1,0,0.2-0.1L16.2,0h30.7
			c1.4,0,2.5,1.1,2.5,2.5v22.8l5.8-5.8c0.5-0.5,1.1-0.7,1.7-0.7c0.7,0,1.3,0.3,1.8,0.7l6.1,6.1c0.5,0.5,0.7,1.1,0.7,1.8
			c0,0.7-0.3,1.3-0.7,1.8L49.4,44.6V63c0,0.7-0.3,1.3-0.7,1.8C48.2,65.3,47.5,65.5,46.9,65.5z M1.2,15.5L1.2,15.5
			C1,15.7,1,16,1,16.3L1,63c0,0.8,0.7,1.5,1.5,1.5h44.3c0.4,0,0.8-0.2,1.1-0.4c0.3-0.3,0.4-0.7,0.4-1.1V44.2l15.7-15.7
			c0.3-0.3,0.4-0.7,0.4-1.1c0-0.4-0.1-0.8-0.4-1l0,0L58,20.3c-0.3-0.3-0.7-0.4-1.1-0.4c0,0,0,0,0,0c-0.4,0-0.8,0.2-1.1,0.4l-7.5,7.5
			V2.5c0-0.8-0.7-1.5-1.5-1.5H16.2l-0.1-0.5l0,0.5l-0.2,0l-0.3-0.5l0.1,0.5l-0.5,0.3c0,0,0,0-0.1,0.1L1.4,15.1
			C1.3,15.2,1.3,15.3,1.2,15.5z M45.4,61.5H4V17.7h12.2c0.4,0,0.8-0.2,1.1-0.4c0.3-0.3,0.4-0.7,0.4-1.1V4h27.6v26.8L45.2,31l-15,15
			c-0.3,0.3-0.4,0.7-0.4,1.1l0.2,5.9c0,0.6,0.4,1.2,1,1.4c0.1,0,0.2,0.1,0.3,0.1c0.1,0,0.1,0,0.1,0l5.9,0.2c0.4,0,0.8-0.1,1.1-0.4
			l6.9-6.9V61.5z M5,60.5h39.3V49.6l-5.2,5.2c-0.5,0.5-1.1,0.8-1.9,0.7l-5.9-0.2c-0.1,0-0.2,0-0.3,0c-0.2,0-0.3-0.1-0.5-0.1
			c-1-0.4-1.7-1.2-1.7-2.3l-0.2-5.9c0-0.7,0.2-1.4,0.7-1.9l14.9-14.9V5H18.7v11.2c0,0.7-0.3,1.3-0.7,1.8c-0.5,0.5-1.1,0.7-1.8,0.7
			c0,0,0,0,0,0H5V60.5z M20.2,55.4C20.2,55.4,20.1,55.4,20.2,55.4l-6.9,0c-1.4,0-2.5-1.2-2.5-2.6c0-0.7,0.3-1.3,0.8-1.8
			c0.5-0.5,1.1-0.7,1.8-0.7l6.9,0c1.4,0,2.5,1.2,2.5,2.6c0,0.7-0.3,1.3-0.8,1.8C21.4,55.2,20.8,55.4,20.2,55.4z M20.1,54.4
			c0.4,0,0.8-0.1,1.1-0.4c0.3-0.3,0.5-0.7,0.5-1.1c0-0.8-0.6-1.5-1.5-1.5h-6.8c-0.4,0-0.8,0.1-1.1,0.4c-0.3,0.3-0.5,0.7-0.5,1.1
			c0,0.8,0.6,1.5,1.5,1.6H20.1z M36.7,51.6l-3.8-0.1l-0.1-3.8l18.9-18.9l3.9,3.9L36.7,51.6z M33.9,50.5l2.4,0.1l17.8-17.9l-2.5-2.5
			L33.8,48L33.9,50.5z M13.3,42.1c-1.3,0-2.4-1.1-2.5-2.4c0-0.7,0.2-1.3,0.6-1.8c0.5-0.5,1.1-0.8,1.7-0.8h0c0.1,0,0.2,0,0.2,0l12,0
			c0.7,0,1.3,0.3,1.8,0.7c0.5,0.5,0.7,1.1,0.7,1.8c0,0.7-0.3,1.3-0.7,1.8c-0.5,0.5-1.1,0.7-1.8,0.7c0,0,0,0,0,0h-12
			C13.3,42.1,13.3,42.1,13.3,42.1z M13.2,38.1c-0.4,0-0.8,0.2-1.1,0.5s-0.4,0.7-0.4,1.1c0,0.8,0.8,1.5,1.6,1.4l12.1,0c0,0,0,0,0,0
			c0.4,0,0.8-0.2,1.1-0.4c0.3-0.3,0.4-0.7,0.4-1.1c0-0.4-0.2-0.8-0.4-1.1s-0.7-0.4-1.1-0.4h-12C13.3,38.1,13.3,38.1,13.2,38.1
			L13.2,38.1z M57.7,30.5l-3.9-3.9l3.1-3.1l3.9,3.9L57.7,30.5z M55.2,26.6l2.5,2.5l1.7-1.7l-2.5-2.5L55.2,26.6z M36.1,28.8
			C36,28.8,36,28.8,36.1,28.8l-22.8,0c-0.7,0-1.3-0.3-1.8-0.8c-0.5-0.5-0.7-1.1-0.7-1.8c0-0.7,0.3-1.3,0.8-1.8
			c0.5-0.5,1.1-0.7,1.8-0.7l22.7,0c1.4,0,2.5,1.2,2.5,2.6C38.5,27.7,37.4,28.8,36.1,28.8z M36,27.8c0.8,0.1,1.5-0.6,1.6-1.5
			c0-0.8-0.6-1.5-1.5-1.5H13.4c-0.4,0-0.8,0.1-1.1,0.4c-0.3,0.3-0.5,0.7-0.5,1.1c0,0.4,0.1,0.8,0.4,1.1c0.3,0.3,0.7,0.5,1.1,0.5H36z
			 M14.7,14.7H6.2l8.5-8.5V14.7z M8.6,13.7h5.1V8.6L8.6,13.7z"/>
	</g>
</g>
</svg>
